<svg width="22" height="14" viewBox="0 0 22 14" fill="none" xmlns="http://www.w3.org/2000/svg">
<path d="M1 6.1C0.502944 6.1 0.1 6.50294 0.1 7C0.1 7.49706 0.502944 7.9 1 7.9L1 6.1ZM21.6364 7.63639C21.9879 7.28492 21.9879 6.71507 21.6364 6.3636L15.9088 0.636037C15.5574 0.284565 14.9875 0.284565 14.636 0.636037C14.2846 0.987509 14.2846 1.55736 14.636 1.90883L19.7272 7L14.636 12.0912C14.2846 12.4426 14.2846 13.0125 14.636 13.364C14.9875 13.7154 15.5574 13.7154 15.9088 13.364L21.6364 7.63639ZM1 7.9L21 7.9L21 6.1L1 6.1L1 7.9Z" fill="white"/>
</svg>
