<svg width="15" height="15" viewBox="0 0 15 15" fill="none" xmlns="http://www.w3.org/2000/svg">
<path d="M0.239756 6.91716L5.65679 1.50001C5.81142 1.34538 6.01751 1.2605 6.23727 1.2605C6.45727 1.2605 6.66324 1.3455 6.81787 1.50001L7.3097 1.99196C7.46421 2.14634 7.54933 2.35256 7.54933 2.57244C7.54933 2.79219 7.46421 3.00536 7.3097 3.15975L4.14948 6.32692H14.1896C14.6423 6.32692 15 6.68131 15 7.13411V7.82959C15 8.28239 14.6423 8.67251 14.1896 8.67251H4.11363L7.30958 11.8574C7.46409 12.012 7.54921 12.2126 7.54921 12.4325C7.54921 12.6521 7.46409 12.8556 7.30958 13.0102L6.81775 13.5005C6.66312 13.6552 6.45714 13.7394 6.23715 13.7394C6.01739 13.7394 5.8113 13.6541 5.65666 13.4994L0.239635 8.08239C0.0846357 7.92727 -0.000607491 7.7202 2.86102e-06 7.50008C-0.00048542 7.27923 0.0846357 7.07204 0.239756 6.91716Z" fill="white"/>
</svg>
