<svg width="35" height="35" viewBox="0 0 35 35" fill="none" xmlns="http://www.w3.org/2000/svg">
<g style="mix-blend-mode:multiply">
<rect width="35" height="35" rx="17.5" fill="black" fill-opacity="0.8"/>
</g>
<path d="M10.2398 16.9172L15.6568 11.5C15.8114 11.3454 16.0175 11.2605 16.2373 11.2605C16.4573 11.2605 16.6632 11.3455 16.8179 11.5L17.3097 11.992C17.4642 12.1463 17.5493 12.3526 17.5493 12.5724C17.5493 12.7922 17.4642 13.0054 17.3097 13.1598L14.1495 16.3269H24.1896C24.6423 16.3269 25 16.6813 25 17.1341V17.8296C25 18.2824 24.6423 18.6725 24.1896 18.6725H14.1136L17.3096 21.8574C17.4641 22.012 17.5492 22.2126 17.5492 22.4325C17.5492 22.6521 17.4641 22.8556 17.3096 23.0102L16.8178 23.5005C16.6631 23.6552 16.4571 23.7394 16.2371 23.7394C16.0174 23.7394 15.8113 23.6541 15.6567 23.4994L10.2396 18.0824C10.0846 17.9273 9.99939 17.7202 10 17.5001C9.99951 17.2792 10.0846 17.072 10.2398 16.9172Z" fill="white"/>
</svg>
