<svg width="45" height="45" viewBox="0 0 45 45" fill="none" xmlns="http://www.w3.org/2000/svg">
<g style="mix-blend-mode:multiply">
<rect width="45" height="45" rx="22.5" fill="#070A13" fill-opacity="0.65"/>
</g>
<path d="M24.975 22.5005L29.6154 17.86C30.1281 17.3473 30.1281 16.5161 29.6154 16.0041L28.9968 15.3855C28.4839 14.8726 27.6527 14.8726 27.1407 15.3855L22.5005 20.0258L17.86 15.3845C17.3473 14.8718 16.5161 14.8718 16.0041 15.3845L15.3845 16.0032C14.8718 16.5161 14.8718 17.3473 15.3845 17.8592L20.0258 22.5005L15.3855 27.1407C14.8726 27.6536 14.8726 28.4849 15.3855 28.9968L16.0041 29.6154C16.5169 30.1281 17.3481 30.1281 17.86 29.6154L22.5005 24.975L27.1407 29.6154C27.6536 30.1281 28.4849 30.1281 28.9968 29.6154L29.6154 28.9968C30.1281 28.4839 30.1281 27.6527 29.6154 27.1407L24.975 22.5005Z" fill="#FF4848"/>
</svg>
