<svg width="40" height="40" viewBox="0 0 40 40" fill="none" xmlns="http://www.w3.org/2000/svg">
<circle cx="20" cy="20" r="20" fill="#14142B"/>
<g clip-path="url(#clip0)">
<path d="M17.6762 25.5671C18.0798 25.4102 18.5345 25.1654 19.0426 24.8217C18.8795 24.2626 18.5782 23.7358 18.1381 23.2958C17.5658 22.7234 16.8338 22.3693 16.0428 22.2729C15.7043 22.9077 15.5004 23.4529 15.4121 23.9137C16.3774 24.1239 17.194 24.7368 17.6762 25.5671Z" fill="white"/>
<path d="M14.6918 29.9991C16.1716 29.9891 17.3682 28.7868 17.3682 27.3046C17.3682 25.8163 16.1617 24.6097 14.6733 24.6097C13.1916 24.6097 11.9886 25.8121 11.9779 27.2913C11.9779 27.2906 11.9779 27.2899 11.9779 27.2899C11.9779 27.2899 11.9779 27.2904 11.9779 27.2917C11.9779 27.9057 11.1671 29.9995 10 29.9995H14.6918V29.9991Z" fill="white"/>
<path d="M28.9161 11.0677L28.9161 11.0678L28.9085 11.0609L28.9086 11.0608C28.3104 10.5149 23.2149 13.6544 19.3404 17.8794C18.0427 19.308 17.1015 20.5279 16.4609 21.5533C17.2988 21.7197 18.0692 22.1293 18.6869 22.747C19.1532 23.2133 19.4913 23.7599 19.7019 24.3425C20.6425 23.6152 21.7384 22.5905 22.9976 21.2174C26.8521 16.9741 29.5144 11.6137 28.9161 11.0677Z" fill="white"/>
</g>
<defs>
<clipPath id="clip0">
<rect width="19" height="19" fill="white" transform="translate(10 11)"/>
</clipPath>
</defs>
</svg>
