<svg width="69" height="69" viewBox="0 0 69 69" fill="none" xmlns="http://www.w3.org/2000/svg">
<g clip-path="url(#clip0)">
<path d="M63.5262 9.78104C59.9544 5.90705 55.0533 3.77344 49.7248 3.77344C45.7419 3.77344 42.0943 5.03265 38.883 7.51582C37.2627 8.76924 35.7945 10.3027 34.5 12.0926C33.206 10.3033 31.7373 8.76924 30.1164 7.51582C26.9057 5.03265 23.2581 3.77344 19.2752 3.77344C13.9467 3.77344 9.04509 5.90705 5.47327 9.78104C1.9441 13.6097 0 18.8403 0 24.51C0 30.3454 2.17467 35.6871 6.84357 41.3209C11.0202 46.3604 17.0231 51.4763 23.9746 57.4002C26.3483 59.4232 29.0388 61.7163 31.8326 64.159C32.5706 64.8054 33.5177 65.1613 34.5 65.1613C35.4818 65.1613 36.4294 64.8054 37.1664 64.16C39.9601 61.7169 42.6523 59.4227 45.027 57.3986C51.9774 51.4757 57.9803 46.3604 62.157 41.3204C66.8259 35.6871 69 30.3454 69 24.5094C69 18.8403 67.0559 13.6097 63.5262 9.78104Z" fill="#0052FF"/>
</g>
<defs>
<clipPath id="clip0">
<rect width="69" height="69" fill="white"/>
</clipPath>
</defs>
</svg>
