<svg width="45" height="45" viewBox="0 0 45 45" fill="none" xmlns="http://www.w3.org/2000/svg">
<g style="mix-blend-mode:multiply">
<rect width="45" height="45" rx="22.5" fill="#070A13" fill-opacity="0.65"/>
</g>
<path d="M20.5558 18.7782C18.7883 20.6068 19.174 23.6416 21.1986 24.986C21.2653 25.0303 21.3541 25.0215 21.4114 24.9655C21.8376 24.549 22.1982 24.1456 22.5139 23.6326C22.5622 23.5541 22.5322 23.4523 22.4511 23.4083C22.1423 23.241 21.835 22.9273 21.662 22.596L21.6618 22.5961C21.4546 22.1835 21.3841 21.7209 21.4938 21.2432C21.4939 21.2432 21.494 21.2433 21.4941 21.2433C21.6204 20.6317 22.2769 20.0628 22.7784 19.5366C22.7773 19.5363 22.7763 19.5359 22.7753 19.5356L24.6541 17.6179C25.4029 16.8537 26.6345 16.8474 27.391 17.6039C28.1552 18.3527 28.1678 19.5905 27.4191 20.3547L26.281 21.5249C26.2284 21.5791 26.2113 21.6581 26.2359 21.7296C26.498 22.4894 26.5624 23.5608 26.3868 24.3703C26.3819 24.393 26.4098 24.4078 26.4261 24.3913L28.8482 21.9191C30.3955 20.3399 30.3823 17.7687 28.819 16.2054C27.2236 14.61 24.6263 14.6232 23.0472 16.2348L20.5655 18.7678C20.5622 18.7712 20.5591 18.7748 20.5558 18.7782Z" fill="white"/>
<path d="M25.0837 25.3338C25.0837 25.3339 25.0836 25.334 25.0836 25.3341C25.0852 25.3334 25.0866 25.3328 25.0882 25.3321C25.5825 24.4282 25.6798 23.3916 25.4481 22.381L25.4471 22.3821L25.4459 22.3816C25.2259 21.4815 24.6224 20.5877 23.8026 20.0374C23.7321 19.9901 23.6195 19.9956 23.5534 20.049C23.1382 20.3847 22.7318 20.8153 22.4636 21.3647C22.4215 21.4509 22.453 21.5545 22.536 21.6027C22.8472 21.7834 23.1283 22.048 23.3165 22.3992L23.3168 22.399C23.4635 22.6471 23.608 23.1179 23.5144 23.6237C23.5143 23.6237 23.5142 23.6237 23.5142 23.6237C23.4268 24.2944 22.7496 24.9095 22.2112 25.4638L22.2115 25.4641C21.8017 25.8832 20.7599 26.9452 20.3428 27.3713C19.5941 28.1355 18.3562 28.1481 17.5921 27.3994C16.8279 26.6507 16.8153 25.4129 17.564 24.6487L18.7054 23.4749C18.7571 23.4217 18.7747 23.3444 18.7517 23.2738C18.4983 22.4962 18.4288 21.4489 18.5888 20.6404C18.5933 20.6178 18.5655 20.6034 18.5495 20.6198L16.1638 23.0548C14.6006 24.6502 14.6139 27.2478 16.1933 28.8271C17.7886 30.3902 20.3728 30.3638 21.9359 28.7685C22.4789 28.1611 24.8034 26.0089 25.0837 25.3338Z" fill="white"/>
</svg>
