<svg width="162" height="155" viewBox="0 0 162 155" fill="none" xmlns="http://www.w3.org/2000/svg">
<rect width="162" height="155" fill="#14142B"/>
<mask id="mask0" mask-type="alpha" maskUnits="userSpaceOnUse" x="0" y="0" width="162" height="155">
<rect width="162" height="155" fill="#C4C4C4"/>
</mask>
<g mask="url(#mask0)">
<path d="M108.132 95.9848C111.583 90.8409 113.6 84.6542 113.6 78.0001V67.25C113.6 49.4641 99.203 35 81.4999 35C63.7967 35 49.3999 49.4641 49.3999 67.25V78.0001C49.3999 84.6544 51.4169 90.8409 54.8677 95.9848C38.839 105.273 28 122.612 28 142.5V147.875C28 156.765 35.2012 164 44.05 164H118.95C127.799 164 135 156.765 135 147.875V142.5C135 122.612 124.161 105.273 108.132 95.9848ZM60.1 67.25C60.1 55.3928 69.6979 45.7501 81.4999 45.7501C93.3019 45.7501 102.9 55.3928 102.9 67.25V78.0001C102.9 89.8573 93.3019 99.5 81.4999 99.5C69.6979 99.5 60.1 89.8573 60.1 78.0001V67.25ZM124.3 147.875C124.3 150.837 121.898 153.25 118.95 153.25H44.05C41.1021 153.25 38.7001 150.836 38.7001 147.875V142.5C38.7001 125.628 48.4264 111.003 62.5396 103.967C67.8629 107.896 74.4058 110.25 81.4999 110.25C88.594 110.25 95.1371 107.896 100.46 103.967C114.573 111.002 124.3 125.628 124.3 142.5V147.875H124.3Z" fill="#585880"/>
</g>
</svg>
