<svg width="20" height="25" fill="none" xmlns="http://www.w3.org/2000/svg"><path d="M19.511 17.323a.473.473 0 00-.462.484v3.95c0 1.133-.88 2.056-1.962 2.056h-14.2c-1.083 0-1.963-.923-1.963-2.056V9.764c0-1.134.88-2.057 1.963-2.057h5.265l.347 6.488H6.073v-2.7c0-.8-.622-1.452-1.386-1.452-.37 0-.719.15-.98.425a1.477 1.477 0 00-.407 1.027v8.532c0 .8.622 1.453 1.387 1.453.756 0 1.386-.661 1.386-1.453v-2.926h2.511v2.926c0 .8.622 1.453 1.387 1.453.756 0 1.387-.662 1.387-1.453v-2.926h2.51v2.926c0 .8.623 1.453 1.387 1.453.756 0 1.387-.662 1.387-1.453v-8.531c0-.802-.622-1.453-1.387-1.453-.37 0-.72.151-.98.425a1.477 1.477 0 00-.407 1.027v2.7h-2.421l.362-6.488h5.28c1.08.001 1.96.924 1.96 2.057v3.783c0 .268.207.484.462.484a.473.473 0 00.462-.484V9.765c0-1.666-1.293-3.023-2.883-3.025h-5.227l.065-1.16c.34-.399.546-.925.546-1.5V2.26c0-1.246-.968-2.26-2.158-2.26h-.66C8.468 0 7.5 1.014 7.5 2.26v1.82c0 .57.204 1.092.538 1.49L8.1 6.74H2.887C1.295 6.74 0 8.097 0 9.765v11.991c0 1.668 1.295 3.025 2.887 3.025h14.2c1.591 0 2.886-1.357 2.886-3.024v-3.95a.473.473 0 00-.462-.484zM9.124 6.27c.388.103.807.074 1.205.07.215-.002.43-.036.636-.104l-.47 8.413c-.02.332-.036.664-.055.995a1.83 1.83 0 01-.024.238.454.454 0 01-.445.38.456.456 0 01-.339-.155c-.099-.112-.118-.239-.126-.384l-.057-1.07v-.004l-.195-3.641-.204-3.811-.052-.964c.042.014.084.026.126.037zM5.61 16.134a.473.473 0 00-.462.484v3.41c0 .264-.21.485-.462.485a.475.475 0 01-.463-.485v-8.531c0-.13.048-.252.135-.343a.45.45 0 01.328-.142c.255 0 .462.217.462.484v3.184c0 .267.207.484.462.484h2.94l.022.426c.01.182.01.366.054.544H5.61zm4.823 3.894a.48.48 0 01-.463.485.475.475 0 01-.463-.485v-2.882c.297.11.629.11.926 0v2.882zm3.896-4.864a.473.473 0 00.462-.484v-3.184c0-.13.048-.25.136-.343a.448.448 0 01.327-.141c.255 0 .463.217.463.484v8.532c0 .264-.21.485-.463.485a.475.475 0 01-.463-.485v-3.41a.473.473 0 00-.462-.484h-3.015c.042-.17.043-.347.053-.522l.024-.448h2.938zM8.423 2.261c0-.713.554-1.293 1.234-1.293h.66c.68 0 1.233.58 1.233 1.293V4.08c0 .534-.311.994-.754 1.19-.25.117-.518.102-.784.102-.263 0-.528.018-.78-.08a1.293 1.293 0 01-.809-1.212V2.26z" fill="#828282"/><path d="M4.275 9.282c.14.22.43.28.64.134a.504.504 0 00.128-.671.453.453 0 00-.64-.134.503.503 0 00-.128.671zm.562 12.778c-.388-.169-.776.274-.59.665a.46.46 0 00.48.261.477.477 0 00.388-.396.492.492 0 00-.278-.53zM15.735 8.745a.453.453 0 00-.64-.134.503.503 0 00-.128.672c.14.219.431.28.64.133a.504.504 0 00.128-.671zm-.207 13.315c-.388-.169-.777.274-.59.665a.461.461 0 00.481.261.477.477 0 00.387-.396.492.492 0 00-.278-.53zm-5.161.177c-.227-.363-.78-.229-.84.197-.063.437.446.724.76.435a.505.505 0 00.08-.632zm9.624-6.607c-.076-.428-.638-.525-.848-.155a.507.507 0 00.046.565.451.451 0 00.517.134.493.493 0 00.285-.545z" fill="#828282"/></svg>