<svg width="24" height="20" fill="none" xmlns="http://www.w3.org/2000/svg"><path d="M21.94 5.77h-.77a.385.385 0 00-.386.384v3.461h-.77V5.77a1.157 1.157 0 00-1.154-1.154h-2.31V3.077h3.85a.385.385 0 00.384-.385v-.769A1.922 1.922 0 0018.86 0h-7.698a1.925 1.925 0 00-1.925 1.923v.77a.384.384 0 00.385.384h3.85v1.538H10.43a.364.364 0 00-.22.07L6.424 7.308h-2.19a1.159 1.159 0 00-1.155 1.154v5h-.77V10a.384.384 0 00-.385-.385h-.77A1.159 1.159 0 000 10.77v7.693a1.157 1.157 0 001.155 1.153h.77a.385.385 0 00.384-.384V15.77h.77v3.077A1.157 1.157 0 004.234 20h10.662a1.158 1.158 0 001.054-.685l1.236-2.777h2.444a.385.385 0 00.385-.384v-4.23h.77v3.46a.384.384 0 00.384.385h.77a1.158 1.158 0 001.155-1.154V6.923a1.157 1.157 0 00-1.155-1.154zM1.54 18.845h-.385a.385.385 0 01-.385-.384v-7.693a.384.384 0 01.385-.384h.385v8.461zM3.08 15h-.77v-.77h.77V15zm6.927-12.692v-.385A1.157 1.157 0 0111.162.77h7.698a1.159 1.159 0 011.155 1.154v.385H10.007zm5.774.769v1.538h-1.54V3.077h1.54zm3.464 12.692h-2.31a.38.38 0 00-.35.227l-1.34 3.008a.385.385 0 01-.35.227H4.235a.385.385 0 01-.385-.385V8.462a.384.384 0 01.385-.385h2.31a.38.38 0 00.219-.07l3.787-2.622h8.31a.385.385 0 01.385.384v10zm1.54-4.615h-.77v-.77h.77v.77zm1.539 3.461a.384.384 0 01-.385.385h-.385V6.538h.385a.385.385 0 01.385.385v7.692z" fill="#828282"/><path d="M9.622 11.152a1.926 1.926 0 00-1.888 2.298 1.923 1.923 0 002.624 1.402 1.925 1.925 0 001.188-1.777 1.924 1.924 0 00-1.924-1.923zm0 3.077a1.155 1.155 0 01-.817-1.97 1.155 1.155 0 11.817 1.97z" fill="#828282"/><path d="M17.367 10.428l-.924-.12.573-.734a.387.387 0 00-.03-.508l-1.04-1.038a.388.388 0 00-.508-.03l-.735.572-.12-.923a.384.384 0 00-.38-.338H12.74a.385.385 0 00-.38.338l-.12.923-.735-.573a.387.387 0 00-.508.03l-.816.82H8.89a.385.385 0 00-.38.339l-.12.923-.735-.573a.387.387 0 00-.508.03l-1.04 1.039a.387.387 0 00-.03.507l.573.735-.924.12a.385.385 0 00-.338.38v1.462a.385.385 0 00.338.38l.924.12-.573.73a.392.392 0 00.03.512l1.04 1.038a.388.388 0 00.508.031l.735-.573.12.923a.384.384 0 00.38.339h1.463a.385.385 0 00.38-.339l.12-.923.735.573a.388.388 0 00.508-.03l.816-.82h1.29a.385.385 0 00.38-.338l.12-.923.735.573a.387.387 0 00.508-.031l1.04-1.039a.387.387 0 00.03-.507l-.573-.735.924-.12a.385.385 0 00.338-.38v-1.46a.384.384 0 00-.338-.381zm-5.574 5.377l-.727-.566a.378.378 0 00-.4-.042c-.087.044-.177.08-.27.108a.393.393 0 00-.265.319l-.116.915H9.23l-.116-.915a.392.392 0 00-.265-.32 1.641 1.641 0 01-.27-.107.377.377 0 00-.4.042l-.727.566-.558-.558.565-.727a.376.376 0 00.043-.4 1.636 1.636 0 01-.108-.27.392.392 0 00-.32-.264l-.916-.116v-.785l.917-.115a.392.392 0 00.319-.265 1.64 1.64 0 01.108-.27.377.377 0 00-.043-.4l-.565-.726.558-.558.727.565a.377.377 0 00.4.043c.087-.044.177-.08.27-.108a.392.392 0 00.265-.32l.116-.915h.774l.127.92a.386.386 0 00.265.315c.093.028.183.064.27.108a.377.377 0 00.404-.047l.723-.561.558.558-.565.726a.377.377 0 00-.043.4c.044.087.08.177.108.27a.392.392 0 00.32.265l.916.115v.785l-.916.115a.421.421 0 00-.324.281l-.019.062c-.027.07-.058.13-.085.192a.376.376 0 00.043.4l.565.727-.558.558zm1.344-5.2l-.123-.123a1.152 1.152 0 11.842 2.142v-.277a.385.385 0 00-.338-.38l-.924-.12.573-.735a.386.386 0 00-.03-.507zm3.799 1.327l-.916.115a.392.392 0 00-.32.265 1.64 1.64 0 01-.108.27.376.376 0 00.043.4l.565.727-.558.557-.727-.565a.385.385 0 00-.4-.042c-.087.043-.177.08-.27.107a.391.391 0 00-.265.32l-.116.915h-.727l-.543-.692.924-.12a.385.385 0 00.338-.38v-.385a1.926 1.926 0 001.534-1.777 1.922 1.922 0 00-2.946-1.735l-.347-.346a.388.388 0 00-.508-.03l-.739.573-.104-.739.555-.558.727.566a.378.378 0 00.4.042c.087-.044.177-.08.27-.108a.392.392 0 00.265-.319l.116-.915h.785l.115.915a.392.392 0 00.266.32c.093.027.183.063.27.107a.377.377 0 00.4-.042l.727-.566.558.558-.565.727a.377.377 0 00-.043.4c.044.086.08.177.108.27a.392.392 0 00.32.265l.916.115v.785zm.769-5.776h.77v.77h-.77v-.77zm-1.539 0h.77v.77h-.77v-.77zM4.62 17.695h.769v.77h-.77v-.77zm1.538 0h.77v.77h-.77v-.77z" fill="#828282"/></svg>