<svg width="20" height="28" fill="none" xmlns="http://www.w3.org/2000/svg"><path d="M16.801 6.945h2.075c.62 0 1.124-.478 1.124-1.066V1.066C20 .478 19.496 0 18.876 0h-2.075c-.62 0-1.124.478-1.124 1.066v1.176h-.6a.422.422 0 00-.432.41c0 .227.194.41.433.41h.6v.82h-3.385a2.104 2.104 0 000-.82h.959a.422.422 0 00.432-.41.422.422 0 00-.432-.41H11.94A2.369 2.369 0 0010 1.258a2.37 2.37 0 00-1.94.984H4.323V1.066C4.323.478 3.819 0 3.199 0H1.124C.504 0 0 .478 0 1.066v.667c0 .226.193.41.432.41a.422.422 0 00.433-.41v-.667C.865.931.98.82 1.124.82h2.075c.143 0 .26.11.26.246V5.88a.253.253 0 01-.26.246H1.124a.253.253 0 01-.26-.246V3.473a.422.422 0 00-.432-.41.422.422 0 00-.432.41v2.406c0 .588.504 1.066 1.124 1.066h2.075c.62 0 1.124-.478 1.124-1.066V4.703H8.06c.17.241.39.449.643.61v17.374a2.282 2.282 0 00-.643.61H4.323V22.12c0-.588-.504-1.066-1.124-1.066H1.124c-.62 0-1.124.478-1.124 1.066v4.813C0 27.522.504 28 1.124 28h2.075c.62 0 1.124-.478 1.124-1.066v-1.176H8.06c.42.593 1.132.984 1.94.984s1.52-.391 1.94-.984h3.737v1.176c0 .588.504 1.066 1.124 1.066h2.075c.62 0 1.124-.478 1.124-1.066V22.12c0-.588-.504-1.066-1.124-1.066h-2.075c-.62 0-1.124.478-1.124 1.066v1.176H11.94a2.295 2.295 0 00-.643-.61v-1.653a.422.422 0 00-.432-.41.422.422 0 00-.433.41v1.317a2.46 2.46 0 00-.864 0V5.65a2.455 2.455 0 00.864 0v13.553c0 .227.194.41.433.41a.422.422 0 00.432-.41V5.313c.254-.161.473-.369.643-.61h3.737V5.88c0 .588.504 1.066 1.124 1.066zM3.458 26.934a.253.253 0 01-.26.246H1.125a.253.253 0 01-.26-.246V22.12c0-.136.117-.246.26-.246H3.2c.143 0 .26.11.26.246v4.813zm.865-1.997v-.82h3.384a2.104 2.104 0 000 .82H4.323zm12.219-2.816c0-.136.116-.246.26-.246h2.074c.143 0 .26.11.26.246v4.813a.253.253 0 01-.26.246h-2.075a.253.253 0 01-.26-.246V22.12zm-.865 1.996v.82h-3.383a2.104 2.104 0 000-.82h3.383zm-4.207.41c0 .77-.66 1.395-1.47 1.395-.81 0-1.47-.626-1.47-1.395s.66-1.394 1.47-1.394c.81 0 1.47.625 1.47 1.394zM4.323 3.883v-.82h3.384a2.104 2.104 0 000 .82H4.323zm4.207-.41c0-.77.66-1.395 1.47-1.395.81 0 1.47.626 1.47 1.395S10.81 4.867 10 4.867c-.81 0-1.47-.625-1.47-1.394zm8.012-2.407c0-.135.116-.246.26-.246h2.074c.143 0 .26.11.26.246V5.88a.253.253 0 01-.26.246h-2.075a.253.253 0 01-.26-.246V1.066z" fill="#828282"/></svg>