<svg width="14" height="14" viewBox="0 0 14 14" fill="none" xmlns="http://www.w3.org/2000/svg">
<path d="M12.7695 2.21484H1.23047C0.550894 2.21484 0 2.76574 0 3.44531V10.5547C0 11.2343 0.550894 11.7852 1.23047 11.7852H12.7695C13.4491 11.7852 14 11.2343 14 10.5547V3.44531C14 2.76574 13.4491 2.21484 12.7695 2.21484ZM11.7849 9.25288C11.6125 9.39958 11.3536 9.3788 11.2068 9.20618L8.83947 6.42277L7.20325 7.35626C7.07727 7.42812 6.9227 7.42809 6.79678 7.35626L5.16056 6.42277L2.79322 9.20615C2.64655 9.37863 2.38763 9.39966 2.21506 9.25285C2.0425 9.1061 2.02161 8.84726 2.16836 8.6747L4.43551 6.00912L2.42178 4.86024C2.22502 4.74802 2.15652 4.4975 2.26874 4.30076C2.38101 4.10397 2.63148 4.0355 2.82825 4.14772C2.99513 4.2429 6.81182 6.42037 7 6.52775C7.18796 6.4205 11.0044 4.24318 11.1718 4.14772C11.3684 4.03547 11.619 4.10397 11.7313 4.30076C11.8435 4.4975 11.775 4.748 11.5782 4.86024L9.56449 6.00912L11.8316 8.6747C11.9784 8.84729 11.9575 9.1061 11.7849 9.25288Z" fill="white"/>
</svg>
