<svg width="15" height="15" viewBox="0 0 15 15" fill="none" xmlns="http://www.w3.org/2000/svg">
<path d="M7.50002 0C4.21248 0 2.25 2.20287 2.25 5.89288C2.25 9.91827 6.93301 14.6476 7.1325 14.8469C7.33664 15.051 7.66336 15.051 7.8675 14.8469C8.06699 14.6476 12.75 9.91827 12.75 5.89288C12.75 2.20287 10.7876 0 7.50002 0ZM7.50002 7.50004C6.05028 7.50004 4.87502 6.30079 4.87502 4.82146C4.87502 3.34212 6.05028 2.14288 7.50002 2.14288C8.94976 2.14288 10.125 3.34212 10.125 4.82146C10.1233 6.30007 8.94905 7.49828 7.50002 7.50004Z" fill="white"/>
</svg>
