<svg width="18" height="19" viewBox="0 0 18 19" fill="none" xmlns="http://www.w3.org/2000/svg">
<path d="M17.2801 9.57143C17.2801 9.19196 17.135 8.82366 16.8672 8.56696L9.60156 1.30134C9.33371 1.03348 8.9654 0.877231 8.58594 0.877231C8.20647 0.877231 7.84933 1.03348 7.58147 1.30134L6.74442 2.13839C6.47656 2.39509 6.32031 2.76339 6.32031 3.14286C6.32031 3.52232 6.47656 3.89062 6.74442 4.14732L10.0145 7.42857H2.15737C1.35379 7.42857 0.851562 8.09821 0.851562 8.85714V10.2857C0.851562 11.0446 1.35379 11.7143 2.15737 11.7143H10.0145L6.74442 14.9844C6.47656 15.2522 6.32031 15.6205 6.32031 16C6.32031 16.3795 6.47656 16.7478 6.74442 17.0156L7.58147 17.8527C7.84933 18.1094 8.20647 18.2656 8.58594 18.2656C8.9654 18.2656 9.33371 18.1094 9.60156 17.8527L16.8672 10.5871C17.135 10.3192 17.2801 9.95089 17.2801 9.57143Z" fill="#BE1E2D"/>
</svg>
