<svg width="392" height="850" viewBox="0 0 392 850" fill="none" xmlns="http://www.w3.org/2000/svg">
<path d="M380.064 5.01236H260.88L257.071 8.70885H228.787L223.858 13.6375H262L267.825 7.92475H382.976L380.064 5.01236Z" fill="#93FBA3"/>
<path d="M11.5362 5.01241H130.72L134.529 8.7089H159.219L164.148 13.6376H129.6L123.775 7.9248H8.62383L11.5362 5.01241Z" fill="#93FBA3"/>
<path d="M10.3054 839.988C10.1934 839.988 9.96934 839.876 9.96934 839.652V829.794L0.112013 819.937C-1.71363e-06 819.825 0 819.825 0 819.713L0 7.58902C0 7.477 -1.70618e-06 7.47701 0.112013 7.36499L7.39299 0.0840113C7.50501 -0.0280038 7.72904 -0.0280038 7.84105 0.0840113C7.95307 0.196026 7.95307 0.420057 7.84105 0.532072L0.672089 7.70103V819.601L10.5294 829.458C10.6414 829.57 10.6414 829.57 10.6414 829.682V839.652C10.6414 839.876 10.5294 839.988 10.3054 839.988Z" fill="#93FBA3"/>
<path d="M4.36894 100.722V69.8694L0.448415 65.9488V104.531L4.36894 100.722Z" fill="#93FBA3"/>
<path d="M172.885 840.884H81.4343L77.0657 844.021H8.96056C7.84041 842.9 7.28033 842.34 6.2722 841.332V832.259L2.35167 828.339V846.037C4.25593 847.941 3.47182 847.157 5.37608 849.061H81.9944L87.7071 843.349H175.126L172.885 840.884Z" fill="#93FBA3"/>
<path d="M381.296 839.988C381.072 839.988 380.96 839.876 380.96 839.652V829.682C380.96 829.57 380.96 829.57 381.072 829.458L390.929 819.601V7.70103L383.76 0.532072C383.648 0.420057 383.648 0.196026 383.76 0.0840113C383.872 -0.0280038 384.096 -0.0280038 384.208 0.0840113L391.489 7.36499C391.601 7.47701 391.601 7.477 391.601 7.58902V819.713C391.601 819.825 391.601 819.825 391.489 819.937L381.632 829.794V839.652C381.52 839.876 381.408 839.988 381.296 839.988Z" fill="#93FBA3"/>
<path d="M387.346 100.722V69.8694L391.154 65.9488V104.531L387.346 100.722Z" fill="#93FBA3"/>
<path d="M215.123 840.884H311.4L314.536 844.021H382.53C383.65 842.9 384.21 842.34 385.218 841.332V832.259L389.138 828.339V846.037C387.234 847.941 388.018 847.157 386.114 849.061H309.496L303.783 843.349H212.882L215.123 840.884Z" fill="#93FBA3"/>
<path d="M218.595 10.8378H169.526C169.414 10.8378 169.414 10.8378 169.302 10.7258L163.813 5.23702H139.571C139.459 5.23702 139.235 5.12501 139.235 4.90098C139.235 4.78896 139.347 4.56493 139.571 4.56493H163.925C164.037 4.56493 164.037 4.56493 164.149 4.67695L169.638 10.1657H218.483L223.972 4.67695C224.084 4.56493 224.084 4.56493 224.196 4.56493H252.144C252.256 4.56493 252.48 4.67695 252.48 4.90098C252.48 5.01299 252.368 5.23702 252.144 5.23702H224.308L218.819 10.7258C218.707 10.8378 218.595 10.8378 218.595 10.8378Z" fill="#93FBA3"/>
<path d="M227.891 836.067H200.671L198.655 838.083H189.352L187.335 836.067H160.116L158.211 837.971H177.366L180.614 841.219H207.392L210.641 837.971H229.795L227.891 836.067Z" fill="#93FBA3"/>
</svg>
