<svg width="28" height="28" viewBox="0 0 28 28" fill="none" xmlns="http://www.w3.org/2000/svg">
<g opacity="0.4">
<path d="M13.8284 25.4989L17.1809 22.1948L10.6631 22.0947L13.8284 25.4989Z" fill="#4E6C51"/>
</g>
<path d="M10.6626 5.97512L17.3191 6.02343L14.015 2.671L10.6626 5.97512Z" fill="#4E6C51"/>
<g opacity="0.4">
<path d="M22.1278 10.8668L22.0278 17.3846L25.3802 14.0804L22.1278 10.8668Z" fill="#4E6C51"/>
</g>
<g opacity="0.4">
<path d="M5.85446 17.2483L5.8157 10.7823L2.60206 14.0347L5.85446 17.2483Z" fill="#4E6C51"/>
</g>
<path d="M12.0063 9.58171C9.55988 10.6515 8.44441 13.5961 9.51416 16.0426C10.5839 18.489 13.5286 19.6045 15.975 18.5347C18.4214 17.4649 19.5369 14.5203 18.4672 12.0739C17.3974 9.62743 14.4527 8.51196 12.0063 9.58171ZM15.8199 18.1184C13.651 19.0847 11.0873 18.1433 10.0693 15.8357C9.10299 13.6668 10.0443 11.1032 12.352 10.0851C14.6596 9.0671 17.0845 10.0602 18.1025 12.3678C18.93 14.5884 17.9887 17.152 15.8199 18.1184Z" fill="#4E6C51"/>
</svg>
