<svg width="160" height="160" viewBox="0 0 160 160" fill="none" xmlns="http://www.w3.org/2000/svg">
<circle cx="80" cy="80" r="80" fill="white"/>
<path d="M103.773 51.5827C100.452 48.268 95.0748 48.268 91.7542 51.5827L88.7458 54.6077L56.7208 86.6157L56.6527 86.6843C56.6362 86.7008 56.6362 86.7183 56.6187 86.7183C56.5846 86.7694 56.5336 86.8199 56.5001 86.8709C56.5001 86.888 56.4825 86.888 56.4825 86.905C56.4485 86.956 56.432 86.99 56.3975 87.0411C56.381 87.0581 56.381 87.0746 56.364 87.0921C56.347 87.1432 56.3299 87.1772 56.3124 87.2283C56.3124 87.2447 56.2959 87.2447 56.2959 87.2623L49.1905 108.629C48.9821 109.237 49.1405 109.911 49.5984 110.362C49.92 110.68 50.3539 110.857 50.8054 110.856C50.9899 110.853 51.1728 110.824 51.3493 110.771L72.6995 103.648C72.716 103.648 72.716 103.648 72.7335 103.632C72.7872 103.616 72.8388 103.593 72.8861 103.563C72.8994 103.562 72.9111 103.556 72.9207 103.547C72.9712 103.513 73.0393 103.478 73.0903 103.444C73.1408 103.411 73.1924 103.36 73.2435 103.326C73.2605 103.308 73.2769 103.308 73.2769 103.292C73.2945 103.275 73.3285 103.258 73.3455 103.223L108.379 68.19C111.694 64.8694 111.694 59.4921 108.379 56.172L103.773 51.5827ZM72.1555 99.6535L60.3248 87.8232L89.9358 58.2122L101.767 70.0425L72.1555 99.6535ZM58.6583 90.9678L68.9939 101.303L53.4741 106.47L58.6583 90.9678ZM105.983 65.81L104.181 67.629L92.3492 55.7977L94.1688 53.9792C96.159 51.9906 99.385 51.9906 101.376 53.9792L105.999 58.6025C107.974 60.6018 107.967 63.8203 105.983 65.81Z" fill="#FF6F1E"/>
</svg>
