<svg width="160" height="160" viewBox="0 0 160 160" fill="none" xmlns="http://www.w3.org/2000/svg">
<circle cx="80" cy="80" r="80" fill="white"/>
<g clip-path="url(#clip0)">
<path d="M79.761 82.5581C79.8292 82.5581 79.8975 82.5581 79.9793 82.5581C80.0066 82.5581 80.0339 82.5581 80.0612 82.5581C80.1021 82.5581 80.1567 82.5581 80.1976 82.5581C84.195 82.4899 87.4284 81.0846 89.816 78.397C95.0685 72.4759 94.1954 62.3254 94.0999 61.3568C93.7588 54.085 90.3208 50.606 87.483 48.9825C85.3683 47.7683 82.8989 47.1134 80.143 47.0588H80.0475C80.0339 47.0588 80.0066 47.0588 79.993 47.0588H79.9111C78.3967 47.0588 75.4225 47.3044 72.5711 48.9279C69.7061 50.5515 66.2135 54.0304 65.8724 61.3568C65.7769 62.3254 64.9037 72.4759 70.1563 78.397C72.5302 81.0846 75.7636 82.4899 79.761 82.5581ZM69.5151 61.6978C69.5151 61.6569 69.5287 61.616 69.5287 61.5887C69.979 51.8066 76.9233 50.7561 79.8975 50.7561H79.952C79.9793 50.7561 80.0202 50.7561 80.0612 50.7561C83.7448 50.838 90.007 52.3387 90.4299 61.5887C90.4299 61.6296 90.4299 61.6706 90.4435 61.6978C90.4572 61.7933 91.4122 71.0706 87.0737 75.9548C85.3547 77.8922 83.0626 78.8472 80.0475 78.8745C80.0202 78.8745 80.0066 78.8745 79.9793 78.8745C79.952 78.8745 79.9384 78.8745 79.9111 78.8745C76.9096 78.8472 74.604 77.8922 72.8986 75.9548C68.5737 71.0979 69.5014 61.7797 69.5151 61.6978Z" fill="#FFC657"/>
<path d="M108.016 99.3937C108.016 99.38 108.016 99.3664 108.016 99.3528C108.016 99.2436 108.002 99.1345 108.002 99.0117C107.92 96.3104 107.743 89.9936 101.822 87.9744C101.781 87.9608 101.726 87.9472 101.685 87.9335C95.5324 86.3646 90.4162 82.8174 90.3616 82.7764C89.5294 82.1898 88.3834 82.3944 87.7967 83.2267C87.2101 84.0589 87.4147 85.2049 88.247 85.7916C88.4789 85.9553 93.9088 89.7344 100.703 91.4807C103.882 92.6131 104.237 96.0102 104.332 99.1208C104.332 99.2436 104.332 99.3528 104.346 99.4619C104.359 100.69 104.278 102.586 104.059 103.678C101.849 104.933 93.1857 109.271 80.0065 109.271C66.8819 109.271 58.164 104.919 55.9402 103.664C55.7219 102.573 55.6264 100.676 55.6537 99.4483C55.6537 99.3391 55.6673 99.23 55.6673 99.1072C55.7628 95.9966 56.1175 92.5994 59.2964 91.4671C66.0906 89.7208 71.5206 85.928 71.7525 85.7779C72.5847 85.1913 72.7894 84.0452 72.2027 83.213C71.6161 82.3808 70.47 82.1761 69.6378 82.7628C69.5832 82.8037 64.4944 86.3509 58.3141 87.9199C58.2595 87.9335 58.2186 87.9472 58.1776 87.9608C52.2566 89.9936 52.0792 96.3104 51.9973 98.998C51.9973 99.1208 51.9973 99.23 51.9837 99.3391C51.9837 99.3528 51.9837 99.3664 51.9837 99.38C51.9701 100.089 51.9564 103.732 52.6795 105.56C52.8159 105.915 53.0615 106.215 53.3889 106.42C53.7982 106.693 63.6076 112.941 80.0202 112.941C96.4328 112.941 106.242 106.679 106.651 106.42C106.965 106.215 107.224 105.915 107.361 105.56C108.043 103.746 108.029 100.103 108.016 99.3937Z" fill="#FFC657"/>
</g>
<defs>
<clipPath id="clip0">
<rect width="65.8824" height="65.8824" fill="white" transform="translate(47.0586 47.0588)"/>
</clipPath>
</defs>
</svg>
