<svg width="115" height="115" viewBox="0 0 115 115" fill="none" xmlns="http://www.w3.org/2000/svg">
<path d="M114.935 54.7485C114.928 54.6048 114.921 54.4588 114.912 54.315C114.91 54.2297 114.903 54.1443 114.899 54.0567C114.865 53.484 114.823 52.9112 114.773 52.3385C114.715 51.6826 114.645 51.029 114.567 50.3776C114.537 50.144 114.508 49.9082 114.474 49.6746C114.443 49.441 114.412 49.2074 114.376 48.9761C114.304 48.4887 114.227 48.0013 114.142 47.5184C114.106 47.3072 114.068 47.0961 114.027 46.8872C113.985 46.6559 113.942 46.4245 113.895 46.1954C113.85 45.9641 113.803 45.735 113.753 45.5059C113.664 45.0769 113.569 44.6501 113.468 44.2256C113.41 43.983 113.351 43.7404 113.293 43.4979C112.889 41.8762 112.415 40.277 111.871 38.7024C111.795 38.4778 111.716 38.2555 111.635 38.0331C111.408 37.3952 111.168 36.7596 110.914 36.1307C110.829 35.915 110.741 35.6994 110.652 35.4838C110.575 35.2974 110.497 35.1132 110.418 34.9268C110.33 34.7201 110.241 34.5135 110.148 34.3091C110.068 34.1249 109.987 33.943 109.904 33.761C109.838 33.615 109.771 33.4713 109.704 33.3253C109.681 33.2714 109.654 33.2197 109.63 33.1658C109.558 33.0131 109.486 32.8581 109.412 32.7054C109.246 32.3527 109.073 32.0046 108.897 31.6587C108.796 31.4543 108.691 31.2521 108.585 31.0478C108.345 30.5828 108.096 30.1201 107.839 29.6619C107.774 29.5406 107.709 29.4216 107.64 29.3025C107.586 29.2037 107.529 29.1071 107.473 29.0105H107.471C107.392 28.8713 107.316 28.732 107.235 28.595C107.112 28.3861 106.99 28.1795 106.867 27.9751C106.433 27.2519 105.982 26.5376 105.515 25.8323C105.274 25.4707 105.034 25.1136 104.785 24.7564C104.621 24.5184 104.455 24.2848 104.286 24.0512C104.147 23.8558 104.005 23.6604 103.862 23.4672C103.801 23.3818 103.738 23.2987 103.675 23.2156C103.444 22.9034 103.208 22.5957 102.97 22.2902C102.68 21.9174 102.384 21.5468 102.083 21.1784C102.006 21.0863 101.93 20.992 101.851 20.8977C101.155 20.0554 100.434 19.2333 99.6861 18.427C99.5806 18.3146 99.475 18.2001 99.3672 18.0855L99.347 18.0653C99.1965 17.9059 99.046 17.7464 98.891 17.5892C98.6507 17.3376 98.4059 17.0883 98.1588 16.8412C97.9813 16.6638 97.8039 16.4886 97.6242 16.3156C97.5187 16.2101 97.4108 16.1067 97.303 16.0034C97.1413 15.8462 96.9773 15.6912 96.8111 15.5362C96.6135 15.3498 96.4136 15.1656 96.2137 14.9837C95.9936 14.7815 95.7712 14.5839 95.5488 14.3862C95.3107 14.1751 95.0727 13.9662 94.8301 13.7618C94.6751 13.6248 94.5156 13.4923 94.3562 13.3598C94.1697 13.2025 93.9811 13.0476 93.7924 12.8926C93.6037 12.7376 93.415 12.5849 93.2241 12.4344C93.0691 12.3108 92.9119 12.1873 92.7547 12.0638C92.5885 11.9357 92.4223 11.8055 92.2538 11.6797C92.146 11.5966 92.0382 11.5157 91.9304 11.4349C91.8001 11.336 91.6698 11.2372 91.5373 11.1406C91.4722 11.0935 91.407 11.0463 91.3419 10.9969C91.2116 10.9048 91.0836 10.8104 90.9511 10.7161C90.7377 10.5611 90.5243 10.4106 90.3064 10.2602C89.9111 9.98164 89.5113 9.71211 89.107 9.44482C88.8757 9.29209 88.6443 9.1416 88.4107 8.99336C88.1996 8.85859 87.9885 8.72383 87.7773 8.59355C87.7234 8.55762 87.665 8.52168 87.6089 8.48799C87.4359 8.38018 87.2607 8.27686 87.0878 8.17129C87.0182 8.12861 86.9485 8.08818 86.8789 8.04551C86.6655 7.91748 86.4521 7.7917 86.2365 7.66816C85.9984 7.52891 85.7603 7.39414 85.5178 7.25937C85.4077 7.19648 85.2977 7.13584 85.1854 7.0752C84.5564 6.72705 83.9208 6.39238 83.2762 6.07119C83.1234 5.99258 82.9707 5.91621 82.8157 5.84209C82.663 5.76572 82.5103 5.6916 82.3553 5.61748C82.2003 5.54336 82.0476 5.46924 81.8926 5.39736C81.7376 5.32324 81.5826 5.25137 81.4276 5.18174C80.5831 4.79541 79.7296 4.4293 78.8693 4.08564C78.6537 3.99805 78.4358 3.9127 78.218 3.82959C78.0001 3.74648 77.7822 3.66338 77.5644 3.58252C77.3981 3.51963 77.2319 3.45898 77.0635 3.39834C76.767 3.29053 76.4705 3.18721 76.1718 3.08613C75.9764 3.01875 75.781 2.95361 75.5855 2.88848C74.3255 2.4707 73.0497 2.1001 71.7604 1.77217C71.5897 1.72949 71.4168 1.68682 71.2438 1.64414C71.0484 1.59697 70.8553 1.5498 70.6576 1.50488C70.4936 1.46445 70.3297 1.42852 70.1635 1.39033C69.9411 1.34092 69.7187 1.29375 69.4941 1.24658C69.3392 1.21289 69.1842 1.18145 69.027 1.15C68.9079 1.12529 68.7911 1.10283 68.6721 1.08037C67.4592 0.840039 66.2373 0.642383 65.0042 0.48291C64.838 0.460449 64.6695 0.440234 64.5011 0.42002C63.9665 0.354883 63.4319 0.29873 62.8951 0.249316C62.8906 0.24707 62.8884 0.24707 62.8861 0.249316C62.6997 0.229102 62.511 0.213379 62.3224 0.199902C61.8395 0.157227 61.3543 0.123535 60.8691 0.0988281C60.7546 0.0898437 60.6378 0.0831055 60.5232 0.0786133C60.4087 0.071875 60.2941 0.0673828 60.1773 0.0628906C60.1347 0.0606445 60.0942 0.0583984 60.0516 0.0583984C59.7865 0.0449219 59.5215 0.0359375 59.2564 0.0269531C59.2205 0.024707 59.1823 0.024707 59.1441 0.024707C58.8746 0.0157227 58.6051 0.00898437 58.3333 0.00673828C58.057 0.00224609 57.7785 0 57.5 0C56.3725 0 55.2494 0.0314453 54.1309 0.0988281C46.1393 0.554785 38.4554 2.64365 31.4655 6.20146C31.2679 6.30254 31.0725 6.40361 30.8771 6.50693C30.2886 6.8124 29.7023 7.13135 29.1251 7.46152C27.9437 8.13311 26.7847 8.84736 25.6504 9.6043C25.0979 9.9749 24.5521 10.3545 24.0107 10.7431C21.4839 12.5602 19.0851 14.5974 16.8412 16.8412C14.5053 19.1771 12.3939 21.6815 10.5207 24.3229C10.1097 24.9002 9.71211 25.4842 9.32353 26.0749C8.08818 27.9616 6.96963 29.9112 5.97236 31.9192C2.52236 38.8507 0.507617 46.4515 0.0853516 54.3487C0.0291992 55.3954 0 56.4443 0 57.5C0 58.7017 0.0359375 59.8966 0.110059 61.087C0.145996 61.6979 0.193164 62.3066 0.251563 62.9153C0.85127 69.3976 2.53135 75.6507 5.19971 81.4681C5.50967 82.1419 5.83086 82.809 6.16777 83.4693C7.18076 85.4684 8.31504 87.4112 9.56387 89.289C11.6662 92.4447 14.0987 95.4163 16.8412 98.1588C19.6713 100.989 22.7462 103.489 26.0143 105.634C27.8987 106.874 29.8483 107.997 31.8563 108.996C32.4224 109.279 32.9929 109.553 33.5679 109.816C39.4122 112.493 45.699 114.171 52.2127 114.76C52.8978 114.825 53.5851 114.874 54.2746 114.91C55.3437 114.971 56.4196 115 57.5 115C57.8571 115 58.212 114.998 58.5669 114.989C58.7533 114.987 58.9397 114.982 59.1239 114.975C59.1419 114.978 59.1599 114.978 59.1778 114.975C59.2475 114.973 59.3171 114.973 59.3867 114.969C59.3979 114.969 59.4114 114.969 59.4227 114.966C59.6607 114.96 59.8988 114.951 60.1369 114.939C60.3952 114.928 60.6535 114.915 60.9096 114.899C60.9433 114.899 60.977 114.897 61.0129 114.894C61.2734 114.879 61.534 114.863 61.7923 114.843C62.2662 114.807 62.7401 114.766 63.2118 114.721C63.4589 114.697 63.7082 114.672 63.9553 114.643C64.2001 114.616 64.4449 114.587 64.6875 114.558C64.9009 114.533 65.112 114.504 65.3254 114.474C65.4714 114.456 65.6151 114.436 65.7611 114.414C65.8622 114.4 65.9633 114.385 66.0644 114.369C66.2845 114.337 66.5046 114.304 66.7225 114.268C66.8887 114.243 67.0526 114.216 67.2166 114.187C67.3401 114.167 67.4659 114.144 67.5895 114.122C67.6119 114.12 67.6344 114.115 67.6568 114.111C67.7849 114.088 67.9129 114.066 68.0387 114.041C68.0858 114.034 68.133 114.025 68.1802 114.014C68.306 113.992 68.4295 113.969 68.553 113.942C68.58 113.94 68.6069 113.935 68.6339 113.926C68.7327 113.908 68.8315 113.89 68.9281 113.87C69.119 113.832 69.3055 113.794 69.4941 113.753C70.0894 113.63 70.6801 113.495 71.2686 113.349C71.4707 113.302 71.6706 113.25 71.8705 113.199C71.9896 113.169 72.1086 113.138 72.2276 113.107C72.3849 113.066 72.5398 113.023 72.6971 112.981C72.7016 112.981 72.7038 112.979 72.7083 112.979C72.897 112.927 73.0879 112.875 73.2766 112.819C73.4428 112.772 73.6112 112.725 73.7774 112.675C74.0964 112.581 74.4176 112.484 74.7343 112.386C74.9454 112.32 75.1543 112.253 75.3632 112.183C75.5923 112.109 75.8214 112.033 76.0505 111.954C76.165 111.916 76.2796 111.878 76.3941 111.838C76.5087 111.799 76.6232 111.759 76.7378 111.716C76.9646 111.635 77.1938 111.554 77.4206 111.469C77.6475 111.386 77.8721 111.303 78.0989 111.215C78.3235 111.128 78.5504 111.04 78.775 110.95C78.9996 110.86 79.2242 110.771 79.4466 110.679C79.6712 110.586 79.8936 110.492 80.1159 110.398C80.1294 110.393 80.1451 110.387 80.1608 110.38C80.4304 110.263 80.6999 110.146 80.9694 110.025C80.9784 110.023 80.9874 110.018 80.9964 110.014C81.2637 109.892 81.5287 109.771 81.7938 109.648C82.3351 109.394 82.8719 109.133 83.4042 108.864C83.6535 108.738 83.9028 108.61 84.1521 108.48C84.3453 108.379 84.5385 108.275 84.7294 108.172C85.2954 107.871 85.8524 107.556 86.405 107.235C86.6341 107.1 86.8609 106.966 87.0878 106.829C87.6066 106.519 88.1187 106.198 88.6264 105.87C88.8285 105.739 89.0284 105.607 89.2283 105.474C89.7584 105.124 90.284 104.762 90.8028 104.389C91.1285 104.158 91.4497 103.922 91.7709 103.684C92.0921 103.446 92.4088 103.206 92.7232 102.959L93.1006 102.662C93.2893 102.514 93.4779 102.363 93.6644 102.211C93.8216 102.085 93.9766 101.957 94.1293 101.829C94.3112 101.678 94.4909 101.528 94.6706 101.375C95.87 100.358 97.0335 99.2841 98.1588 98.1588C98.4216 97.896 98.6821 97.631 98.9382 97.3637C99.0932 97.2042 99.2459 97.0425 99.3964 96.8808C99.6929 96.5686 99.9804 96.2541 100.268 95.9374C100.54 95.6342 100.809 95.331 101.074 95.0232C101.101 94.9918 101.128 94.9604 101.155 94.9289C101.315 94.7447 101.472 94.5583 101.627 94.3719C101.865 94.0889 102.101 93.8036 102.332 93.5161C102.429 93.3948 102.525 93.2735 102.622 93.1522C102.759 92.9793 102.894 92.8086 103.028 92.6334C103.163 92.4605 103.298 92.2853 103.43 92.1078C103.653 91.8158 103.871 91.5216 104.084 91.2273C104.194 91.0746 104.304 90.9241 104.412 90.7714C104.421 90.7624 104.428 90.7512 104.437 90.7377C104.672 90.4075 104.906 90.0706 105.135 89.7337C105.286 89.5158 105.432 89.2957 105.575 89.0756C105.582 89.0666 105.589 89.0576 105.596 89.0464C105.602 89.0352 105.611 89.0239 105.616 89.0127C105.708 88.8757 105.798 88.7409 105.885 88.6017C105.917 88.5522 105.95 88.5028 105.982 88.4512C106.159 88.1727 106.337 87.8919 106.512 87.6089C106.658 87.3708 106.802 87.1327 106.946 86.8924C107.002 86.798 107.058 86.7015 107.114 86.6049C107.199 86.4611 107.285 86.3174 107.368 86.1736C107.792 85.4414 108.197 84.7002 108.585 83.9522C108.713 83.7052 108.839 83.4581 108.962 83.2088C109.156 82.8247 109.344 82.4406 109.526 82.0521C109.675 81.7354 109.823 81.4187 109.967 81.0997C110.045 80.9268 110.119 80.7561 110.196 80.5831C110.288 80.3765 110.375 80.1676 110.463 79.9609C110.858 79.0378 111.224 78.1012 111.566 77.1578C111.626 76.9961 111.685 76.8321 111.741 76.6682C111.961 76.0505 112.168 75.4261 112.363 74.7994C112.43 74.5905 112.493 74.3816 112.556 74.1728C112.617 73.9751 112.675 73.7774 112.734 73.5798C112.812 73.3103 112.889 73.0385 112.963 72.7667C112.974 72.7263 112.985 72.6858 112.994 72.6454C113.055 72.4253 113.113 72.2052 113.169 71.9828C113.185 71.9267 113.201 71.8705 113.212 71.8144C113.259 71.6347 113.306 71.4527 113.349 71.2708C113.378 71.1518 113.408 71.0305 113.437 70.9114C113.693 69.8333 113.92 68.7439 114.111 67.6478C114.14 67.4816 114.171 67.3132 114.198 67.1447C114.223 67.0032 114.245 66.864 114.268 66.7225C114.306 66.4911 114.342 66.2575 114.376 66.0239C114.412 65.7926 114.443 65.559 114.474 65.3254C114.522 64.984 114.564 64.6448 114.602 64.3034C114.625 64.117 114.645 63.9283 114.665 63.7396C114.692 63.4971 114.717 63.2522 114.739 63.0074C114.753 62.8839 114.764 62.7604 114.773 62.6391C114.784 62.5178 114.793 62.3942 114.805 62.2707C114.823 62.0528 114.838 61.835 114.854 61.6171C114.863 61.5228 114.87 61.4262 114.874 61.3318C114.885 61.1521 114.897 60.9747 114.906 60.795C114.921 60.521 114.935 60.247 114.946 59.973C114.971 59.4249 114.987 58.8769 114.993 58.3266C114.998 58.0503 115 57.7763 115 57.5V57.4394C115 56.5387 114.978 55.6425 114.935 54.7485Z" fill="#F1F1F1"/>
<path d="M115 57.5C115 57.7763 114.998 58.0503 114.993 58.3266C114.987 58.8769 114.971 59.4249 114.946 59.973C114.935 60.247 114.921 60.521 114.906 60.795C114.897 60.9747 114.885 61.1521 114.874 61.3318C114.87 61.4262 114.863 61.5228 114.854 61.6171C114.838 61.835 114.823 62.0528 114.805 62.2707C114.793 62.3942 114.784 62.5178 114.773 62.6391C114.764 62.7604 114.753 62.8839 114.739 63.0074C114.717 63.2522 114.692 63.4971 114.665 63.7396C114.645 63.9283 114.625 64.117 114.602 64.3034C114.564 64.6448 114.522 64.984 114.474 65.3254C114.443 65.559 114.412 65.7926 114.376 66.0239C114.342 66.2575 114.306 66.4911 114.268 66.7225C114.245 66.864 114.223 67.0032 114.198 67.1447C114.171 67.3132 114.14 67.4816 114.111 67.6478C113.92 68.7439 113.693 69.8333 113.437 70.9114C113.408 71.0305 113.378 71.1518 113.349 71.2708C113.306 71.4527 113.259 71.6347 113.212 71.8144C113.201 71.8705 113.185 71.9267 113.169 71.9828C113.113 72.2052 113.055 72.4253 112.994 72.6454C112.985 72.6858 112.974 72.7263 112.963 72.7667C112.889 73.0385 112.812 73.3103 112.734 73.5798C112.675 73.7774 112.617 73.9751 112.556 74.1728C112.493 74.3816 112.43 74.5905 112.363 74.7994C112.168 75.4261 111.961 76.0505 111.741 76.6682C111.685 76.8321 111.626 76.9961 111.566 77.1578C111.224 78.1012 110.858 79.0378 110.463 79.9609C110.378 80.1698 110.288 80.3765 110.196 80.5831C110.119 80.7561 110.045 80.9268 109.967 81.0997C109.823 81.4187 109.675 81.7354 109.526 82.0521C109.344 82.4406 109.156 82.8247 108.962 83.2088C108.839 83.4581 108.713 83.7052 108.585 83.9522C108.197 84.7002 107.792 85.4414 107.368 86.1736C107.229 86.414 107.087 86.6543 106.946 86.8924C106.802 87.1327 106.658 87.3708 106.512 87.6089C106.337 87.8919 106.159 88.1727 105.982 88.4512C105.95 88.5028 105.917 88.5522 105.885 88.6017C105.798 88.7409 105.708 88.8757 105.616 89.0127C105.611 89.0239 105.602 89.0352 105.596 89.0464C105.589 89.0576 105.582 89.0666 105.575 89.0756C105.432 89.2957 105.286 89.5158 105.135 89.7337C104.906 90.0706 104.672 90.4075 104.437 90.7377C104.428 90.7512 104.421 90.7624 104.412 90.7714C104.304 90.9241 104.194 91.0746 104.084 91.2273C103.871 91.5216 103.653 91.8158 103.43 92.1078C103.298 92.2853 103.163 92.4605 103.028 92.6334C102.894 92.8086 102.759 92.9793 102.622 93.1522C102.525 93.2735 102.429 93.3948 102.332 93.5161C102.101 93.8036 101.865 94.0889 101.627 94.3719C101.472 94.5583 101.315 94.7447 101.155 94.9289C101.128 94.9604 101.101 94.9918 101.074 95.0232C100.809 95.331 100.54 95.6342 100.268 95.9374C99.9804 96.2541 99.6929 96.5686 99.3964 96.8808C99.2459 97.0425 99.0932 97.2042 98.9382 97.3637C98.6821 97.631 98.4216 97.896 98.1588 98.1588C97.0335 99.2841 95.87 100.358 94.6706 101.375C94.4909 101.528 94.3112 101.678 94.1293 101.829C93.9766 101.957 93.8216 102.085 93.6644 102.211C93.4779 102.363 93.2893 102.514 93.1006 102.662L92.7232 102.959C92.4088 103.206 92.0921 103.446 91.7709 103.684C91.4497 103.922 91.1285 104.158 90.8028 104.389C90.284 104.762 89.7584 105.124 89.2283 105.474C89.0284 105.607 88.8285 105.739 88.6264 105.87C88.1187 106.198 87.6066 106.519 87.0878 106.829C86.8609 106.966 86.6341 107.1 86.405 107.235C85.8524 107.556 85.2954 107.871 84.7294 108.172C84.5385 108.275 84.3453 108.379 84.1521 108.48C83.9028 108.61 83.6535 108.738 83.4042 108.864C82.8719 109.135 82.3351 109.396 81.7938 109.648C81.5287 109.771 81.2637 109.892 80.9964 110.014C80.9874 110.018 80.9784 110.023 80.9694 110.025C80.6999 110.146 80.4304 110.263 80.1608 110.38C80.1451 110.387 80.1294 110.393 80.1159 110.398C79.8936 110.492 79.6712 110.586 79.4466 110.679C79.2242 110.771 78.9996 110.86 78.775 110.95C78.5504 111.04 78.3235 111.128 78.0989 111.215C77.8721 111.303 77.6475 111.386 77.4206 111.469C77.1938 111.554 76.9646 111.635 76.7378 111.716C76.6232 111.759 76.5087 111.799 76.3941 111.838C76.2796 111.878 76.165 111.916 76.0505 111.954C75.8214 112.033 75.5923 112.109 75.3632 112.183C75.1543 112.253 74.9454 112.32 74.7343 112.386C74.4176 112.484 74.0964 112.581 73.7774 112.675C73.6112 112.725 73.4428 112.772 73.2766 112.819C73.0879 112.875 72.897 112.927 72.7083 112.979C72.7038 112.979 72.7016 112.981 72.6971 112.981C72.5398 113.023 72.3849 113.066 72.2276 113.107C72.1086 113.138 71.9896 113.169 71.8705 113.199C71.6706 113.25 71.4707 113.302 71.2686 113.349C70.6801 113.495 70.0894 113.63 69.4941 113.753C69.3055 113.794 69.119 113.832 68.9281 113.87C68.8315 113.89 68.7327 113.908 68.6339 113.926C68.6069 113.935 68.58 113.94 68.553 113.942C68.4295 113.969 68.306 113.992 68.1802 114.014C68.133 114.025 68.0858 114.034 68.0387 114.041C67.9129 114.066 67.7849 114.088 67.6568 114.111C67.6344 114.115 67.6119 114.12 67.5895 114.122C67.4659 114.144 67.3401 114.167 67.2166 114.187C67.0526 114.216 66.8887 114.243 66.7225 114.268C66.5046 114.304 66.2845 114.337 66.0644 114.369C65.9633 114.385 65.8622 114.4 65.7611 114.414C65.6151 114.436 65.4714 114.456 65.3254 114.474C65.112 114.504 64.9009 114.533 64.6875 114.558C64.4449 114.587 64.2001 114.616 63.9553 114.643C63.7082 114.672 63.4589 114.697 63.2118 114.721C62.7401 114.766 62.2662 114.807 61.7923 114.843C61.534 114.863 61.2734 114.879 61.0129 114.894C60.977 114.897 60.9433 114.899 60.9096 114.899C60.6535 114.915 60.3952 114.928 60.1369 114.939C59.8988 114.951 59.6607 114.96 59.4227 114.966C59.4114 114.969 59.3979 114.969 59.3867 114.969C59.3171 114.973 59.2475 114.973 59.1778 114.975C59.1599 114.978 59.1419 114.978 59.1239 114.975C58.9397 114.982 58.7533 114.987 58.5669 114.989C58.212 114.998 57.8571 115 57.5 115V0C57.7785 0 58.057 0.00224609 58.3333 0.00673828C58.951 0.0134766 59.5642 0.0336914 60.1773 0.0628906C60.2941 0.0673828 60.4087 0.071875 60.5232 0.0786133C60.6378 0.0831055 60.7546 0.0898437 60.8691 0.0988281C61.3543 0.123535 61.8395 0.157227 62.3224 0.199902C62.511 0.213379 62.6997 0.229102 62.8861 0.249316C62.8884 0.24707 62.8906 0.24707 62.8951 0.249316C63.4319 0.29873 63.9665 0.354883 64.5011 0.42002C64.6695 0.440234 64.838 0.460449 65.0042 0.48291C66.2373 0.642383 67.4592 0.840039 68.6721 1.08037C68.7911 1.10283 68.9079 1.12529 69.027 1.15C69.1842 1.18145 69.3392 1.21289 69.4941 1.24658C69.7187 1.29375 69.9411 1.34092 70.1635 1.39033C70.3297 1.42852 70.4936 1.46445 70.6576 1.50488C70.8553 1.5498 71.0484 1.59697 71.2438 1.64414C71.4168 1.68682 71.5897 1.72949 71.7604 1.77217C73.0497 2.1001 74.3255 2.4707 75.5855 2.88848C75.781 2.95361 75.9764 3.01875 76.1718 3.08613C76.4705 3.18721 76.767 3.29053 77.0635 3.39834C77.2319 3.45898 77.3981 3.51963 77.5644 3.58252C77.7822 3.66338 78.0001 3.74648 78.218 3.82959C78.4358 3.9127 78.6537 3.99805 78.8693 4.08564C79.7296 4.4293 80.5831 4.79541 81.4276 5.18174C81.5826 5.25137 81.7376 5.32324 81.8926 5.39736C82.0476 5.46924 82.2003 5.54336 82.3553 5.61748C82.5103 5.6916 82.663 5.76572 82.8157 5.84209C82.9707 5.91621 83.1234 5.99258 83.2762 6.07119C83.9208 6.39238 84.5564 6.72705 85.1854 7.0752C85.2977 7.13584 85.4077 7.19648 85.5178 7.25937C85.7603 7.39414 85.9984 7.52891 86.2365 7.66816C86.4521 7.7917 86.6655 7.91748 86.8789 8.04551C87.1237 8.1915 87.3663 8.3375 87.6089 8.48799C87.665 8.52168 87.7234 8.55762 87.7773 8.59355C87.9885 8.72383 88.1996 8.85859 88.4107 8.99336C88.6443 9.1416 88.8757 9.29209 89.107 9.44482C89.5113 9.71211 89.9111 9.98164 90.3064 10.2602C90.5243 10.4106 90.7377 10.5611 90.9511 10.7161C91.0836 10.8104 91.2116 10.9048 91.3419 10.9969C91.407 11.0463 91.4722 11.0935 91.5373 11.1406C91.6698 11.2372 91.8001 11.336 91.9304 11.4349C92.0382 11.5157 92.146 11.5966 92.2538 11.6797C92.4223 11.8055 92.5885 11.9357 92.7547 12.0638C92.9119 12.1873 93.0691 12.3108 93.2241 12.4344C93.415 12.5849 93.6037 12.7376 93.7924 12.8926C93.9811 13.0476 94.1697 13.2025 94.3562 13.3598C94.5156 13.4923 94.6751 13.6248 94.8301 13.7618C95.0727 13.9662 95.3107 14.1751 95.5488 14.3862C95.7712 14.5839 95.9936 14.7815 96.2137 14.9837C96.4136 15.1656 96.6135 15.3498 96.8111 15.5362C96.9773 15.6912 97.1413 15.8462 97.303 16.0034C97.4108 16.1067 97.5187 16.2101 97.6242 16.3156C97.8039 16.4886 97.9813 16.6638 98.1588 16.8412C98.4059 17.0883 98.6507 17.3376 98.891 17.5892C99.046 17.7464 99.1965 17.9059 99.347 18.0653L99.3672 18.0855C99.475 18.2001 99.5806 18.3146 99.6861 18.427C100.434 19.2333 101.155 20.0554 101.851 20.8977C101.93 20.992 102.006 21.0863 102.083 21.1784C102.384 21.5468 102.68 21.9174 102.97 22.2902C103.208 22.5957 103.444 22.9034 103.675 23.2156C103.738 23.2987 103.801 23.3818 103.862 23.4672C104.005 23.6604 104.147 23.8558 104.286 24.0512C104.455 24.2848 104.621 24.5184 104.785 24.7564C105.034 25.1136 105.274 25.4707 105.515 25.8323C105.982 26.5376 106.433 27.2519 106.867 27.9751C106.99 28.1795 107.112 28.3861 107.235 28.595C107.372 28.8286 107.507 29.0645 107.64 29.3025C107.709 29.4216 107.774 29.5406 107.839 29.6619C108.096 30.1201 108.345 30.5828 108.585 31.0478C108.691 31.2521 108.796 31.4543 108.897 31.6587C109.073 32.0046 109.246 32.3527 109.412 32.7054C109.486 32.8581 109.558 33.0131 109.63 33.1658C109.654 33.2197 109.681 33.2714 109.704 33.3253C109.771 33.4713 109.838 33.615 109.904 33.761C109.987 33.943 110.068 34.1249 110.148 34.3091C110.241 34.5135 110.33 34.7201 110.418 34.9268C110.497 35.1132 110.575 35.2974 110.652 35.4838C110.741 35.6994 110.829 35.915 110.914 36.1307C111.168 36.7596 111.408 37.3952 111.635 38.0331C111.716 38.2555 111.795 38.4778 111.871 38.7024C112.415 40.277 112.889 41.8762 113.293 43.4979C113.351 43.7404 113.41 43.983 113.468 44.2256C113.569 44.6501 113.664 45.0769 113.753 45.5059C113.803 45.735 113.85 45.9641 113.895 46.1954C113.942 46.4245 113.985 46.6559 114.027 46.8872C114.068 47.0961 114.106 47.3072 114.142 47.5184C114.227 48.0013 114.304 48.4887 114.376 48.9761C114.412 49.2074 114.443 49.441 114.474 49.6746C114.508 49.9082 114.537 50.144 114.567 50.3776C114.645 51.029 114.715 51.6826 114.773 52.3385C114.823 52.9112 114.865 53.484 114.899 54.0567C114.903 54.1443 114.91 54.2297 114.912 54.315C114.921 54.4588 114.928 54.6048 114.935 54.7485C114.978 55.6627 115 56.5791 115 57.5Z" fill="#E1E1E4"/>
<path d="M114.935 54.7485C114.928 54.6048 114.921 54.4588 114.912 54.315C114.91 54.2297 114.903 54.1443 114.899 54.0567C114.865 53.484 114.823 52.9112 114.773 52.3385C114.715 51.6826 114.645 51.029 114.567 50.3776C114.537 50.144 114.508 49.9082 114.474 49.6746C114.443 49.441 114.412 49.2074 114.376 48.9761C114.304 48.4887 114.227 48.0013 114.142 47.5184C114.106 47.3072 114.068 47.0961 114.027 46.8872C113.985 46.6559 113.942 46.4245 113.895 46.1954C113.85 45.9641 113.803 45.735 113.753 45.5059C113.664 45.0769 113.569 44.6501 113.468 44.2256C113.41 43.983 113.351 43.7404 113.293 43.4979C112.889 41.8762 112.415 40.277 111.871 38.7024C111.795 38.4778 111.716 38.2555 111.635 38.0331C111.408 37.3952 111.168 36.7596 110.914 36.1307C110.829 35.915 110.741 35.6994 110.652 35.4838C110.575 35.2974 110.497 35.1132 110.418 34.9268C110.33 34.7201 110.241 34.5135 110.148 34.3091C110.068 34.1249 109.987 33.943 109.904 33.761C109.838 33.615 109.771 33.4713 109.704 33.3253C109.681 33.2714 109.654 33.2197 109.63 33.1658C109.558 33.0131 109.486 32.8581 109.412 32.7054C109.246 32.3527 109.073 32.0046 108.897 31.6587C108.796 31.4543 108.691 31.2521 108.585 31.0478C108.345 30.5828 108.096 30.1201 107.839 29.6619C107.774 29.5406 107.709 29.4216 107.64 29.3025C107.507 29.0645 107.372 28.8286 107.235 28.595C107.112 28.3861 106.99 28.1795 106.867 27.9751C106.433 27.2519 105.982 26.5376 105.515 25.8323L90.6434 34.4349C87.8964 30.4975 84.4644 27.0699 80.5225 24.3274L89.107 9.44482C88.8757 9.29209 88.6443 9.1416 88.4107 8.99336C88.1996 8.85859 87.9885 8.72383 87.7773 8.59355C87.7234 8.55762 87.665 8.52168 87.6089 8.48799C87.3663 8.3375 87.1237 8.1915 86.8789 8.04551C86.6655 7.91748 86.4521 7.7917 86.2365 7.66816C85.9984 7.52891 85.7603 7.39414 85.5178 7.25937C85.4077 7.19648 85.2977 7.13584 85.1854 7.0752C84.5564 6.72705 83.9208 6.39238 83.2762 6.07119C83.1234 5.99258 82.9707 5.91621 82.8157 5.84209C82.663 5.76572 82.5103 5.6916 82.3553 5.61748C82.2003 5.54336 82.0476 5.46924 81.8926 5.39736C81.7376 5.32324 81.5826 5.25137 81.4276 5.18174C80.5831 4.79541 79.7296 4.4293 78.8693 4.08564C78.6537 3.99805 78.4358 3.9127 78.218 3.82959C78.0001 3.74648 77.7822 3.66338 77.5644 3.58252C77.3981 3.51963 77.2319 3.45898 77.0635 3.39834C76.767 3.29053 76.4705 3.18721 76.1718 3.08613C75.9764 3.01875 75.781 2.95361 75.5855 2.88848C74.3255 2.4707 73.0497 2.1001 71.7604 1.77217C71.5897 1.72949 71.4168 1.68682 71.2438 1.64414C71.0484 1.59697 70.8553 1.5498 70.6576 1.50488C70.4936 1.46445 70.3297 1.42852 70.1635 1.39033C69.9411 1.34092 69.7187 1.29375 69.4941 1.24658C69.3392 1.21289 69.1842 1.18145 69.027 1.15C68.9079 1.12529 68.7911 1.10283 68.6721 1.08037C67.4592 0.840039 66.2373 0.642383 65.0042 0.48291C64.838 0.460449 64.6695 0.440234 64.5011 0.42002C63.9665 0.354883 63.4319 0.29873 62.8951 0.249316C62.8906 0.24707 62.8884 0.24707 62.8861 0.249316C62.6997 0.229102 62.511 0.213379 62.3224 0.199902C61.8395 0.157227 61.3543 0.123535 60.8691 0.0988281C60.7546 0.0898437 60.6378 0.0831055 60.5232 0.0786133C60.4087 0.071875 60.2941 0.0673828 60.1773 0.0628906C59.8337 0.047168 59.49 0.0336914 59.1441 0.024707C59.0094 0.0202148 58.8746 0.0157227 58.7398 0.0134766C58.6051 0.0112305 58.4681 0.00898437 58.3333 0.00673828C58.057 0.00224609 57.7785 0 57.5 0C56.3725 0 55.2494 0.0314453 54.1309 0.0988281V17.2455C49.1535 17.6588 44.4277 18.9772 40.122 21.0369L31.4655 6.20146C31.2679 6.30254 31.0725 6.40361 30.8771 6.50693C30.2886 6.81465 29.7068 7.13809 29.1273 7.46602L29.1251 7.46152C27.9437 8.13311 26.7847 8.84736 25.6504 9.6043C25.0979 9.9749 24.5521 10.3545 24.0107 10.7431C21.4839 12.5602 19.0851 14.5974 16.8412 16.8412C14.5053 19.1771 12.3939 21.6815 10.5207 24.3229C10.1097 24.9002 9.71211 25.4842 9.32353 26.0749C8.08818 27.9616 6.96963 29.9112 5.97236 31.9192L20.8864 40.4477C18.8919 44.7107 17.6206 49.3736 17.232 54.2836L0.0853516 54.3487C0.0291992 55.3954 0 56.4443 0 57.5C0 58.7017 0.0359375 59.8966 0.110059 61.087C0.145996 61.6979 0.193164 62.3066 0.251563 62.9153C0.85127 69.3976 2.53135 75.6507 5.19971 81.4681C5.50967 82.1419 5.83086 82.809 6.16777 83.4693C7.18076 85.4684 8.31504 87.4112 9.56387 89.289L24.415 80.6482C27.1732 84.5789 30.612 87.9975 34.5606 90.731L26.0143 105.634C27.8987 106.874 29.8483 107.997 31.8563 108.996C32.4224 109.279 32.9929 109.553 33.5679 109.816C39.4122 112.493 45.699 114.171 52.2127 114.76C52.8978 114.825 53.5851 114.874 54.2746 114.91C55.3437 114.971 56.4196 115 57.5 115C57.8571 115 58.212 114.998 58.5669 114.989C58.7533 114.987 58.9397 114.982 59.1239 114.975C59.1419 114.978 59.1599 114.978 59.1778 114.975C59.2475 114.973 59.3171 114.973 59.3867 114.969C59.3979 114.969 59.4114 114.969 59.4227 114.966C59.6607 114.96 59.8988 114.951 60.1369 114.939C60.3952 114.928 60.6535 114.915 60.9096 114.899C60.9433 114.899 60.977 114.897 61.0129 114.894L60.9702 97.7455C65.8757 97.3255 70.5341 96.0272 74.7837 94.0058L83.4042 108.864C83.6535 108.738 83.9028 108.61 84.1521 108.48C84.3453 108.379 84.5385 108.275 84.7294 108.172C85.2954 107.871 85.8524 107.556 86.405 107.235C86.6341 107.1 86.8609 106.966 87.0878 106.829C87.6066 106.519 88.1187 106.198 88.6264 105.87C88.8285 105.739 89.0284 105.607 89.2283 105.474C89.7584 105.124 90.284 104.762 90.8028 104.389C91.1285 104.158 91.4497 103.922 91.7709 103.684C92.0921 103.446 92.4088 103.206 92.7232 102.959L93.1006 102.662C93.2893 102.514 93.4779 102.363 93.6644 102.211C93.8216 102.085 93.9766 101.957 94.1293 101.829C94.3112 101.678 94.4909 101.528 94.6706 101.375C95.87 100.358 97.0335 99.2841 98.1588 98.1588C98.4216 97.896 98.6821 97.631 98.9382 97.3637C99.0932 97.2042 99.2459 97.0425 99.3964 96.8808C99.6929 96.5686 99.9804 96.2541 100.268 95.9374C100.54 95.6342 100.809 95.331 101.074 95.0232C101.101 94.9918 101.128 94.9604 101.155 94.9289C101.315 94.7447 101.472 94.5583 101.627 94.3719C101.865 94.0889 102.101 93.8036 102.332 93.5161C102.429 93.3948 102.525 93.2735 102.622 93.1522C102.759 92.9793 102.894 92.8086 103.028 92.6334C103.163 92.4605 103.298 92.2853 103.43 92.1078C103.653 91.8158 103.871 91.5216 104.084 91.2273C104.194 91.0746 104.304 90.9241 104.412 90.7714C104.421 90.7624 104.428 90.7512 104.437 90.7377C104.672 90.4075 104.906 90.0706 105.135 89.7337C105.286 89.5158 105.432 89.2957 105.575 89.0756C105.582 89.0666 105.589 89.0576 105.596 89.0464C105.602 89.0352 105.611 89.0239 105.616 89.0127C105.708 88.8757 105.798 88.7409 105.885 88.6017C105.917 88.5522 105.95 88.5028 105.982 88.4512C106.159 88.1727 106.337 87.8919 106.512 87.6089C106.658 87.3708 106.802 87.1327 106.946 86.8924C107.087 86.6543 107.229 86.414 107.368 86.1736C107.792 85.4414 108.197 84.7002 108.585 83.9522C108.713 83.7052 108.839 83.4581 108.962 83.2088L94.0709 74.6444C96.0744 70.3881 97.3569 65.7252 97.759 60.8175L114.906 60.795C114.921 60.521 114.935 60.247 114.946 59.973C114.971 59.4249 114.987 58.8769 114.993 58.3266C114.998 58.0503 115 57.7763 115 57.5C115 56.5791 114.978 55.6627 114.935 54.7485ZM57.5 91.1577C38.9405 91.1577 23.8423 76.0595 23.8423 57.5C23.8423 38.9405 38.9405 23.8423 57.5 23.8423C76.0595 23.8423 91.1577 38.9405 91.1577 57.5C91.1577 76.0595 76.0595 91.1577 57.5 91.1577Z" fill="#009262"/>
<path d="M81.3007 81.3008C74.9427 87.6559 66.49 91.1578 57.5 91.1578V23.8423C66.49 23.8423 74.9427 27.3444 81.3007 33.6993C87.6558 40.0571 91.1577 48.51 91.1577 57.5C91.1577 66.49 87.6558 74.943 81.3007 81.3008Z" fill="#E1E1E4"/>
<path d="M115 57.5C115 57.7763 114.998 58.0503 114.993 58.3266C114.987 58.8769 114.971 59.4249 114.946 59.9729C114.935 60.247 114.921 60.521 114.906 60.795L97.759 60.8175C97.3569 65.7252 96.0744 70.3881 94.0709 74.6444L108.962 83.2088C108.839 83.4581 108.713 83.7052 108.585 83.9522C108.197 84.7002 107.792 85.4414 107.368 86.1736C107.229 86.414 107.087 86.6543 106.946 86.8924C106.802 87.1327 106.658 87.3708 106.512 87.6089C106.337 87.8919 106.159 88.1727 105.982 88.4512C105.95 88.5028 105.917 88.5522 105.885 88.6017C105.798 88.7409 105.708 88.8757 105.616 89.0127C105.611 89.0239 105.602 89.0352 105.596 89.0464C105.589 89.0576 105.582 89.0666 105.575 89.0756C105.432 89.2957 105.286 89.5158 105.135 89.7337C104.906 90.0706 104.672 90.4075 104.437 90.7377C104.428 90.7512 104.421 90.7624 104.412 90.7714C104.304 90.9241 104.194 91.0746 104.084 91.2273C103.871 91.5216 103.653 91.8158 103.43 92.1078C103.298 92.2853 103.163 92.4605 103.028 92.6334C102.894 92.8086 102.759 92.9793 102.622 93.1523C102.525 93.2735 102.429 93.3948 102.332 93.5161C102.101 93.8036 101.865 94.0889 101.627 94.3719C101.472 94.5583 101.315 94.7447 101.155 94.9289C101.128 94.9604 101.101 94.9918 101.074 95.0232C100.809 95.331 100.54 95.6342 100.268 95.9374C99.9804 96.2541 99.6929 96.5686 99.3964 96.8808C99.2459 97.0425 99.0932 97.2042 98.9382 97.3637C98.6821 97.631 98.4216 97.896 98.1588 98.1588C97.0335 99.2841 95.87 100.358 94.6706 101.375C94.4909 101.528 94.3112 101.678 94.1293 101.829C93.9766 101.957 93.8216 102.085 93.6644 102.211C93.4779 102.363 93.2893 102.514 93.1006 102.662L92.7232 102.959C92.4088 103.206 92.0921 103.446 91.7709 103.684C91.4497 103.922 91.1285 104.158 90.8028 104.389C90.284 104.762 89.7584 105.124 89.2283 105.474C89.0284 105.607 88.8285 105.739 88.6264 105.87C88.1187 106.198 87.6066 106.519 87.0878 106.829C86.8609 106.966 86.6341 107.1 86.405 107.235C85.8524 107.556 85.2954 107.871 84.7294 108.172C84.5385 108.275 84.3453 108.379 84.1521 108.48C83.9028 108.61 83.6535 108.738 83.4042 108.864L74.7837 94.0058C70.5341 96.0272 65.8757 97.3255 60.9702 97.7455L61.0129 114.894C60.977 114.897 60.9433 114.899 60.9096 114.899C60.6535 114.915 60.3952 114.928 60.1369 114.939C59.8988 114.951 59.6607 114.96 59.4227 114.966C59.4114 114.969 59.3979 114.969 59.3867 114.969C59.3171 114.973 59.2475 114.973 59.1778 114.975C59.1599 114.978 59.1419 114.978 59.1239 114.975C58.9397 114.982 58.7533 114.987 58.5669 114.989C58.212 114.998 57.8571 115 57.5 115V91.1577C76.0595 91.1577 91.1577 76.0595 91.1577 57.5C91.1577 38.9405 76.0595 23.8423 57.5 23.8423V0C57.7785 0 58.057 0.00224609 58.3333 0.00673828C58.4681 0.00898437 58.6051 0.0112305 58.7398 0.0134766C58.8746 0.0157227 59.0094 0.0202148 59.1441 0.024707C59.49 0.0336914 59.8337 0.047168 60.1773 0.0628906C60.2941 0.0673828 60.4087 0.071875 60.5232 0.0786133C60.6378 0.0831055 60.7546 0.0898437 60.8691 0.0988281C61.3543 0.123535 61.8395 0.157227 62.3224 0.199902C62.511 0.213379 62.6997 0.229102 62.8861 0.249316C62.8884 0.24707 62.8906 0.24707 62.8951 0.249316C63.4319 0.29873 63.9665 0.354883 64.5011 0.42002C64.6695 0.440234 64.838 0.460449 65.0042 0.48291C66.2373 0.642383 67.4592 0.840039 68.6721 1.08037C68.7911 1.10283 68.9079 1.12529 69.027 1.15C69.1842 1.18145 69.3392 1.21289 69.4941 1.24658C69.7187 1.29375 69.9411 1.34092 70.1635 1.39033C70.3297 1.42852 70.4936 1.46445 70.6576 1.50488C70.8553 1.5498 71.0484 1.59697 71.2438 1.64414C71.4168 1.68682 71.5897 1.72949 71.7604 1.77217C73.0497 2.1001 74.3255 2.4707 75.5855 2.88848C75.781 2.95361 75.9764 3.01875 76.1718 3.08613C76.4705 3.18721 76.767 3.29053 77.0635 3.39834C77.2319 3.45898 77.3981 3.51963 77.5644 3.58252C77.7822 3.66338 78.0001 3.74648 78.218 3.82959C78.4358 3.9127 78.6537 3.99805 78.8693 4.08564C79.7296 4.4293 80.5831 4.79541 81.4276 5.18174C81.5826 5.25137 81.7376 5.32324 81.8926 5.39736C82.0476 5.46924 82.2003 5.54336 82.3553 5.61748C82.5103 5.6916 82.663 5.76572 82.8157 5.84209C82.9707 5.91621 83.1234 5.99258 83.2762 6.07119C83.9208 6.39238 84.5564 6.72705 85.1854 7.0752C85.2977 7.13584 85.4077 7.19648 85.5178 7.25938C85.7603 7.39414 85.9984 7.52891 86.2365 7.66816C86.4521 7.7917 86.6655 7.91748 86.8789 8.04551C87.1237 8.1915 87.3663 8.3375 87.6089 8.48799C87.665 8.52168 87.7234 8.55762 87.7773 8.59355C87.9885 8.72383 88.1996 8.85859 88.4107 8.99336C88.6443 9.1416 88.8757 9.29209 89.107 9.44482L80.5225 24.3274C84.4644 27.0699 87.8964 30.4975 90.6434 34.4349L105.515 25.8323C105.982 26.5376 106.433 27.2519 106.867 27.9751C106.99 28.1795 107.112 28.3861 107.235 28.595C107.372 28.8286 107.507 29.0645 107.64 29.3025C107.709 29.4216 107.774 29.5406 107.839 29.6619C108.096 30.1201 108.345 30.5828 108.585 31.0478C108.691 31.2521 108.796 31.4543 108.897 31.6587C109.073 32.0046 109.246 32.3527 109.412 32.7054C109.486 32.8581 109.558 33.0131 109.63 33.1658C109.654 33.2197 109.681 33.2714 109.704 33.3253C109.771 33.4713 109.838 33.615 109.904 33.761C109.987 33.943 110.068 34.1249 110.148 34.3091C110.241 34.5135 110.33 34.7201 110.418 34.9268C110.497 35.1132 110.575 35.2974 110.652 35.4838C110.741 35.6994 110.829 35.915 110.914 36.1307C111.168 36.7596 111.408 37.3952 111.635 38.0331C111.716 38.2555 111.795 38.4778 111.871 38.7024C112.415 40.277 112.889 41.8762 113.293 43.4979C113.351 43.7404 113.41 43.983 113.468 44.2256C113.569 44.6501 113.664 45.0769 113.753 45.5059C113.803 45.735 113.85 45.9641 113.895 46.1954C113.942 46.4245 113.985 46.6559 114.027 46.8872C114.068 47.0961 114.106 47.3072 114.142 47.5184C114.227 48.0013 114.304 48.4887 114.376 48.9761C114.412 49.2074 114.443 49.441 114.474 49.6746C114.508 49.9082 114.537 50.144 114.567 50.3776C114.645 51.029 114.715 51.6826 114.773 52.3385C114.823 52.9112 114.865 53.484 114.899 54.0567C114.903 54.1443 114.91 54.2297 114.912 54.315C114.921 54.4588 114.928 54.6048 114.935 54.7485C114.978 55.6627 115 56.5791 115 57.5Z" fill="#018256"/>
<path d="M73.6099 63.9991C71.0815 68.1283 67.5569 69.0177 65.0458 69.0366C63.7406 69.0467 62.434 68.8185 61.1904 68.3709C61.4635 69.4993 61.8139 70.1136 62.1088 70.3207L62.5702 70.6453V73.6719H52.4302V70.645L52.8915 70.3205C53.1864 70.1134 53.5368 69.4991 53.81 68.3706C52.5663 68.8183 51.2604 69.0465 49.9545 69.0364C47.4434 69.0175 43.9191 68.1281 41.3904 63.9988C39.3523 60.6699 39.2986 56.722 41.2426 53.1677C42.7426 50.4241 45.0668 48.2376 47.3142 46.1226C47.7098 45.7511 48.0826 45.3998 48.4544 45.0434C49.8472 43.7056 51.2575 42.4164 52.6204 41.17C53.9741 39.9322 55.3741 38.6524 56.7474 37.3334L57.5003 36.6113L58.2527 37.3334C59.626 38.6524 61.026 39.9322 62.3797 41.17C63.7428 42.4166 65.1529 43.7056 66.5457 45.0434C66.9173 45.3998 67.2903 45.7509 67.6859 46.1226C69.9333 48.2376 72.2576 50.4241 73.7575 53.1677C75.7017 56.722 75.648 60.6701 73.6099 63.9991Z" fill="#3C3A41"/>
<path d="M73.6096 63.9991C71.0812 68.1283 67.5566 69.0177 65.0455 69.0366C63.7403 69.0467 62.4338 68.8185 61.1901 68.3709C61.4632 69.4993 61.8136 70.1136 62.1085 70.3207L62.5699 70.6453V73.6719H57.5V36.6113L58.2524 37.3334C59.6257 38.6524 61.0257 39.9322 62.3794 41.17C63.7426 42.4166 65.1527 43.7056 66.5455 45.0434C66.917 45.3998 67.29 45.7509 67.6856 46.1226C69.933 48.2376 72.2573 50.4241 73.7572 53.1677C75.7014 56.722 75.6477 60.6701 73.6096 63.9991Z" fill="#17171A"/>
</svg>
