<svg width="31" height="31" viewBox="0 0 31 31" fill="none" xmlns="http://www.w3.org/2000/svg">
<path d="M0 15.5C0 6.93959 6.93959 0 15.5 0V0C24.0604 0 31 6.93959 31 15.5V15.5C31 24.0604 24.0604 31 15.5 31V31C6.93959 31 0 24.0604 0 15.5V15.5Z" fill="#117E66" fill-opacity="0.47"/>
<path d="M4.32568 15.8605C4.32568 9.68899 9.32864 4.68604 15.5001 4.68604V4.68604C21.6716 4.68604 26.6745 9.68899 26.6745 15.8605V15.8605C26.6745 22.0319 21.6716 27.0349 15.5001 27.0349V27.0349C9.32864 27.0349 4.32568 22.0319 4.32568 15.8605V15.8605Z" fill="#117E66" fill-opacity="0.54"/>
<path d="M7.93018 15.8608C7.93018 11.6801 11.3193 8.29102 15.4999 8.29102V8.29102C19.6806 8.29102 23.0697 11.6801 23.0697 15.8608V15.8608C23.0697 20.0414 19.6806 23.4306 15.4999 23.4306V23.4306C11.3193 23.4306 7.93018 20.0414 7.93018 15.8608V15.8608Z" fill="#117E66"/>
</svg>
