<svg width="136" height="136" viewBox="0 0 136 136" fill="none" xmlns="http://www.w3.org/2000/svg">
<path d="M65.3224 5.2997C66.432 3.10352 69.568 3.10352 70.6776 5.2997L87.5694 38.7325C88.0057 39.5961 88.8317 40.1962 89.7878 40.3443L126.804 46.078C129.236 46.4546 130.205 49.4372 128.459 51.1711L101.882 77.5674C101.196 78.2492 100.88 79.2202 101.035 80.1753L107.021 117.152C107.414 119.581 104.877 121.424 102.688 120.299L69.3711 103.18C68.5105 102.738 67.4895 102.738 66.6289 103.18L33.312 120.299C31.1234 121.424 28.5862 119.581 28.9794 117.152L34.9651 80.1753C35.1197 79.2202 34.8042 78.2492 34.1177 77.5674L7.54104 51.1711C5.79523 49.4372 6.76433 46.4546 9.19591 46.078L46.2122 40.3443C47.1683 40.1962 47.9943 39.5961 48.4306 38.7325L65.3224 5.2997Z" fill="#66C58B" fill-opacity="0.37"/>
<path d="M65.3224 20.2997C66.432 18.1035 69.568 18.1035 70.6776 20.2997L83.0993 44.8851C83.5356 45.7486 84.3616 46.3488 85.3177 46.4969L112.538 50.7132C114.97 51.0899 115.939 54.0724 114.193 55.8064L94.6495 75.2173C93.9631 75.8991 93.6476 76.8702 93.8022 77.8253L98.2038 105.016C98.597 107.445 96.0599 109.289 93.8713 108.164L69.3711 95.5755C68.5105 95.1333 67.4895 95.1333 66.6289 95.5755L42.1287 108.164C39.9401 109.289 37.403 107.445 37.7962 105.016L42.1978 77.8253C42.3524 76.8702 42.0369 75.8991 41.3505 75.2173L21.8069 55.8064C20.0611 54.0724 21.0302 51.0899 23.4618 50.7132L50.6823 46.4969C51.6384 46.3488 52.4644 45.7486 52.9007 44.8851L65.3224 20.2997Z" fill="#66C58B" fill-opacity="0.47"/>
<path d="M65.3224 31.2997C66.432 29.1035 69.568 29.1035 70.6776 31.2997L79.8212 49.397C80.2575 50.2605 81.0835 50.8606 82.0396 51.0087L102.077 54.1124C104.508 54.489 105.477 57.4716 103.731 59.2056L89.3455 73.4939C88.659 74.1758 88.3435 75.1468 88.4981 76.1019L91.7382 96.1173C92.1313 98.5463 89.5942 100.39 87.4056 99.265L69.3711 89.9985C68.5105 89.5563 67.4895 89.5563 66.6289 89.9985L48.5944 99.265C46.4058 100.39 43.8687 98.5462 44.2618 96.1173L47.5019 76.1019C47.6565 75.1468 47.341 74.1758 46.6545 73.4939L32.2685 59.2056C30.5227 57.4716 31.4918 54.489 33.9234 54.1124L53.9604 51.0087C54.9165 50.8606 55.7425 50.2605 56.1788 49.397L65.3224 31.2997Z" fill="#66C58B" fill-opacity="0.78"/>
</svg>
