<svg width="208" height="24" viewBox="0 0 208 24" fill="none" xmlns="http://www.w3.org/2000/svg">
<path d="M9.4 0.599998C11.5973 0.599998 13.4533 1.34667 14.968 2.84C16.4827 4.33333 17.24 6.14667 17.24 8.28C17.24 10.4133 16.4827 12.2267 14.968 13.72C13.4533 15.2133 11.5973 15.96 9.4 15.96H6.04V23H0.92V0.599998H9.4ZM9.4 11.16C10.1893 11.16 10.84 10.8827 11.352 10.328C11.864 9.77333 12.12 9.09067 12.12 8.28C12.12 7.46933 11.864 6.78667 11.352 6.232C10.84 5.67733 10.1893 5.4 9.4 5.4H6.04V11.16H9.4ZM35.635 23.448C33.3523 23.448 31.443 22.9573 29.907 21.976C28.3923 20.9733 27.315 19.6187 26.675 17.912L31.091 15.352C31.987 17.4213 33.555 18.456 35.795 18.456C37.8217 18.456 38.835 17.848 38.835 16.632C38.835 15.9707 38.5043 15.4587 37.843 15.096C37.203 14.712 35.987 14.2747 34.195 13.784C33.2563 13.528 32.435 13.24 31.731 12.92C31.027 12.6 30.3337 12.184 29.651 11.672C28.9897 11.1387 28.4777 10.4773 28.115 9.688C27.7737 8.89867 27.603 7.992 27.603 6.968C27.603 4.89867 28.339 3.24533 29.811 2.008C31.3043 0.770665 33.075 0.151999 35.123 0.151999C36.9577 0.151999 38.579 0.589332 39.987 1.464C41.395 2.31733 42.5043 3.56533 43.315 5.208L38.995 7.736C38.5897 6.88267 38.0883 6.24267 37.491 5.816C36.8937 5.368 36.1043 5.144 35.123 5.144C34.355 5.144 33.7577 5.31467 33.331 5.656C32.9257 5.976 32.723 6.37067 32.723 6.84C32.723 7.39467 32.979 7.87467 33.491 8.28C34.0243 8.68533 35.1123 9.13333 36.755 9.624C37.651 9.90133 38.3443 10.1253 38.835 10.296C39.3257 10.4667 39.9443 10.7547 40.691 11.16C41.459 11.544 42.035 11.96 42.419 12.408C42.8243 12.8347 43.1763 13.4107 43.475 14.136C43.795 14.84 43.955 15.6507 43.955 16.568C43.955 18.7013 43.187 20.3867 41.651 21.624C40.115 22.84 38.1097 23.448 35.635 23.448ZM72.7538 0.599998L65.2338 14.392V23H60.1138V14.392L52.5938 0.599998H58.4178L62.6738 9.24L66.9298 0.599998H72.7538ZM97.71 0.599998V5.528H91.95V23H86.83V5.528H81.07V0.599998H97.71ZM113.071 18.072H122.031V23H107.951V0.599998H121.871V5.528H113.071V9.24H121.071V14.104H113.071V18.072ZM140.76 23.448C138.477 23.448 136.568 22.9573 135.032 21.976C133.517 20.9733 132.44 19.6187 131.8 17.912L136.216 15.352C137.112 17.4213 138.68 18.456 140.92 18.456C142.947 18.456 143.96 17.848 143.96 16.632C143.96 15.9707 143.629 15.4587 142.968 15.096C142.328 14.712 141.112 14.2747 139.32 13.784C138.381 13.528 137.56 13.24 136.856 12.92C136.152 12.6 135.459 12.184 134.776 11.672C134.115 11.1387 133.603 10.4773 133.24 9.688C132.899 8.89867 132.728 7.992 132.728 6.968C132.728 4.89867 133.464 3.24533 134.936 2.008C136.429 0.770665 138.2 0.151999 140.248 0.151999C142.083 0.151999 143.704 0.589332 145.112 1.464C146.52 2.31733 147.629 3.56533 148.44 5.208L144.12 7.736C143.715 6.88267 143.213 6.24267 142.616 5.816C142.019 5.368 141.229 5.144 140.248 5.144C139.48 5.144 138.883 5.31467 138.456 5.656C138.051 5.976 137.848 6.37067 137.848 6.84C137.848 7.39467 138.104 7.87467 138.616 8.28C139.149 8.68533 140.237 9.13333 141.88 9.624C142.776 9.90133 143.469 10.1253 143.96 10.296C144.451 10.4667 145.069 10.7547 145.816 11.16C146.584 11.544 147.16 11.96 147.544 12.408C147.949 12.8347 148.301 13.4107 148.6 14.136C148.92 14.84 149.08 15.6507 149.08 16.568C149.08 18.7013 148.312 20.3867 146.776 21.624C145.24 22.84 143.235 23.448 140.76 23.448ZM174.679 0.599998V5.528H168.919V23H163.799V5.528H158.039V0.599998H174.679ZM203.864 20.088C201.603 22.328 198.851 23.448 195.608 23.448C192.365 23.448 189.613 22.328 187.352 20.088C185.091 17.848 183.96 15.0853 183.96 11.8C183.96 8.51467 185.091 5.752 187.352 3.512C189.613 1.272 192.365 0.151999 195.608 0.151999C198.851 0.151999 201.603 1.272 203.864 3.512C206.125 5.752 207.256 8.51467 207.256 11.8C207.256 15.0853 206.125 17.848 203.864 20.088ZM190.936 16.6C192.195 17.8373 193.752 18.456 195.608 18.456C197.464 18.456 199.011 17.8373 200.248 16.6C201.507 15.3627 202.136 13.7627 202.136 11.8C202.136 9.83733 201.507 8.23733 200.248 7C199.011 5.76267 197.464 5.144 195.608 5.144C193.752 5.144 192.195 5.76267 190.936 7C189.699 8.23733 189.08 9.83733 189.08 11.8C189.08 13.7627 189.699 15.3627 190.936 16.6Z" fill="#45A6FF"/>
</svg>
