<svg width="12" height="12" viewBox="0 0 12 12" fill="none" xmlns="http://www.w3.org/2000/svg">
<g opacity="0.3">
<path d="M9.49632 5.30675L4.47475 0.292649C4.28982 0.0975228 4.05889 0 3.78151 0C3.50413 0 3.2732 0.0976307 3.08828 0.292649L2.50292 0.870394C2.3129 1.0604 2.21788 1.29135 2.21788 1.56349C2.21788 1.83049 2.31287 2.06419 2.50292 2.26439L6.2461 6.00001L2.50276 9.74333C2.31279 9.93333 2.21777 10.1643 2.21777 10.4365C2.21777 10.7034 2.31276 10.9372 2.50276 11.1373L3.08817 11.715C3.27817 11.905 3.50934 12 3.7814 12C4.05358 12 4.28469 11.905 4.47464 11.715L9.49632 6.70088C9.6864 6.50063 9.7815 6.26698 9.7815 5.99999C9.78152 5.72784 9.6864 5.49675 9.49632 5.30675Z" fill="#181A1D"/>
</g>
</svg>
