<svg width="20" height="20" viewBox="0 0 20 20" fill="none" xmlns="http://www.w3.org/2000/svg">
<g clip-path="url(#clip0)">
<path d="M0.353381 9.64297L4.96178 11.363L6.74551 17.0994C6.85965 17.4668 7.30891 17.6026 7.60711 17.3588L10.1759 15.2647C10.4452 15.0453 10.8287 15.0344 11.1101 15.2386L15.7433 18.6024C16.0623 18.8343 16.5142 18.6595 16.5942 18.274L19.9883 1.94797C20.0756 1.5269 19.6619 1.17563 19.261 1.3307L0.347981 8.62676C-0.118752 8.80677 -0.114686 9.46757 0.353381 9.64297ZM6.45805 10.4474L15.4646 4.90023C15.6264 4.80083 15.793 5.0197 15.654 5.14863L8.22098 12.058C7.95971 12.3012 7.79118 12.6266 7.74345 12.9799L7.49025 14.8563C7.45671 15.1068 7.10478 15.1317 7.03565 14.8892L6.06185 11.4676C5.95031 11.0773 6.11285 10.6604 6.45805 10.4474Z" fill="#469EDE"/>
</g>
<defs>
<clipPath id="clip0">
<rect width="20" height="20" fill="white"/>
</clipPath>
</defs>
</svg>
