<svg width="128" height="35" fill="none" xmlns="http://www.w3.org/2000/svg"><path d="M17.5 0C7.85 0 0 7.85 0 17.5S7.85 35 17.5 35 35 27.15 35 17.5 27.15 0 17.5 0zM4.85 24.727a5.331 5.331 0 003.098-1.48c2.384-2.383.859-4.025 2.322-5.827.364-.43.993-.982 1.933-1.168 3.17-.684 5.383-3.42 5.383-6.655 0-1.709.198-4.022-1.587-6.602a14.511 14.511 0 015.678.54 11.585 11.585 0 001.506 7.592c2.332 3.849 6.099 3.042 8.426 2.762.264 1.03.42 2.1.451 3.204-3.978-1.145-3.89 3.563-6.993 2.34-8.436-3.404-14.382 5.576-8.674 12.595-4.94-.373-9.199-3.216-11.543-7.3zM62.09 28h-5.127V6.672h5.127V28zm14.575-5.669c0-.752-.269-1.338-.806-1.758-.527-.42-1.46-.854-2.797-1.303-1.338-.45-2.432-.884-3.282-1.304-2.763-1.358-4.145-3.223-4.145-5.596 0-1.181.342-2.222 1.025-3.12.694-.908 1.67-1.611 2.93-2.11 1.26-.507 2.676-.761 4.248-.761 1.533 0 2.905.273 4.116.82 1.22.547 2.168 1.328 2.842 2.344.674 1.006 1.01 2.158 1.01 3.457H76.68c0-.87-.269-1.543-.806-2.021-.527-.479-1.245-.718-2.153-.718-.918 0-1.646.205-2.183.615-.527.4-.79.913-.79 1.538 0 .547.292 1.045.878 1.494.586.44 1.616.899 3.09 1.377 1.475.469 2.686.977 3.634 1.524 2.304 1.328 3.457 3.159 3.457 5.493 0 1.865-.704 3.33-2.11 4.394-1.406 1.065-3.335 1.597-5.786 1.597-1.728 0-3.296-.308-4.702-.923-1.397-.625-2.451-1.475-3.164-2.549-.703-1.084-1.055-2.329-1.055-3.735h5.157c0 1.143.292 1.987.878 2.534.596.537 1.558.806 2.886.806.85 0 1.519-.18 2.007-.542.498-.371.747-.889.747-1.553zM89.922 28h-5.127V6.672h5.127V28zM109.8 10.642h-6.402V28h-5.141V10.642h-6.284v-3.97H109.8v3.97zm15.41 8.32h-8.086v5.083h9.551V28h-14.693V6.672h14.722v3.97h-9.58v4.497h8.086v3.823z" fill="#818181"/></svg>