<svg width="29" height="29" fill="none" xmlns="http://www.w3.org/2000/svg"><g clip-path="url(#clip0)"><path d="M25.762 14.223c0 .8-.081 1.582-.234 2.338a11.73 11.73 0 01-8.69 9.041c-.895.22-1.83.335-2.79.335-6.47 0-11.714-5.245-11.714-11.714 0-6.47 5.244-11.714 11.714-11.714 6.469 0 11.714 5.245 11.714 11.714z" fill="#F5F5F5"/><path d="M13.07 12.779V9.628a.992.992 0 111.984 0v3.15H13.07z" fill="#2B597F"/><path d="M14.048.175C6.29.175 0 6.465 0 14.223S6.29 28.27 14.048 28.27s14.048-6.29 14.048-14.048S21.806.175 14.048.175zm.948 25.723v-2.5a.992.992 0 10-1.984 0v2.492c-5.672-.497-10.184-5.035-10.64-10.719h2.471a.992.992 0 100-1.984H2.38C2.876 7.525 7.4 3.018 13.07 2.55v2.468a.992.992 0 101.984 0V2.553c5.676.483 10.197 5.013 10.667 10.693h-2.498a.992.992 0 000 1.983h2.495c-.484 5.686-5.029 10.213-10.722 10.67z" fill="#50758D"/><path d="M1.167 14.223C1.167 6.66 7.144.493 14.631.187a13.84 13.84 0 00-.583-.012C6.29.175 0 6.465 0 14.223S6.29 28.27 14.048 28.27c.195 0 .39-.005.583-.013-7.487-.305-13.464-6.472-13.464-14.035z" fill="#2B597F"/><path d="M3.501 14.223c0 .32.014.636.043.948H2.373a11.588 11.588 0 01.007-1.984h1.172c-.034.341-.051.687-.051 1.036zm11.495 10.504v1.171a11.576 11.576 0 01-1.984-.008v-1.17a10.49 10.49 0 001.984.008zm10.766-10.504c0 .339-.016.675-.045 1.006h-1.17a10.63 10.63 0 00.003-1.983h1.17c.028.322.042.648.042.977zM15.054 2.553v1.17a10.627 10.627 0 00-1.984-.002V2.55c.322-.028.632-.041.978-.041.345 0 .72.016 1.006.044zm-.816 13.002l-2.952 3.512a.992.992 0 01-1.735-.456.98.98 0 01.218-.794l2.95-3.537 1.52 1.275z" fill="#2B597F"/><path d="M14.047 15.973a1.75 1.75 0 100-3.5 1.75 1.75 0 000 3.5z" fill="#FAA515"/><path d="M29 22.902a5.922 5.922 0 11-11.844.001 5.922 5.922 0 0111.844 0z" fill="#FAD207"/><path d="M25.528 16.56a11.73 11.73 0 01-8.69 9.042 6.755 6.755 0 01-.558-2.7 6.805 6.805 0 019.238-6.345c.003 0 .007.003.01.004z" fill="#E6E6E6"/><path d="M29 22.902a5.922 5.922 0 11-11.844.001 5.922 5.922 0 0111.844 0z" fill="#FAD207"/><path fill-rule="evenodd" clip-rule="evenodd" d="M22.96 23.086v-2.2c.62.145 1.08.569 1.08 1.054 0 .241.196.437.438.437a.48.48 0 00.328-.149l.561-.56h-.474c-.141-.84-.926-1.513-1.932-1.675V18.43h-.171l-.572.571a.075.075 0 00-.009.01l-.006.006a.435.435 0 00-.118.298v.67a2.735 2.735 0 00-.936.307v-.134l-.569.569a1.76 1.76 0 00-.508 1.214c0 .98.872 1.795 2.013 1.955V26.1c-.647-.131-1.137-.567-1.137-1.067a.436.436 0 00-.147-.326l-.002-.581-.586.586a.436.436 0 00-.14.321c0 .98.871 1.796 2.012 1.955v.67a.438.438 0 00.722.334l.582-.582h-.428v-.43c1.112-.179 1.954-.983 1.954-1.947 0-.963-.842-1.768-1.954-1.946zm-.875-.079c-.647-.132-1.137-.567-1.137-1.067s.49-.936 1.137-1.068v2.135zm.876 3.08v-2.11c.618.146 1.08.57 1.08 1.055s-.462.91-1.08 1.055z" fill="#F8C201"/><path d="M23.544 22.502v-2.2c.618.145 1.08.57 1.08 1.054a.438.438 0 10.875 0c0-.963-.842-1.768-1.955-1.947v-.679a.438.438 0 10-.875 0v.671c-1.142.16-2.013.975-2.013 1.955 0 .98.872 1.796 2.013 1.955v2.205c-.648-.132-1.138-.567-1.138-1.067a.438.438 0 10-.875 0c0 .98.872 1.795 2.013 1.955v.67a.438.438 0 10.875 0v-.679c1.113-.179 1.955-.983 1.955-1.946 0-.964-.842-1.768-1.955-1.947zm-2.013-1.146c0-.5.49-.935 1.138-1.067v2.134c-.648-.132-1.138-.567-1.138-1.067zm2.013 4.147v-2.109c.618.146 1.08.57 1.08 1.055 0 .484-.462.909-1.08 1.054z" fill="#F5F5F5"/></g><defs><clipPath id="clip0"><path fill="#fff" d="M0 0h29v29H0z"/></clipPath></defs></svg>