<svg xmlns="http://www.w3.org/2000/svg" width="37" height="37" viewBox="0 0 37 37"><defs><clipPath id="zb03a"><path fill="#fff" d="M18.5.812c9.769 0 17.687 7.92 17.687 17.688 0 9.769-7.918 17.687-17.687 17.687C8.73 36.187.812 28.27.812 18.5.812 8.731 8.732.812 18.5.812z"/></clipPath><clipPath id="zb03b"><path fill="#fff" d="M14.9 17.594h7.2a.9.9 0 0 1 .9.9v.012a.9.9 0 0 1-.9.9h-7.2a.9.9 0 0 1-.9-.9v-.012a.9.9 0 0 1 .9-.9z"/></clipPath></defs><g><g><g opacity=".3"><path fill="#fff" d="M18.5.812c9.769 0 17.687 7.92 17.687 17.688 0 9.769-7.918 17.687-17.687 17.687C8.73 36.187.812 28.27.812 18.5.812 8.731 8.732.812 18.5.812z"/><path fill="none" stroke="#484d33" stroke-miterlimit="20" stroke-width="2" d="M18.5.812c9.769 0 17.687 7.92 17.687 17.688 0 9.769-7.918 17.687-17.687 17.687C8.73 36.187.812 28.27.812 18.5.812 8.731 8.732.812 18.5.812z" clip-path="url(&quot;#zb03a&quot;)"/></g><g><path fill="#c61300" d="M14.9 17.594h7.2a.9.9 0 0 1 .9.9v.012a.9.9 0 0 1-.9.9h-7.2a.9.9 0 0 1-.9-.9v-.012a.9.9 0 0 1 .9-.9z"/><path fill="none" stroke="#c61300" stroke-miterlimit="20" stroke-width="4" d="M14.9 17.594h7.2a.9.9 0 0 1 .9.9v.012a.9.9 0 0 1-.9.9h-7.2a.9.9 0 0 1-.9-.9v-.012a.9.9 0 0 1 .9-.9z" clip-path="url(&quot;#zb03b&quot;)"/></g></g></g></svg>