<svg xmlns="http://www.w3.org/2000/svg" width="37" height="37" viewBox="0 0 37 37"><defs><clipPath id="uoena"><path fill="#fff" d="M18.5.812c9.769 0 17.687 7.92 17.687 17.688 0 9.769-7.918 17.687-17.687 17.687C8.73 36.187.812 28.27.812 18.5.812 8.73 8.732.812 18.5.812z"/></clipPath><clipPath id="uoenb"><path fill="#fff" d="M18.494 14h.012a.9.9 0 0 1 .9.9v2.694H22.1a.9.9 0 0 1 .9.9v.012a.9.9 0 0 1-.9.9h-2.694V22.1a.9.9 0 0 1-.9.9h-.012a.9.9 0 0 1-.9-.9v-2.694H14.9a.9.9 0 0 1-.9-.9v-.012a.9.9 0 0 1 .9-.9h2.694V14.9a.9.9 0 0 1 .9-.9z"/></clipPath></defs><g><g><g opacity=".3"><path fill="#fff" d="M18.5.812c9.769 0 17.687 7.92 17.687 17.688 0 9.769-7.918 17.687-17.687 17.687C8.73 36.187.812 28.27.812 18.5.812 8.73 8.732.812 18.5.812z"/><path fill="none" stroke="#484d33" stroke-miterlimit="20" stroke-width="2" d="M18.5.812c9.769 0 17.687 7.92 17.687 17.688 0 9.769-7.918 17.687-17.687 17.687C8.73 36.187.812 28.27.812 18.5.812 8.73 8.732.812 18.5.812z" clip-path="url(&quot;#uoena&quot;)"/></g><g><path fill="#416894" d="M18.494 14h.012a.9.9 0 0 1 .9.9v2.694H22.1a.9.9 0 0 1 .9.9v.012a.9.9 0 0 1-.9.9h-2.694V22.1a.9.9 0 0 1-.9.9h-.012a.9.9 0 0 1-.9-.9v-2.694H14.9a.9.9 0 0 1-.9-.9v-.012a.9.9 0 0 1 .9-.9h2.694V14.9a.9.9 0 0 1 .9-.9z"/><path fill="none" stroke="#416894" stroke-miterlimit="20" stroke-width="4" d="M18.494 14h.012a.9.9 0 0 1 .9.9v2.694H22.1a.9.9 0 0 1 .9.9v.012a.9.9 0 0 1-.9.9h-2.694V22.1a.9.9 0 0 1-.9.9h-.012a.9.9 0 0 1-.9-.9v-2.694H14.9a.9.9 0 0 1-.9-.9v-.012a.9.9 0 0 1 .9-.9h2.694V14.9a.9.9 0 0 1 .9-.9z" clip-path="url(&quot;#uoenb&quot;)"/></g></g></g></svg>