<svg width="61" height="60" fill="none" xmlns="http://www.w3.org/2000/svg"><circle cx="30.941" cy="30" r="30" fill="#fff"/><g clip-path="url(#clip0)"><path d="M45.94 30c0 8.285-6.715 15-15 15-8.284 0-15-6.715-15-15 0-8.284 6.716-15 15-15 8.285 0 15 6.716 15 15z" fill="#4A7AFF"/><path d="M31.599 44.985C39.578 44.64 45.94 38.064 45.94 30l-.003-.175-10.412-10.412L24.393 31.05l6.186 6.186-2.852 3.878 3.872 3.872z" fill="#0053BF"/><path d="M35.526 19.413v3.397s-3.9-.566-3.9 1.95v2.516h3.523l-.44 3.836h-3.082v10.001h-3.9v-10l-3.334-.064v-3.773h3.27v-2.894s-.215-4.304 4.026-5.094c1.762-.329 3.837.125 3.837.125z" fill="#fff"/><path d="M35.526 22.81v-3.397s-2.075-.454-3.837-.125a5.952 5.952 0 00-.77.196v21.63h.708V31.111h3.082l.44-3.836h-3.522V24.76c0-2.516 3.9-1.95 3.9-1.95z" fill="#DCE1EB"/></g><defs><clipPath id="clip0"><path fill="#fff" d="M15.941 15h30v30h-30z"/></clipPath></defs></svg>