<svg width="61" height="60" fill="none" xmlns="http://www.w3.org/2000/svg"><circle cx="30.941" cy="30" r="30" fill="#fff"/><g clip-path="url(#clip0)"><path d="M45.85 23.816c-.073-1.597-.326-2.688-.697-3.641a7.352 7.352 0 00-1.73-2.657 7.354 7.354 0 00-2.657-1.73c-.954-.371-2.044-.625-3.641-.697-1.6-.074-2.11-.091-6.184-.091s-4.585.017-6.185.09c-1.596.073-2.687.327-3.64.698a7.346 7.346 0 00-2.658 1.73 7.353 7.353 0 00-1.73 2.656c-.37.954-.624 2.045-.697 3.641-.073 1.6-.09 2.111-.09 6.185s.017 4.585.09 6.184c.073 1.597.327 2.687.697 3.641a7.355 7.355 0 001.73 2.657 7.35 7.35 0 002.657 1.73c.954.371 2.045.625 3.642.698 1.6.073 2.11.09 6.184.09 4.073 0 4.585-.017 6.184-.09 1.597-.073 2.687-.327 3.641-.698a7.669 7.669 0 004.387-4.387c.371-.954.624-2.044.697-3.64.073-1.6.09-2.111.09-6.185s-.017-4.585-.09-6.184zm-2.7 12.246c-.066 1.462-.31 2.256-.516 2.785a4.968 4.968 0 01-2.847 2.847c-.528.205-1.323.45-2.785.516-1.582.072-2.056.087-6.061.087-4.006 0-4.48-.015-6.062-.087-1.462-.067-2.256-.311-2.785-.516a4.65 4.65 0 01-1.725-1.123 4.648 4.648 0 01-1.122-1.724c-.205-.529-.45-1.323-.516-2.785-.072-1.582-.088-2.057-.088-6.062 0-4.005.016-4.48.088-6.061.066-1.463.31-2.257.516-2.785a4.652 4.652 0 011.122-1.725 4.645 4.645 0 011.725-1.122c.529-.206 1.323-.45 2.785-.517 1.582-.072 2.056-.087 6.062-.087 4.005 0 4.48.015 6.06.087 1.463.067 2.257.311 2.786.517a4.65 4.65 0 011.725 1.122 4.644 4.644 0 011.122 1.725c.205.528.45 1.322.516 2.785.072 1.581.088 2.056.088 6.061s-.015 4.48-.088 6.062z" fill="url(#paint0_linear)"/><path d="M30.94 22.297a7.703 7.703 0 100 15.406 7.703 7.703 0 000-15.406zm0 12.703a5 5 0 11.001-10 5 5 0 010 10z" fill="url(#paint1_linear)"/><path d="M40.748 21.993a1.8 1.8 0 11-3.6 0 1.8 1.8 0 013.6 0z" fill="url(#paint2_linear)"/></g><defs><linearGradient id="paint0_linear" x1="18.458" y1="42.482" x2="43.423" y2="17.517" gradientUnits="userSpaceOnUse"><stop stop-color="#FFD600"/><stop offset=".5" stop-color="#FF0100"/><stop offset="1" stop-color="#D800B9"/></linearGradient><linearGradient id="paint1_linear" x1="25.494" y1="35.446" x2="36.387" y2="24.553" gradientUnits="userSpaceOnUse"><stop stop-color="#FF6400"/><stop offset=".5" stop-color="#FF0100"/><stop offset="1" stop-color="#FD0056"/></linearGradient><linearGradient id="paint2_linear" x1="37.675" y1="23.266" x2="40.22" y2="20.72" gradientUnits="userSpaceOnUse"><stop stop-color="#F30072"/><stop offset="1" stop-color="#E50097"/></linearGradient><clipPath id="clip0"><path fill="#fff" d="M15.941 15h30v30h-30z"/></clipPath></defs></svg>