<svg width="61" height="60" fill="none" xmlns="http://www.w3.org/2000/svg"><circle cx="30.941" cy="30" r="30" fill="#fff"/><g clip-path="url(#clip0)"><path d="M30.94 45c8.285 0 15-6.716 15-15 0-8.284-6.715-15-15-15-8.284 0-15 6.716-15 15 0 8.284 6.716 15 15 15z" fill="#7AA5DA"/><path d="M45.936 29.653l-6.658-6.648-10.847 13.22 7.81 7.81c5.668-2.141 9.7-7.617 9.7-14.035 0-.116-.002-.232-.005-.347z" fill="#5786B5"/><path d="M38.424 22.823a.808.808 0 011.085.918l-2.682 12.82a.845.845 0 01-1.326.508l-4.049-2.972-2.063 2.107a.686.686 0 01-1.144-.274l-1.489-4.726-3.99-1.179a.573.573 0 01-.047-1.083l15.705-6.119zm-1.969 2.845c.175-.155-.028-.428-.226-.304l-8.614 5.342a.392.392 0 00-.168.45l1.175 5.158c.023.079.136.068.146-.014l.263-3.931a.389.389 0 01.13-.25l7.294-6.451z" fill="#fff"/><path d="M36.23 25.364c.197-.123.4.15.225.304l-7.294 6.45a.389.389 0 00-.13.25L28.77 36.3c-.01.082-.124.093-.147.014l-1.175-5.158a.392.392 0 01.168-.45l8.614-5.342z" fill="#9EC2E5"/><path d="M28.665 36.368a.674.674 0 01-.42-.438l-1.489-4.726-3.99-1.179a.573.573 0 01-.047-1.083l15.705-6.119a.805.805 0 01.848.167l-10.655 8.698v.38l-.059-.042.059 2.398v1.923a.371.371 0 00.047.019v.002z" fill="#fff"/><path d="M39.526 23.527a.879.879 0 01-.017.215L36.827 36.56a.845.845 0 01-1.326.508l-4.049-2.972-2.835-2.028v-.38l10.655-8.699a.84.84 0 01.149.187l.02.035a.627.627 0 01.033.075l.013.037a.805.805 0 01.04.203z" fill="#D1D1D1"/><path d="M31.453 34.098l-2.063 2.107a.802.802 0 01-.11.09v.002a.715.715 0 01-.12.063.683.683 0 01-.398.035l-.009-.001a1.52 1.52 0 01-.088-.028l-.047-1.941v-2.356l2.835 2.029z" fill="#D1D1D1"/><path d="M29.335 36.254zm-.055.041v.001h-.001zm-.12.065zm-.33.045a.685.685 0 00.012.002c-.004 0-.008 0-.012-.002z" fill="#DADDE0"/><path d="M28.902 36.41zm-.072-.005z" fill="#fff"/><path d="M28.83 36.405a.397.397 0 01-.048-.006.762.762 0 00.048.006zm-.144-.031l.066.019-.027-.006-.011-.004a.153.153 0 01-.028-.01z" fill="#DADDE0"/><path d="M28.725 36.387l.027.006a.125.125 0 01-.027-.006zm-.039-.013l.028.01a.265.265 0 01-.045-.015c.006.002.01.004.017.005z" fill="#fff"/><path d="M28.686 36.374l-.017-.005c-.002.001-.003 0-.005-.001v-.002c.008.004.015.006.022.008z" fill="#DADDE0"/><path d="M28.617 34.425l.047 1.941a.365.365 0 01-.047-.018v-1.923z" fill="#D1D1D1"/><path d="M28.617 32.069v2.356l-.059-2.398.059.042z" fill="#DADDE0"/><path d="M36.455 25.668l-7.295 6.45a.39.39 0 00-.129.251l-.262 3.932c-.01.082-.123.093-.147.014l-1.175-5.159a.391.391 0 01.168-.45l8.614-5.342c.198-.123.401.15.226.304z" fill="#ADBCC9"/></g><defs><clipPath id="clip0"><path fill="#fff" d="M15.941 15h30v30h-30z"/></clipPath></defs></svg>