<svg width="61" height="60" fill="none" xmlns="http://www.w3.org/2000/svg"><circle cx="30.941" cy="30" r="30" fill="#fff"/><g clip-path="url(#clip0)"><path d="M27.133 42.307a25.75 25.75 0 01-3.976-.315c-2.366-.371-4.761-1.61-5.439-1.98l-1.777-.971 1.924-.633c2.104-.692 3.383-1.121 4.967-1.793-1.586-.769-2.808-2.15-3.397-3.936l-.447-1.36.367.057a6.67 6.67 0 01-.836-1.031c-.758-1.151-1.16-2.558-1.074-3.763l.084-1.186.71.275a6.64 6.64 0 01-.643-1.804c-.31-1.544-.05-3.185.731-4.62l.619-1.136.827.994c2.617 3.144 5.931 5.009 9.865 5.555-.16-1.108-.04-2.177.358-3.135.464-1.116 1.29-2.062 2.387-2.736a7.167 7.167 0 014.159-1.021c1.553.095 2.964.677 4.084 1.684.547-.142.95-.294 1.495-.499.328-.124.7-.263 1.164-.424L45 17.94l-1.117 3.192c.073-.007.15-.012.229-.015l1.83-.083-1.082 1.478a3.025 3.025 0 00-.1.142c-.087.132-.196.295-1.68 2.277-.372.497-.557 1.144-.523 1.822.132 2.576-.184 4.907-.94 6.927-.715 1.912-1.822 3.552-3.29 4.875-1.819 1.637-4.136 2.758-6.89 3.331a21.22 21.22 0 01-4.303.422z" fill="#25D9F8"/><path d="M43.881 21.13L45 17.94l-1.714.59c-.465.16-.836.3-1.164.424-.545.205-.948.357-1.495.499-1.12-1.007-2.53-1.59-4.084-1.685a7.166 7.166 0 00-4.16 1.022 6.2 6.2 0 00-1.455 1.232v21.962c.171-.03.34-.063.509-.098 2.753-.573 5.071-1.694 6.89-3.33 1.468-1.324 2.575-2.964 3.29-4.876.756-2.02 1.072-4.351.94-6.928-.035-.678.15-1.324.523-1.82 1.484-1.983 1.593-2.146 1.68-2.278.022-.033.038-.057.1-.142l1.081-1.478-1.83.083a4.065 4.065 0 00-.229.015z" fill="#00C0F1"/></g><defs><clipPath id="clip0"><path fill="#fff" d="M15.941 15h30v30h-30z"/></clipPath></defs></svg>