<svg width="61" height="60" fill="none" xmlns="http://www.w3.org/2000/svg"><circle cx="30.941" cy="30" r="30" fill="#fff"/><g clip-path="url(#clip0)"><path d="M41.564 31.969c-.282-.37-.545-.95-.264-1.653.229-.615.932-1.916 1.459-2.636 3.111-4.201 2.426-4.272 3.182-5.59h-5.942s-.422 1.476-.562 1.722c-1.143 2.338-3.698 5.819-5.244 6.17-1.53.352-1.336-3.252-1.23-4.816.087-1.442.07-1.951.017-2.197-.053-.37-.37-.633-.739-.686-.51-.053-1.265-.14-2.18-.158a21.374 21.374 0 00-1.493 0l-1.371.053c.544 1.213.913.843 1.107 2.25.228 1.634.14 5.642-1.494 5.642-2.602 0-5.508-7.804-5.614-7.98h-5.255l.474 1.213c3.534 8.841 7.916 13.36 13.647 14.379a13.89 13.89 0 001.74.21l.861.018.07-.844c.089-1.283.739-3.164 1.881-3.164 1.706 0 2.204.51 3.329 1.899 1.072 1.318 1.828 2.11 3.568 2.11h4.43l-.633-1.267c-.984-1.986-2.97-3.691-3.744-4.675z" fill="#7984EB"/><path d="M45.308 36.644l.633 1.266h-4.43c-1.74 0-2.496-.79-3.568-2.11-1.125-1.388-1.623-1.898-3.329-1.898-1.142 0-1.793 1.881-1.88 3.164l-.07.844-.862-.017a13.89 13.89 0 01-1.74-.211V22.125c.914.017 1.67.105 2.18.158.369.053.685.317.738.686.052.246.07.755-.018 2.197-.105 1.564-.299 5.168 1.23 4.816 1.547-.351 4.102-3.832 5.245-6.17.14-.246.562-1.722.562-1.722h5.942c-.756 1.318-.07 1.389-3.182 5.59-.527.72-1.23 2.021-1.459 2.637-.281.702-.018 1.283.264 1.652.773.984 2.76 2.69 3.744 4.675z" fill="#4661D1"/></g><defs><clipPath id="clip0"><path fill="#fff" d="M15.941 15h30v30h-30z"/></clipPath></defs></svg>