<svg width="61" height="60" fill="none" xmlns="http://www.w3.org/2000/svg"><circle cx="30.941" cy="30" r="30" fill="#fff"/><g clip-path="url(#clip0)"><path d="M30.94 15c-8.244 0-15 6.756-15 15 0 2.725.739 5.361 2.128 7.682L15.94 45l7.318-2.127A14.916 14.916 0 0030.94 45c8.244 0 15-6.756 15-15s-6.756-15-15-15z" fill="#00DD7B"/><path d="M45.94 30c0 8.244-6.755 15-15 15V15c8.245 0 15 6.756 15 15z" fill="#00CC71"/><path d="M40.386 36.346l-.703.685c-.985.985-3.27.914-4.729.633-1.3-.246-2.695-.826-4.013-1.635-3.586-2.18-6.838-6.047-7.63-9.527-.544-2.356-.245-4.394.528-5.186l.703-.703a1.009 1.009 0 011.389 0l2.795 2.795c.193.194.299.44.299.703 0 .264-.106.51-.3.703l-.702.686a2.006 2.006 0 000 2.795l2.918 2.865 1.705 1.688c.773.773 2.08.773 2.853 0l.686-.704c.369-.351 1.037-.351 1.406 0l2.795 2.796c.37.386.387 1.001 0 1.406z" fill="#ECECF1"/><path d="M40.386 36.346l-.703.685c-.985.985-3.27.914-4.729.633-1.3-.246-2.695-.826-4.013-1.635V31.16l1.705 1.688c.773.773 2.08.773 2.853 0l.686-.704c.369-.351 1.037-.351 1.406 0l2.795 2.796c.37.386.387 1.001 0 1.406z" fill="#E2E2E7"/></g><defs><clipPath id="clip0"><path fill="#fff" d="M15.941 15h30v30h-30z"/></clipPath></defs></svg>