<svg width="1330" height="542" viewBox="0 0 1330 542" fill="none" xmlns="http://www.w3.org/2000/svg">
<path d="M97.2077 189.875L2.79143 30.4433C0.964128 27.3578 0 23.8376 0 20.2516C0 9.1079 9.10723 0.113262 20.25 0.251839L1231.24 15.3124C1285.98 15.9931 1330 60.5613 1330 115.305V441.107C1330 497.452 1283.47 542.673 1227.15 541.066L1046.36 535.91C1021.57 535.202 997.924 525.308 980.018 508.147L875.77 408.236C857.153 390.394 832.363 380.432 806.577 380.432H606.937C580.677 380.432 555.471 370.103 536.762 351.675L451.486 267.677C432.778 249.248 407.572 238.919 381.311 238.919H183.251C147.92 238.919 115.211 220.275 97.2077 189.875Z" fill="#BE1E2D"/>
</svg>
