<svg width="1072" height="434" viewBox="0 0 1072 434" fill="none" xmlns="http://www.w3.org/2000/svg">
<path d="M97.2077 81.8746L2.79143 -77.5567C0.964128 -80.6422 0 -84.1624 0 -87.7484C0 -98.8921 9.10724 -107.887 20.25 -107.748L1231.24 -92.6876C1285.98 -92.0069 1330 -47.4387 1330 7.30473V333.107C1330 389.452 1283.47 434.673 1227.15 433.066L1046.36 427.91C1021.57 427.202 997.924 417.308 980.018 400.147L875.77 300.236C857.153 282.393 832.363 272.432 806.577 272.432H606.937C580.677 272.432 555.471 262.103 536.762 243.675L451.486 159.677C432.778 141.248 407.572 130.919 381.311 130.919H183.251C147.92 130.919 115.211 112.275 97.2077 81.8746Z" fill="#BE1E2D"/>
</svg>
