<svg width="33" height="33" viewBox="0 0 33 33" fill="none" xmlns="http://www.w3.org/2000/svg">
<path d="M4.25488 19.1733L9.30738 14.1127L10.2883 15.0952L5.23584 20.1558L4.25488 19.1733ZM6.40733 21.3241L11.4598 16.2635L12.4408 17.2461L7.38829 22.3067L6.40733 21.3241ZM8.55506 23.48L13.6075 18.4194L14.5885 19.4019L9.53602 24.4625L8.55506 23.48ZM10.7123 25.6357L15.7648 20.5751L16.7457 21.5576L11.6932 26.6182L10.7123 25.6357ZM13.8439 28.7767L12.863 27.7942L17.9155 22.7335L18.8964 23.7161L13.8439 28.7767Z" fill="#D13333"/>
<path d="M31.5785 1.37068C30.5346 0.325139 27.4839 -1.685 23.039 2.76024C22.1366 3.66413 21.288 4.93227 20.6213 6.50395L12.8429 6.30159L0 19.0977L13.88 33L26.6488 20.2107L26.4467 12.332C27.8408 11.7182 29.1877 10.929 30.1912 9.92389C34.7034 5.4719 32.6897 2.48368 31.5785 1.37068ZM13.88 31.0506L1.9463 19.0977L13.3278 7.69789L24.918 8.04865L25.019 11.4956C24.2176 11.8059 23.4094 12.0622 22.6686 12.2645C22.5272 11.8126 22.278 11.3876 21.9346 11.0369C21.3083 10.4838 20.5472 10.133 19.7122 10.133C18.8771 10.133 18.0487 10.4838 17.4897 11.0369C16.9375 11.6642 16.5873 12.4264 16.5873 13.2629C16.5873 14.0993 16.9375 14.929 17.4897 15.4889C18.1161 16.042 18.8771 16.3928 19.7122 16.3928C20.4732 16.3928 21.3083 16.1162 21.9346 15.4214C22.4397 14.9155 22.7225 14.2612 22.7966 13.5867C23.5037 13.4045 24.2782 13.1752 25.0594 12.8919L25.2615 19.6508L13.88 31.0506ZM18.6009 13.7418C18.7087 14.241 19.1734 14.3017 19.436 14.2275C19.5438 14.2275 20.2711 14.1398 21.3285 13.9172C21.2409 14.0993 21.1197 14.2747 20.9648 14.4366C20.3385 15.0639 19.1599 15.0639 18.5336 14.4366C18.2575 14.16 18.0487 13.7418 18.0487 13.2561C18.0487 12.8379 18.2575 12.3522 18.5336 12.0757C18.8097 11.7991 19.2273 11.59 19.7122 11.59C20.1297 11.59 20.5472 11.7317 20.9648 12.0082C21.1399 12.1836 21.2678 12.3792 21.3554 12.5883C20.1162 12.8649 19.2542 12.9796 19.2273 12.9796C18.8097 13.047 18.5269 13.3978 18.6009 13.7418ZM26.4131 10.8817L26.3053 6.65235L22.1097 6.54442C22.6552 5.41119 23.2748 4.47358 23.9415 3.80578C26.5074 1.23577 28.8712 0.750101 30.5346 2.41622C32.1981 4.08234 31.7132 6.44999 29.1473 9.02C28.4065 9.76199 27.4435 10.3758 26.4131 10.8817Z" fill="#D13333"/>
</svg>
