<svg width="33" height="18" viewBox="0 0 33 18" fill="none" xmlns="http://www.w3.org/2000/svg">
<path d="M31.3836 4.57063L28.2029 1.13599C27.9744 0.887598 27.6986 0.687225 27.3918 0.546563C27.0849 0.405901 26.7531 0.327768 26.4157 0.316723L17.5644 0C17.5598 0 17.5552 0 17.5506 0C17.3997 0 17.248 0.00270707 17.0999 0.00799222C16.0698 0.0480935 15.0474 0.202086 14.0512 0.467156C13.3124 0.663252 12.588 0.91018 11.8833 1.20618C8.5664 2.59276 6.29204 4.70237 5.8662 5.11468L2.57439 6.12769C1.84408 6.28869 1.1907 6.69437 0.722502 7.27751C0.254303 7.86065 -0.000609163 8.58626 1.09316e-06 9.3341V13.7479C0.000120338 13.9272 0.0713712 14.0992 0.198123 14.226C0.324874 14.3529 0.496775 14.4243 0.676114 14.4246H3.00068C3.07017 15.2445 3.44494 16.0083 4.05081 16.565C4.65668 17.1217 5.44947 17.4306 6.27226 17.4306C7.09504 17.4306 7.88784 17.1217 8.4937 16.565C9.09957 16.0083 9.47434 15.2445 9.54383 14.4246H21.7261C21.788 15.2682 22.1732 16.0552 22.8012 16.6218C23.4293 17.1883 24.2518 17.4906 25.0972 17.4656C25.9427 17.4406 26.7459 17.0902 27.3393 16.4875C27.9328 15.8848 28.2708 15.0763 28.2827 14.2306H31.3894C31.5686 14.2304 31.7405 14.1591 31.8673 14.0324C31.994 13.9056 32.0653 13.7338 32.0655 13.5545V6.30996C32.0653 5.66503 31.8218 5.04392 31.3837 4.57063H31.3836ZM24.1487 1.00959L26.3881 1.08964C26.6236 1.09736 26.8552 1.15189 27.0693 1.25006C27.2835 1.34822 27.4759 1.48806 27.6354 1.66141L30.8165 5.09637C30.8314 5.11249 30.8444 5.12995 30.8587 5.14658H24.1487V1.00959ZM17.5003 0.773824C17.5148 0.773824 17.5293 0.773438 17.5438 0.773438L23.3752 0.981943V5.14658H17.5003V0.773824ZM2.06476 7.14012H2.53526V7.68475C2.53508 7.8603 2.46523 8.02861 2.34107 8.15271C2.2169 8.27682 2.04856 8.34658 1.87301 8.34668H0.975499C1.19354 7.83406 1.57703 7.40927 2.06476 7.14012ZM0.773439 10.3035H2.31774V12.0895H0.773439V10.3035ZM6.27193 16.6573C5.60627 16.6564 4.96813 16.3916 4.49749 15.9208C4.02686 15.45 3.76217 14.8118 3.76149 14.1462C3.76149 14.1155 3.76207 14.0847 3.76316 14.0543C3.78701 13.405 4.06163 12.7902 4.5293 12.3392C4.99697 11.8881 5.62128 11.6359 6.27101 11.6356C6.92075 11.6353 7.54531 11.8868 8.01345 12.3374C8.48158 12.7879 8.75683 13.4024 8.78135 14.0517C8.78243 14.0832 8.78299 14.1147 8.78303 14.1462C8.78235 14.8119 8.51757 15.4503 8.04679 15.921C7.57602 16.3918 6.93771 16.6566 6.27193 16.6573ZM25.0001 16.6934C24.3344 16.6925 23.6963 16.4277 23.2256 15.9569C22.755 15.4861 22.4903 14.8479 22.4896 14.1823C22.4896 14.1409 22.4907 14.0996 22.493 14.0567C22.5245 13.4278 22.7912 12.8338 23.2401 12.3923C23.6891 11.9508 24.2875 11.6941 24.9169 11.6732C25.5462 11.6522 26.1604 11.8685 26.6377 12.2792C27.115 12.6899 27.4205 13.2649 27.4938 13.8903V13.8907C27.5345 14.2426 27.5004 14.5991 27.3937 14.9368C27.287 15.2746 27.1101 15.586 26.8747 15.8506C26.6392 16.1152 26.3505 16.3271 26.0275 16.4723C25.7044 16.6176 25.3543 16.6929 25.0001 16.6934ZM31.292 13.4572H29.439V11.9406C29.4392 11.7795 29.5034 11.6251 29.6173 11.5113C29.7313 11.3975 29.8857 11.3335 30.0468 11.3334H31.292V13.4572ZM31.292 8.34668H30.603C30.4275 8.34649 30.2592 8.27669 30.1351 8.1526C30.011 8.0285 29.9412 7.86024 29.9411 7.68475V7.14012H31.292V8.34668ZM31.292 6.36668H29.5543C29.4518 6.36668 29.3534 6.40742 29.2809 6.47995C29.2084 6.55247 29.1676 6.65083 29.1676 6.7534V7.68475C29.1681 8.06527 29.3195 8.43007 29.5886 8.69914C29.8577 8.96822 30.2225 9.11961 30.603 9.12012H31.292V10.56H30.0468C29.6807 10.5603 29.3296 10.7059 29.0707 10.9647C28.8117 11.2235 28.666 11.5745 28.6655 11.9406V13.4572H28.203C28.0348 12.7141 27.6134 12.0526 27.0111 11.5861C26.4088 11.1195 25.6629 10.877 24.9014 10.8999C24.1399 10.9228 23.41 11.2098 22.8368 11.7118C22.2636 12.2137 21.8828 12.8993 21.7596 13.6512H17.5003V11.9238C17.5003 11.8213 17.4596 11.7229 17.387 11.6504C17.3145 11.5779 17.2162 11.5371 17.1136 11.5371C17.011 11.5371 16.9127 11.5779 16.8401 11.6504C16.7676 11.7229 16.7269 11.8213 16.7269 11.9238V13.6512H9.51889C9.4005 12.8749 9.00791 12.1668 8.41229 11.6551C7.81667 11.1435 7.05744 10.8621 6.27222 10.8621C5.48701 10.8621 4.72778 11.1435 4.13216 11.6551C3.53654 12.1668 3.14395 12.8749 3.02556 13.6512H0.773439V12.8629H2.44664C2.61752 12.8627 2.78135 12.7948 2.90219 12.6739C3.02302 12.5531 3.09099 12.3893 3.09117 12.2184V10.1746C3.09099 10.0037 3.02302 9.83986 2.90219 9.71902C2.78135 9.59819 2.61752 9.53023 2.44664 9.53004H0.773439V9.3341C0.773439 9.2625 0.777241 9.19114 0.783235 9.12012H1.87301C2.25354 9.11961 2.61833 8.96822 2.8874 8.69914C3.15648 8.43007 3.30787 8.06527 3.30838 7.68475V6.7534C3.30836 6.73949 3.30758 6.72559 3.30606 6.71176L5.87909 5.92002H9.07178C9.17434 5.92002 9.27271 5.87928 9.34523 5.80675C9.41775 5.73423 9.4585 5.63587 9.4585 5.5333C9.4585 5.43074 9.41775 5.33237 9.34523 5.25985C9.27271 5.18733 9.17434 5.14658 9.07178 5.14658H6.98749C7.91272 4.35561 9.77612 2.92546 12.182 1.91974C12.8538 1.63752 13.5442 1.40209 14.2484 1.21513C15.0598 1.00006 15.8896 0.861952 16.7269 0.802635V5.14678H10.5542C10.4516 5.14678 10.3533 5.18752 10.2807 5.26004C10.2082 5.33257 10.1675 5.43093 10.1675 5.53349C10.1675 5.63606 10.2082 5.73442 10.2807 5.80695C10.3533 5.87947 10.4516 5.92021 10.5542 5.92021H16.7269V10.5059C16.7269 10.6084 16.7676 10.7068 16.8401 10.7793C16.9127 10.8518 17.011 10.8926 17.1136 10.8926C17.2162 10.8926 17.3145 10.8518 17.387 10.7793C17.4596 10.7068 17.5003 10.6084 17.5003 10.5059V5.92002H31.2487C31.2775 6.04801 31.292 6.17878 31.292 6.30996V6.36668Z" fill="#D13333"/>
</svg>
