<svg width="23" height="33" viewBox="0 0 23 33" fill="none" xmlns="http://www.w3.org/2000/svg">
<path d="M19.1055 8.18555H21.4258C22.1188 8.18555 22.6826 7.62171 22.6826 6.92871V1.25684C22.6826 0.563836 22.1188 0 21.4258 0H19.1055C18.4125 0 17.8486 0.563836 17.8486 1.25684V2.64258H17.1782C16.9112 2.64258 16.6948 2.85901 16.6948 3.12598C16.6948 3.39294 16.9112 3.60938 17.1782 3.60938H17.8486V4.57617H14.0647C14.0942 4.41942 14.1104 4.25797 14.1104 4.09277C14.1104 3.92758 14.0942 3.76612 14.0647 3.60938H15.1366C15.4036 3.60938 15.62 3.39294 15.62 3.12598C15.62 2.85901 15.4036 2.64258 15.1366 2.64258H13.6692C13.2004 1.94352 12.4031 1.48242 11.5 1.48242C10.5969 1.48242 9.7996 1.94352 9.33076 2.64258H5.15137V1.25684C5.15137 0.563836 4.58753 0 3.89453 0H1.57422C0.881219 0 0.317383 0.563836 0.317383 1.25684V2.0422C0.317383 2.30916 0.533752 2.5256 0.800781 2.5256C1.06781 2.5256 1.28418 2.30916 1.28418 2.0422V1.25684C1.28418 1.09693 1.41431 0.966797 1.57422 0.966797H3.89453C4.05444 0.966797 4.18457 1.09693 4.18457 1.25684V6.92871C4.18457 7.08862 4.05444 7.21875 3.89453 7.21875H1.57422C1.41431 7.21875 1.28418 7.08862 1.28418 6.92871V4.09277C1.28418 3.82581 1.06781 3.60938 0.800781 3.60938C0.533752 3.60938 0.317383 3.82581 0.317383 4.09277V6.92871C0.317383 7.62171 0.881219 8.18555 1.57422 8.18555H3.89453C4.58753 8.18555 5.15137 7.62171 5.15137 6.92871V5.54297H9.33076C9.52122 5.82695 9.76582 6.07155 10.0498 6.26201V26.738C9.76582 26.9285 9.52122 27.173 9.33076 27.457H5.15137V26.0713C5.15137 25.3783 4.58753 24.8145 3.89453 24.8145H1.57422C0.881219 24.8145 0.317383 25.3783 0.317383 26.0713V31.7432C0.317383 32.4362 0.881219 33 1.57422 33H3.89453C4.58753 33 5.15137 32.4362 5.15137 31.7432V30.3574H9.33076C9.7996 31.0565 10.5969 31.5176 11.5 31.5176C12.4031 31.5176 13.2004 31.0565 13.6692 30.3574H17.8486V31.7432C17.8486 32.4362 18.4125 33 19.1055 33H21.4258C22.1188 33 22.6826 32.4362 22.6826 31.7432V26.0713C22.6826 25.3783 22.1188 24.8145 21.4258 24.8145H19.1055C18.4125 24.8145 17.8486 25.3783 17.8486 26.0713V27.457H13.6692C13.4788 27.173 13.2342 26.9285 12.9502 26.738V24.7896C12.9502 24.5226 12.7338 24.3062 12.4668 24.3062C12.1998 24.3062 11.9834 24.5226 11.9834 24.7896V26.3425C11.8266 26.313 11.6652 26.2969 11.5 26.2969C11.3348 26.2969 11.1734 26.313 11.0166 26.3425V6.65749C11.1734 6.68701 11.3348 6.70312 11.5 6.70312C11.6652 6.70312 11.8266 6.68701 11.9834 6.65749V22.6311C11.9834 22.8981 12.1998 23.1145 12.4668 23.1145C12.7338 23.1145 12.9502 22.8981 12.9502 22.6311V6.26201C13.2342 6.07155 13.4788 5.82695 13.6692 5.54297H17.8486V6.92871C17.8486 7.62171 18.4125 8.18555 19.1055 8.18555ZM4.18457 31.7432C4.18457 31.9031 4.05444 32.0332 3.89453 32.0332H1.57422C1.41431 32.0332 1.28418 31.9031 1.28418 31.7432V26.0713C1.28418 25.9114 1.41431 25.7812 1.57422 25.7812H3.89453C4.05444 25.7812 4.18457 25.9114 4.18457 26.0713V31.7432ZM5.15137 29.3906V28.4238H8.93528C8.90576 28.5806 8.88965 28.742 8.88965 28.9072C8.88965 29.0724 8.90576 29.2339 8.93528 29.3906H5.15137ZM18.8154 26.0713C18.8154 25.9114 18.9456 25.7812 19.1055 25.7812H21.4258C21.5857 25.7812 21.7158 25.9114 21.7158 26.0713V31.7432C21.7158 31.9031 21.5857 32.0332 21.4258 32.0332H19.1055C18.9456 32.0332 18.8154 31.9031 18.8154 31.7432V26.0713ZM17.8486 28.4238V29.3906H14.0647C14.0942 29.2339 14.1104 29.0724 14.1104 28.9072C14.1104 28.742 14.0942 28.5806 14.0647 28.4238H17.8486ZM13.1436 28.9072C13.1436 29.8135 12.4063 30.5508 11.5 30.5508C10.5937 30.5508 9.85645 29.8135 9.85645 28.9072C9.85645 28.001 10.5937 27.2637 11.5 27.2637C12.4063 27.2637 13.1436 28.001 13.1436 28.9072ZM5.15137 4.57617V3.60938H8.93528C8.90576 3.76612 8.88965 3.92758 8.88965 4.09277C8.88965 4.25797 8.90576 4.41942 8.93528 4.57617H5.15137ZM9.85645 4.09277C9.85645 3.1865 10.5937 2.44922 11.5 2.44922C12.4063 2.44922 13.1436 3.1865 13.1436 4.09277C13.1436 4.99905 12.4063 5.73633 11.5 5.73633C10.5937 5.73633 9.85645 4.99905 9.85645 4.09277ZM18.8154 1.25684C18.8154 1.09693 18.9456 0.966797 19.1055 0.966797H21.4258C21.5857 0.966797 21.7158 1.09693 21.7158 1.25684V6.92871C21.7158 7.08862 21.5857 7.21875 21.4258 7.21875H19.1055C18.9456 7.21875 18.8154 7.08862 18.8154 6.92871V1.25684Z" fill="#D13333"/>
</svg>
