<svg width="18" height="18" viewBox="0 0 18 18" fill="none" xmlns="http://www.w3.org/2000/svg">
<g clip-path="url(#clip0)">
<path d="M17.3057 3.46204C16.8832 3.28626 16.4004 3.38349 16.0796 3.70594C15.7253 4.06018 15.2842 4.50128 13.5 4.50128C11.8933 4.50128 10.6815 5.45702 9.79651 6.15458C9.54712 6.35123 9.18457 6.63688 9.0434 6.72642C8.90222 6.62589 8.66876 6.39628 8.50506 6.23533C7.80194 5.54491 6.73956 4.50128 5.0625 4.50128C3.21021 4.50128 2.21594 4.00147 1.92041 3.70594C1.59741 3.38349 1.11401 3.28626 0.694336 3.46204C0.27411 3.63617 0 4.04644 0 4.50128C0 7.65243 0.499329 11.9522 4.81751 12.9123C6.57807 13.3034 7.21637 13.7709 7.63824 14.0806C7.96948 14.3234 8.38202 14.6255 9 14.6255C9.61798 14.6255 10.0305 14.3228 10.3618 14.08C10.7836 13.7709 11.4219 13.3028 13.182 12.9118C17.5007 11.9528 18 7.65243 18 4.50128C18 4.04644 17.7259 3.63617 17.3057 3.46204H17.3057ZM3.37501 7.94686C3.37501 7.94686 5.93922 7.54861 7.12498 8.63214C7.87501 9.31741 7.87501 10.0026 7.87501 10.6879C3.37501 10.6879 3.37501 7.94687 3.37501 7.94687L3.37501 7.94686ZM10.125 10.6879C10.125 10.0026 10.125 9.31741 10.875 8.63214C12.0608 7.54861 14.625 7.94686 14.625 7.94686C14.625 7.94686 14.625 10.6879 10.125 10.6879L10.125 10.6879Z" fill="white"/>
</g>
<defs>
<clipPath id="clip0">
<rect width="18" height="18" fill="white"/>
</clipPath>
</defs>
</svg>
