<svg width="18" height="18" viewBox="0 0 18 18" fill="none" xmlns="http://www.w3.org/2000/svg">
<path d="M17.8396 13.2524C17.7912 13.1686 17.4919 12.4962 16.0518 11.1141C14.5442 9.66685 14.7467 9.90185 16.5626 7.39942C17.6685 5.87538 18.1107 4.94468 17.9723 4.5468C17.8407 4.16753 17.0273 4.26759 17.0273 4.26759L14.3226 4.28387C14.3226 4.28387 14.1223 4.25595 13.9727 4.34786C13.8275 4.4386 13.7341 4.64801 13.7341 4.64801C13.7341 4.64801 13.3055 5.82768 12.7339 6.83052C11.529 8.94672 11.0463 9.0584 10.8494 8.92694C10.3915 8.62097 10.5063 7.69608 10.5063 7.03993C10.5063 4.98888 10.8067 4.1338 9.9201 3.91275C9.62533 3.83946 9.40932 3.7906 8.65664 3.78245C7.69132 3.77198 6.87338 3.78594 6.41097 4.01978C6.1027 4.17568 5.86531 4.52353 6.01044 4.54331C6.18933 4.56774 6.59436 4.65616 6.80925 4.95864C7.08715 5.34837 7.07702 6.22556 7.07702 6.22556C7.07702 6.22556 7.23678 8.63958 6.70462 8.93974C6.33897 9.14566 5.8383 8.72567 4.76385 6.80493C4.21369 5.82187 3.79741 4.7341 3.79741 4.7341C3.79741 4.7341 3.71752 4.53167 3.57464 4.42348C3.40138 4.29202 3.15836 4.25014 3.15836 4.25014L0.586419 4.26642C0.586419 4.26642 0.200516 4.27806 0.0587555 4.4514C-0.0672538 4.60613 0.0486297 4.9249 0.0486297 4.9249C0.0486297 4.9249 2.06253 9.79599 4.34195 12.2519C6.43347 14.503 8.8074 14.3553 8.8074 14.3553H9.88298C9.88298 14.3553 10.2081 14.3181 10.3735 14.1331C10.5265 13.9632 10.5209 13.6445 10.5209 13.6445C10.5209 13.6445 10.4995 12.1518 11.1701 11.932C11.8305 11.7156 12.6788 13.3746 13.5777 14.0133C14.2573 14.4961 14.7737 14.3902 14.7737 14.3902L17.178 14.3553C17.178 14.3553 18.4359 14.275 17.8396 13.2524Z" fill="white"/>
</svg>
