<svg width="1520" height="65" viewBox="0 0 1520 65" fill="none" xmlns="http://www.w3.org/2000/svg">
<path d="M89.503 55.8985L80.892 47.4799H78.2157V50.0965L86.8267 58.515H89.503V55.8985Z" fill="#3D4A3F"/>
<path d="M102.303 55.8985L93.6922 47.4799H91.0158V50.0965L99.6268 58.515H102.303V55.8985Z" fill="#3D4A3F"/>
<path d="M114.987 55.8985L106.376 47.4799H103.7V50.0965L112.311 58.515H114.987V55.8985Z" fill="#3D4A3F"/>
<path d="M127.671 55.8985L119.06 47.4799H116.383V50.0965L124.994 58.515H127.671V55.8985Z" fill="#3D4A3F"/>
<path d="M140.471 55.8985L131.86 47.4799H129.067V50.0965L137.678 58.515H140.471V55.8985Z" fill="#3D4A3F"/>
<path d="M153.155 55.8985L144.544 47.4799H141.867V50.0965L150.478 58.515H153.155V55.8985Z" fill="#3D4A3F"/>
<path d="M165.839 55.8985L157.228 47.4799H154.551V50.0965L163.163 58.515H165.839V55.8985Z" fill="#3D4A3F"/>
<path d="M178.523 55.8985L169.912 47.4799H167.235V50.0965L175.846 58.515H178.523V55.8985Z" fill="#3D4A3F"/>
<path d="M191.323 55.8985L182.712 47.4799H180.035V50.0965L188.646 58.515H191.323V55.8985Z" fill="#3D4A3F"/>
<path d="M204.007 55.8985L195.396 47.4799H192.719V50.0965L201.33 58.515H204.007V55.8985Z" fill="#3D4A3F"/>
<path d="M7.58184 64.4297C7.23274 64.4297 7 64.2022 7 63.8609V46.5688C7 46.2275 7.23274 46 7.58184 46H65.0663C65.1826 46 65.4154 46.1138 65.5318 46.1138L82.7538 62.9508C82.9865 63.1783 82.9865 63.5196 82.7538 63.7471C82.5211 63.9747 82.172 63.9747 81.9392 63.7471L64.8336 47.0239H8.16365V63.7471C8.16365 64.2022 7.93094 64.4297 7.58184 64.4297Z" fill="#3D4A3F"/>
<path d="M174.45 64.4316H90.8996C90.5505 64.4316 90.3177 64.204 90.3177 63.8627C90.3177 63.5214 90.5505 63.2939 90.8996 63.2939H174.45C174.799 63.2939 175.032 63.5214 175.032 63.8627C175.032 64.204 174.799 64.4316 174.45 64.4316Z" fill="#3D4A3F"/>
<path d="M216.341 64.4316H196.559C196.21 64.4316 195.977 64.204 195.977 63.8627C195.977 63.5214 196.21 63.2939 196.559 63.2939H216.341C216.69 63.2939 216.923 63.5214 216.923 63.8627C216.923 64.204 216.69 64.4316 216.341 64.4316Z" fill="#3D4A3F"/>
<path d="M183.293 65H177.941C177.242 65 176.777 64.5449 176.777 63.8624C176.777 63.1798 177.242 62.7247 177.941 62.7247H183.293C183.992 62.7247 184.457 63.1798 184.457 63.8624C184.457 64.5449 183.875 65 183.293 65Z" fill="#3D4A3F"/>
<path d="M224.836 65H220.88C220.182 65 219.716 64.5449 219.716 63.8624C219.716 63.1798 220.182 62.7247 220.88 62.7247H224.836C225.535 62.7247 226 63.1798 226 63.8624C226 64.5449 225.535 65 224.836 65Z" fill="#3D4A3F"/>
<path d="M29.2256 46.5692L26.3164 49.4133H7.58165V46.5692H29.2256Z" fill="#3D4A3F"/>
<path d="M10.258 53.2814H7.58165V54.6466H10.258V53.2814Z" fill="#3D4A3F"/>
<path d="M28.2948 53.2814H25.6184V54.6466H28.2948V53.2814Z" fill="#3D4A3F"/>
<path d="M46.3314 53.2814H43.655V54.6466H46.3314V53.2814Z" fill="#3D4A3F"/>
<path d="M64.3679 53.2814H61.6915V54.6466H64.3679V53.2814Z" fill="#3D4A3F"/>
<path d="M1437.5 55.1015L1446.11 63.5201L1448.78 63.5201L1448.78 60.9035L1440.17 52.485L1437.5 52.485L1437.5 55.1015Z" fill="#3D4A3F"/>
<path d="M1424.7 55.1015L1433.31 63.5201L1435.98 63.5201L1435.98 60.9035L1427.37 52.485L1424.7 52.485L1424.7 55.1015Z" fill="#3D4A3F"/>
<path d="M1412.01 55.1015L1420.62 63.5201L1423.3 63.5201L1423.3 60.9035L1414.69 52.485L1412.01 52.485L1412.01 55.1015Z" fill="#3D4A3F"/>
<path d="M1399.33 55.1016L1407.94 63.5201L1410.62 63.5201L1410.62 60.9035L1402.01 52.485L1399.33 52.485L1399.33 55.1016Z" fill="#3D4A3F"/>
<path d="M1386.53 55.1016L1395.14 63.5201L1397.93 63.5201L1397.93 60.9035L1389.32 52.485L1386.53 52.485L1386.53 55.1016Z" fill="#3D4A3F"/>
<path d="M1373.85 55.1016L1382.46 63.5201L1385.13 63.5201L1385.13 60.9035L1376.52 52.485L1373.85 52.485L1373.85 55.1016Z" fill="#3D4A3F"/>
<path d="M1361.16 55.1016L1369.77 63.5201L1372.45 63.5201L1372.45 60.9035L1363.84 52.485L1361.16 52.485L1361.16 55.1016Z" fill="#3D4A3F"/>
<path d="M1348.48 55.1016L1357.09 63.5201L1359.76 63.5201L1359.76 60.9035L1351.15 52.485L1348.48 52.485L1348.48 55.1016Z" fill="#3D4A3F"/>
<path d="M1335.68 55.1016L1344.29 63.5201L1346.96 63.5201L1346.96 60.9035L1338.35 52.485L1335.68 52.485L1335.68 55.1016Z" fill="#3D4A3F"/>
<path d="M1322.99 55.1016L1331.6 63.5201L1334.28 63.5201L1334.28 60.9035L1325.67 52.485L1322.99 52.485L1322.99 55.1016Z" fill="#3D4A3F"/>
<path d="M1519.42 22.5C1519.77 22.5 1520 22.5 1520 22.5L1520 64.4312C1520 64.7725 1519.77 65 1519.42 65L1461.93 65C1461.82 65 1461.58 64.8862 1461.47 64.8862L1444.25 48.0492C1444.01 47.8217 1444.01 47.4804 1444.25 47.2529C1444.48 47.0253 1444.83 47.0253 1445.06 47.2529L1462.17 63.9761L1518.84 63.9761L1518.84 22.5C1518.84 22.5 1519.07 22.5 1519.42 22.5Z" fill="#3D4A3F"/>
<path d="M1352.55 46.5685L1436.1 46.5685C1436.45 46.5685 1436.68 46.796 1436.68 47.1373C1436.68 47.4786 1436.45 47.7061 1436.1 47.7061L1352.55 47.7061C1352.2 47.7061 1351.97 47.4786 1351.97 47.1373C1351.97 46.796 1352.2 46.5685 1352.55 46.5685Z" fill="#3D4A3F"/>
<path d="M1310.66 46.5685L1330.44 46.5685C1330.79 46.5685 1331.02 46.796 1331.02 47.1373C1331.02 47.4786 1330.79 47.7061 1330.44 47.7061L1310.66 47.7061C1310.31 47.7061 1310.08 47.4786 1310.08 47.1373C1310.08 46.796 1310.31 46.5685 1310.66 46.5685Z" fill="#3D4A3F"/>
<path d="M1343.71 46L1349.06 46C1349.76 46 1350.22 46.4551 1350.22 47.1377C1350.22 47.8202 1349.76 48.2753 1349.06 48.2753L1343.71 48.2753C1343.01 48.2753 1342.54 47.8202 1342.54 47.1377C1342.54 46.4551 1343.12 46 1343.71 46Z" fill="#3D4A3F"/>
<path d="M1302.16 46L1306.12 46C1306.82 46 1307.28 46.4551 1307.28 47.1377C1307.28 47.8203 1306.82 48.2753 1306.12 48.2753L1302.16 48.2753C1301.47 48.2753 1301 47.8203 1301 47.1377C1301 46.4551 1301.47 46 1302.16 46Z" fill="#3D4A3F"/>
<path d="M1497.77 64.4308L1500.68 61.5867L1519.42 61.5867L1519.42 64.4308L1497.77 64.4308Z" fill="#3D4A3F"/>
<path d="M1516.74 57.7186L1519.42 57.7186L1519.42 56.3534L1516.74 56.3534L1516.74 57.7186Z" fill="#3D4A3F"/>
<path d="M1498.71 57.7186L1501.38 57.7186L1501.38 56.3534L1498.71 56.3534L1498.71 57.7186Z" fill="#3D4A3F"/>
<path d="M1480.67 57.7186L1483.35 57.7186L1483.35 56.3534L1480.67 56.3534L1480.67 57.7186Z" fill="#3D4A3F"/>
<path d="M1462.63 57.7186L1465.31 57.7186L1465.31 56.3534L1462.63 56.3534L1462.63 57.7186Z" fill="#3D4A3F"/>
<path d="M1519 23.2395L6.858 23.2395C6.69068 23.2395 6.52338 23.072 6.52338 22.9046L6.35606 1.77541C6.35606 1.77541 6.52337 1.77471 6.69069 1.77471C6.858 1.77471 7.02532 1.77541 7.02532 1.77541L7.19264 22.4022L1519 22.4022L1519 23.2395Z" fill="#3D4A3F"/>
<path d="M8.18682e-08 22.9042L0 29.7695L6.85999 29.7695L6.85999 22.9042L8.18682e-08 22.9042Z" fill="#3D4A3F"/>
<path d="M7.69587 1.5L7.69587 14.1628C7.69587 14.6651 7.36122 15 6.85927 15C6.35732 15 6.02269 14.6651 6.02269 14.1628L6.02269 1.5C6.02269 0.99766 6.35732 0.662796 6.85927 0.662796C7.19391 0.662796 7.69587 1.16511 7.69587 1.5Z" fill="#3D4A3F"/>
<path d="M127.494 22.9049C127.494 23.4073 127.159 23.7422 126.657 23.7422L112.436 23.7422C111.934 23.7422 111.599 23.4073 111.599 22.9049C111.599 22.4026 111.934 22.0677 112.436 22.0677L126.657 22.0677C127.159 22.0677 127.494 22.4026 127.494 22.9049Z" fill="#3D4A3F"/>
</svg>
