<svg width="414" height="22" viewBox="0 0 414 22" fill="none" xmlns="http://www.w3.org/2000/svg">
<path d="M50.1046 12.2517L44.8751 6.93469H43.2497V8.58726L48.4792 13.9042H50.1046V12.2517Z" fill="#3D4A3F"/>
<path d="M57.8782 12.2517L52.6487 6.93469H51.0233V8.58726L56.2528 13.9042H57.8782V12.2517Z" fill="#3D4A3F"/>
<path d="M65.5812 12.2517L60.3516 6.93469H58.7262V8.58726L63.9558 13.9042H65.5812V12.2517Z" fill="#3D4A3F"/>
<path d="M73.2841 12.2517L68.0545 6.93469H66.4291V8.58726L71.6586 13.9042H73.2841V12.2517Z" fill="#3D4A3F"/>
<path d="M81.0577 12.2517L75.8281 6.93469H74.132V8.58726L79.3616 13.9042H81.0577V12.2517Z" fill="#3D4A3F"/>
<path d="M88.7606 12.2517L83.5311 6.93469H81.9057V8.58726L87.1352 13.9042H88.7606V12.2517Z" fill="#3D4A3F"/>
<path d="M96.4638 12.2517L91.2343 6.93469H89.6089V8.58726L94.8384 13.9042H96.4638V12.2517Z" fill="#3D4A3F"/>
<path d="M104.167 12.2517L98.9372 6.93469H97.3118V8.58726L102.541 13.9042H104.167V12.2517Z" fill="#3D4A3F"/>
<path d="M111.94 12.2517L106.711 6.93469H105.085V8.58726L110.315 13.9042H111.94V12.2517Z" fill="#3D4A3F"/>
<path d="M119.643 12.2517L114.414 6.93469H112.788V8.58726L118.018 13.9042H119.643V12.2517Z" fill="#3D4A3F"/>
<path d="M0.353355 17.6398C0.141347 17.6398 0 17.4961 0 17.2806V6.35925C0 6.1437 0.141347 6 0.353355 6H35.264C35.3347 6 35.476 6.07186 35.5467 6.07186L46.0057 16.7058C46.1471 16.8495 46.1471 17.065 46.0057 17.2087C45.8644 17.3524 45.6524 17.3524 45.511 17.2087L35.1227 6.64666H0.706691V17.2087C0.706691 17.4961 0.565363 17.6398 0.353355 17.6398Z" fill="#3D4A3F"/>
<path d="M101.693 17.641H50.9527C50.7407 17.641 50.5993 17.4973 50.5993 17.2817C50.5993 17.0662 50.7407 16.9225 50.9527 16.9225H101.693C101.905 16.9225 102.047 17.0662 102.047 17.2817C102.047 17.4973 101.905 17.641 101.693 17.641Z" fill="#3D4A3F"/>
<path d="M127.134 17.641H115.12C114.908 17.641 114.767 17.4973 114.767 17.2817C114.767 17.0662 114.908 16.9225 115.12 16.9225H127.134C127.346 16.9225 127.487 17.0662 127.487 17.2817C127.487 17.4973 127.346 17.641 127.134 17.641Z" fill="#3D4A3F"/>
<path d="M107.064 18H103.813C103.389 18 103.107 17.7126 103.107 17.2815C103.107 16.8504 103.389 16.563 103.813 16.563H107.064C107.488 16.563 107.771 16.8504 107.771 17.2815C107.771 17.7126 107.417 18 107.064 18Z" fill="#3D4A3F"/>
<path d="M132.293 18H129.891C129.467 18 129.184 17.7126 129.184 17.2815C129.184 16.8504 129.467 16.563 129.891 16.563H132.293C132.717 16.563 133 16.8504 133 17.2815C133 17.7126 132.717 18 132.293 18Z" fill="#3D4A3F"/>
<path d="M13.4977 6.3595L11.731 8.15577H0.35324V6.3595H13.4977Z" fill="#3D4A3F"/>
<path d="M1.97862 10.5988H0.35324V11.461H1.97862V10.5988Z" fill="#3D4A3F"/>
<path d="M12.9325 10.5988H11.3071V11.461H12.9325V10.5988Z" fill="#3D4A3F"/>
<path d="M23.8862 10.5988H22.2608V11.461H23.8862V10.5988Z" fill="#3D4A3F"/>
<path d="M34.8399 10.5988H33.2145V11.461H34.8399V10.5988Z" fill="#3D4A3F"/>
<path d="M360.635 15.7116L366.1 21.0598L367.799 21.0598L367.799 19.3975L362.334 14.0493L360.635 14.0493L360.635 15.7116Z" fill="#3D4A3F"/>
<path d="M352.511 15.7116L357.976 21.0598L359.675 21.0598L359.675 19.3975L354.209 14.0493L352.511 14.0493L352.511 15.7116Z" fill="#3D4A3F"/>
<path d="M344.46 15.7116L349.926 21.0598L351.624 21.0598L351.624 19.3975L346.159 14.0493L344.46 14.0493L344.46 15.7116Z" fill="#3D4A3F"/>
<path d="M336.41 15.7116L341.875 21.0598L343.574 21.0598L343.574 19.3975L338.109 14.0493L336.41 14.0493L336.41 15.7116Z" fill="#3D4A3F"/>
<path d="M328.286 15.7116L333.751 21.0598L335.524 21.0598L335.524 19.3975L330.058 14.0493L328.286 14.0493L328.286 15.7116Z" fill="#3D4A3F"/>
<path d="M320.235 15.7116L325.701 21.0598L327.399 21.0598L327.399 19.3975L321.934 14.0493L320.235 14.0493L320.235 15.7116Z" fill="#3D4A3F"/>
<path d="M312.184 15.7116L317.65 21.0598L319.348 21.0598L319.348 19.3975L313.883 14.0493L312.184 14.0493L312.184 15.7116Z" fill="#3D4A3F"/>
<path d="M304.134 15.7116L309.599 21.0598L311.298 21.0598L311.298 19.3975L305.833 14.0493L304.134 14.0493L304.134 15.7116Z" fill="#3D4A3F"/>
<path d="M296.01 15.7116L301.475 21.0598L303.174 21.0598L303.174 19.3975L297.708 14.0493L296.01 14.0493L296.01 15.7116Z" fill="#3D4A3F"/>
<path d="M287.959 15.7116L293.425 21.0598L295.123 21.0598L295.123 19.3975L289.658 14.0493L287.959 14.0493L287.959 15.7116Z" fill="#3D4A3F"/>
<path d="M412.852 3.22752e-08C413.074 1.29047e-08 413.222 0 413.222 0L413 21.6386C413 21.8555 412.852 22 412.631 22L376.145 22C376.071 22 375.923 21.9277 375.85 21.9277L364.919 11.2313C364.771 11.0867 364.771 10.8699 364.919 10.7253C365.066 10.5808 365.288 10.5808 365.436 10.7253L376.293 21.3495L412.261 21.3495L412.483 6.45585e-08C412.483 6.45585e-08 412.631 5.16457e-08 412.852 3.22752e-08Z" fill="#3D4A3F"/>
<path d="M306.719 10.2905L359.749 10.2905C359.97 10.2905 360.118 10.4351 360.118 10.6519C360.118 10.8687 359.97 11.0133 359.749 11.0133L306.719 11.0133C306.497 11.0133 306.35 10.8687 306.35 10.6519C306.35 10.4351 306.497 10.2905 306.719 10.2905Z" fill="#3D4A3F"/>
<path d="M280.131 10.2905L292.686 10.2905C292.908 10.2905 293.056 10.4351 293.056 10.6519C293.056 10.8687 292.908 11.0133 292.686 11.0133L280.131 11.0133C279.909 11.0133 279.761 10.8687 279.761 10.6519C279.761 10.4351 279.909 10.2905 280.131 10.2905Z" fill="#3D4A3F"/>
<path d="M301.106 9.92942L304.503 9.92942C304.947 9.92942 305.242 10.2185 305.242 10.6522C305.242 11.0858 304.947 11.3749 304.503 11.3749L301.106 11.3749C300.663 11.3749 300.367 11.0858 300.367 10.6522C300.367 10.2185 300.737 9.92942 301.106 9.92942Z" fill="#3D4A3F"/>
<path d="M274.738 9.92942L277.25 9.92942C277.693 9.92942 277.988 10.2185 277.988 10.6522C277.988 11.0858 277.693 11.3749 277.25 11.3749L274.738 11.3749C274.295 11.3749 274 11.0858 274 10.6522C274 10.2185 274.295 9.92942 274.738 9.92942Z" fill="#3D4A3F"/>
<path d="M398.893 21.6384L400.74 19.8316L412.631 19.8316L412.631 21.6384L398.893 21.6384Z" fill="#3D4A3F"/>
<path d="M410.932 17.3742L412.631 17.3742L412.631 16.5069L410.932 16.5069L410.932 17.3742Z" fill="#3D4A3F"/>
<path d="M399.484 17.3742L401.183 17.3742L401.183 16.5069L399.484 16.5069L399.484 17.3742Z" fill="#3D4A3F"/>
<path d="M388.036 17.3742L389.735 17.3742L389.735 16.5069L388.036 16.5069L388.036 17.3742Z" fill="#3D4A3F"/>
<path d="M376.588 17.3742L378.287 17.3742L378.287 16.5069L376.588 16.5069L376.588 17.3742Z" fill="#3D4A3F"/>
</svg>
