<svg width="56" height="56" viewBox="0 0 56 56" fill="none" xmlns="http://www.w3.org/2000/svg">
<rect width="56" height="56" fill="white"/>
<g clip-path="url(#clip0)">
<path d="M43.5249 23.5665C43.1024 23.0364 42.4684 22.7323 41.7856 22.7323H35.6228L32.281 15.0802C32.0738 14.6058 31.5212 14.389 31.0467 14.5963C30.5722 14.8035 30.3555 15.3562 30.5628 15.8307L33.5768 22.7323H22.4232L25.4373 15.8307C25.6444 15.3562 25.4278 14.8035 24.9533 14.5963C24.4789 14.389 23.9262 14.6057 23.719 15.0802L20.3772 22.7323H14.2144C13.5316 22.7323 12.8976 23.0364 12.4751 23.5666C12.0603 24.0871 11.9072 24.7562 12.0551 25.4026L15.3462 39.7776C15.576 40.7813 16.4639 41.4823 17.5055 41.4823H38.4945C39.5361 41.4823 40.424 40.7813 40.6538 39.7776L43.9449 25.4025C44.0928 24.7562 43.9398 24.087 43.5249 23.5665ZM38.4945 39.6073H17.5055C17.3463 39.6073 17.2069 39.5029 17.1739 39.359L13.8829 24.9842C13.8571 24.8713 13.9004 24.7865 13.9414 24.7352C13.9794 24.6874 14.0654 24.6073 14.2144 24.6073H19.5584L19.3128 25.1697C19.1056 25.6442 19.3223 26.1968 19.7968 26.404C19.9189 26.4574 20.0461 26.4827 20.1714 26.4827C20.5328 26.4827 20.8772 26.2725 21.0311 25.9202L21.6044 24.6075H34.3958L34.9691 25.9202C35.1229 26.2725 35.4673 26.4827 35.8287 26.4827C35.9539 26.4827 36.0813 26.4574 36.2034 26.404C36.6779 26.1968 36.8946 25.6442 36.6873 25.1697L36.4418 24.6073H41.7857C41.9347 24.6073 42.0208 24.6874 42.0588 24.7352C42.0997 24.7865 42.1431 24.8714 42.1173 24.9841L38.8262 39.3591C38.7932 39.5029 38.6537 39.6073 38.4945 39.6073Z" fill="#6C7584"/>
<path d="M22.375 28.6698C21.8572 28.6698 21.4375 29.0895 21.4375 29.6073V36.4823C21.4375 37 21.8572 37.4198 22.375 37.4198C22.8928 37.4198 23.3125 37 23.3125 36.4823V29.6073C23.3125 29.0895 22.8928 28.6698 22.375 28.6698Z" fill="#6C7584"/>
<path d="M28 28.6698C27.4822 28.6698 27.0625 29.0895 27.0625 29.6073V36.4823C27.0625 37 27.4822 37.4198 28 37.4198C28.5178 37.4198 28.9375 37 28.9375 36.4823V29.6073C28.9375 29.0895 28.5178 28.6698 28 28.6698Z" fill="#6C7584"/>
<path d="M33.625 28.6698C33.1072 28.6698 32.6875 29.0895 32.6875 29.6073V36.4823C32.6875 37 33.1072 37.4198 33.625 37.4198C34.1428 37.4198 34.5625 37 34.5625 36.4823V29.6073C34.5624 29.0895 34.1428 28.6698 33.625 28.6698Z" fill="#6C7584"/>
</g>
<defs>
<clipPath id="clip0">
<rect width="32" height="32" fill="white" transform="translate(12 12)"/>
</clipPath>
</defs>
</svg>
