<svg xmlns="http://www.w3.org/2000/svg" width="29" height="29" viewBox="0 0 29 29"><g><g><g><path fill="#d28e6e" d="M14.5 0C22.508 0 29 6.492 29 14.5S22.508 29 14.5 29 0 22.508 0 14.5 6.492 0 14.5 0z"/></g><g><path fill="#f8e8d7" d="M10.588 16.74l-.523 2.982a1.07 1.07 0 0 0 .45 1.062c.35.243.811.276 1.192.084l2.792-1.4 2.792 1.4a1.181 1.181 0 0 0 1.192-.084 1.07 1.07 0 0 0 .45-1.061l-.522-2.983 2.248-2.118c.308-.289.417-.72.285-1.113a1.123 1.123 0 0 0-.912-.74l-3.115-.444-1.404-2.709a1.138 1.138 0 0 0-1.014-.604c-.43 0-.823.235-1.016.604l-1.401 2.709-3.116.443c-.426.06-.779.348-.912.74-.132.393-.023.825.285 1.114z"/></g></g></g></svg>