<svg width="30" height="30" fill="none" xmlns="http://www.w3.org/2000/svg"><g clip-path="url(#clip0)" fill="#737B7D"><path d="M9.875 22.05a3.573 3.573 0 100 7.146 3.573 3.573 0 000-7.146zm0 5.832a2.26 2.26 0 110-4.519 2.26 2.26 0 010 4.519zM29.35 7.055H6.158l-.473-2.647a3.948 3.948 0 00-3.199-3.192L.772.914a.657.657 0 10-.23 1.294l1.72.302a2.627 2.627 0 012.13 2.128l2.324 13.116a3.277 3.277 0 003.231 2.713H23.74a3.275 3.275 0 003.147-2.332l3.087-10.233a.687.687 0 00-.099-.584.665.665 0 00-.525-.263zm-3.718 10.692a1.957 1.957 0 01-1.885 1.4H9.954a1.96 1.96 0 01-1.937-1.63L6.394 8.363H28.47l-2.837 9.385zm-1.964 4.303a3.573 3.573 0 100 7.146 3.573 3.573 0 000-7.146zm0 5.832a2.26 2.26 0 110-4.519 2.26 2.26 0 010 4.519z"/></g><defs><clipPath id="clip0"><path fill="#fff" d="M0 0h30v30H0z"/></clipPath></defs></svg>