<svg width="68" height="68" viewBox="0 0 68 68" fill="none" xmlns="http://www.w3.org/2000/svg">
<rect width="68" height="68" rx="10" fill="#FF7A00" fill-opacity="0.15"/>
<path d="M35.8828 37.7031C41.0561 37.7031 45.2344 33.5161 45.2344 28.3516C45.2344 23.1951 41.0393 19 35.8828 19H26.4688C25.9834 19 25.5898 19.3935 25.5898 19.8789V32.1797H23.6445C23.1591 32.1797 22.7656 32.5732 22.7656 33.0586V36.8242C22.7656 37.3096 23.1591 37.7031 23.6445 37.7031H25.5898V39.711H23.6445C23.1591 39.711 22.7656 40.1045 22.7656 40.5899V44.3555C22.7656 44.8409 23.1591 45.2344 23.6445 45.2344H25.5898V48.1211C25.5898 48.6065 25.9834 49 26.4688 49H30.2344C30.7198 49 31.1133 48.6065 31.1133 48.1211V45.2344H36.8242C37.3096 45.2344 37.7031 44.8408 37.7031 44.3554V40.5898C37.7031 40.1044 37.3096 39.7109 36.8242 39.7109H31.1132V37.7031H35.8828ZM31.1132 24.5235H35.8828C37.9936 24.5235 39.7109 26.2408 39.7109 28.3516C39.7109 30.4623 37.9936 32.1797 35.8828 32.1797H31.1132V24.5235Z" fill="#FF5C00"/>
</svg>
