<svg width="68" height="68" viewBox="0 0 68 68" fill="none" xmlns="http://www.w3.org/2000/svg">
<rect width="68" height="68" rx="10" fill="#00FF0A" fill-opacity="0.15"/>
<path d="M47.8726 22.5699L47.0693 21.8798C45.7359 20.7339 43.7322 20.8617 42.555 22.1671L29.1169 37.0672L25.0606 33.5736C23.7286 32.4265 21.7246 32.5517 20.546 33.8557L19.8358 34.6416C19.2598 35.2786 18.9607 36.1188 19.0041 36.9771C19.048 37.8349 19.4307 38.6402 20.0686 39.2159L27.5041 46.0249C28.1478 46.6294 29.0106 46.9447 29.8924 46.8979C30.7742 46.8512 31.5987 46.4461 32.1747 45.7767L48.2163 27.1375C48.7768 26.4863 49.0554 25.6392 48.9908 24.7827C48.9263 23.9255 48.5241 23.1297 47.8726 22.5699Z" fill="#1DF87A"/>
</svg>
