<svg width="68" height="68" viewBox="0 0 68 68" fill="none" xmlns="http://www.w3.org/2000/svg">
<rect width="68" height="68" rx="10" fill="#953CEF" fill-opacity="0.15"/>
<path d="M27.0264 36.2396C27.0264 34.6855 27.5393 33.2504 28.4022 32.0904C27.4986 31.2782 26.3078 30.7799 24.9977 30.7799C22.1805 30.7799 19.8965 33.0642 19.8965 35.8811C19.8965 35.8811 21.0967 46.5993 24.9977 46.5993C26.5053 46.5993 27.6083 44.9969 28.3958 43.0326C27.4767 40.0084 27.1051 36.9898 27.0322 36.3402L27.0264 36.2396Z" fill="#953CEF"/>
<path d="M24.9979 30.4104C26.7046 30.4104 28.1891 29.4609 28.9539 28.062C28.1904 27.025 27.7367 25.7471 27.7367 24.3634C27.7367 23.7357 27.8318 23.1298 28.0047 22.5577C27.2071 21.8412 26.1549 21.4006 24.9979 21.4006C22.5101 21.4006 20.4932 23.4178 20.4932 25.9057C20.4932 28.3932 22.5101 30.4104 24.9979 30.4104Z" fill="#953CEF"/>
<path d="M43.0022 30.7799C41.692 30.7799 40.5016 31.2782 39.5977 32.0904C40.4612 33.2504 40.9734 34.6855 40.9734 36.2396L40.9677 36.3399C40.8948 36.9901 40.5232 40.0081 39.604 43.0323C40.3916 44.9966 41.4945 46.5991 43.0022 46.5991C46.9032 46.5991 48.1034 35.8808 48.1034 35.8808C48.1034 33.0642 45.8194 30.7799 43.0022 30.7799Z" fill="#953CEF"/>
<path d="M39.0464 28.0617C39.8112 29.4606 41.2951 30.4101 43.0024 30.4101C45.4902 30.4101 47.5071 28.3929 47.5071 25.9054C47.5071 23.4175 45.4899 21.4003 43.0024 21.4003C41.8451 21.4003 40.7932 21.8406 39.9956 22.5574C40.1682 23.1298 40.2639 23.7354 40.2639 24.3631C40.2633 25.7468 39.8096 27.0247 39.0464 28.0617Z" fill="#953CEF"/>
<path d="M33.9999 30.1664C30.6458 30.1664 27.9268 32.8855 27.9268 36.2396C27.9268 36.2396 29.356 49 33.9999 49C38.6438 49 40.0728 36.2396 40.0728 36.2396C40.0728 32.8855 37.354 30.1664 33.9999 30.1664Z" fill="#953CEF"/>
<path d="M33.9998 29.7262C36.9618 29.7262 39.3629 27.325 39.3629 24.3631C39.3629 21.4011 36.9618 19 33.9998 19C31.0379 19 28.6367 21.4011 28.6367 24.3631C28.6367 27.325 31.0379 29.7262 33.9998 29.7262Z" fill="#953CEF"/>
</svg>
