<svg width="90" height="18" viewBox="0 0 90 18" fill="none" xmlns="http://www.w3.org/2000/svg">
<path d="M2.09199 0.000269297H0.128906V17.45H2.09199V0.000269297Z" fill="white"/>
<path d="M21.7232 0H19.7601V17.4497H21.7232V0Z" fill="white"/>
<path d="M4.27322 0H3.18262V17.4497H4.27322V0Z" fill="white"/>
<path d="M6.45444 0H5.36383V17.4497H6.45444V0Z" fill="white"/>
<path d="M8.20005 0H7.10944V17.4497H8.20005V0Z" fill="white"/>
<path d="M19.1061 0H18.0155V17.4497H19.1061V0Z" fill="white"/>
<path d="M13.435 0H11.4719V17.4497H13.435V0Z" fill="white"/>
<path d="M14.7431 0H14.0887V17.4497H14.7431V0Z" fill="white"/>
<path d="M15.8337 0H15.1793V17.4497H15.8337V0Z" fill="white"/>
<path d="M24.5583 0H22.5952V17.4497H24.5583V0Z" fill="white"/>
<path d="M44.1893 0H42.2262V17.4497H44.1893V0Z" fill="white"/>
<path d="M26.5221 0H25.4314V17.4497H26.5221V0Z" fill="white"/>
<path d="M28.9216 0H27.831V17.4497H28.9216V0Z" fill="white"/>
<path d="M30.6662 0H29.5755V17.4497H30.6662V0Z" fill="white"/>
<path d="M41.3539 0H40.2633V17.4497H41.3539V0Z" fill="white"/>
<path d="M35.9011 0H33.938V17.4497H35.9011V0Z" fill="white"/>
<path d="M37.2102 0H36.5559V17.4497H37.2102V0Z" fill="white"/>
<path d="M38.3008 0H37.6465V17.4497H38.3008V0Z" fill="white"/>
<path d="M87.8826 17.5317H89.8457V0.0820065H87.8826V17.5317Z" fill="white"/>
<path d="M68.2259 17.5317H70.189V0.0820065H68.2259V17.5317Z" fill="white"/>
<path d="M85.7312 17.5317H86.8218V0.0820065H85.7312V17.5317Z" fill="white"/>
<path d="M83.5383 17.5317H84.6289V0.0820065H83.5383V17.5317Z" fill="white"/>
<path d="M81.6745 17.5317H82.7651V0.0820065H81.6745V17.5317Z" fill="white"/>
<path d="M70.9612 17.5317H72.0518V0.0820065H70.9612V17.5317Z" fill="white"/>
<path d="M76.5047 17.5317H78.4678V0.0820065H76.5047V17.5317Z" fill="white"/>
<path d="M75.1655 17.5317H75.8198V0.0820065H75.1655V17.5317Z" fill="white"/>
<path d="M74.1366 17.5317H74.791V0.0820065H74.1366V17.5317Z" fill="white"/>
<path d="M65.3386 17.5317H67.3018V0.0820065H65.3386V17.5317Z" fill="white"/>
<path d="M45.9002 17.5317H47.8633V0.0820065H45.9002V17.5317Z" fill="white"/>
<path d="M63.4045 17.5317H64.4951V0.0820065H63.4045V17.5317Z" fill="white"/>
<path d="M60.9944 17.5317H62.085V0.0820065H60.9944V17.5317Z" fill="white"/>
<path d="M59.3479 17.5317H60.4385V0.0820065H59.3479V17.5317Z" fill="white"/>
<path d="M48.6345 17.5317H49.7251V0.0820065H48.6345V17.5317Z" fill="white"/>
<path d="M54.179 17.5317H56.1421V0.0820065H54.179V17.5317Z" fill="white"/>
<path d="M52.8398 17.5317H53.4941V0.0820065H52.8398V17.5317Z" fill="white"/>
<path d="M51.5927 17.5317H52.2471V0.0820065H51.5927V17.5317Z" fill="white"/>
</svg>
