<svg width="141" height="689" viewBox="0 0 141 689" fill="none" xmlns="http://www.w3.org/2000/svg">
<path d="M91.4287 111.405H82.2981C81.8766 111.405 81.5957 111.124 81.5957 110.702C81.5957 110.281 81.8766 110 82.2981 110H91.4287C91.8501 110 92.131 110.281 92.131 110.702C92.131 110.983 91.8501 111.405 91.4287 111.405Z" fill="#4E6C51"/>
<path d="M76.5394 110.843H57.4354C57.2949 110.843 57.2949 110.702 57.2949 110.702C57.2949 110.562 57.4354 110.562 57.4354 110.562H76.399C76.5394 110.562 76.5394 110.702 76.5394 110.702C76.6799 110.702 76.5394 110.843 76.5394 110.843Z" fill="#4E6C51"/>
<path d="M53.2214 110H52.0977V111.124H53.2214V110Z" fill="#4E6C51"/>
<path d="M50.5525 110H49.4287V111.124H50.5525V110Z" fill="#4E6C51"/>
<path d="M41.4214 110.421H41V110.843H41.4214V110.421Z" fill="#4E6C51"/>
<path d="M91.4287 163.941H82.2981C81.8766 163.941 81.5957 163.66 81.5957 163.238C81.5957 162.817 81.8766 162.536 82.2981 162.536H91.4287C91.8501 162.536 92.131 162.817 92.131 163.238C92.131 163.66 91.8501 163.941 91.4287 163.941Z" fill="#4E6C51"/>
<path d="M76.5394 163.379H57.4354C57.2949 163.379 57.2949 163.239 57.2949 163.239L57.4354 163.098H76.399C76.5394 163.098 76.5394 163.239 76.5394 163.239V163.379Z" fill="#4E6C51"/>
<path d="M53.2214 162.677H52.0977V163.801H53.2214V162.677Z" fill="#4E6C51"/>
<path d="M50.5515 162.677H49.4277V163.801H50.5515V162.677Z" fill="#4E6C51"/>
<path d="M41.4214 162.958H41V163.379H41.4214V162.958Z" fill="#4E6C51"/>
<path d="M91.4287 70.4047H82.2981C81.8766 70.4047 81.5957 70.1238 81.5957 69.7024C81.5957 69.2809 81.8766 69 82.2981 69H91.4287C91.8501 69 92.131 69.2809 92.131 69.7024C92.131 70.1238 91.8501 70.4047 91.4287 70.4047Z" fill="#4E6C51"/>
<path d="M76.5394 69.843H57.4354C57.2949 69.843 57.2949 69.7025 57.2949 69.7025C57.2949 69.562 57.4354 69.562 57.4354 69.562H76.399C76.5394 69.562 76.5394 69.7025 76.5394 69.7025C76.6799 69.7025 76.5394 69.843 76.5394 69.843Z" fill="#4E6C51"/>
<path d="M53.2214 69.1406H52.0977V70.2644H53.2214V69.1406Z" fill="#4E6C51"/>
<path d="M50.5515 69.1406H49.4277V70.2644H50.5515V69.1406Z" fill="#4E6C51"/>
<path d="M41.4214 69.4214H41V69.8428H41.4214V69.4214Z" fill="#4E6C51"/>
<path d="M35.9272 532.029H33.6797V534.277H35.9272V532.029Z" fill="#3D4A3F"/>
<path d="M70.6235 532.029H68.376V534.277H70.6235V532.029Z" fill="#3D4A3F"/>
<path d="M105.32 532.029H103.072V534.277H105.32V532.029Z" fill="#3D4A3F"/>
<path d="M140.016 532.029H137.769V534.277H140.016V532.029Z" fill="#3D4A3F"/>
<path d="M35.9272 573.047H33.6797V575.294H35.9272V573.047Z" fill="#3D4A3F"/>
<path d="M70.6235 573.047H68.376V575.294H70.6235V573.047Z" fill="#3D4A3F"/>
<path d="M105.32 573.047H103.072V575.294H105.32V573.047Z" fill="#3D4A3F"/>
<path d="M140.016 573.047H137.769V575.294H140.016V573.047Z" fill="#3D4A3F"/>
<path d="M35.9272 614.064H33.6797V616.312H35.9272V614.064Z" fill="#3D4A3F"/>
<path d="M70.6235 614.064H68.376V616.312H70.6235V614.064Z" fill="#3D4A3F"/>
<path d="M105.32 614.064H103.072V616.312H105.32V614.064Z" fill="#3D4A3F"/>
<path d="M140.016 614.064H137.769V616.312H140.016V614.064Z" fill="#3D4A3F"/>
<path d="M3.45888 0H2.47559V5.89978H3.45888V0Z" fill="#4E6C51"/>
<path d="M5.89941 3.51162V2.52832L-0.000366211 2.52832V3.51162L5.89941 3.51162Z" fill="#4E6C51"/>
<path d="M6.46279 191.569H5.47949V197.469H6.46279V191.569Z" fill="#4E6C51"/>
<path d="M8.90039 195.077V194.093H3.00061V195.077H8.90039Z" fill="#4E6C51"/>
<path d="M3.48427 683H2.50098V688.9H3.48427V683Z" fill="#4E6C51"/>
<path d="M5.90039 686.487V685.504H0.000592709V686.487H5.90039Z" fill="#4E6C51"/>
<path d="M10.0237 233.851H3.14062V240.734H10.0237V233.851Z" fill="#4E6C51"/>
<path d="M10.0237 394.409H3.14062V401.292H10.0237V394.409Z" fill="#4E6C51"/>
<path d="M8.89921 416.604H4.26367V421.239H8.89921V416.604Z" fill="#4E6C51"/>
<path d="M8.89921 506.224H4.26367V510.859H8.89921V506.224Z" fill="#4E6C51"/>
<path d="M8.19763 278.099H4.9668V281.33H8.19763V278.099Z" fill="#4E6C51"/>
<path d="M9.88308 283.296H3.28094C3.14047 283.296 3 283.156 3 283.015V276.413C3 276.273 3.14047 276.132 3.28094 276.132H9.88308C10.0235 276.132 10.164 276.273 10.164 276.413V283.015C10.0235 283.156 10.0235 283.296 9.88308 283.296ZM3.56188 282.875H9.74261V276.694H3.56188V282.875Z" fill="#4E6C51"/>
<path d="M6.51141 276.694C6.37094 276.694 6.23047 276.554 6.23047 276.413V255.342C6.23047 255.202 6.37094 255.062 6.51141 255.062C6.65188 255.062 6.79235 255.202 6.79235 255.342V276.413C6.79235 276.554 6.65188 276.694 6.51141 276.694Z" fill="#4E6C51"/>
<path d="M8.19763 376.99H4.9668V380.221H8.19763V376.99Z" fill="#4E6C51"/>
<path d="M9.88308 382.047H3.28094C3.14047 382.047 3 381.906 3 381.766V375.164C3 375.023 3.14047 374.883 3.28094 374.883H9.88308C10.0235 374.883 10.164 375.023 10.164 375.164V381.766C10.0235 381.906 10.0235 382.047 9.88308 382.047ZM3.56188 381.625H9.74261V375.445H3.56188V381.625Z" fill="#4E6C51"/>
<path d="M6.51141 375.445C6.37094 375.445 6.23047 375.305 6.23047 375.164V354.093C6.23047 353.953 6.37094 353.812 6.51141 353.812C6.65188 353.812 6.79235 353.953 6.79235 354.093V375.164C6.79235 375.445 6.65188 375.445 6.51141 375.445Z" fill="#4E6C51"/>
</svg>
