<svg width="140" height="690" viewBox="0 0 140 690" fill="none" xmlns="http://www.w3.org/2000/svg">
<path d="M14.4524 23.4047H23.583C24.0044 23.4047 24.2853 23.1238 24.2853 22.7024C24.2853 22.2809 24.0044 22 23.583 22H14.4524C14.0309 22 13.75 22.2809 13.75 22.7024C13.75 22.9833 14.0309 23.4047 14.4524 23.4047Z" fill="#4E6C51"/>
<path d="M29.3417 22.843H48.3052C48.4457 22.843 48.4457 22.7025 48.4457 22.7025C48.4457 22.562 48.3052 22.562 48.3052 22.562H29.3417C29.2012 22.562 29.2012 22.7025 29.2012 22.7025L29.3417 22.843Z" fill="#4E6C51"/>
<path d="M52.6048 23.25H53.7285V22.1262H52.6048V23.25Z" fill="#4E6C51"/>
<path d="M55.4339 23.25H56.5576V22.1262H55.4339V23.25Z" fill="#4E6C51"/>
<path d="M64.4331 22.8286H64.8545V22.4072H64.4331V22.8286Z" fill="#4E6C51"/>
<path d="M14.4524 58.9408H23.583C24.0044 58.9408 24.2853 58.6599 24.2853 58.2385C24.2853 57.8171 24.0044 57.5361 23.583 57.5361H14.4524C14.0309 57.5361 13.75 57.8171 13.75 58.2385C13.75 58.6599 14.0309 58.9408 14.4524 58.9408Z" fill="#4E6C51"/>
<path d="M29.3417 58.3791H48.3052C48.4457 58.3791 48.4457 58.2386 48.4457 58.2386L48.3052 58.0981H29.3417C29.2012 58.0981 29.2012 58.2386 29.2012 58.2386L29.3417 58.3791Z" fill="#4E6C51"/>
<path d="M52.6048 58.7891H53.7285V57.6653H52.6048V58.7891Z" fill="#4E6C51"/>
<path d="M55.4339 58.7891H56.5576V57.6653H55.4339V58.7891Z" fill="#4E6C51"/>
<path d="M64.4331 58.5083H64.8545V58.0869H64.4331V58.5083Z" fill="#4E6C51"/>
<path d="M6.70235 649.405H15.833C16.2544 649.405 16.5353 649.124 16.5353 648.702C16.5353 648.281 16.2544 648 15.833 648H6.70235C6.28094 648 6 648.281 6 648.702C6 649.124 6.28094 649.405 6.70235 649.405Z" fill="#93FBA3"/>
<path d="M21.5917 648.843H40.5552C40.6957 648.843 40.6957 648.703 40.6957 648.703C40.6957 648.563 40.5552 648.562 40.5552 648.562H21.5917C21.4512 648.562 21.4512 648.703 21.4512 648.703L21.5917 648.843Z" fill="#93FBA3"/>
<path d="M44.8548 649.176H45.9785V648.052H44.8548V649.176Z" fill="#93FBA3"/>
<path d="M47.6839 649.176H48.8076V648.052H47.6839V649.176Z" fill="#93FBA3"/>
<path d="M56.6831 648.896H57.1045V648.474H56.6831V648.896Z" fill="#93FBA3"/>
<path d="M104.212 534.248H106.46V532.001H104.212V534.248Z" fill="#3D4A3F"/>
<path d="M69.479 534.248H71.7266V532.001H69.479V534.248Z" fill="#3D4A3F"/>
<path d="M34.7446 534.248H36.9922V532.001H34.7446V534.248Z" fill="#3D4A3F"/>
<path d="M0.0122216 534.248H2.25977L2.25977 532.001H0.0122216L0.0122216 534.248Z" fill="#3D4A3F"/>
<path d="M104.212 575.331H106.46V573.084H104.212V575.331Z" fill="#3D4A3F"/>
<path d="M69.479 575.331H71.7266V573.084H69.479V575.331Z" fill="#3D4A3F"/>
<path d="M34.7446 575.331H36.9922V573.084H34.7446V575.331Z" fill="#3D4A3F"/>
<path d="M0.0122216 575.331H2.25977L2.25977 573.084H0.0122216L0.0122216 575.331Z" fill="#3D4A3F"/>
<path d="M104.212 616.414H106.46V614.167H104.212V616.414Z" fill="#3D4A3F"/>
<path d="M69.479 616.414H71.7266V614.167H69.479V616.414Z" fill="#3D4A3F"/>
<path d="M34.7446 616.414H36.9922V614.167H34.7446V616.414Z" fill="#3D4A3F"/>
<path d="M0.0122216 616.414H2.25977L2.25977 614.167H0.0122216L0.0122216 616.414Z" fill="#3D4A3F"/>
<path d="M136.504 5.8999H137.487V0.000121593H136.504V5.8999Z" fill="#4E6C51"/>
<path d="M139.924 3.36755V2.38428L134.024 2.38428V3.36755L139.924 3.36755Z" fill="#4E6C51"/>
<path d="M133.484 196.461H134.467V190.561H133.484V196.461Z" fill="#4E6C51"/>
<path d="M136.9 193.932V192.949H131.001V193.932H136.9Z" fill="#4E6C51"/>
<path d="M136.504 689.852H137.487V683.952H136.504V689.852Z" fill="#4E6C51"/>
<path d="M139.9 687.344V686.36H134.001V687.344H139.9Z" fill="#4E6C51"/>
<path d="M130.052 240.883H136.935V234H130.052V240.883Z" fill="#4E6C51"/>
<path d="M130.052 401.428H136.935V394.545H130.052V401.428Z" fill="#4E6C51"/>
<path d="M131.175 421.485H135.811V416.85H131.175V421.485Z" fill="#4E6C51"/>
<path d="M131.175 511.01H135.811V506.374H131.175V511.01Z" fill="#4E6C51"/>
<path d="M131.879 281.587H135.109V278.356H131.879V281.587Z" fill="#4E6C51"/>
<path d="M130 283.205V276.603C130 276.462 130.14 276.322 130.281 276.322H136.883C137.024 276.322 137.164 276.462 137.164 276.603V283.205C137.164 283.345 137.024 283.486 136.883 283.486H130.281C130 283.486 130 283.345 130 283.205ZM136.602 276.884H130.421V283.064H136.602V276.884Z" fill="#4E6C51"/>
<path d="M133.511 276.883C133.652 276.883 133.792 276.743 133.792 276.603V255.532C133.792 255.391 133.652 255.251 133.511 255.251C133.371 255.251 133.23 255.391 133.23 255.532V276.603C133.23 276.743 133.371 276.883 133.511 276.883Z" fill="#4E6C51"/>
<path d="M131.879 380.283H135.109V377.052H131.879V380.283Z" fill="#4E6C51"/>
<path d="M130 381.955V375.353C130 375.213 130.14 375.072 130.281 375.072H136.883C137.024 375.072 137.164 375.213 137.164 375.353V381.955C137.164 382.096 137.024 382.236 136.883 382.236H130.281C130 382.236 130 382.096 130 381.955ZM136.602 375.634H130.421V381.815H136.602V375.634Z" fill="#4E6C51"/>
<path d="M133.511 375.634C133.652 375.634 133.792 375.494 133.792 375.354V354.283C133.792 354.142 133.652 354.002 133.511 354.002C133.371 354.002 133.23 354.142 133.23 354.283V375.354C133.23 375.634 133.371 375.634 133.511 375.634Z" fill="#4E6C51"/>
</svg>
