<svg width="50" height="50" viewBox="0 0 50 50" fill="none" xmlns="http://www.w3.org/2000/svg">
<path d="M50 46.875C50 48.6 48.6 50 46.875 50H3.125C1.4 50 0 48.6 0 46.875V3.125C0 1.4 1.4 0 3.125 0H46.875C48.6 0 50 1.4 50 3.125V46.875Z" fill="#3B5998"/>
<path d="M34.375 50V31.25H40.625L42.1875 23.4375H34.375V20.3125C34.375 17.1875 35.9406 15.625 39.0625 15.625H42.1875V7.8125C40.625 7.8125 38.6875 7.8125 35.9375 7.8125C30.1953 7.8125 26.5625 12.3141 26.5625 18.75V23.4375H20.3125V31.25H26.5625V50H34.375Z" fill="white"/>
</svg>
