<svg width="50" height="50" viewBox="0 0 50 50" fill="none" xmlns="http://www.w3.org/2000/svg">
<path fill-rule="evenodd" clip-rule="evenodd" d="M2.49659 0H47.5034C48.8822 0 50 1.11443 50 2.49662V47.5034C50 48.8822 48.8856 50 47.5034 50H2.49659C1.11775 50 0 48.8856 0 47.5034V2.49662C0 1.11778 1.1144 0 2.49659 0Z" fill="black"/>
<path fill-rule="evenodd" clip-rule="evenodd" d="M21.1877 39.5974C21.1877 39.2226 21.1745 38.231 21.1669 36.914C16.8876 37.8669 15.9848 34.7991 15.9848 34.7991C15.2849 32.9766 14.2762 32.4914 14.2762 32.4914C12.8794 31.5124 14.382 31.5327 14.382 31.5327C15.9262 31.6441 16.7384 33.1587 16.7384 33.1587C18.1107 35.569 20.3387 34.8736 21.2161 34.4698C21.3559 33.4501 21.7535 32.7548 22.1926 32.3607C18.7766 31.9627 15.1848 30.6089 15.1848 24.5642C15.1848 22.8425 15.7845 21.4344 16.7686 20.3315C16.6109 19.9325 16.082 18.3289 16.9198 16.1568C16.9198 16.1568 18.2118 15.7326 21.15 17.774C22.3768 17.4244 23.6933 17.2481 25.0023 17.2423C26.3085 17.2481 27.6241 17.4244 28.8538 17.774C31.7901 15.7326 33.0802 16.1568 33.0802 16.1568C33.9199 18.3279 33.3919 19.9315 33.2332 20.3315C34.2192 21.4344 34.8143 22.8425 34.8143 24.5642C34.8143 30.6244 31.2168 31.9578 27.7894 32.3481C28.3429 32.8352 28.834 33.7978 28.834 35.2697C28.834 37.3788 28.8141 39.0803 28.8141 39.5974C28.8141 40.0196 29.0918 40.5096 29.8729 40.3556C35.9807 38.2658 40.3846 32.3568 40.3846 25.3903C40.3846 16.6778 33.4958 9.61536 24.9995 9.61536C16.5042 9.61536 9.61538 16.6778 9.61538 25.3903C9.61632 32.3588 14.0241 38.2717 20.1375 40.3575C20.9063 40.5018 21.1877 40.0148 21.1877 39.5974Z" fill="white"/>
</svg>
