<svg width="78" height="78" viewBox="0 0 78 78" fill="none" xmlns="http://www.w3.org/2000/svg">
<path d="M76.3379 58.1924L74.9539 56.3309C74.3329 55.4958 74.1085 54.428 74.3532 53.4165C74.9173 51.0844 75.6141 46.4894 73.5154 42.3606C73.0554 41.4553 72.7161 40.4901 72.5484 39.4886C71.3799 32.5125 74.8996 23.1116 74.9671 22.8982C76.2002 19.0005 76.6898 17.4452 73.7103 16.0119C70.4675 14.4519 67.5862 16.2539 65.904 19.3113C65.6755 19.7262 62.2901 26.0071 61.5144 34.1687C56.5011 27.426 44.5788 11.3909 40.616 6.06131C39.1365 4.07124 36.3692 3.45821 34.2539 4.75283C31.8281 6.23772 31.2463 9.44182 32.9047 11.6724C32.8927 11.6563 30.3962 8.29863 30.4677 8.39476C28.9148 6.30612 25.9622 5.75479 23.8343 7.25325C21.6336 8.80319 21.1546 11.8516 22.7508 13.9984C25.596 17.8251 24.942 16.9454 25.252 17.3623C23.6113 15.1556 20.4264 14.7742 18.3051 16.6018C16.4004 18.243 16.1576 21.1133 17.6578 23.1311L22.2778 29.3449C20.6196 27.1145 17.3836 26.7488 15.263 28.644C13.414 30.2963 13.2042 33.123 14.6838 35.1131C15.4438 36.1352 36.2537 64.1239 37.4101 65.6794C39.7902 68.8804 43.0421 71.0505 46.5928 72.1052C49.9337 73.0977 51.2967 75.7347 51.687 76.1475L51.8476 76.3635C53.1842 78.1613 55.7253 78.5352 57.5233 77.1985L75.5093 63.8258C77.2936 62.4989 77.6645 59.9768 76.3379 58.1924Z" fill="#F4D44E"/>
<path d="M60.0609 12.9667C58.0964 8.82843 55.3206 5.09448 51.9216 2.01958C51.4466 1.58997 51.4099 0.856583 51.8397 0.381727C52.2693 -0.0932804 53.0027 -0.129995 53.4777 0.299766C57.0998 3.57622 60.06 7.55681 62.1562 11.972C62.4309 12.5506 62.1844 13.2423 61.606 13.5171C61.03 13.7904 60.3368 13.5477 60.0609 12.9667Z" fill="#EAE9E8"/>
<path d="M53.5603 14.7796C52.1908 12.1747 50.4168 9.78759 48.3134 7.72287C47.8563 7.27407 47.8495 6.54008 48.2981 6.08289C48.7469 5.62571 49.4809 5.61916 49.938 6.06766C52.2094 8.29751 54.1299 10.8785 55.6131 13.7005C55.9111 14.2673 55.6931 14.9685 55.1262 15.2665C54.558 15.5651 53.8576 15.3454 53.5603 14.7796Z" fill="#EAE9E8"/>
<path d="M9.65769 51.0052C6.0351 47.728 3.07568 43.7488 0.979121 39.3329C0.704293 38.7543 0.950785 38.0627 1.52923 37.7878C2.10768 37.5132 2.79948 37.7597 3.07415 38.3381C5.03908 42.4767 7.81402 46.2099 11.2134 49.2851C11.6884 49.7147 11.7251 50.4481 11.2954 50.9229C10.8673 51.3967 10.1339 51.4362 9.65769 51.0052Z" fill="#EAE9E8"/>
<path d="M13.1972 45.2373C10.9249 43.0067 9.0055 40.426 7.52198 37.6045C7.224 37.0376 7.442 36.3365 8.00887 36.0384C8.57574 35.7405 9.27683 35.9584 9.57497 36.5251C10.9448 39.1311 12.7186 41.5176 14.8218 43.582C15.2789 44.0306 15.2857 44.7648 14.8371 45.222C14.3892 45.6785 13.6546 45.6863 13.1972 45.2373Z" fill="#EAE9E8"/>
<path d="M22.9568 14.2759C24.7128 16.6374 38.6236 35.347 38.1531 34.7142C38.9199 35.7454 40.4002 35.9099 41.3746 35.0725C42.2606 34.3109 42.407 32.9939 41.7099 32.0562L29.3175 15.3892C29.3122 15.3822 29.3073 15.3755 29.3029 15.3694L29.286 15.3465C29.2793 15.3376 29.2733 15.3295 29.2681 15.3225L29.2553 15.3054C29.2553 15.3054 29.2552 15.3051 29.255 15.3051L26.8561 12.0788C25.577 10.3584 25.6315 8.05933 26.836 6.41615C23.0339 6.16921 20.1322 10.4754 22.9568 14.2759Z" fill="#E8C842"/>
<path d="M31.2844 41.4582C32.1071 42.5645 33.7118 42.7024 34.7112 41.7527C35.4888 41.0135 35.5921 39.8105 34.9521 38.9497C33.3302 36.7685 22.9995 22.874 21.7632 21.2113C20.4753 19.4793 20.4732 17.1196 21.7029 15.4478C17.6499 15.2096 15.2024 19.8288 17.6577 23.1311C23.8191 31.4173 24.873 32.8353 31.2844 41.4582Z" fill="#E8C842"/>
<path d="M55.953 74.4438L55.7922 74.2278C55.4019 73.815 54.0389 71.1782 50.698 70.1855C47.1475 69.1307 43.8956 66.9607 41.5153 63.7597C40.3589 62.2042 19.5489 34.2155 18.789 33.1934C17.5034 31.4642 17.4941 29.1036 18.7267 27.4301C14.6858 27.1943 12.2161 31.7946 14.6835 35.1133C15.4435 36.1353 36.2535 64.1241 37.4098 65.6795C39.7901 68.8806 43.0418 71.0505 46.5925 72.1054C49.9334 73.0979 51.2964 75.7348 51.6867 76.1477L51.8475 76.3637C53.1841 78.1615 55.7252 78.5353 57.5232 77.1987L59.0334 76.0759C57.856 76.0243 56.7109 75.4633 55.953 74.4438Z" fill="#E8C842"/>
<path d="M37.0102 9.75283C37.0102 9.75283 37.008 9.74963 37.0102 9.75283C35.7292 8.02982 35.786 5.72639 36.9958 4.08275C36.1593 4.02745 35.3067 4.19259 34.5274 4.60041L34.527 4.5998C34.1226 4.81141 33.7562 5.07679 33.4427 5.37508C33.4422 5.37554 33.4416 5.376 33.441 5.3766H33.4411C31.7817 6.95458 31.4726 9.52188 32.7528 11.4562L32.9047 11.6728L46.6288 30.1311C47.4301 31.2089 48.9944 31.3419 49.9662 30.4146C50.8627 29.559 50.9744 28.1668 50.2255 27.1794L37.0102 9.75283ZM35.6938 7.98229L35.6215 7.8851C35.6456 7.91724 35.6696 7.94984 35.6938 7.98229Z" fill="#E8C842"/>
<path d="M65.9041 19.3113C65.7615 19.5703 64.3901 22.1163 63.1901 25.9765L63.1889 25.9754C62.4663 28.3 61.8059 31.1015 61.5144 34.1688C62.7864 35.8593 65.476 35.037 65.5851 32.9241L65.6198 32.249C66.3957 24.0871 69.7811 17.8065 70.0094 17.3915C70.4122 16.6595 70.8843 16.0004 71.4133 15.4413C69.1332 15.4077 67.1758 17.0003 65.9041 19.3113Z" fill="#E8C842"/>
</svg>
