<svg width="50" height="50" viewBox="0 0 50 50" fill="none" xmlns="http://www.w3.org/2000/svg">
<g clip-path="url(#clip0)">
<path d="M3.12498 3.40208C-0.804189 7.48333 -2.2286e-05 11.8187 -2.2286e-05 24.9896C-2.2286e-05 35.9271 -1.90836 46.8917 8.07915 49.4729C11.1979 50.275 38.8312 50.275 41.9458 49.4687C46.1041 48.3958 49.4875 45.0229 49.95 39.1417C50.0146 38.3208 50.0146 11.6729 49.9479 10.8354C49.4562 4.57083 45.6 0.960412 40.5187 0.229162C39.3541 0.0604116 39.1208 0.0104116 33.1458 -5.07255e-06C11.9521 0.0104116 7.30623 -0.933339 3.12498 3.40208V3.40208Z" fill="url(#paint0_linear)"/>
<path d="M24.9959 6.53967C17.4313 6.53967 10.2479 5.86675 7.50419 12.9084C6.37085 15.8168 6.53544 19.5938 6.53544 25.0022C6.53544 29.748 6.38335 34.2084 7.50419 37.0938C10.2417 44.1397 17.4834 43.4647 24.9917 43.4647C32.2354 43.4647 39.7042 44.2188 42.4813 37.0938C43.6167 34.1563 43.45 30.4355 43.45 25.0022C43.45 17.7897 43.8479 13.1334 40.35 9.63758C36.8084 6.09592 32.0188 6.53967 24.9875 6.53967H24.9959ZM23.3417 9.86675C39.1209 9.84175 41.1292 8.08759 40.0209 32.4563C39.6271 41.0751 33.0646 40.1292 24.9979 40.1292C10.2896 40.1292 9.86669 39.7084 9.86669 24.9938C9.86669 10.1084 11.0334 9.87508 23.3417 9.86258V9.86675ZM34.85 12.9313C33.6271 12.9313 32.6354 13.923 32.6354 15.1459C32.6354 16.3688 33.6271 17.3605 34.85 17.3605C36.0729 17.3605 37.0646 16.3688 37.0646 15.1459C37.0646 13.923 36.0729 12.9313 34.85 12.9313V12.9313ZM24.9959 15.5209C19.7604 15.5209 15.5167 19.7668 15.5167 25.0022C15.5167 30.2376 19.7604 34.4813 24.9959 34.4813C30.2313 34.4813 34.4729 30.2376 34.4729 25.0022C34.4729 19.7668 30.2313 15.5209 24.9959 15.5209V15.5209ZM24.9959 18.848C33.1313 18.848 33.1417 31.1563 24.9959 31.1563C16.8625 31.1563 16.85 18.848 24.9959 18.848Z" fill="white"/>
</g>
<defs>
<linearGradient id="paint0_linear" x1="3.22085" y1="46.8064" x2="49.6906" y2="6.58744" gradientUnits="userSpaceOnUse">
<stop stop-color="#FFDD55"/>
<stop offset="0.5" stop-color="#FF543E"/>
<stop offset="1" stop-color="#C837AB"/>
</linearGradient>
<clipPath id="clip0">
<rect width="50" height="50" fill="white"/>
</clipPath>
</defs>
</svg>
