<svg width="50" height="50" viewBox="0 0 50 50" fill="none" xmlns="http://www.w3.org/2000/svg">
<path d="M50 46.875C50 48.6 48.6 50 46.875 50H3.125C1.4 50 0 48.6 0 46.875V3.125C0 1.4 1.4 0 3.125 0H46.875C48.6 0 50 1.4 50 3.125V46.875Z" fill="#007BB5"/>
<path d="M17.1875 17.1875H10.9375V39.0625H17.1875V17.1875Z" fill="white"/>
<path d="M32.0297 17.1875C27.6688 17.1875 26.9188 18.7781 26.5625 20.3125V17.1875H20.3125V39.0625H26.5625V26.5625C26.5625 24.5359 27.6609 23.4375 29.6875 23.4375C31.6656 23.4375 32.8125 24.5125 32.8125 26.5625V39.0625H39.0625V28.125C39.0625 21.875 38.2484 17.1875 32.0297 17.1875Z" fill="white"/>
<path d="M14.0625 15.625C15.7884 15.625 17.1875 14.2259 17.1875 12.5C17.1875 10.7741 15.7884 9.375 14.0625 9.375C12.3366 9.375 10.9375 10.7741 10.9375 12.5C10.9375 14.2259 12.3366 15.625 14.0625 15.625Z" fill="white"/>
</svg>
