<svg width="50" height="50" viewBox="0 0 50 50" fill="none" xmlns="http://www.w3.org/2000/svg">
<path d="M44.636 0H5.36398C2.40154 0 0 2.40154 0 5.36398V44.636C0 47.5985 2.40154 50 5.36398 50H44.636C47.5985 50 50 47.5985 50 44.636V5.36398C50 2.40154 47.5985 0 44.636 0Z" fill="#20A0E1"/>
<path fill-rule="evenodd" clip-rule="evenodd" d="M32.9502 19.1571C33.1418 18.7739 33.5249 18.7739 33.5249 18.1992C32.7586 18.1992 32.1839 18.7739 31.8008 18.9655L18.9655 27.0115L21.4559 34.8659C21.8391 34.4827 21.8391 34.0996 21.8391 33.3333C21.8391 32.9502 22.0306 32.1839 22.0306 31.8008V30.4598C22.2222 30.2682 22.2222 30.0766 22.2222 29.6935C22.2222 29.5019 22.2222 29.3103 22.2222 29.1188C22.4138 28.7356 22.6054 28.9272 22.7969 28.544C25.6705 25.4789 29.6935 22.0306 32.9502 19.1571Z" fill="#CCD8E6"/>
<path fill-rule="evenodd" clip-rule="evenodd" d="M12.6437 24.7127L18.9655 27.0115L32.3755 18.5824C32.7586 18.3908 33.1418 18.1993 33.5249 18.1993C33.5249 18.774 32.7586 19.3487 32.3755 19.7318C29.5019 22.2222 24.7126 25.8621 22.2222 28.7357L24.5211 30.4598C24.9042 30.4598 25.8621 31.4176 26.0536 31.6092C26.4368 31.8008 27.9693 32.9502 28.1609 33.3334C28.5441 33.3334 28.5441 33.5249 28.7356 33.7165L30.6513 35.0575C31.4176 35.6322 32.1839 36.5901 33.5249 35.6322L37.7395 16.4751C38.3142 13.2184 36.7816 13.7931 34.6743 14.5594L13.2184 23.1801C12.4521 23.5632 11.6858 24.5211 12.6437 24.7127Z" fill="#FEFEFE"/>
<path fill-rule="evenodd" clip-rule="evenodd" d="M21.4559 34.866L21.6475 35.0576C22.0307 35.0576 22.4138 34.866 22.7969 34.4828L26.0536 31.6093C25.8621 31.4177 24.9042 30.4599 24.5211 30.4599L22.2222 28.7357L21.4559 34.866Z" fill="#ABBDD5"/>
<path fill-rule="evenodd" clip-rule="evenodd" d="M50 26.6284L37.5479 14.1763C37.931 14.5594 37.931 15.1341 37.7395 16.4751L33.5249 35.6322C32.1839 36.5901 31.4176 35.6322 30.6513 35.0575L28.7356 33.7165C28.5441 33.5249 28.5441 33.3334 28.1609 33.3334C27.9693 32.9502 26.4368 31.8008 26.0536 31.6092L22.7969 34.4828C22.4138 34.6744 22.0306 34.8659 21.6475 35.0575L36.7816 50H44.636L50 44.636V26.6284Z" fill="#1A82B7"/>
<path fill-rule="evenodd" clip-rule="evenodd" d="M12.6437 24.7126L20.8812 33.1418L18.9655 27.0115L12.6437 24.7126Z" fill="#1A82B7"/>
</svg>
