<svg width="887" height="64" viewBox="0 0 887 64" fill="none" xmlns="http://www.w3.org/2000/svg">
<mask id="mask0_5_16710" style="mask-type:alpha" maskUnits="userSpaceOnUse" x="0" y="0" width="887" height="64">
<rect width="887" height="64" fill="#D9D9D9"/>
</mask>
<g mask="url(#mask0_5_16710)">
<g opacity="0.05">
<path d="M315.998 610.206L877.662 13.7061L877.662 -50L817.535 -50L195.982 610.206L315.998 610.206Z" fill="#93FBA3"/>
<path d="M144.447 610.206L766.238 -50L646.223 -50L24.4309 610.206L144.447 610.206Z" fill="#93FBA3"/>
<path d="M-86.9964 610.206L-26.8692 610.206L594.684 -50L474.668 -50L-86.9964 546.5L-86.9964 610.206Z" fill="#93FBA3"/>
<path d="M-86.998 491.86L423.367 -50L303.113 -50L-86.998 364.448L-86.998 491.86Z" fill="#93FBA3"/>
<path d="M-86.9994 309.809L251.812 -50L131.797 -50L-86.9994 182.396L-86.9994 309.809Z" fill="#93FBA3"/>
<path d="M-39.7521 -50L-86.9948 0.105976L-86.9948 127.757L80.2637 -50L-39.7521 -50Z" fill="#93FBA3"/>
</g>
</g>
</svg>
