<svg width="750" height="869" viewBox="0 0 750 869" fill="none" xmlns="http://www.w3.org/2000/svg">
<mask id="mask0_5_15362" style="mask-type:alpha" maskUnits="userSpaceOnUse" x="0" y="0" width="750" height="869">
<rect width="750" height="869" fill="#D9D9D9"/>
</mask>
<g mask="url(#mask0_5_15362)">
<g opacity="0.05">
<path d="M838.555 868.999L900.739 802.733V635.026L680.584 868.999H838.555Z" fill="#93FBA3"/>
<path d="M612.748 869L900.739 563.107V395.4L454.776 869H612.748Z" fill="#93FBA3"/>
<path d="M387.254 868.999L900.739 323.48V155.459L229.283 868.999H387.254Z" fill="#93FBA3"/>
<path d="M161.446 868.999L900.739 83.8534V6.91887e-06L821.596 3.45944e-06L3.47488 868.999L161.446 868.999Z" fill="#93FBA3"/>
<path d="M-64.3593 868.999L754.076 6.91887e-06L596.105 1.37243e-08L-222.331 868.999L-64.3593 868.999Z" fill="#93FBA3"/>
<path d="M-368.997 868.999L-289.854 868.999L528.267 6.91887e-06L370.296 1.37316e-08L-368.997 785.145L-368.997 868.999Z" fill="#93FBA3"/>
<path d="M-369 713.226L302.771 6.91887e-06L144.485 0L-369 545.519L-369 713.226Z" fill="#93FBA3"/>
<path d="M-369.001 473.6L76.9615 6.91887e-06L-81.0098 1.37261e-08L-369.001 305.892L-369.001 473.6Z" fill="#93FBA3"/>
<path d="M-306.812 1.37352e-08L-368.995 65.9522L-368.995 233.973L-148.84 6.91887e-06L-306.812 1.37352e-08Z" fill="#93FBA3"/>
</g>
</g>
</svg>
