<svg width="29" height="33" viewBox="0 0 29 33" fill="none" xmlns="http://www.w3.org/2000/svg">
<path d="M27.7708 23.0684C27.4148 23.0684 27.1263 23.3569 27.1263 23.7129V28.9728C27.1263 30.4826 25.8979 31.7109 24.3881 31.7109H4.57703C3.06721 31.7109 1.83887 30.4826 1.83887 28.9728V13.0036C1.83887 11.4934 3.06721 10.2648 4.57703 10.2648H11.9224L12.4069 18.9047H9.02294V15.3097C9.02294 14.2429 8.15508 13.3751 7.08825 13.3751C6.57166 13.3751 6.08588 13.5763 5.72107 13.9412C5.35517 14.3061 5.15363 14.7921 5.15363 15.3097V26.6706C5.15363 27.7373 6.02149 28.6053 7.08825 28.6053C8.14296 28.6053 9.02294 27.7253 9.02294 26.6706V22.7741H12.526V26.6706C12.526 27.7373 13.3939 28.6053 14.4607 28.6053C15.5153 28.6053 16.3954 27.7251 16.3954 26.6706V22.7741H19.8985V26.6706C19.8985 27.7373 20.7664 28.6053 21.8332 28.6053C22.8878 28.6053 23.7678 27.7251 23.7678 26.6706V15.3097C23.7678 14.2429 22.9 13.3751 21.8332 13.3751C21.3156 13.3751 20.8296 13.5765 20.4659 13.9412C20.1 14.3061 19.8985 14.7921 19.8985 15.3097V18.9047H16.5197L17.0251 10.2648L24.3914 10.2649C25.8995 10.2666 27.1264 11.4952 27.1264 13.0036V18.042C27.1264 18.398 27.415 18.6865 27.7709 18.6865C28.1269 18.6865 28.4155 18.398 28.4155 18.042V13.0036C28.4155 10.7852 26.6109 8.97838 24.3922 8.97587L17.1004 8.97574L17.1907 7.43203C17.6645 6.8999 17.9531 6.19949 17.9531 5.43269V3.01048C17.953 1.35049 16.6025 0 14.9425 0H14.0226C12.3627 0 11.0122 1.35049 11.0122 3.01048V5.43269C11.0122 6.19304 11.2961 6.88798 11.7628 7.41843L11.8501 8.97574H4.57703C2.35643 8.97574 0.549805 10.7826 0.549805 13.0036V28.9728C0.549805 31.1934 2.35643 33 4.57703 33H24.3881C26.6088 33 28.4153 31.1934 28.4153 28.9728V23.7129C28.4153 23.3569 28.1268 23.0684 27.7708 23.0684ZM13.279 8.34997C13.8203 8.48744 14.4056 8.448 14.9601 8.44297C15.2607 8.44027 15.5613 8.39476 15.8483 8.3044L15.193 19.5078C15.1647 19.9495 15.1412 20.3914 15.1154 20.8332C15.1096 20.9342 15.1025 21.0519 15.0823 21.1504C15.022 21.4443 14.7721 21.6552 14.4606 21.6552C14.2823 21.6552 14.1093 21.5794 13.9879 21.4489C13.8502 21.3009 13.8239 21.1316 13.812 20.9382L13.7324 19.5132C13.7323 19.5112 13.7319 19.5094 13.7318 19.5074L13.4599 14.6588L13.1753 9.58412C13.1753 9.58405 13.1753 9.58405 13.1753 9.58405L13.1033 8.30014C13.1613 8.31877 13.2201 8.33495 13.279 8.34997ZM8.37841 21.485C8.02244 21.485 7.73388 21.7736 7.73388 22.1295V26.6706C7.73388 27.0224 7.43997 27.3162 7.08825 27.3162C6.73228 27.3162 6.44269 27.0265 6.44269 26.6706V15.3097C6.44269 15.1371 6.50966 14.9752 6.63192 14.8534C6.754 14.7313 6.91603 14.6641 7.08832 14.6641C7.44429 14.6641 7.73394 14.9537 7.73394 15.3097V19.5493C7.73394 19.9053 8.0225 20.1938 8.37847 20.1938H12.4793C12.4899 20.3828 12.5005 20.5719 12.5111 20.7609C12.5247 21.003 12.5252 21.2487 12.5851 21.4849H8.37841V21.485ZM15.1063 26.6706C15.1063 27.0222 14.8123 27.3162 14.4607 27.3162C14.1047 27.3162 13.815 27.0265 13.815 26.6706V22.8336C14.229 22.9806 14.6922 22.9806 15.1062 22.8336V26.6706H15.1063ZM20.5429 20.1938C20.8989 20.1938 21.1874 19.9053 21.1874 19.5493V15.3097C21.1874 15.1371 21.2544 14.9752 21.3773 14.8527C21.4986 14.7311 21.6604 14.6641 21.833 14.6641C22.189 14.6641 22.4786 14.9537 22.4786 15.3097V26.6706C22.4786 27.0222 22.1847 27.3162 21.833 27.3162C21.477 27.3162 21.1874 27.0265 21.1874 26.6706V22.1295C21.1874 21.7736 20.8988 21.485 20.5428 21.485H16.3362C16.3938 21.2578 16.3956 21.0228 16.4092 20.7901C16.4208 20.5914 16.4325 20.3926 16.4441 20.1939H20.5429V20.1938ZM12.3013 3.01048C12.3013 2.06128 13.0735 1.28906 14.0226 1.28906H14.9425C15.8917 1.28906 16.6639 2.06128 16.6639 3.01048V5.43269C16.6639 6.14445 16.2297 6.75675 15.6122 7.01849C15.2639 7.17331 14.8893 7.1541 14.5183 7.1541C14.1505 7.1541 13.7812 7.17737 13.429 7.04853C12.7715 6.80619 12.3012 6.17332 12.3012 5.43269V3.01048H12.3013Z" fill="#D13333"/>
<path d="M6.51578 12.3582C6.71198 12.6499 7.11649 12.7321 7.40975 12.5368C7.70262 12.3417 7.78119 11.935 7.58764 11.6428C7.39351 11.3497 6.98584 11.2715 6.69432 11.4649C6.4017 11.659 6.32139 12.0665 6.51578 12.3582Z" fill="#D13333"/>
<path d="M7.29851 29.3758C6.75723 29.1503 6.21602 29.7404 6.47667 30.2606C6.59926 30.5053 6.87576 30.6499 7.14685 30.6086C7.41974 30.5669 7.63863 30.3529 7.68671 30.0813C7.73859 29.7887 7.57385 29.4887 7.29851 29.3758Z" fill="#D13333"/>
<path d="M22.5024 11.6428C22.3073 11.3504 21.9013 11.271 21.6091 11.4649C21.3168 11.6589 21.2355 12.0674 21.4305 12.3589C21.6258 12.6508 22.0324 12.7311 22.3245 12.5368C22.6186 12.341 22.6944 11.936 22.5024 11.6428Z" fill="#D13333"/>
<path d="M22.2158 29.3758C21.6749 29.1505 21.1324 29.7401 21.3939 30.2604C21.5169 30.5051 21.7926 30.65 22.0641 30.6085C22.3369 30.5668 22.5558 30.3529 22.604 30.0814C22.656 29.7887 22.4911 29.4886 22.2158 29.3758Z" fill="#D13333"/>
<path d="M15.0156 29.6137C14.6989 29.13 13.9282 29.3092 13.8428 29.8765C13.7553 30.4579 14.465 30.8408 14.9047 30.4559C15.1451 30.2455 15.1925 29.8791 15.0156 29.6137Z" fill="#D13333"/>
<path d="M28.4403 20.8138C28.3335 20.2452 27.5496 20.1164 27.2563 20.6083C27.1154 20.8446 27.1413 21.1515 27.3209 21.3603C27.4972 21.5652 27.7905 21.6376 28.0421 21.5398C28.329 21.4284 28.5016 21.1164 28.4403 20.8138Z" fill="#D13333"/>
</svg>
