<svg width="33" height="33" viewBox="0 0 33 33" fill="none" xmlns="http://www.w3.org/2000/svg">
<path d="M19.4454 28.9729C19.503 29.3575 19.7369 29.693 20.0777 29.8801C20.4185 30.0673 20.827 30.0847 21.1825 29.9269L26.4421 27.6035C26.7026 27.4887 26.8323 27.1942 26.7412 26.9244L24.1019 19.0826C23.6795 17.8454 22.4204 17.0993 21.1324 17.3229L20.3075 17.4709C18.8949 17.7173 17.9403 19.0509 18.1631 20.4678L19.4454 28.9729ZM20.7387 28.9205C20.6969 28.9401 20.6483 28.9381 20.6083 28.915C20.5668 28.8931 20.5383 28.852 20.5325 28.8052L19.2468 20.3072C19.2203 20.1242 19.2266 19.938 19.2656 19.7572L20.1955 20.492C20.6445 20.8421 20.9796 21.3179 21.1578 21.8591L23.1731 27.8482L20.7387 28.9205ZM20.4991 18.5575L21.3237 18.4095C21.4123 18.3937 21.5022 18.3859 21.5923 18.3859C22.2545 18.3876 22.8431 18.809 23.058 19.4355L25.5387 26.8041L24.1822 27.4029L22.1997 21.512C21.954 20.7674 21.4928 20.1124 20.8746 19.6304L19.8665 18.8329C20.0538 18.6945 20.27 18.6003 20.4991 18.5575Z" fill="#D13333"/>
<path d="M1.41046 5.22327L9.62175 7.64279C9.73276 7.67576 9.83596 7.73089 9.92482 7.80489L12.8211 10.2179L13.288 10.6083L17.0721 30.2773C17.2634 31.2771 17.9003 32.1352 18.8022 32.6074C19.7041 33.0794 20.7721 33.1141 21.7027 32.7016L26.979 30.3706C27.493 30.9796 28.341 31.1875 29.0785 30.8854L31.8615 29.7439C32.7987 29.3598 33.247 28.2889 32.8634 27.3518L27.795 14.9799L28.1711 14.5454C28.8726 13.7329 28.7843 12.506 27.9738 11.8022L22.1747 6.77788C21.7843 6.43983 21.2755 6.27092 20.7608 6.30818C20.2458 6.34543 19.7667 6.58582 19.4289 6.97624L18.491 8.06114L16.3831 6.30491H16.3799L12.4757 3.12923C12.2756 2.96612 12.0448 2.84479 11.7971 2.7723L2.90214 0.150655C1.87211 -0.15191 0.791486 0.43711 0.487663 1.46689L0.0939758 2.80376C-0.0530275 3.29914 0.00335732 3.83253 0.250293 4.28663C0.497228 4.74048 0.914576 5.07753 1.41046 5.22327ZM18.9698 9.1911L20.2611 7.69766C20.4079 7.528 20.616 7.42354 20.8401 7.40718C21.0638 7.39107 21.2851 7.46457 21.4548 7.61132L27.2538 12.6336C27.6062 12.9394 27.6445 13.4726 27.3397 13.8257L26.7426 14.5162C26.6067 14.673 26.5704 14.893 26.649 15.0848L31.8459 27.7659C31.9995 28.1407 31.82 28.5691 31.4452 28.7227L28.6612 29.8637C28.481 29.9374 28.2788 29.9367 28.0991 29.8614C27.9196 29.7862 27.7774 29.6424 27.7037 29.4622C27.6475 29.3248 27.5383 29.2158 27.4003 29.1601C27.2626 29.1045 27.1083 29.1068 26.9724 29.1669L21.2584 31.6914C20.6342 31.9673 19.9183 31.9434 19.3139 31.6267C18.7093 31.3101 18.2821 30.7351 18.1532 30.0648L14.3322 10.2035C14.308 10.0789 14.2415 9.9664 14.1441 9.88509L13.9714 9.74111L16.0781 7.48219L18.2028 9.25177C18.4329 9.44307 18.774 9.41513 18.9698 9.18909V9.1911ZM1.14867 3.11614L1.54135 1.77826C1.60454 1.56279 1.75104 1.38156 1.94813 1.27407C2.14523 1.16684 2.37681 1.14217 2.59202 1.20586L11.4814 3.82272C11.5892 3.85443 11.6894 3.90704 11.7762 3.97777L15.2273 6.78216L13.1257 9.0368L10.6286 6.95535C10.4247 6.78493 10.1881 6.65832 9.93313 6.58356L1.72058 4.16581C1.27277 4.03366 1.01703 3.56395 1.14867 3.11614Z" fill="#D13333"/>
<path d="M3.8512 18.9704C4.87897 18.9935 5.87149 18.5955 6.59846 17.8686C7.32542 17.1416 7.72363 16.1491 7.70022 15.1211C7.70022 13.3681 5.56994 10.2025 4.68187 9.17802C4.46741 8.94694 4.16636 8.8158 3.8512 8.8158C3.5358 8.8158 3.23475 8.94694 3.02028 9.17802C2.13222 10.2025 0.0019336 13.3681 0.0019336 15.1211C-0.0212245 16.1491 0.376742 17.1416 1.1037 17.8686C1.83066 18.5955 2.82319 18.9935 3.8512 18.9704ZM3.8512 9.89718C4.82107 11.0158 6.60047 13.8481 6.60047 15.1211C6.62589 15.8579 6.34447 16.572 5.82316 17.0933C5.30211 17.6146 4.58773 17.896 3.8512 17.8706C3.11443 17.896 2.4003 17.6146 1.87899 17.0933C1.35769 16.572 1.07627 15.8579 1.10169 15.1211C1.10169 13.8486 2.88159 11.0163 3.8512 9.89718Z" fill="#D13333"/>
<path d="M15.7659 10.3266C15.6245 10.3629 15.5029 10.4538 15.4284 10.5794C15.3539 10.7052 15.3325 10.8555 15.369 10.997L15.6438 12.0738C15.7063 12.317 15.9253 12.4871 16.1762 12.4874C16.2223 12.4876 16.2681 12.4818 16.3127 12.4703C16.6069 12.3953 16.7846 12.0957 16.7096 11.8015L16.4347 10.7244C16.3988 10.5829 16.3081 10.4616 16.1828 10.3871C16.0574 10.3125 15.9074 10.2906 15.7659 10.3266Z" fill="#D13333"/>
<path d="M16.2378 13.8731L17.0171 17.1724C17.0758 17.4203 17.2973 17.5958 17.552 17.5958C17.5948 17.596 17.6371 17.591 17.6786 17.5809C17.9737 17.5115 18.1569 17.2162 18.0882 16.9209L17.3091 13.6217C17.2638 13.4304 17.1201 13.2776 16.9318 13.2212C16.7435 13.1645 16.5394 13.2129 16.3961 13.3475C16.2532 13.4825 16.1928 13.6833 16.2378 13.8746V13.8731Z" fill="#D13333"/>
</svg>
