<svg xmlns="http://www.w3.org/2000/svg" width="57" height="57" viewBox="0 0 57 57"><g><g><path fill="#9bb7c3" d="M48.653 8.347C54.035 13.73 57 20.887 57 28.5c0 7.612-2.965 14.77-8.347 20.152C43.27 54.035 36.113 57 28.5 57c-7.613 0-14.77-2.965-20.153-8.348C2.964 43.27 0 36.112 0 28.5c0-7.613 2.964-14.77 8.347-20.153C13.73 2.964 20.887 0 28.5 0c7.613 0 14.77 2.964 20.153 8.347zm-.565 18.483v3.34h4.457v-3.34zM15.83 13.468l-3.151-3.151-2.362 2.361 3.151 3.152zM13.468 41.17l-3.151 3.151 2.362 2.362 3.15-3.152zM30.17 26.83V16.71h-3.34V30.17h13.459v-3.34zm0-22.375h-3.34v4.457h3.34zm-3.34 48.09h3.34v-4.457h-3.34zm17.491-5.862l2.362-2.362-3.151-3.151-2.362 2.361zm2.362-34.005l-2.362-2.361-3.151 3.151 2.362 2.362zM4.455 26.83v3.34h4.457v-3.34z"/></g></g></svg>