<svg width="52" height="51" fill="none" xmlns="http://www.w3.org/2000/svg"><ellipse cx="26" cy="25.5" rx="26" ry="25.5" fill="#E2E2E2"/><path d="M36.995 26.279l-3.023-7.038c.06-.159.094-.33.094-.51 0-.807-.657-1.461-1.467-1.461-.49 0-.923.24-1.189.608h-3.383A2.202 2.202 0 0026 16.54a2.2 2.2 0 00-2.027 1.34H20.59a1.465 1.465 0 00-1.19-.61c-.81 0-1.466.654-1.466 1.462 0 .18.034.35.094.51l-3.023 7.037H15c0 2.285 1.97 4.138 4.4 4.138 2.43 0 4.4-1.853 4.4-4.139h-.005l-2.876-6.695h3.053c.169.397.45.733.805.97V31.39h-4.4v.974c0 1.34 1.1 2.435 2.445 2.435h6.356a2.447 2.447 0 002.444-2.435v-.974h-4.4V20.553c.355-.237.637-.574.805-.97h3.053L28.2 26.28l-.002.003.002.001c.003 2.283 1.972 4.134 4.4 4.134 2.43 0 4.4-1.853 4.4-4.139h-.005zm-14.53 0h-6.13l2.64-6.15a1.471 1.471 0 00.85 0l2.64 6.15zm7.064 0l2.645-6.15a1.465 1.465 0 00.85 0l2.642 6.15h-6.137z" fill="#A9A9A9"/></svg>