<svg width="344" height="500" viewBox="0 0 344 500" fill="none" xmlns="http://www.w3.org/2000/svg">
<path d="M3.98494 13.3344L56.3891 175.563L4.7021 500L0 500L6.54586e-06 0L3.98494 13.3344Z" fill="url(#paint0_linear)" fill-opacity="0.6"/>
<path d="M3.39133e-06 215.609L107.404 500L0 500L3.39133e-06 215.609Z" fill="url(#paint1_linear)" fill-opacity="0.6"/>
<path d="M36.7031 500L128.662 419.442L260.501 500L36.7031 500Z" fill="url(#paint2_linear)" fill-opacity="0.6"/>
<path d="M83.5762 499.991L258.492 443.51L343.955 499.991L83.5762 499.991Z" fill="url(#paint3_linear)" fill-opacity="0.6"/>
<path d="M1.75877e-06 352.513L43.5766 426.013L4.7021 500L0 500L1.75877e-06 352.513Z" fill="url(#paint4_linear)" fill-opacity="0.6"/>
<defs>
<linearGradient id="paint0_linear" x1="-29.1777" y1="333.256" x2="22.585" y2="63.5863" gradientUnits="userSpaceOnUse">
<stop stop-color="#FF121A"/>
<stop offset="1" stop-color="#F8D6CE"/>
</linearGradient>
<linearGradient id="paint1_linear" x1="16.1722" y1="449.929" x2="87.289" y2="445.525" gradientUnits="userSpaceOnUse">
<stop stop-color="#FF121A"/>
<stop offset="1" stop-color="#FFAD92"/>
</linearGradient>
<linearGradient id="paint2_linear" x1="105.274" y1="499.991" x2="110.685" y2="425.714" gradientUnits="userSpaceOnUse">
<stop stop-color="#FF121A"/>
<stop offset="1" stop-color="#FAE3DE"/>
</linearGradient>
<linearGradient id="paint3_linear" x1="247.408" y1="492.045" x2="231.231" y2="397.358" gradientUnits="userSpaceOnUse">
<stop stop-color="#FF121A"/>
<stop offset="1" stop-color="#FFBAAD"/>
</linearGradient>
<linearGradient id="paint4_linear" x1="-9.41679" y1="399.408" x2="43.2151" y2="439.339" gradientUnits="userSpaceOnUse">
<stop stop-color="#FF6440"/>
<stop offset="1" stop-color="#FFA683"/>
</linearGradient>
</defs>
</svg>
