<svg width="344" height="500" viewBox="0 0 344 500" fill="none" xmlns="http://www.w3.org/2000/svg">
<path d="M339.968 486.666L287.564 324.437L339.251 -2.05535e-07L343.953 0L343.953 500L339.968 486.666Z" fill="url(#paint0_linear)" fill-opacity="0.6"/>
<path d="M343.953 284.391L236.549 -4.69477e-06L343.953 0L343.953 284.391Z" fill="url(#paint1_linear)" fill-opacity="0.6"/>
<path d="M307.25 0L215.291 80.5577L83.4517 -9.78254e-06L307.25 0Z" fill="url(#paint2_linear)" fill-opacity="0.6"/>
<path d="M260.379 0.00878906L85.4633 56.4898L-0.00012207 0.00882595L260.379 0.00878906Z" fill="url(#paint3_linear)" fill-opacity="0.6"/>
<path d="M343.953 147.487L300.376 73.9866L339.251 -2.05535e-07L343.953 0L343.953 147.487Z" fill="url(#paint4_linear)" fill-opacity="0.6"/>
<defs>
<linearGradient id="paint0_linear" x1="373.131" y1="166.744" x2="321.368" y2="436.414" gradientUnits="userSpaceOnUse">
<stop stop-color="#FF121A"/>
<stop offset="1" stop-color="#F8D6CE"/>
</linearGradient>
<linearGradient id="paint1_linear" x1="327.781" y1="50.0707" x2="256.664" y2="54.4754" gradientUnits="userSpaceOnUse">
<stop stop-color="#FF121A"/>
<stop offset="1" stop-color="#FFAD92"/>
</linearGradient>
<linearGradient id="paint2_linear" x1="238.679" y1="0.00906111" x2="233.268" y2="74.2865" gradientUnits="userSpaceOnUse">
<stop stop-color="#FF121A"/>
<stop offset="1" stop-color="#FAE3DE"/>
</linearGradient>
<linearGradient id="paint3_linear" x1="96.5467" y1="7.95502" x2="112.724" y2="102.642" gradientUnits="userSpaceOnUse">
<stop stop-color="#FF121A"/>
<stop offset="1" stop-color="#FFBAAD"/>
</linearGradient>
<linearGradient id="paint4_linear" x1="353.37" y1="100.592" x2="300.738" y2="60.6613" gradientUnits="userSpaceOnUse">
<stop stop-color="#FF6440"/>
<stop offset="1" stop-color="#FFA683"/>
</linearGradient>
</defs>
</svg>
