<svg width="150" height="64" fill="none" xmlns="http://www.w3.org/2000/svg"><g clip-path="url(#clip0)"><path d="M3.192.957H44.68c10.047 0 18.191 8.145 18.191 18.192v41.49c0 1.233-1 2.233-2.234 2.233h-41.49c-10.046 0-18.19-8.144-18.19-18.191V3.19c0-1.233 1-2.234 2.234-2.234z" fill="#fff" stroke="#D1E8FF" stroke-width="3"/><path d="M35.738 42.13v-2.995l-4.821-.998.998 3.993h3.823z" fill="#9ABADB"/><path d="M28.092 42.13h3.823v-3.993l-3.823.998v2.995z" fill="#D1E8FF"/><path d="M44.68 34.644l-13.763-.998.998 5.49H44.68v-4.492z" fill="#D1E8FF"/><path d="M19.149 34.644v4.491h12.766v-5.49l-12.766.999z" fill="#F5F5FF"/><path d="M37.984 41.382h-6.07l-.498.748.499.748h6.069v-1.496z" fill="#D1E8FF"/><path d="M31.915 41.382h-6.069v1.496h6.069v-1.496z" fill="#F5F5FF"/><path d="M44.68 19.675H31.916l-.998 7.485.998 7.484H44.68V19.675z" fill="#294B6E"/><path d="M31.915 19.675H19.149v14.969h12.766V19.675z" fill="#6283A3"/><path d="M28.067 31.123l-3.964-3.963 3.963-3.964 1.058 1.058-2.905 2.906 2.905 2.905-1.057 1.058z" fill="#F5F5FF"/><path d="M35.763 31.123l-1.058-1.058 2.906-2.905-2.906-2.906 1.058-1.058 3.963 3.964-3.963 3.963zm-5.504.528l1.467.292 1.845-9.274-1.467-.292-1.845 9.274z" fill="#D1E8FF"/><path d="M80.663 20.073h-3.998v-3.355h12.431v3.355h-3.998V30h-4.435v-9.927zM97.711 30.3a14.2 14.2 0 01-3.217-.368c-1.057-.26-1.923-.597-2.597-1.011l1.47-3.194a8.62 8.62 0 002.16.942 9.23 9.23 0 002.413.322c.598 0 1.035-.07 1.31-.207.276-.153.414-.352.414-.598 0-.29-.184-.505-.552-.643-.367-.153-.972-.322-1.815-.505-1.026-.2-1.884-.422-2.574-.667a4.478 4.478 0 01-1.815-1.218c-.505-.567-.758-1.332-.758-2.297 0-.843.252-1.601.758-2.275.506-.674 1.233-1.203 2.183-1.586.965-.383 2.091-.574 3.378-.574.92 0 1.815.1 2.688.298.874.184 1.64.468 2.298.85l-1.355 3.195c-1.134-.69-2.398-1.035-3.792-1.035-.597 0-1.05.085-1.356.253-.29.169-.436.383-.436.644 0 .275.184.49.551.643.368.138.965.284 1.793.437 1.026.199 1.884.421 2.573.666a4.37 4.37 0 011.815 1.195c.521.552.782 1.302.782 2.252 0 .858-.245 1.624-.736 2.298-.474.674-1.194 1.21-2.16 1.608-.949.383-2.09.575-3.423.575zm10.443-13.58h4.435V30h-4.435V16.718zm15.149 8.8l-1.057 1.15V30h-4.366V16.718h4.366v4.918l4.55-4.918h4.848l-5.423 5.883L131.92 30h-5.147l-3.47-4.48zm18.308 4.78c-1.44 0-2.742-.299-3.907-.896-1.148-.598-2.052-1.425-2.711-2.482-.659-1.057-.988-2.244-.988-3.562 0-1.317.329-2.505.988-3.562s1.563-1.884 2.711-2.481c1.165-.598 2.467-.896 3.907-.896s2.734.298 3.883.896c1.164.597 2.076 1.424 2.735 2.482.658 1.057.988 2.244.988 3.561 0 1.318-.33 2.505-.988 3.562-.659 1.057-1.571 1.884-2.735 2.482-1.149.597-2.443.896-3.883.896zm0-3.539c.904 0 1.647-.314 2.229-.942.597-.644.896-1.463.896-2.459s-.299-1.808-.896-2.436c-.582-.643-1.325-.965-2.229-.965-.919 0-1.678.322-2.275.965-.582.629-.873 1.44-.873 2.436s.291 1.815.873 2.459c.597.628 1.356.942 2.275.942z" fill="#fff"/><path d="M95.806 44.109c0 .255-.128.414-.383.475.04-.01-.2.036-.72.138l-2.007 6.342h-1.532c-.163 0-.28-.112-.352-.337l-1.41-4.535a7.891 7.891 0 00-.076-.184 5.998 5.998 0 01-.061-.275 4.839 4.839 0 01-.092-.444l-.092.46c-.02.101-.061.254-.123.459l-1.44 4.519c-.071.225-.21.337-.413.337h-1.44l-2.023-6.342a11.505 11.505 0 01-.536-.108.839.839 0 00-.183-.03c-.256-.061-.383-.22-.383-.475v-.904h3.83v.904c0 .255-.128.414-.384.475l-.475.092.828 3.079c.081.306.133.531.153.674l.107.659.184-.659c.102-.358.168-.582.2-.674l1.301-4.213a.44.44 0 01.184-.245.553.553 0 01.322-.107h.842c.123 0 .235.036.337.107a.44.44 0 01.184.245l1.287 4.29.184.643.153.628c.02-.174.061-.393.123-.659l.168-.69.843-3.063-.552-.107c-.255-.061-.383-.22-.383-.475v-.904h3.83v.904zm5.768-1.026c.501 0 .955.076 1.364.23.388.142.745.377 1.072.704.296.296.531.669.705 1.118.173.46.26.96.26 1.502 0 .122-.01.245-.031.367a.666.666 0 01-.061.215c-.02.05-.066.092-.138.122a.525.525 0 01-.214.03h-4.856c.06.808.28 1.4.658 1.778.378.378.879.567 1.502.567a2.4 2.4 0 00.781-.108 3.06 3.06 0 00.582-.245c.072-.04.143-.076.215-.107.081-.04.158-.081.229-.122a.65.65 0 01.353-.108c.081 0 .153.016.214.046a.31.31 0 01.138.123l.551.69a3.517 3.517 0 01-.704.627 3.992 3.992 0 01-.812.399 5.822 5.822 0 01-1.731.26 4.185 4.185 0 01-1.517-.26 3.522 3.522 0 01-1.225-.812c-.348-.347-.623-.787-.828-1.318-.194-.51-.29-1.118-.29-1.823 0-.51.086-1.01.26-1.501a3.61 3.61 0 01.75-1.24c.317-.348.71-.624 1.18-.828.47-.204 1.001-.306 1.593-.306zm.031 1.348c-.541 0-.97.158-1.287.475-.306.306-.505.745-.597 1.317h3.554c0-.215-.036-.444-.108-.69a1.81 1.81 0 00-.306-.566 1.331 1.331 0 00-.521-.383 1.824 1.824 0 00-.735-.153zm13.589.934a6.3 6.3 0 01.214 1.7c0 .552-.082 1.098-.245 1.64-.143.49-.368.924-.674 1.302a3.121 3.121 0 01-1.072.858c-.399.204-.863.306-1.394.306-1.144 0-2.426-.143-3.846-.429v-9.544l-.474-.076a1.99 1.99 0 01-.154-.03.447.447 0 00-.107-.016l-.107-.016c-.255-.06-.383-.22-.383-.474v-.904h3.11v4.488a3.552 3.552 0 011.057-.796c.388-.194.847-.291 1.378-.291.45 0 .843.086 1.18.26.347.163.654.419.919.766.255.327.455.745.598 1.256zm-1.869 2.895c.081-.296.122-.694.122-1.194 0-.48-.036-.869-.107-1.165-.082-.327-.189-.587-.322-.781a1.2 1.2 0 00-.505-.429 1.522 1.522 0 00-.659-.138c-.408 0-.746.082-1.011.245a2.967 2.967 0 00-.781.705v4.09a8.46 8.46 0 001.532.138c.296 0 .551-.051.766-.153.234-.112.428-.276.582-.49a2.39 2.39 0 00.383-.828z" fill="#8BC5FF"/><path d="M120.878 43.16c.858 0 1.562.306 2.114.918v-3.186l-1.027-.184c-.153-.03-.229-.122-.229-.276v-.674h2.604V49.93c.51.092.807.153.888.184.143.03.215.123.215.276v.674h-1.9c-.184 0-.306-.097-.367-.291l-.123-.935c-.725.879-1.593 1.318-2.604 1.318-.909 0-1.624-.337-2.145-1.011-.531-.705-.797-1.686-.797-2.942 0-1.174.302-2.134.904-2.88.623-.776 1.445-1.164 2.467-1.164zm.03 6.908c.807 0 1.502-.393 2.084-1.18v-3.737c-.46-.613-1.057-.92-1.793-.92-.745 0-1.312.256-1.7.766-.388.511-.582 1.246-.582 2.206 0 1.46.378 2.36 1.133 2.697.235.102.516.153.843.153l.015.015zm10.378-6.878c.45 0 .874.076 1.272.23a2.6 2.6 0 011.011.658c.306.327.531.69.674 1.088.163.46.245.95.245 1.47 0 .235-.02.378-.061.43-.051.071-.143.107-.276.107h-5.147c0 .49.061.919.184 1.286.102.317.275.613.521.889.224.255.48.44.765.552.307.122.634.183.981.183.368 0 .664-.035.888-.107a5.674 5.674 0 001.103-.505c.133-.082.235-.123.307-.123.112 0 .199.046.26.138l.383.506a2.271 2.271 0 01-.613.52c-.306.194-.556.322-.75.383a5.167 5.167 0 01-1.67.291 3.967 3.967 0 01-1.486-.275 3.273 3.273 0 01-1.18-.812c-.326-.337-.582-.771-.766-1.302-.183-.521-.275-1.114-.275-1.777 0-.532.087-1.032.26-1.502.174-.48.414-.888.72-1.225.317-.347.7-.618 1.149-.812.449-.194.95-.291 1.501-.291zm.031.995c-.664 0-1.18.19-1.547.567-.378.399-.613.93-.705 1.593h4.213c0-.316-.046-.602-.138-.857-.112-.317-.235-.547-.368-.69a1.992 1.992 0 00-.628-.444 2.105 2.105 0 00-.842-.153l.015-.016zm13.764-.199c0 .154-.076.245-.23.276-.03 0-.076.01-.137.03a2.84 2.84 0 01-.2.031l-.413.092-2.712 6.664h-1.241l-2.711-6.664a3.786 3.786 0 00-.414-.092l-.337-.06c-.153-.032-.229-.129-.229-.292v-.659h3.477v.659c0 .163-.077.26-.23.291-.071.02-.178.04-.321.061a9.19 9.19 0 00-.521.092l1.639 4.167c.082.215.173.582.276 1.103.143-.572.245-.94.306-1.103l1.654-4.167-.873-.168c-.153-.03-.23-.128-.23-.291v-.644h3.447v.674z" fill="#fff"/><path d="M150 35.106H77.234v1.277H150v-1.277z" fill="#C4C4C4"/></g><defs><clipPath id="clip0"><path fill="#fff" d="M0 0h150v63.83H0z"/></clipPath></defs></svg>