<svg width="160" height="160" viewBox="0 0 160 160" fill="none" xmlns="http://www.w3.org/2000/svg">
<circle cx="80" cy="80" r="80" fill="white"/>
<g clip-path="url(#clip0)">
<path d="M107.022 69.7065H96.4707V51.6954C96.4707 50.0782 95.6493 48.6052 94.2737 47.7549C92.8983 46.9047 91.2134 46.8288 89.7668 47.5521C89.7483 47.5614 89.73 47.5709 89.7118 47.5807L51.5237 68.1329C48.7702 69.6148 47.0596 72.4781 47.0596 75.605V75.6256V76.9123V107.022C47.0596 110.286 49.7149 112.941 52.9786 112.941H107.022C110.286 112.941 112.941 110.286 112.941 107.022V75.6256C112.941 72.3619 110.286 69.7065 107.022 69.7065ZM91.6262 51.2264C91.8304 51.1325 92.0008 51.1909 92.1088 51.2577C92.2203 51.3265 92.3529 51.4584 92.3529 51.6956V69.7067H57.2882L91.6262 51.2264ZM108.823 107.022C108.823 108.016 108.015 108.824 107.022 108.824H52.9786C51.9852 108.824 51.1772 108.016 51.1772 107.022V76.9123V75.6256C51.1772 74.6322 51.9852 73.8241 52.9786 73.8241H107.022C108.015 73.8241 108.823 74.6322 108.823 75.6256V107.022Z" fill="#4DCB8E"/>
<path d="M100.588 95.4416C98.3174 95.4416 96.4702 93.5944 96.4702 91.3239C96.4702 89.0534 98.3174 87.2063 100.588 87.2063C102.858 87.2063 104.706 89.0534 104.706 91.3239C104.706 93.5944 102.858 95.4416 100.588 95.4416ZM100.588 91.3239C100.588 91.3257 100.588 91.3265 100.588 91.3267L100.588 91.3239Z" fill="#4DCB8E"/>
</g>
<defs>
<clipPath id="clip0">
<rect width="65.8824" height="65.8824" fill="white" transform="translate(47.0586 47.0588)"/>
</clipPath>
</defs>
</svg>
