<svg width="103" height="24" viewBox="0 0 103 24" fill="none" xmlns="http://www.w3.org/2000/svg">
<path d="M9.4 0.599998H0.92V23H6.04V15.96H9.4C13.816 15.96 17.24 12.536 17.24 8.28C17.24 4.024 13.816 0.599998 9.4 0.599998ZM9.4 11.16H6.04V5.4H9.4C10.968 5.4 12.12 6.648 12.12 8.28C12.12 9.912 10.968 11.16 9.4 11.16ZM35.635 23.448C40.499 23.448 43.955 20.888 43.955 16.568C43.955 11.832 40.147 10.648 36.755 9.624C33.267 8.568 32.723 7.864 32.723 6.84C32.723 5.944 33.523 5.144 35.123 5.144C37.171 5.144 38.227 6.136 38.995 7.736L43.315 5.208C41.683 1.912 38.803 0.151999 35.123 0.151999C31.251 0.151999 27.603 2.648 27.603 6.968C27.603 11.256 30.867 12.856 34.195 13.784C37.555 14.712 38.835 15.256 38.835 16.632C38.835 17.496 38.227 18.456 35.795 18.456C33.267 18.456 31.891 17.208 31.091 15.352L26.675 17.912C27.923 21.208 30.931 23.448 35.635 23.448ZM72.7538 0.599998H66.9298L62.6738 9.24L58.4178 0.599998H52.5938L60.1138 14.392V23H65.2338V14.392L72.7538 0.599998ZM93.358 23.448C97.454 23.448 101.038 21.432 102.958 18.264L98.542 15.704C97.582 17.432 95.63 18.456 93.358 18.456C89.39 18.456 86.83 15.8 86.83 11.8C86.83 7.8 89.39 5.144 93.358 5.144C95.63 5.144 97.55 6.168 98.542 7.896L102.958 5.336C101.006 2.168 97.422 0.151999 93.358 0.151999C86.606 0.151999 81.71 5.208 81.71 11.8C81.71 18.392 86.606 23.448 93.358 23.448Z" fill="#45A6FF"/>
</svg>
