<svg width="155" height="24" viewBox="0 0 155 24" fill="none" xmlns="http://www.w3.org/2000/svg">
<path d="M9.4 0.599998H0.92V23H6.04V15.96H9.4C13.816 15.96 17.24 12.536 17.24 8.28C17.24 4.024 13.816 0.599998 9.4 0.599998ZM9.4 11.16H6.04V5.4H9.4C10.968 5.4 12.12 6.648 12.12 8.28C12.12 9.912 10.968 11.16 9.4 11.16ZM35.635 23.448C40.499 23.448 43.955 20.888 43.955 16.568C43.955 11.832 40.147 10.648 36.755 9.624C33.267 8.568 32.723 7.864 32.723 6.84C32.723 5.944 33.523 5.144 35.123 5.144C37.171 5.144 38.227 6.136 38.995 7.736L43.315 5.208C41.683 1.912 38.803 0.151999 35.123 0.151999C31.251 0.151999 27.603 2.648 27.603 6.968C27.603 11.256 30.867 12.856 34.195 13.784C37.555 14.712 38.835 15.256 38.835 16.632C38.835 17.496 38.227 18.456 35.795 18.456C33.267 18.456 31.891 17.208 31.091 15.352L26.675 17.912C27.923 21.208 30.931 23.448 35.635 23.448ZM72.7538 0.599998H66.9298L62.6738 9.24L58.4178 0.599998H52.5938L60.1138 14.392V23H65.2338V14.392L72.7538 0.599998ZM91.15 0.599998H82.67V23H87.79V15.96H91.15C95.566 15.96 98.99 12.536 98.99 8.28C98.99 4.024 95.566 0.599998 91.15 0.599998ZM91.15 11.16H87.79V5.4H91.15C92.718 5.4 93.87 6.648 93.87 8.28C93.87 9.912 92.718 11.16 91.15 11.16ZM117.385 23.448C122.249 23.448 125.705 20.888 125.705 16.568C125.705 11.832 121.897 10.648 118.505 9.624C115.017 8.568 114.473 7.864 114.473 6.84C114.473 5.944 115.273 5.144 116.873 5.144C118.921 5.144 119.977 6.136 120.745 7.736L125.065 5.208C123.433 1.912 120.553 0.151999 116.873 0.151999C113.001 0.151999 109.353 2.648 109.353 6.968C109.353 11.256 112.617 12.856 115.945 13.784C119.305 14.712 120.585 15.256 120.585 16.632C120.585 17.496 119.977 18.456 117.545 18.456C115.017 18.456 113.641 17.208 112.841 15.352L108.425 17.912C109.673 21.208 112.681 23.448 117.385 23.448ZM154.504 0.599998H148.68L144.424 9.24L140.168 0.599998H134.344L141.864 14.392V23H146.984V14.392L154.504 0.599998Z" fill="#45A6FF"/>
</svg>
