<svg width="29" height="29" fill="none" xmlns="http://www.w3.org/2000/svg"><g clip-path="url(#clip0)"><path d="M27.541 4.668v4.493H1.46V4.668a1.748 1.748 0 011.75-1.75h22.582a1.748 1.748 0 011.75 1.75z" fill="#FD646F"/><path d="M8.461 2.917v3.268a.584.584 0 01-.584.584H5.193a.584.584 0 01-.583-.584V2.917h3.85zm14.996 0v3.268a.584.584 0 01-.583.584H20.19a.584.584 0 01-.584-.584V2.917h3.851zM2.393 3.12v6.041h-.934V4.668c0-.671.378-1.255.934-1.548z" fill="#FC4755"/><path d="M6.244 12.651h3.002c.161 0 .292.131.292.292v3.002c0 .161-.13.292-.292.292H6.244a.292.292 0 01-.292-.292v-3.002c0-.161.13-.292.292-.292zm0 4.461h3.002c.161 0 .292.131.292.292v3.003c0 .16-.13.291-.292.291H6.244a.292.292 0 01-.292-.291v-3.003c0-.161.13-.292.292-.292zm0 4.462h3.002c.161 0 .292.13.292.291v3.003c0 .16-.13.291-.292.291H6.244a.292.292 0 01-.292-.291v-3.002c0-.162.13-.292.292-.292zm4.461-8.923h3.066c.161 0 .292.131.292.292v3.002c0 .161-.13.292-.292.292h-3.066a.292.292 0 01-.292-.292v-3.002c0-.161.13-.292.292-.292zm0 4.461h3.066c.161 0 .292.131.292.292v3.003c0 .16-.13.291-.292.291h-3.066a.292.292 0 01-.292-.291v-3.003c0-.161.13-.292.292-.292zm0 4.462h3.066c.161 0 .292.13.292.291v3.003c0 .16-.13.291-.292.291h-3.066a.292.292 0 01-.292-.291v-3.002c0-.162.13-.292.292-.292zm4.525-8.923h3.066c.161 0 .292.131.292.292v3.002c0 .161-.13.292-.292.292H15.23a.292.292 0 01-.292-.292v-3.002c0-.161.13-.292.292-.292zm0 4.461h3.066c.161 0 .292.131.292.292v3.003c0 .16-.13.291-.292.291H15.23a.292.292 0 01-.292-.291v-3.003c0-.161.13-.292.292-.292zm0 4.462h3.066c.161 0 .292.13.292.291v3.003c0 .16-.13.291-.292.291H15.23a.292.292 0 01-.292-.291v-3.002c0-.162.13-.292.292-.292zm7.819-8.631v3.002a.292.292 0 01-.292.292h-3.002a.292.292 0 01-.292-.292v-3.002c0-.161.13-.292.292-.292h3.002c.16 0 .291.131.291.292zm-3.294 4.169h3.002c.16 0 .291.131.291.292v3.003c0 .16-.13.291-.291.291h-3.002a.292.292 0 01-.292-.291v-3.003c0-.161.13-.292.292-.292zm0 4.462h3.002c.16 0 .291.13.291.291v3.003c0 .16-.13.291-.291.291h-3.002a.292.292 0 01-.292-.291v-3.002c0-.162.13-.292.292-.292z" fill="#E6E6E6"/><path d="M1.459 8.752V27.25c0 .967.784 1.75 1.75 1.75h22.582a1.75 1.75 0 001.75-1.75V8.752H1.46z" fill="#F5F5F5"/><path d="M8.461.584v4.668a.584.584 0 01-.584.583h-1.75a.584.584 0 01-.584-.583V.584c0-.323.262-.584.584-.584h1.75c.323 0 .584.261.584.584z" fill="#50758D"/><path d="M5.952 12.651h3.586v3.586H5.952v-3.586zm13.511 0h3.585v3.586h-3.585v-3.586zm-9.05 0h3.65v3.586h-3.65v-3.586zm-4.461 4.461h3.586V20.7H5.952v-3.587z" fill="#FFAC5C"/><path d="M19.463 17.112h3.585V20.7h-3.585v-3.587z" fill="#E6E6E6"/><path d="M10.413 17.112h3.65V20.7h-3.65v-3.587z" fill="#FFAC5C"/><path d="M5.952 21.574h3.586v3.585H5.952v-3.585zm13.511 0h3.585v3.585h-3.585v-3.585zm-9.05 0h3.65v3.585h-3.65v-3.585z" fill="#E6E6E6"/><path d="M14.938 12.651h3.65v3.586h-3.65v-3.586zm0 4.461h3.65V20.7h-3.65v-3.587z" fill="#FFAC5C"/><path d="M14.938 21.574h3.65v3.585h-3.65v-3.585z" fill="#E6E6E6"/><path d="M23.457.584v4.668a.584.584 0 01-.584.583h-1.75a.584.584 0 01-.583-.583V.584c0-.323.261-.584.583-.584h1.75c.323 0 .584.261.584.584z" fill="#50758D"/><path d="M1.459 8.752V27.25c0 .967.784 1.75 1.75 1.75h.647a1.75 1.75 0 01-1.434-1.72V9.99a.467.467 0 01.437-.305h24.682v-.934H1.46z" fill="#E6E6E6"/><path d="M7.06 5.835h-.933a.584.584 0 01-.584-.583V.584c0-.323.262-.584.584-.584h.35v5.252c0 .322.261.583.584.583zm14.997 0h-.934a.584.584 0 01-.583-.583V.584c0-.323.261-.584.583-.584h.35v5.252c0 .322.262.583.584.583z" fill="#2B597F"/></g><defs><clipPath id="clip0"><path fill="#fff" d="M0 0h29v29H0z"/></clipPath></defs></svg>