<svg width="29" height="29" fill="none" xmlns="http://www.w3.org/2000/svg"><g clip-path="url(#clip0)"><path d="M6.665 28.565a6.24 6.24 0 100-12.48 6.24 6.24 0 000 12.48zm15.67 0a6.24 6.24 0 100-12.48 6.24 6.24 0 000 12.48zm-7.844-15.041a6.545 6.545 0 100-13.089 6.545 6.545 0 000 13.09z" fill="#50758D"/><path d="M16.05 9.646v-.2c0-.345.159-.67.43-.882a3.22 3.22 0 001.233-2.694 3.235 3.235 0 00-3.07-3.067 3.225 3.225 0 00-2.109 5.785c.283.216.455.546.455.902v.156h3.061z" fill="#FAD207"/><path d="M14.307 7.58a.425.425 0 01-.29-.114l-1.11-1.035a.425.425 0 01.58-.622l.758.708 1.197-1.645a.425.425 0 11.687.5L14.65 7.405a.425.425 0 01-.343.176z" fill="#FAA515"/><path d="M14.916 11.573h-.793a1.134 1.134 0 01-1.134-1.133v-.794h3.06v.794c0 .626-.507 1.133-1.133 1.133z" fill="#F5F5F5"/><path d="M13.84 9.49v.156h-.85V9.49c0-.355-.173-.685-.456-.901a3.225 3.225 0 012.384-5.76 3.226 3.226 0 00-1.534 5.76c.283.216.456.546.456.901z" fill="#FAA515"/><path d="M14.944 11.573h-.821a1.133 1.133 0 01-1.134-1.133v-.794h.85v.794c0 .617.492 1.118 1.105 1.133z" fill="#E6E6E6"/><path d="M8.103 16.658a.424.424 0 01-.3-.725l3.298-3.3a.425.425 0 01.602.602l-3.3 3.299a.424.424 0 01-.3.124zm12.79.014a.424.424 0 01-.3-.125l-3.313-3.312a.425.425 0 01.601-.601l3.313 3.312a.425.425 0 01-.301.726z" fill="#50758D"/><path d="M22.335 21.032a1.272 1.272 0 100-2.544 1.272 1.272 0 000 2.544z" fill="#FFC682"/><path d="M8.252 26.162H5.078a.85.85 0 01-.85-.85v-.51c0-1.284 1.153-2.325 2.437-2.325 1.284 0 2.437 1.04 2.437 2.324v.51c0 .47-.38.85-.85.85z" fill="#2EDFFC"/><path d="M23.897 26.162h-3.174a.85.85 0 01-.85-.85v-.51c0-1.284 1.153-2.325 2.437-2.325 1.284 0 2.437 1.04 2.437 2.324v.51c0 .47-.38.85-.85.85z" fill="#93DDB7"/><path d="M6.212 26.162H5.078a.85.85 0 01-.85-.85v-.51c0-1.284 1.154-2.325 2.437-2.325.193 0 .384.024.567.068-1.038.25-1.87 1.166-1.87 2.256v.51c0 .47.38.85.85.85z" fill="#27BDF3"/><path d="M21.857 26.162h-1.134a.85.85 0 01-.85-.85v-.51c0-1.284 1.154-2.325 2.438-2.325.192 0 .383.024.566.068-1.038.25-1.87 1.166-1.87 2.256v.51c0 .47.38.85.85.85z" fill="#5ED297"/><path d="M6.69 21.032a1.272 1.272 0 100-2.544 1.272 1.272 0 000 2.544z" fill="#FFC682"/><path d="M23.406 20.445a1.272 1.272 0 11-1.292-1.938 1.272 1.272 0 001.292 1.938zm-15.646 0a1.272 1.272 0 11-1.292-1.938 1.272 1.272 0 001.292 1.938z" fill="#FFAC5C"/><path d="M6.665 28.99A6.673 6.673 0 010 22.325a6.673 6.673 0 016.665-6.665 6.673 6.673 0 016.666 6.665 6.673 6.673 0 01-6.666 6.665zm0-12.48A5.822 5.822 0 00.85 22.325a5.822 5.822 0 005.815 5.815 5.822 5.822 0 005.815-5.815 5.822 5.822 0 00-5.815-5.815zm15.67 12.48a6.673 6.673 0 01-6.666-6.665 6.673 6.673 0 016.666-6.665A6.673 6.673 0 0129 22.325a6.673 6.673 0 01-6.665 6.665zm0-12.48a5.822 5.822 0 00-5.815 5.815 5.822 5.822 0 005.815 5.815 5.822 5.822 0 005.815-5.815 5.822 5.822 0 00-5.815-5.815zm-7.843-2.56a6.978 6.978 0 01-6.97-6.97 6.978 6.978 0 016.97-6.97 6.978 6.978 0 016.97 6.97 6.978 6.978 0 01-6.97 6.97zm0-13.09a6.126 6.126 0 00-6.12 6.12 6.127 6.127 0 006.12 6.12 6.127 6.127 0 006.12-6.12 6.126 6.126 0 00-6.12-6.12z" fill="#2B597F"/></g><defs><clipPath id="clip0"><path fill="#fff" d="M0 0h29v29H0z"/></clipPath></defs></svg>