<svg width="29" height="29" fill="none" xmlns="http://www.w3.org/2000/svg"><g clip-path="url(#clip0)"><path d="M17.64 26.537v.735A1.73 1.73 0 0115.912 29h-2.65a1.73 1.73 0 01-1.729-1.729v-.734c.229.102.482.158.75.158h4.609c.266 0 .52-.056.748-.158z" fill="#50758D"/><path d="M14.5 3.777a.432.432 0 01-.432-.432V.432a.432.432 0 11.865 0v2.913a.432.432 0 01-.432.432zM6.744 6.99a.43.43 0 01-.305-.126l-2.06-2.06a.432.432 0 11.61-.611l2.06 2.06a.432.432 0 01-.305.737zm-3.213 7.757H.618a.432.432 0 110-.864H3.53a.432.432 0 110 .864zm1.153 9.817a.431.431 0 01-.305-.738l2.06-2.06a.432.432 0 01.61.611l-2.06 2.06a.431.431 0 01-.305.127zm19.633 0a.431.431 0 01-.306-.127l-2.06-2.06a.432.432 0 11.611-.611l2.06 2.06a.432.432 0 01-.305.738zm4.066-9.817H25.47a.432.432 0 110-.864h2.913a.432.432 0 110 .864zM22.257 6.99a.431.431 0 01-.306-.737l2.06-2.06a.432.432 0 01.611.61l-2.06 2.06a.43.43 0 01-.305.127z" fill="#FFE7C9"/><path d="M14.587 26.12s-2.825.519-3.054.417v.735A1.73 1.73 0 0013.261 29h.75a1.73 1.73 0 01-1.63-1.15.174.174 0 01.163-.233h4.348c.262 0 .512-.055.738-.154.007-.063.01-.127.01-.192v-.734c-.228.102-3.053-.418-3.053-.418z" fill="#2B597F"/><path d="M18.735 24.852a1.845 1.845 0 01-1.843 1.843h-4.61a1.845 1.845 0 01-1.844-1.844s-.027-2.692-.032-2.762v-.003l4.18-.576 4.134.576.015 2.766z" fill="#50758D"/><path d="M13.262 26.695h-.98a1.845 1.845 0 01-1.844-1.844s-.027-2.692-.032-2.762v-.003h.98v.003c.005.07.032 2.763.032 2.763a1.845 1.845 0 001.844 1.843zm5.473-1.872h-1.469a.432.432 0 010-.864h1.465l.002.432.002.432z" fill="#2B597F"/><path d="M15.682 24.39a.432.432 0 01-.433.433h-4.811l-.01-.864h4.821c.24 0 .433.193.433.432z" fill="#2B597F"/><path d="M14.508 5.214c-4.45-.068-8.192 3.81-8.112 8.227 0 2.254.893 4.296 2.339 5.782.852.877 1.59 1.687 1.671 2.863l8.314.014c.046-1.211.735-2.03 1.593-2.925a8.264 8.264 0 002.292-5.734c0-4.54-3.624-8.223-8.097-8.227z" fill="#FAD207"/><path d="M18.72 22.098v.002l-8.314-.014c-.082-1.177-.82-1.987-1.672-2.863a8.265 8.265 0 01-2.338-5.782c-.08-4.417 3.662-8.295 8.111-8.227.144 0 .287.004.429.012-4.204.244-7.637 3.982-7.56 8.215 0 2.254.892 4.296 2.338 5.782.852.876 1.59 1.686 1.671 2.863l7.334.012z" fill="#FAA515"/><path d="M14.704 17.56a.95.95 0 01-1.456.054l-2.708-2.996a.95.95 0 111.41-1.275l1.948 2.154 3.107-4.001a.95.95 0 011.502 1.166l-3.803 4.897z" fill="#FAA515"/></g><defs><clipPath id="clip0"><path fill="#fff" d="M0 0h29v29H0z"/></clipPath></defs></svg>