<svg width="29" height="29" fill="none" xmlns="http://www.w3.org/2000/svg"><path d="M25.926 26.118l-3.491-.768-1.082 3.416a.296.296 0 01-.54.058l-4.318-7.503a10.724 10.724 0 005.474-3.072l4.277 7.432a.296.296 0 01-.32.437z" fill="#FD646F"/><path d="M25.926 26.118l-3.227-.71a.296.296 0 00-.346.2l-1 3.158a.296.296 0 01-.54.058l-3.7-6.428-.618-1.075a10.724 10.724 0 005.474-3.072l.614 1.066 3.663 6.366a.296.296 0 01-.32.437z" fill="#FD646F"/><path d="M25.926 26.118l-3.227-.71a.297.297 0 00-.346.2l.348-1.08a.296.296 0 01.346-.198l2.777.617.423.734a.296.296 0 01-.32.437z" fill="#FC4755"/><path d="M12.573 21.231l-4.388 7.62a.296.296 0 01-.539-.058l-1-3.158a.296.296 0 00-.346-.2l-3.227.71a.296.296 0 01-.32-.437l4.08-7.089c1.524 1.444 3.579 2.256 5.74 2.612z" fill="#FD646F"/><path d="M7.41 19.674L3.775 25.99l-.7.154a.296.296 0 01-.321-.437l3.473-6.034.94-1.636c.252.239.516.467.792.68l-.547.956zm1.203 8.433l-.428.744a.296.296 0 01-.539-.058l-1-3.158a.296.296 0 00-.346-.2l1.106-.243c.15-.033.3.053.346.2l.861 2.715z" fill="#FC4755"/><path d="M6.932 18.439l2.886 1.301 2.755 1.491-.74 1.282a11.862 11.862 0 01-5.55-2.789l-.057-.05.706-1.235zm15.651.876l-.614-1.066-3.25 1.435-2.224 1.637.25.434.613 1.066 3.456 6.003a.296.296 0 00.539-.059l.22-.694-3.435-5.982a11.857 11.857 0 004.445-2.774z" fill="#FC4755"/><path d="M25.25 10.782a10.76 10.76 0 01-2.997 7.467 10.725 10.725 0 01-5.474 3.072 10.758 10.758 0 01-4.032.1 10.695 10.695 0 01-5.63-2.802 10.813 10.813 0 01-2.908-4.706 10.844 10.844 0 01-.459-3.13C3.75 4.827 8.563 0 14.5 0a10.701 10.701 0 018.031 3.616 10.76 10.76 0 012.718 7.166z" fill="#FAA515"/><path d="M14.5 18.505c4.252 0 7.7-3.458 7.7-7.723s-3.448-7.723-7.7-7.723c-4.253 0-7.7 3.458-7.7 7.723s3.447 7.723 7.7 7.723z" fill="#FAD207"/><path d="M22.2 10.782c0 4.265-3.448 7.723-7.7 7.723-4.252 0-7.7-3.458-7.7-7.723 0-.322.02-.64.059-.95.467 3.816 3.71 6.771 7.641 6.771s7.174-2.955 7.641-6.771c.039.31.058.628.058.95z" fill="#FAA515"/><path fill-rule="evenodd" clip-rule="evenodd" d="M14.5 3.06c-4.252 0-7.7 3.457-7.7 7.722 0 4.265 3.448 7.723 7.7 7.723 4.252 0 7.7-3.458 7.7-7.723S18.751 3.06 14.5 3.06zm0 14.553c-3.756 0-6.81-3.064-6.81-6.83 0-3.768 3.054-6.832 6.81-6.832s6.81 3.064 6.81 6.831c0 3.767-3.054 6.831-6.81 6.831z" fill="#FAF063"/><path d="M14.766 6.512l1.057 2.16a.296.296 0 00.224.163l2.377.342c.243.035.34.334.165.505l-1.724 1.679a.296.296 0 00-.086.262l.411 2.374a.296.296 0 01-.43.312l-2.122-1.124a.296.296 0 00-.277 0l-2.121 1.124a.296.296 0 01-.43-.312l.41-2.374a.296.296 0 00-.085-.262L10.41 9.68a.296.296 0 01.164-.504l2.377-.342a.296.296 0 00.224-.163l1.058-2.16a.296.296 0 01.532 0z" fill="#FAA515"/></svg>