<svg width="29" height="29" fill="none" xmlns="http://www.w3.org/2000/svg"><g clip-path="url(#clip0)"><path d="M29 8.14v15.637a2.334 2.334 0 01-2.334 2.334H2.334A2.334 2.334 0 010 23.777V8.14h29z" fill="#F5F5F5"/><path d="M29 9.307V8.14l-14.5-.584L0 8.14v15.637a2.334 2.334 0 002.334 2.334h1.167a2.334 2.334 0 01-2.334-2.334V9.307H29z" fill="#E6E6E6"/><path d="M29 5.222V8.14H0V5.222a2.334 2.334 0 012.334-2.334h24.332A2.334 2.334 0 0129 5.222z" fill="#50758D"/><path d="M27.687 5.514c0-.724-.589-1.313-1.313-1.313H13.946c-.373 0-.71.156-.949.406l-.425.426a1.314 1.314 0 00.907 2.261h12.428c.373 0 .71-.156.949-.407l.425-.425c.25-.239.406-.575.406-.948zM3.982 5.5c0-.724-.589-1.313-1.313-1.313-.372 0-.709.156-.948.406l-.425.425a1.314 1.314 0 00.907 2.261c.372 0 .709-.156.948-.406l.425-.425c.25-.24.406-.576.406-.949zm3.749 0c0-.724-.589-1.313-1.313-1.313-.372 0-.709.156-.948.406l-.425.425a1.314 1.314 0 00.907 2.261c.372 0 .709-.156.948-.406l.425-.425c.25-.24.406-.576.406-.949zm3.735 0a1.315 1.315 0 00-2.262-.907l-.425.425a1.314 1.314 0 101.855 1.855l.425-.425c.25-.24.407-.576.407-.949z" fill="#2B597F"/><path d="M2.67 6.812A1.314 1.314 0 011.355 5.5c0-.723.59-1.312 1.313-1.312.724 0 1.313.589 1.313 1.312 0 .724-.589 1.313-1.313 1.313z" fill="#FD646F"/><path d="M6.419 6.827a1.314 1.314 0 01-1.313-1.313c0-.724.589-1.313 1.313-1.313s1.313.59 1.313 1.313c0 .724-.59 1.313-1.313 1.313z" fill="#FFC682"/><path d="M10.153 6.827A1.314 1.314 0 018.84 5.514c0-.724.59-1.313 1.313-1.313.724 0 1.313.59 1.313 1.313 0 .724-.589 1.313-1.313 1.313z" fill="#93DDB7"/><path d="M26.374 6.827H13.946a1.314 1.314 0 01-1.313-1.313c0-.724.589-1.313 1.313-1.313h12.428c.724 0 1.313.59 1.313 1.313 0 .724-.589 1.313-1.313 1.313z" fill="#F5F5F5"/><path d="M21.083 17.823v-1.406a.292.292 0 00-.203-.278l-1.047-.333a.288.288 0 01-.19-.193 5.33 5.33 0 00-.444-1.07.289.289 0 01-.002-.272l.504-.977a.292.292 0 00-.053-.34l-.993-.993a.292.292 0 00-.34-.053l-.977.504a.289.289 0 01-.271-.002 5.339 5.339 0 00-.775-.348.295.295 0 01-.18-.175l-.429-1.17a.292.292 0 00-.274-.19h-1.84a.292.292 0 00-.275.19l-.427 1.165a.289.289 0 01-.179.175 4.64 4.64 0 00-.774.345.292.292 0 01-.28.007l-.97-.501a.291.291 0 00-.34.053l-.994.993a.292.292 0 00-.053.34l.504.977a.289.289 0 01-.002.271 5.31 5.31 0 00-.444 1.071.289.289 0 01-.19.193l-1.046.333a.292.292 0 00-.203.278v1.406c0 .127.082.239.203.278l1.046.333c.091.03.164.1.19.193.11.375.26.734.445 1.07a.289.289 0 01.001.271l-.504.977a.292.292 0 00.053.34l.993.994c.09.09.228.11.34.053l.977-.504a.289.289 0 01.271.002c.337.184.696.334 1.071.443.092.027.164.1.193.19l.334 1.047a.29.29 0 00.278.203h1.404c.127 0 .24-.082.278-.203l.335-1.047a.29.29 0 01.192-.19c.376-.11.734-.26 1.071-.444a.289.289 0 01.27-.001l.978.504c.113.058.25.037.34-.053l.993-.994a.292.292 0 00.053-.34l-.504-.977a.289.289 0 01.002-.27c.184-.337.334-.696.444-1.072a.289.289 0 01.19-.192l1.047-.334a.291.291 0 00.203-.277zm-6.612 2.133a2.86 2.86 0 110-5.72 2.86 2.86 0 010 5.72z" fill="#50758D"/></g><defs><clipPath id="clip0"><path fill="#fff" d="M0 0h29v29H0z"/></clipPath></defs></svg>