<svg width="29" height="29" fill="none" xmlns="http://www.w3.org/2000/svg"><path d="M15.99 12.823V.63c0-.337.284-.604.62-.583C26.012.66 31.786 10.77 27.632 19.201a.558.558 0 01-.779.235l-10.571-6.108a.583.583 0 01-.292-.505z" fill="#2EDFFC"/><path d="M25.31 22.286a.558.558 0 01.186.792 13.36 13.36 0 01-4.286 4.068l-.01.005a13.273 13.273 0 01-7.276 1.802 13.218 13.218 0 01-6.033-1.772 13.277 13.277 0 01-4.379-4.103.558.558 0 01.185-.792l.82-.476 9.694-5.617a.583.583 0 01.584 0l10.516 6.093z" fill="#93DDB7"/><path d="M13.017.618v12.164a.583.583 0 01-.292.505L2.151 19.386a.553.553 0 01-.766-.223l-.003-.006C-2.718 11.301 2.8 1.252 11.399.125c.333-.043.67-.074 1.012-.09a.582.582 0 01.606.583z" fill="#FD646F"/><path d="M28.201 17.869c-.163.448-.352.892-.57 1.332a.558.558 0 01-.778.235l-10.571-6.109a.583.583 0 01-.292-.504v-1.996l12.211 7.042z" fill="#27BDF3"/><path d="M13.017 10.787v1.995a.584.584 0 01-.291.505l-10.57 6.097a.558.558 0 01-.773-.225 12.203 12.203 0 01-.591-1.317l12.225-7.055z" fill="#FC4755"/><path d="M25.31 22.286a.558.558 0 01.186.792 13.358 13.358 0 01-4.286 4.068l-.01.005a13.273 13.273 0 01-7.276 1.802 13.219 13.219 0 01-6.033-1.772 13.278 13.278 0 01-4.379-4.103.558.558 0 01.185-.792l.677-.392A13.289 13.289 0 007.89 24.85a13.218 13.218 0 006.614 1.784c2.35 0 4.665-.627 6.695-1.815l.01-.005a13.34 13.34 0 003.426-2.919l.675.391z" fill="#5ED297"/></svg>