<svg width="29" height="29" fill="none" xmlns="http://www.w3.org/2000/svg"><g clip-path="url(#clip0)"><path d="M2.114 12.582a1.168 1.168 0 01-1.169-1.168V8.726c0-.645.523-1.168 1.169-1.168h24.772c.646 0 1.169.523 1.169 1.168v2.688c0 .646-.523 1.168-1.169 1.168H2.114z" fill="#FAD207"/><path d="M4.334 29a1.168 1.168 0 01-1.168-1.168v-15.25h22.669v15.25c0 .645-.523 1.168-1.169 1.168H4.334z" fill="#FAD207"/><path d="M3.282 12.582H2.114a1.168 1.168 0 01-1.169-1.168V8.726c0-.645.523-1.168 1.169-1.168h1.168c-.645 0-1.168.523-1.168 1.168v2.688c0 .646.523 1.168 1.168 1.168z" fill="#FAA515"/><path d="M5.503 29H4.334a1.168 1.168 0 01-1.168-1.168v-15.25h1.168v15.25c0 .645.523 1.168 1.169 1.168z" fill="#FAA515"/><path d="M17.48 7.558v5.024h-5.96V7.558l2.97-.292 2.99.292z" fill="#FD646F"/><path d="M11.52 26.663H6.088a.585.585 0 01-.584-.584V15.737c0-.322.262-.584.584-.584h16.826c.322 0 .584.262.584.584V26.08a.584.584 0 01-.584.584H11.52zM3.166 12.582h22.669v1.169H3.165v-1.168z" fill="#FAA515"/><path d="M16.827 3.558a2.52 2.52 0 00-.18.274l-.77 1.346-1.388 2.394-1.135-1.969-.972-1.762a2.595 2.595 0 00-.219-.337C11.55 1.998 12.497.23 14.171.022a2.765 2.765 0 01.465-.02c1.8.073 2.881 1.967 2.191 3.556z" fill="#FD646F"/><path d="M18.747 7.578l-1.49-.006h-2.768l1.387-2.394.771-1.346a2.545 2.545 0 011.558-1.202c.943-.255 2.01.027 2.667.896a2.83 2.83 0 01.249.393c.892 1.704-.45 3.706-2.374 3.659zm-4.258-.006l-1.351-.003-1.416-.003-1.551.004c-1.812.005-3.082-1.84-2.375-3.508a2.845 2.845 0 01.217-.412c.632-.996 1.787-1.333 2.797-1.055a2.54 2.54 0 011.572 1.246l.972 1.762 1.135 1.969z" fill="#FD646F"/><path d="M18.205 2.63a3.708 3.708 0 01-.21 1.147s-1.542 2.806-2.156 3.795h-1.35l1.387-2.394.771-1.346a2.545 2.545 0 011.558-1.202z" fill="#FC4755"/><path d="M13.354 5.603l1.135 1.969-1.35-.003c-.583-.985-1.481-2.642-2.058-3.625a3.7 3.7 0 01-.27-1.35 2.54 2.54 0 011.571 1.248l.972 1.761z" fill="#FC4755"/><path d="M11.52 12.582h5.96V29h-5.96V12.582z" fill="#FD646F"/><path d="M11.52 12.582h5.96v1.169h-5.96v-1.168zm0-4.995h5.96v1.169h-5.96V7.587z" fill="#FC4755"/></g><defs><clipPath id="clip0"><path fill="#fff" d="M0 0h29v29H0z"/></clipPath></defs></svg>