<svg width="29" height="29" fill="none" xmlns="http://www.w3.org/2000/svg"><g clip-path="url(#clip0)"><path d="M18.22 25.018h-7.274l1.012-1.634h5.25l1.011 1.634z" fill="#FAD207"/><path d="M13.331 23.384l-.38.616-.632 1.018h-1.373l-.017-.915 1.03-.719h1.372zm4.888 1.634h-1.373l-1.011-1.634h1.372l1.09.817-.078.817z" fill="#FAA515"/><path d="M13.556 20.806l-.724 1.167-.875 1.411-1.012 1.634-2.028 3.27a.81.81 0 01-1.38-.848l3.479-5.467.742-1.167h1.798zm7.801 7.749a.81.81 0 01-1.114-.266l-2.025-3.27-1.012-1.635-.873-1.41-.723-1.168h1.796l.742 1.167 3.475 5.467a.81.81 0 01-.266 1.115z" fill="#FAD207"/><path d="M11.759 20.806l.776-.583 1.022.583-.724 1.167h-1.816l.742-1.167zm6.389 1.167h-1.815l-.723-1.167.996-.583.8.583.742 1.167z" fill="#FAA515"/><path d="M29 .91v1.6l-14.5.583L0 2.509V.91C0 .587.261.326.584.326h27.832c.323 0 .584.26.584.583z" fill="#FD646F"/><path d="M1.75.326a.583.583 0 00-.583.583v1.6l-.59.584L0 2.509V.91C0 .587.261.326.584.326H1.75z" fill="#FC4755"/><path d="M29 2.51v17.713a.584.584 0 01-.584.584H.584A.584.584 0 010 20.223V2.51h29z" fill="#F5F5F5"/><path d="M29 2.51v1.166H1.75a.583.583 0 00-.583.584v16.547H.584A.583.583 0 010 20.223V2.51h29z" fill="#E6E6E6"/><path d="M14.5 17.885a2.483 2.483 0 01-2.48-2.48 2.483 2.483 0 012.48-2.48 2.483 2.483 0 012.48 2.48 2.483 2.483 0 01-2.48 2.48zm0-4.085c-.885 0-1.605.72-1.605 1.605 0 .884.72 1.604 1.604 1.604.885 0 1.605-.72 1.605-1.604 0-.885-.72-1.605-1.605-1.605z" fill="#27BDF3"/><path d="M22.668 10.416a2.483 2.483 0 01-2.48-2.48 2.483 2.483 0 012.48-2.48 2.483 2.483 0 012.48 2.48 2.483 2.483 0 01-2.48 2.48zm0-4.085c-.884 0-1.604.72-1.604 1.605 0 .884.72 1.604 1.604 1.604.885 0 1.605-.72 1.605-1.604 0-.885-.72-1.605-1.605-1.605zm0 11.554a2.483 2.483 0 01-2.48-2.48 2.483 2.483 0 012.48-2.48 2.483 2.483 0 012.48 2.48 2.483 2.483 0 01-2.48 2.48zm0-4.085c-.884 0-1.604.72-1.604 1.605 0 .884.72 1.604 1.604 1.604.885 0 1.605-.72 1.605-1.604 0-.885-.72-1.605-1.605-1.605z" fill="#50758D"/><path d="M6.33 10.416a2.483 2.483 0 01-2.48-2.48 2.483 2.483 0 012.48-2.48 2.483 2.483 0 012.48 2.48 2.483 2.483 0 01-2.48 2.48zm0-4.085c-.884 0-1.604.72-1.604 1.605 0 .884.72 1.604 1.604 1.604.885 0 1.605-.72 1.605-1.604 0-.885-.72-1.605-1.605-1.605z" fill="#27BDF3"/><path d="M14.944 7.936l1.44-1.441a.438.438 0 00-.618-.62l-1.441 1.442-1.441-1.441a.438.438 0 00-.62.619l1.442 1.44-1.441 1.442a.438.438 0 00.619.619l1.44-1.441 1.442 1.44a.437.437 0 00.619 0 .438.438 0 000-.618l-1.441-1.441zm-7.877 7.469l1.44-1.441a.438.438 0 00-.618-.62l-1.441 1.442-1.441-1.441a.438.438 0 10-.619.619l1.441 1.44-1.441 1.442a.438.438 0 00.619.619l1.44-1.442 1.442 1.442a.436.436 0 00.619 0 .438.438 0 000-.62l-1.441-1.44z" fill="#FC4755"/><path d="M9.074 10.736a.436.436 0 01.747-.309l1.75 1.75a.438.438 0 01-.619.62l-1.75-1.751a.437.437 0 01-.128-.31z" fill="#27BDF3"/></g><defs><clipPath id="clip0"><path fill="#fff" d="M0 0h29v29H0z"/></clipPath></defs></svg>