<svg width="29" height="29" fill="none" xmlns="http://www.w3.org/2000/svg"><path d="M12.658 29c6.991 0 12.659-5.668 12.659-12.66 0-6.99-5.668-12.658-12.659-12.658C5.668 3.682 0 9.35 0 16.341c0 6.99 5.667 12.658 12.658 12.658z" fill="#FD646F"/><path d="M25.317 16.34c0 6.991-5.668 12.66-12.659 12.66-3.793 0-7.197-1.67-9.517-4.314a12.608 12.608 0 008.345 3.141c6.991 0 12.659-5.668 12.659-12.658a12.61 12.61 0 00-3.142-8.346 12.626 12.626 0 014.314 9.518z" fill="#FC4755"/><path d="M12.658 25.893a9.552 9.552 0 100-19.105 9.552 9.552 0 000 19.105z" fill="#F5F5F5"/><path d="M22.21 16.34a9.553 9.553 0 01-16.867 6.144 9.515 9.515 0 006.143 2.237 9.553 9.553 0 009.553-9.552c0-2.34-.841-4.483-2.237-6.144a9.535 9.535 0 013.409 7.316z" fill="#E6E6E6"/><path d="M12.658 22.787a6.446 6.446 0 100-12.893 6.446 6.446 0 000 12.893z" fill="#FD646F"/><path d="M19.105 16.34a6.447 6.447 0 01-11.553 3.935 6.446 6.446 0 009.041-9.041 6.435 6.435 0 012.512 5.107z" fill="#FC4755"/><path d="M12.658 19.622a3.282 3.282 0 100-6.563 3.282 3.282 0 000 6.563z" fill="#F5F5F5"/><path d="M24.635 20.448c-.25.728-.563 1.425-.935 2.086l-2.825-1.318c.387-.65.699-1.352.923-2.09l2.837 1.322z" fill="#FC4755"/><path d="M21.798 19.126a9.461 9.461 0 01-.923 2.09l-2.837-1.323c.418-.63.727-1.34.902-2.1l2.858 1.333z" fill="#E6E6E6"/><path d="M18.94 17.793a6.383 6.383 0 01-.903 2.1l-2.931-1.366a3.27 3.27 0 00.833-2.133l3 1.399z" fill="#FC4755"/><path d="M15.94 16.393a3.27 3.27 0 01-.834 2.134l-2.745-1.28a1.142 1.142 0 11.965-2.072l2.614 1.218z" fill="#E6E6E6"/><path d="M28.902 5.286c.094.016.13.13.064.198l-1.24 1.246-.76.764-2.08 2.088a.586.586 0 01-.51.164l-3.1-.51 2.322-2.303.77-.763 1.415-1.405 3.119.52z" fill="#50758D"/><path d="M27.726 6.73l-.761.764-3.367-.561.77-.763 3.358.56z" fill="#2B597F"/><path d="M24.299 3.412L22.891 4.79l-.766.75-2.314 2.263-.517-3.14a.586.586 0 01.164-.509l2.087-2.09.764-.764L23.572.036a.117.117 0 01.199.064l.528 3.312z" fill="#50758D"/><path d="M22.89 4.79l-.765.75-.58-3.475.763-.765.582 3.49z" fill="#2B597F"/><path d="M26.977 3.223c0 .292-.11.585-.334.807L13.65 17.022a1.142 1.142 0 11-1.616-1.615L25.027 2.415a1.142 1.142 0 011.95.808z" fill="#918291"/><path d="M26.978 3.223c0 .292-.112.585-.335.807L13.651 17.022a1.142 1.142 0 01-1.53.078l14.6-14.6c.171.21.257.466.257.723z" fill="#7A6E79"/></svg>