<svg width="12" height="12" viewBox="0 0 12 12" fill="none" xmlns="http://www.w3.org/2000/svg">
<path d="M10.2422 0H1.75781C0.788635 0 0 0.788635 0 1.75781V10.2422C0 11.2114 0.788635 12 1.75781 12H10.2422C11.2114 12 12 11.2114 12 10.2422V1.75781C12 0.788635 11.2114 0 10.2422 0ZM6.02344 9.14062C4.27872 9.14062 2.85938 7.72128 2.85938 5.97656C2.85938 4.23184 4.27872 2.8125 6.02344 2.8125C7.76816 2.8125 9.1875 4.23184 9.1875 5.97656C9.1875 7.72128 7.76816 9.14062 6.02344 9.14062ZM9.53906 3.51562C8.95752 3.51562 8.48438 3.04248 8.48438 2.46094C8.48438 1.87939 8.95752 1.40625 9.53906 1.40625C10.1206 1.40625 10.5938 1.87939 10.5938 2.46094C10.5938 3.04248 10.1206 3.51562 9.53906 3.51562Z" fill="white"/>
<path d="M9.53906 2.10938C9.34506 2.10938 9.1875 2.26694 9.1875 2.46094C9.1875 2.65494 9.34506 2.8125 9.53906 2.8125C9.73306 2.8125 9.89062 2.65494 9.89062 2.46094C9.89062 2.26694 9.73306 2.10938 9.53906 2.10938Z" fill="white"/>
<path d="M6.02344 3.51562C4.66663 3.51562 3.5625 4.61975 3.5625 5.97656C3.5625 7.33337 4.66663 8.4375 6.02344 8.4375C7.38025 8.4375 8.48438 7.33337 8.48438 5.97656C8.48438 4.61975 7.38025 3.51562 6.02344 3.51562Z" fill="white"/>
</svg>
