<svg width="141" height="145" viewBox="0 0 141 145" fill="none" xmlns="http://www.w3.org/2000/svg">
<path d="M120.133 9.19995V9.06662H120V8.93328H119.733V8.79995H119.467V8.66662H119.333V8.53328H119.067V8.39995H118.8V8.26662H118.667V8.13328H118.4V7.99995H118.133V7.86662H117.867V7.73328H117.733V7.59995H117.467V7.46662H117.2V7.33328H117.067V7.19995H116.8V7.06662H116.533V6.93328H116.4V6.79995H116.133V6.66662H115.867V6.53328H115.733V6.39995H115.467V6.26662H115.333V6.13328H115.067V5.99995H114.933V5.86662H114.8V5.73328H114.667V5.59995H114.533V5.46662H114.4V5.33328H114.267V5.06662H114.133V4.79995H114V4.66662H113.867V4.26662H113.733V3.86662H113.6V3.46662H113.467V2.53329H113.333V1.99995H113.467V0.533285H113.6V-4.86374e-05H119.867V0.133286H119.733V0.399952H119.6V0.666618H119.467V0.933285H119.333V1.19995H119.2V1.46662H119.067V1.86662H118.933V2.13329H118.8V2.53329H118.667V3.06662H118.533V3.86662H118.4V5.73328H118.533V6.53328H118.667V6.79995H118.8V7.19995H118.933V7.46662H119.067V7.73328H119.2V7.99995H119.333V8.13328H119.467V8.26662H119.6V8.39995H119.733V8.53328H119.867V8.66662H120V8.79995H120.133V8.93328H120.267V9.06662H120.4V9.19995" fill="url(#paint0_linear)"/>
<path d="M39.0666 144.667V144.533H38.4V144.4H37.8666V144.267H37.4666V144.133H37.2V144H36.9333V143.867H36.6666V143.733H36.5333V143.6H36.2666V143.467H36V143.333H35.8666V143.2H35.6V143.067H35.3333V142.933H35.2V142.8H34.9333V142.667H34.6666V142.533H34.5333V142.4H34.2666V142.267H34V142.133H33.7333V142H33.6V141.867H33.3333V141.733H33.0666V141.6H32.9333V141.467H32.6666V141.333H32.4V141.2H32.2666V141.067H32.1333V140.933H32.4V141.067H32.6666V141.2H32.9333V141.333H33.3333V141.467H34.1333V141.6H35.4666V141.467H36.1333V141.333H36.6666V141.2H37.0666V141.067H37.3333V140.933H37.7333V140.8H38V140.667H38.2666V140.533H38.4V140.4H38.6666V140.267H38.9333V140.133H39.0666V140H39.2V139.867H39.4666V139.733H39.6V139.6H39.7333V139.467H39.8666V139.333H40.1333V139.2H40.2666V139.067H40.4V138.933H40.5333V138.8H40.6666V138.667H40.8V138.533H40.9333V138.4H41.0666V138.267H41.2V138.133H41.3333V137.867H41.4666V137.733H41.6V137.6H41.7333V137.467H41.8666V137.333H42V137.067H42.1333V136.933H42.2666V136.8H42.4V136.667H42.5333V136.533H42.6666V136.267H42.8V136.133H42.9333V136H43.0666V135.867H43.2V135.733H43.3333V135.467H43.4666V135.333H43.6V135.2H43.7333V135.067H43.8666V134.933H44V134.667H44.1333V134.533H44.2666V134.4H44.4V134.267H44.5333V134.133H44.6666V133.867H44.8V133.733H44.9333V133.6H45.0666V133.467H45.2V133.333H45.3333V133.067H45.4666V132.933H45.6V132.8H45.7333V132.667H45.8666V132.533H46V132.4H46.1333V132.133H46.2666V132H46.4V131.867H46.5333V131.733H46.6666V131.6H46.8V131.333H46.9333V131.2H47.0666V131.067H47.2V130.933H47.3333V130.8H47.4666V130.533H47.6V130.4H47.7333V130.267H47.8666V130.133H48V130H48.1333V129.733H48.2666V129.6H48.4V129.467H48.5333V129.333H48.6666V129.2H48.8V128.933H48.9333V128.8H49.0666V128.667H49.2V128.533H49.3333V128.4H49.4666V128.133H49.6V128H49.7333V127.867H49.8666V127.733H50V127.6H50.1333V127.333H50.2666V127.2H50.4V127.067H50.5333V126.933H50.6666V126.8H50.8V126.533H50.9333V126.4H51.0666V126.267H51.2V126.133H51.3333V126H51.4666V125.733H51.6V125.6H51.7333V125.467H51.8666V125.333H52V125.2H52.1333V124.933H52.2666V124.8H52.4V124.667H52.5333V124.533H52.6666V124.4H52.8V124.133H52.9333V124H53.0666V123.867H53.2V123.733H53.3333V123.6H53.4666V123.333H53.6V123.2H53.7333V123.067H53.8666V122.933H54V122.8H54.1333V122.533H54.2666V122.4H54.4V122.267H54.5333V122.133H54.6666V122H54.8V121.733H54.9333V121.6H55.0666V121.467H55.2V121.333H55.3333V121.2H55.4666V120.933H55.6V120.8H55.7333V120.667H55.8666V120.533H56V120.4H56.1333V120.133H56.2666V120H56.4V119.867H56.5333V119.733H56.6666V119.6H56.8V119.333H56.9333V119.2H57.0666V119.067H57.2V118.933H57.3333V118.8H57.4666V118.533H57.6V118.4H57.7333V118.267H57.8666V118.133H58V118H58.1333V117.733H58.2666V117.6H58.4V117.467H58.5333V117.333H58.6666V117.2H58.8V116.933H58.9333V116.8H59.0666V116.667H59.2V116.533H59.3333V116.4H59.4666V116.133H59.6V116H59.7333V115.867H59.8666V115.733H60V115.6H60.1333V115.333H60.2666V115.2H60.4V115.067H60.5333V114.933H60.6666V114.8H60.8V114.533H60.9333V114.4H61.0666V114.267H61.2V114.133H61.3333V114H61.4666V113.733H61.6V113.6H61.7333V113.467H61.8666V113.333H62V113.2H62.1333V112.933H62.2666V112.8H62.4V112.667H62.5333V112.533H62.6666V112.4H62.8V112.133H62.9333V112H63.0666V111.867H63.2V111.733H63.3333V111.6H63.4666V111.333H63.6V111.2H63.7333V111.067H63.8666V110.933H64V110.8H64.1333V110.533H64.2666V110.4H64.4V110.267H64.5333V110.133H64.6666V110H64.8V109.733H64.9333V109.6H65.0666V109.467H65.2V109.333H65.3333V109.2H65.4666V108.933H65.6V108.8H65.7333V108.667H65.8666V108.533H66V108.4H66.1333V108.267H66.2666V108H66.4V107.867H66.5333V107.733H66.6666V107.6H66.8V107.467H66.9333V107.2H67.0666V107.067H67.2V106.933H67.3333V106.8H67.4666V106.667H67.6V106.4H67.7333V106.267H67.8666V106.133H68V106H68.1333V105.867H68.2666V105.6H68.4V105.467H68.5333V105.333H68.6666V105.2H68.8V105.067H68.9333V104.8H69.0666V104.667H69.2V104.533H69.3333V104.4H69.4666V104.267H69.6V104H69.7333V103.867H69.8666V103.733H70V103.6H70.1333V103.467H70.2666V103.2H70.4V103.067H70.5333V102.933H70.6666V102.8H70.8V102.667H70.9333V102.4H71.0666V102.267H71.2V102.133H71.3333V102H71.4666V101.867H71.6V101.6H71.7333V101.467H71.8666V101.333H72V101.2H72.1333V101.067H72.2666V100.8H72.4V100.667H72.5333V100.533H72.6666V100.4H72.8V100.267H72.9333V100H73.0666V99.8667H73.2V99.7334H73.3333V99.6H73.4666V99.4667H73.6V99.2H73.7333V99.0667H73.8666V98.9334H74V98.8H74.1333V98.6667H74.2666V98.4H74.4V98.2667H74.5333V98.1334H74.6666V98H74.8V97.8667H74.9333V97.6H75.0666V97.4667H75.2V97.3334H75.3333V97.2H75.4666V97.0667H75.6V96.8H75.7333V96.6667H75.8666V96.5334H76V96.4H76.1333V96.2667H76.2666V96H76.4V95.8667H76.5333V95.7334H76.6666V95.6H76.8V95.4667H76.9333V95.2H77.0666V95.0667H77.2V94.9334H77.3333V94.8H77.4666V94.6667H77.6V94.4H77.7333V94.2667H77.8666V94.1334H78V94H78.1333V93.8667H78.2666V93.6H78.4V93.4667H78.5333V93.3334H78.6666V93.2H78.8V93.0667H78.9333V92.8H79.0666V92.6667H79.2V92.5334H79.3333V92.4H79.4666V92.2667H79.6V92H79.7333V91.8667H79.8666V91.7334H80V91.6H80.1333V91.4667H80.2666V91.2H80.4V91.0667H80.5333V90.9334H80.6666V90.8H80.8V90.6667H80.9333V90.4H81.0666V90.2667H81.2V90.1334H81.3333V90H81.4666V89.8667H81.6V89.6H81.7333V89.4667H81.8666V89.3334H82V89.2H82.1333V89.0667H82.2666V88.8H82.4V88.6667H82.5333V88.5334H82.6666V88.4H82.8V88.2667H82.9333V88H83.0666V87.8667H83.2V87.7334H83.3333V87.6H83.4666V87.4667H83.6V87.2H83.7333V87.0667H83.8666V86.9334H84V86.8H84.1333V86.6667H84.2666V86.4H84.4V86.2667H84.5333V86.1334H84.6666V86H84.8V85.8667H84.9333V85.6H85.0666V85.4667H85.2V85.3334H85.3333V85.2H85.4666V85.0667H85.6V84.9334H85.7333V84.6667H85.8666V84.5334H86V84.4H86.1333V84.2667H86.2666V84.1334H86.4V83.8667H86.5333V83.7334H86.6666V83.6H86.8V83.4667H86.9333V83.3334H87.0666V83.0667H87.2V82.9334H87.3333V82.8H87.4666V82.6667H87.6V82.5334H87.7333V82.2667H87.8666V82.1334H88V82H88.1333V81.8667H88.2666V81.7334H88.4V81.4667H88.5333V81.3334H88.6666V81.2H88.8V81.0667H88.9333V80.9334H89.0666V80.6667H89.2V80.5334H89.3333V80.4H89.4666V80.2667H89.6V80.1334H89.7333V79.8667H89.8666V79.7334H90V79.6H90.1333V79.4667H90.2666V79.3334H90.4V79.0667H90.5333V78.9334H90.6666V78.8H90.8V78.6667H90.9333V78.5334H91.0666V78.2667H91.2V78.1334H91.3333V78H91.4666V77.8667H91.6V77.7334H91.7333V77.4667H91.8666V77.3334H92V77.2H92.1333V77.0667H92.2666V76.9334H92.4V76.6667H92.5333V76.5334H92.6666V76.4H92.8V76.2667H92.9333V76.1334H93.0666V75.8667H93.2V75.7334H93.3333V75.6H93.4666V75.4667H93.6V75.3334H93.7333V75.0667H93.8666V74.9334H94V74.8H94.1333V74.6667H94.2666V74.5334H94.4V74.2667H94.5333V74.1334H94.6666V74H94.8V73.8667H94.9333V73.7334H95.0666V73.4667H95.2V73.3334H95.3333V73.2H95.4666V73.0667H95.6V72.9334H95.7333V72.6667H95.8666V72.5334H96V72.4H96.1333V72.2667H96.2666V72.1334H96.4V71.8667H96.5333V71.7334H96.6666V71.6H96.8V71.4667H96.9333V71.3334H97.0666V71.0667H97.2V70.9334H97.3333V70.8H97.4666V70.6667H97.6V70.5334H97.7333V70.2667H97.8666V70.1334H98V70H98.1333V69.8667H98.2666V69.7334H98.4V69.4667H98.5333V69.3334H98.6666V69.2H98.8V69.0667H98.9333V68.9334H99.0666V68.6667H99.2V68.5334H99.3333V68.4H99.4666V68.2667H99.6V68.1334H99.7333V67.8667H99.8666V67.7334H100V67.6H100.133V67.4667H100.267V67.3334H100.4V67.0667H100.533V66.9334H100.667V66.8H100.8V66.6667H100.933V66.5334H101.067V66.2667H101.2V66.1334H101.333V66H101.467V65.8667H101.6V65.7334H101.733V65.4667H101.867V65.3334H102V65.2H102.133V65.0667H102.267V64.9334H102.4V64.6667H102.533V64.5334H102.667V64.4H102.8V64.2667H102.933V64.1334H103.067V63.8667H103.2V63.7334H103.333V63.6H103.467V63.4667H103.6V63.3334H103.733V63.0667H103.867V62.9334H104V62.8H104.133V62.6667H104.267V62.5334H104.4V62.2667H104.533V62.1334H104.667V62H104.8V61.8667H104.933V61.7334H105.067V61.4667H105.2V61.3334H105.333V61.2H105.467V61.0667H105.6V60.9334H105.733V60.8H105.867V60.5334H106V60.4H106.133V60.2667H106.267V60.1334H106.4V60H106.533V59.7334H106.667V59.6H106.8V59.4667H106.933V59.3334H107.067V59.2H107.2V58.9334H107.333V58.8H107.467V58.6667H107.6V58.5334H107.733V58.4H107.867V58.1334H108V58H108.133V57.8667H108.267V57.7334H108.4V57.6H108.533V57.3334H108.667V57.2H108.8V57.0667H108.933V56.9334H109.067V56.8H109.2V56.5334H109.333V56.4H109.467V56.2667H109.6V56.1334H109.733V56H109.867V55.7334H110V55.6H110.133V55.4667H110.267V55.3334H110.4V55.2H110.533V54.9334H110.667V54.8H110.8V54.6667H110.933V54.5334H111.067V54.4H111.2V54.1334H111.333V54H111.467V53.8667H111.6V53.7334H111.733V53.6H111.867V53.3334H112V53.2H112.133V53.0667H112.267V52.9334H112.4V52.8H112.533V52.5334H112.667V52.4H112.8V52.2667H112.933V52.1334H113.067V52H113.2V51.7334H113.333V51.6H113.467V51.4667H113.6V51.3334H113.733V51.2H113.867V50.9334H114V50.8H114.133V50.6667H114.267V50.5334H114.4V50.4H114.533V50.1334H114.667V50H114.8V49.8667H114.933V49.7334H115.067V49.6H115.2V49.3334H115.333V49.2H115.467V49.0667H115.6V48.9334H115.733V48.8H115.867V48.5334H116V48.4H116.133V48.2667H116.267V48.1334H116.4V48H116.533V47.7334H116.667V47.6H116.8V47.4667H116.933V47.3334H117.067V47.2H117.2V46.9334H117.333V46.8H117.467V46.6667H117.6V46.5334H117.733V46.4H117.867V46.1334H118V46H118.133V45.8667H118.267V45.7334H118.4V45.6H118.533V45.3334H118.667V45.2H118.8V45.0667H118.933V44.9334H119.067V44.8H119.2V44.5334H119.333V44.4H119.467V44.2667H119.6V44.1334H119.733V44H119.867V43.7334H120V43.6H120.133V43.4667H120.267V43.3334H120.4V43.2H120.533V42.9334H120.667V42.8H120.8V42.6667H120.933V42.5334H121.067V42.4H121.2V42.1334H121.333V42H121.467V41.8667H121.6V41.7334H121.733V41.6H121.867V41.3334H122V41.2H122.133V41.0667H122.267V40.9334H122.4V40.8H122.533V40.5334H122.667V40.4H122.8V40.2667H122.933V40.1334H123.067V40H123.2V39.7334H123.333V39.6H123.467V39.4667H123.6V39.3334H123.733V39.2H123.867V38.9334H124V38.8H124.133V38.6667H124.267V38.5334H124.4V38.4H124.533V38.1334H124.667V38H124.8V37.8667H124.933V37.7334H125.067V37.6H125.2V37.4667H125.333V37.2H125.467V37.0667H125.6V36.9334H125.733V36.8H125.867V36.6667H126V36.4H126.133V36.2667H126.267V36.1334H126.4V36H126.533V35.8667H126.667V35.6H126.8V35.4667H126.933V35.3334H127.067V35.2H127.2V35.0667H127.333V34.8H127.467V34.6667H127.6V34.5334H127.733V34.4H127.867V34.2667H128V34H128.133V33.8667H128.267V33.7334H128.4V33.4667H128.533V33.3334H128.667V33.2H128.8V32.9334H128.933V32.8H129.067V32.5334H129.2V32.4H129.333V32.1334H129.467V32H129.6V31.7334H129.733V31.4667H129.867V31.3334H130V31.0667H130.133V30.9334H130.267V30.6667H130.4V30.4H130.533V30.1334H130.667V29.8667H130.8V29.6H130.933V29.3334H131.067V29.2H131.2V28.9334H131.333V28.6667H131.467V28.2667H131.6V28H131.733V27.7334H131.867V27.4667H132V27.2H132.133V26.8H132.267V26.5334H132.4V26.1334H132.533V25.8667H132.667V25.4667H132.8V25.0667H132.933V24.8H133.067V24.4H133.2V24H133.333V23.4667H133.467V23.0667H133.6V22.6667H133.733V22.1334H133.867V21.6H134V20.9334H134.133V20.2667H134.267V19.4667H134.4V17.8667H134.533V16H134.667V14.1334H134.8V12.1334H134.933V10.2667H135.067V8.40002H135.2V6.53336H135.333V4.6667H135.467V2.80003H135.6V0.933365H135.733V3.05176e-05H140.933V0.933365H140.8V2.80003H140.667V4.6667H140.533V6.53336H140.4V8.53336H140.267V10.4H140.133V12.2667H140V14.1334H139.867V16H139.733V17.8667H139.6V19.7334H139.467V21.6H139.333V22.8H139.2V23.6H139.067V24.2667H138.933V24.8H138.8V25.3334H138.667V25.8667H138.533V26.2667H138.4V26.6667H138.267V27.2H138.133V27.6H138V28H137.867V28.2667H137.733V28.6667H137.6V28.9334H137.467V29.3334H137.333V29.7334H137.2V30H137.067V30.2667H136.933V30.5334H136.8V30.9334H136.667V31.2H136.533V31.4667H136.4V31.7334H136.267V32H136.133V32.2667H136V32.5334H135.867V32.8H135.733V33.0667H135.6V33.3334H135.467V33.4667H135.333V33.7334H135.2V34H135.067V34.2667H134.933V34.4H134.8V34.6667H134.667V34.8H134.533V35.0667H134.4V35.3334H134.267V35.4667H134.133V35.7334H134V35.8667H133.867V36H133.733V36.2667H133.6V36.4H133.467V36.6667H133.333V36.8H133.2V36.9334H133.067V37.0667H132.933V37.3334H132.8V37.4667H132.667V37.6H132.533V37.7334H132.4V37.8667H132.267V38.1334H132.133V38.2667H132V38.4H131.867V38.5334H131.733V38.6667H131.6V38.9334H131.467V39.0667H131.333V39.2H131.2V39.3334H131.067V39.4667H130.933V39.7334H130.8V39.8667H130.667V40H130.533V40.1334H130.4V40.2667H130.267V40.5334H130.133V40.6667H130V40.8H129.867V40.9334H129.733V41.0667H129.6V41.3334H129.467V41.4667H129.333V41.6H129.2V41.7334H129.067V41.8667H128.933V42.1334H128.8V42.2667H128.667V42.4H128.533V42.5334H128.4V42.6667H128.267V42.9334H128.133V43.0667H128V43.2H127.867V43.3334H127.733V43.4667H127.6V43.7334H127.467V43.8667H127.333V44H127.2V44.1334H127.067V44.2667H126.933V44.5334H126.8V44.6667H126.667V44.8H126.533V44.9334H126.4V45.0667H126.267V45.3334H126.133V45.4667H126V45.6H125.867V45.7334H125.733V45.8667H125.6V46.1334H125.467V46.2667H125.333V46.4H125.2V46.5334H125.067V46.6667H124.933V46.9334H124.8V47.0667H124.667V47.2H124.533V47.3334H124.4V47.4667H124.267V47.7334H124.133V47.8667H124V48H123.867V48.1334H123.733V48.2667H123.6V48.5334H123.467V48.6667H123.333V48.8H123.2V48.9334H123.067V49.0667H122.933V49.3334H122.8V49.4667H122.667V49.6H122.533V49.7334H122.4V49.8667H122.267V50.1334H122.133V50.2667H122V50.4H121.867V50.5334H121.733V50.6667H121.6V50.9334H121.467V51.0667H121.333V51.2H121.2V51.3334H121.067V51.4667H120.933V51.7334H120.8V51.8667H120.667V52H120.533V52.1334H120.4V52.2667H120.267V52.5334H120.133V52.6667H120V52.8H119.867V52.9334H119.733V53.0667H119.6V53.3334H119.467V53.4667H119.333V53.6H119.2V53.7334H119.067V53.8667H118.933V54.1334H118.8V54.2667H118.667V54.4H118.533V54.5334H118.4V54.6667H118.267V54.9334H118.133V55.0667H118V55.2H117.867V55.3334H117.733V55.4667H117.6V55.7334H117.467V55.8667H117.333V56H117.2V56.1334H117.067V56.2667H116.933V56.5334H116.8V56.6667H116.667V56.8H116.533V56.9334H116.4V57.0667H116.267V57.3334H116.133V57.4667H116V57.6H115.867V57.7334H115.733V57.8667H115.6V58H115.467V58.2667H115.333V58.4H115.2V58.5334H115.067V58.6667H114.933V58.8H114.8V59.0667H114.667V59.2H114.533V59.3334H114.4V59.4667H114.267V59.6H114.133V59.8667H114V60H113.867V60.1334H113.733V60.2667H113.6V60.4H113.467V60.6667H113.333V60.8H113.2V60.9334H113.067V61.0667H112.933V61.2H112.8V61.4667H112.667V61.6H112.533V61.7334H112.4V61.8667H112.267V62H112.133V62.2667H112V62.4H111.867V62.5334H111.733V62.6667H111.6V62.8H111.467V63.0667H111.333V63.2H111.2V63.3334H111.067V63.4667H110.933V63.6H110.8V63.8667H110.667V64H110.533V64.1334H110.4V64.2667H110.267V64.4H110.133V64.6667H110V64.8H109.867V64.9334H109.733V65.0667H109.6V65.2H109.467V65.4667H109.333V65.6H109.2V65.7334H109.067V65.8667H108.933V66H108.8V66.2667H108.667V66.4H108.533V66.5334H108.4V66.6667H108.267V66.8H108.133V67.0667H108V67.2H107.867V67.3334H107.733V67.4667H107.6V67.6H107.467V67.8667H107.333V68H107.2V68.1334H107.067V68.2667H106.933V68.4H106.8V68.6667H106.667V68.8H106.533V68.9334H106.4V69.0667H106.267V69.2H106.133V69.4667H106V69.6H105.867V69.7334H105.733V69.8667H105.6V70H105.467V70.2667H105.333V70.4H105.2V70.5334H105.067V70.6667H104.933V70.8H104.8V71.0667H104.667V71.2H104.533V71.3334H104.4V71.4667H104.267V71.6H104.133V71.8667H104V72H103.867V72.1334H103.733V72.2667H103.6V72.4H103.467V72.6667H103.333V72.8H103.2V72.9334H103.067V73.0667H102.933V73.2H102.8V73.4667H102.667V73.6H102.533V73.7334H102.4V73.8667H102.267V74H102.133V74.2667H102V74.4H101.867V74.5334H101.733V74.6667H101.6V74.8H101.467V75.0667H101.333V75.2H101.2V75.3334H101.067V75.4667H100.933V75.6H100.8V75.8667H100.667V76H100.533V76.1334H100.4V76.2667H100.267V76.4H100.133V76.6667H100V76.8H99.8666V76.9334H99.7333V77.0667H99.6V77.2H99.4666V77.4667H99.3333V77.6H99.2V77.7334H99.0666V77.8667H98.9333V78H98.8V78.2667H98.6666V78.4H98.5333V78.5334H98.4V78.6667H98.2666V78.8H98.1333V79.0667H98V79.2H97.8666V79.3334H97.7333V79.4667H97.6V79.6H97.4666V79.8667H97.3333V80H97.2V80.1334H97.0666V80.2667H96.9333V80.4H96.8V80.6667H96.6666V80.8H96.5333V80.9334H96.4V81.0667H96.2666V81.2H96.1333V81.3334H96V81.6H95.8666V81.7334H95.7333V81.8667H95.6V82H95.4666V82.1334H95.3333V82.4H95.2V82.5334H95.0666V82.6667H94.9333V82.8H94.8V82.9334H94.6666V83.2H94.5333V83.3334H94.4V83.4667H94.2666V83.6H94.1333V83.7334H94V84H93.8666V84.1334H93.7333V84.2667H93.6V84.4H93.4666V84.5334H93.3333V84.8H93.2V84.9334H93.0666V85.0667H92.9333V85.2H92.8V85.3334H92.6666V85.6H92.5333V85.7334H92.4V85.8667H92.2666V86H92.1333V86.1334H92V86.4H91.8666V86.5334H91.7333V86.6667H91.6V86.8H91.4666V86.9334H91.3333V87.2H91.2V87.3334H91.0666V87.4667H90.9333V87.6H90.8V87.7334H90.6666V88H90.5333V88.1334H90.4V88.2667H90.2666V88.4H90.1333V88.5334H90V88.8H89.8666V88.9334H89.7333V89.0667H89.6V89.2H89.4666V89.3334H89.3333V89.6H89.2V89.7334H89.0666V89.8667H88.9333V90H88.8V90.1334H88.6666V90.4H88.5333V90.5334H88.4V90.6667H88.2666V90.8H88.1333V90.9334H88V91.2H87.8666V91.3334H87.7333V91.4667H87.6V91.6H87.4666V91.7334H87.3333V92H87.2V92.1334H87.0666V92.2667H86.9333V92.4H86.8V92.5334H86.6666V92.8H86.5333V92.9334H86.4V93.0667H86.2666V93.2H86.1333V93.3334H86V93.6H85.8666V93.7334H85.7333V93.8667H85.6V94H85.4666V94.1334H85.3333V94.4H85.2V94.5334H85.0666V94.6667H84.9333V94.8H84.8V94.9334H84.6666V95.2H84.5333V95.3334H84.4V95.4667H84.2666V95.6H84.1333V95.7334H84V96H83.8666V96.1334H83.7333V96.2667H83.6V96.4H83.4666V96.5334H83.3333V96.8H83.2V96.9334H83.0666V97.0667H82.9333V97.2H82.8V97.3334H82.6666V97.6H82.5333V97.7334H82.4V97.8667H82.2666V98H82.1333V98.1334H82V98.4H81.8666V98.5334H81.7333V98.6667H81.6V98.8H81.4666V98.9334H81.3333V99.2H81.2V99.3334H81.0666V99.4667H80.9333V99.6H80.8V99.7334H80.6666V100H80.5333V100.133H80.4V100.267H80.2666V100.4H80.1333V100.533H80V100.8H79.8666V100.933H79.7333V101.067H79.6V101.2H79.4666V101.333H79.3333V101.6H79.2V101.733H79.0666V101.867H78.9333V102H78.8V102.133H78.6666V102.4H78.5333V102.533H78.4V102.667H78.2666V102.8H78.1333V102.933H78V103.2H77.8666V103.333H77.7333V103.467H77.6V103.6H77.4666V103.733H77.3333V104H77.2V104.133H77.0666V104.267H76.9333V104.4H76.8V104.533H76.6666V104.667H76.5333V104.933H76.4V105.067H76.2666V105.2H76.1333V105.333H76V105.467H75.8666V105.733H75.7333V105.867H75.6V106H75.4666V106.133H75.3333V106.267H75.2V106.533H75.0666V106.667H74.9333V106.8H74.8V106.933H74.6666V107.067H74.5333V107.333H74.4V107.467H74.2666V107.6H74.1333V107.733H74V107.867H73.8666V108.133H73.7333V108.267H73.6V108.4H73.4666V108.533H73.3333V108.667H73.2V108.933H73.0666V109.067H72.9333V109.2H72.8V109.333H72.6666V109.467H72.5333V109.733H72.4V109.867H72.2666V110H72.1333V110.133H72V110.267H71.8666V110.533H71.7333V110.667H71.6V110.8H71.4666V110.933H71.3333V111.067H71.2V111.333H71.0666V111.467H70.9333V111.6H70.8V111.733H70.6666V111.867H70.5333V112.133H70.4V112.267H70.2666V112.4H70.1333V112.533H70V112.667H69.8666V112.933H69.7333V113.067H69.6V113.2H69.4666V113.333H69.3333V113.467H69.2V113.733H69.0666V113.867H68.9333V114H68.8V114.133H68.6666V114.267H68.5333V114.533H68.4V114.667H68.2666V114.8H68.1333V114.933H68V115.067H67.8666V115.333H67.7333V115.467H67.6V115.6H67.4666V115.733H67.3333V115.867H67.2V116.133H67.0666V116.267H66.9333V116.4H66.8V116.533H66.6666V116.667H66.5333V116.933H66.4V117.067H66.2666V117.2H66.1333V117.333H66V117.467H65.8666V117.733H65.7333V117.867H65.6V118H65.4666V118.133H65.3333V118.267H65.2V118.533H65.0666V118.667H64.9333V118.8H64.8V118.933H64.6666V119.067H64.5333V119.333H64.4V119.467H64.2666V119.6H64.1333V119.733H64V119.867H63.8666V120.133H63.7333V120.267H63.6V120.4H63.4666V120.533H63.3333V120.667H63.2V120.933H63.0666V121.067H62.9333V121.2H62.8V121.333H62.6666V121.467H62.5333V121.733H62.4V121.867H62.2666V122H62.1333V122.133H62V122.267H61.8666V122.533H61.7333V122.667H61.6V122.8H61.4666V122.933H61.3333V123.067H61.2V123.333H61.0666V123.467H60.9333V123.6H60.8V123.733H60.6666V123.867H60.5333V124.133H60.4V124.267H60.2666V124.4H60.1333V124.533H60V124.667H59.8666V124.933H59.7333V125.067H59.6V125.2H59.4666V125.333H59.3333V125.467H59.2V125.733H59.0666V125.867H58.9333V126H58.8V126.133H58.6666V126.267H58.5333V126.533H58.4V126.667H58.2666V126.8H58.1333V126.933H58V127.067H57.8666V127.333H57.7333V127.467H57.6V127.6H57.4666V127.733H57.3333V127.867H57.2V128H57.0666V128.267H56.9333V128.4H56.8V128.533H56.6666V128.667H56.5333V128.8H56.4V129.067H56.2666V129.2H56.1333V129.333H56V129.467H55.8666V129.6H55.7333V129.867H55.6V130H55.4666V130.133H55.3333V130.267H55.2V130.4H55.0666V130.667H54.9333V130.8H54.8V130.933H54.6666V131.067H54.5333V131.2H54.4V131.467H54.2666V131.6H54.1333V131.733H54V131.867H53.8666V132H53.7333V132.267H53.6V132.4H53.4666V132.533H53.3333V132.667H53.2V132.8H53.0666V133.067H52.9333V133.2H52.8V133.333H52.6666V133.467H52.5333V133.6H52.4V133.867H52.2666V134H52.1333V134.133H52V134.267H51.8666V134.4H51.7333V134.667H51.6V134.8H51.4666V134.933H51.3333V135.067H51.2V135.2H51.0666V135.467H50.9333V135.6H50.8V135.733H50.6666V135.867H50.5333V136H50.4V136.267H50.2666V136.4H50.1333V136.533H50V136.667H49.8666V136.8H49.7333V137.067H49.6V137.2H49.4666V137.333H49.3333V137.467H49.2V137.6H49.0666V137.867H48.9333V138H48.8V138.133H48.6666V138.267H48.5333V138.4H48.4V138.667H48.2666V138.8H48.1333V138.933H48V139.067H47.8666V139.2H47.7333V139.467H47.6V139.6H47.4666V139.733H47.3333V139.867H47.2V140H47.0666V140.267H46.9333V140.4H46.8V140.533H46.6666V140.667H46.5333V140.8H46.4V141.067H46.2666V141.2H46.1333V141.333H46V141.467H45.8666V141.6H45.7333V141.733H45.6V141.867H45.4666V142H45.3333V142.133H45.2V142.267H45.0666V142.4H44.8V142.533H44.6666V142.667H44.5333V142.8H44.4V142.933H44.1333V143.067H44V143.2H43.7333V143.333H43.6V143.467H43.3333V143.6H43.0666V143.733H42.9333V143.867H42.5333V144H42.2666V144.133H41.8666V144.267H41.4666V144.4H40.9333V144.533H39.4666V144.667" fill="url(#paint1_linear)"/>
<path d="M34 141.733V141.6H33.2V141.467H32.9333V141.333H32.5333V141.2H32.2667V141.067H32V140.933H31.8667V140.8H31.6V140.667H31.4667V140.533H31.3333V140.4H31.2V140.267H31.0667V140.133H30.9333V140H30.8V139.867H30.6667V139.733H30.5333V139.6H30.4V139.467H30.2667V139.2H30.1333V139.067H30V138.933H29.8667V138.8H29.7333V138.667H29.6V138.533H29.4667V138.4H29.3333V138.133H29.2V138H29.0667V137.867H28.9333V137.733H28.8V137.6H28.6667V137.467H28.5333V137.333H28.4V137.2H28.2667V136.933H28.1333V136.8H28V136.667H27.8667V136.533H27.7333V136.4H27.6V136.267H27.4667V136.133H27.3333V136H27.2V135.733H27.0667V135.6H26.9333V135.467H26.8V135.333H26.6667V135.2H26.5333V135.067H26.4V134.933H26.2667V134.8H26.1333V134.533H26V134.4H25.8667V134.267H25.7333V134.133H25.6V134H25.4667V133.867H25.3333V133.733H25.2V133.467H25.0667V133.333H24.9333V133.2H24.8V133.067H24.6667V132.933H24.5333V132.8H24.4V132.667H24.2667V132.533H24.1333V132.267H24V132.133H23.8667V132H23.7333V131.867H23.6V131.733H23.4667V131.6H23.3333V131.467H23.2V131.333H23.0667V131.067H22.9333V130.933H22.8V130.8H22.6667V130.667H22.5333V130.533H22.4V130.4H22.2667V130.267H22.1333V130.133H22V129.867H21.8667V129.733H21.7333V129.6H21.6V129.467H21.4667V129.333H21.3333V129.2H21.2V129.067H21.0667V128.933H20.9333V128.667H20.8V128.533H20.6667V128.4H20.5333V128.267H20.4V128.133H20.2667V128H20.1333V127.867H20V127.6H19.8667V127.467H19.7333V127.333H19.6V127.2H19.4667V127.067H19.3333V126.933H19.2V126.8H19.0667V126.667H18.9333V126.4H18.8V126.267H18.6667V126.133H18.5333V126H18.4V125.867H18.2667V125.733H18.1333V125.6H18V125.467H17.8667V125.2H17.7333V125.067H17.6V124.933H17.4667V124.8H17.3333V124.667H17.2V124.533H17.0667V124.4H16.9333V124.267H16.8V124H16.6667V123.867H16.5333V123.733H16.4V123.6H16.2667V123.467H16.1333V123.333H16V123.2H15.8667V122.933H15.7333V122.8H15.6V122.667H15.4667V122.533H15.3333V122.4H15.2V122.267H15.0667V122.133H14.9333V122H14.8V121.733H14.6667V121.6H14.5333V121.467H14.4V121.333H14.2667V121.2H14.1333V121.067H14V120.933H13.8667V120.8H13.7333V120.533H13.6V120.4H13.4667V120.267H13.3333V120.133H13.2V120H13.0667V119.867H12.9333V119.733H12.8V119.6H12.6667V119.333H12.5333V119.2H12.4V119.067H12.2667V118.933H12.1333V118.8H12V118.667H11.8667V118.533H11.7333V118.4H11.6V118.133H11.4667V118H11.3333V117.867H11.2V117.733H11.0667V117.6H10.9333V117.467H10.8V117.333H10.6667V117.067H10.5333V116.933H10.4V116.8H10.2667V116.667H10.1333V116.533H10V116.4H9.86667V116.267H9.73333V116.133H9.6V115.867H9.46667V115.733H9.33333V115.6H9.2V115.467H9.06667V115.333H8.93333V115.2H8.8V115.067H8.66667V114.933H8.53333V114.667H8.4V114.533H8.26667V114.4H8.13333V114.267H8V114.133H7.86667V114H7.73333V113.867H7.6V113.733H7.46667V113.467H7.33333V113.333H7.2V113.2H7.06667V113.067H6.93333V112.933H6.8V112.8H6.66667V112.667H6.53333V112.4H6.4V112.267H6.26667V112.133H6.13333V112H6V111.867H5.86667V111.733H5.73333V111.6H5.6V111.467H5.46667V111.2H5.33333V111.067H5.2V110.933H5.06667V110.8H4.93333V110.667H4.8V110.533H4.66667V110.4H4.53333V110.267H4.4V110H4.26667V109.867H4.13333V109.733H4V109.6H3.86667V109.467H3.73333V109.333H3.6V109.2H3.46667V109.067H3.33333V108.8H3.2V108.667H3.06667V108.533H2.93333V108.4H2.8V108.267H2.66667V108.133H2.53333V108H2.4V107.867H2.26667V107.6H2.13333V107.467H2V107.333H1.86667V107.2H1.73333V107.067H1.6V106.933H1.46667V106.8H1.33333V106.533H1.2V106.4H1.06667V106.133H0.933333V106H0.8V105.733H0.666667V105.467H0.533333V105.067H0.4V104.667H0.266667V104.267H0.133333V103.333H0V100.933H0.133333V100.267H0.266667V99.6H0.4V99.0667H0.533333V98.6667H0.666667V98.4H0.8V98H0.933333V97.6H1.06667V97.3333H1.2V97.0667H1.33333V96.8H1.46667V96.5333H1.6V96.4H1.73333V96.1333H1.86667V95.8667H2V95.7333H2.13333V95.4667H2.26667V95.3333H2.4V95.0667H2.53333V94.9333H2.66667V94.8H2.8V94.5333H2.93333V94.4H3.06667V94.2667H3.2V94.1333H3.33333V94H3.46667V93.7333H3.6V93.6H3.73333V93.4667H3.86667V93.3333H4V93.2H4.13333V92.9333H4.26667V92.8H4.4V92.6667H4.53333V92.5333H4.66667V92.4H4.8V92.1333H4.93333V92H5.06667V91.8667H5.2V91.7333H5.33333V91.6H5.46667V91.3333H5.6V91.2H5.73333V91.0667H5.86667V90.9333H6V90.8H6.13333V90.5333H6.26667V90.4H6.4V90.2667H6.53333V90.1333H6.66667V90H6.8V89.7333H6.93333V89.6H7.06667V89.4667H7.2V89.3333H7.33333V89.2H7.46667V88.9333H7.6V88.8H7.73333V88.6667H7.86667V88.5333H8V88.4H8.13333V88.1333H8.26667V88H8.4V87.8667H8.53333V87.7333H8.66667V87.6H8.8V87.3333H8.93333V87.2H9.06667V87.0667H9.2V86.9333H9.33333V86.8H9.46667V86.5333H9.6V86.4H9.73333V86.2667H9.86667V86.1333H10V86H10.1333V85.7333H10.2667V85.6H10.4V85.4667H10.5333V85.3333H10.6667V85.2H10.8V85.0667H10.9333V84.8H11.0667V84.6667H11.2V84.5333H11.3333V84.4H11.4667V84.2667H11.6V84H11.7333V83.8667H11.8667V83.7333H12V83.6H12.1333V83.4667H12.2667V83.2H12.4V83.0667H12.5333V82.9333H12.6667V82.8H12.8V82.6667H12.9333V82.4H13.0667V82.2667H13.2V82.1333H13.3333V82H13.4667V81.8667H13.6V81.6H13.7333V81.4667H13.8667V81.3333H14V81.2H14.1333V81.0667H14.2667V80.8H14.4V80.6667H14.5333V80.5333H14.6667V80.4H14.8V80.2667H14.9333V80H15.0667V79.8667H15.2V79.7333H15.3333V79.6H15.4667V79.4667H15.6V79.2H15.7333V79.0667H15.8667V78.9333H16V78.8H16.1333V78.6667H16.2667V78.4H16.4V78.2667H16.5333V78.1333H16.6667V78H16.8V77.8667H16.9333V77.6H17.0667V77.4667H17.2V77.3333H17.3333V77.2H17.4667V77.0667H17.6V76.8H17.7333V76.6667H17.8667V76.5333H18V76.4H18.1333V76.2667H18.2667V76H18.4V75.8667H18.5333V75.7333H18.6667V75.6H18.8V75.4667H18.9333V75.2H19.0667V75.0667H19.2V74.9333H19.3333V74.8H19.4667V74.6667H19.6V74.4H19.7333V74.2667H19.8667V74.1333H20V74H20.1333V73.8667H20.2667V73.6H20.4V73.4667H20.5333V73.3333H20.6667V73.2H20.8V73.0667H20.9333V72.8H21.0667V72.6667H21.2V72.5333H21.3333V72.4H21.4667V72.2667H21.6V72H21.7333V71.8667H21.8667V71.7333H22V71.6H22.1333V71.4667H22.2667V71.2H22.4V71.0667H22.5333V70.9333H22.6667V70.8H22.8V70.6667H22.9333V70.4H23.0667V70.2667H23.2V70.1333H23.3333V70H23.4667V69.8667H23.6V69.6H23.7333V69.4667H23.8667V69.3333H24V69.2H24.1333V69.0667H24.2667V68.8H24.4V68.6667H24.5333V68.5333H24.6667V68.4H24.8V68.2667H24.9333V68H25.0667V67.8667H25.2V67.7333H25.3333V67.6H25.4667V67.4667H25.6V67.2H25.7333V67.0667H25.8667V66.9333H26V66.8H26.1333V66.6667H26.2667V66.4H26.4V66.2667H26.5333V66.1333H26.6667V66H26.8V65.8667H26.9333V65.6H27.0667V65.4667H27.2V65.3333H27.3333V65.2H27.4667V65.0667H27.6V64.8H27.7333V64.6667H27.8667V64.5333H28V64.4H28.1333V64.2667H28.2667V64H28.4V63.8667H28.5333V63.7333H28.6667V63.6H28.8V63.4667H28.9333V63.2H29.0667V63.0667H29.2V62.9333H29.3333V62.8H29.4667V62.6667H29.6V62.4H29.7333V62.2667H29.8667V62.1333H30V62H30.1333V61.8667H30.2667V61.7333H30.4V61.4667H30.5333V61.3333H30.6667V61.2H30.8V61.0667H30.9333V60.9333H31.0667V60.6667H31.2V60.5333H31.3333V60.4H31.4667V60.2667H31.6V60.1333H31.7333V59.8667H31.8667V59.7333H32V59.6H32.1333V59.4667H32.2667V59.3333H32.4V59.0667H32.5333V58.9333H32.6667V58.8H32.8V58.6667H32.9333V58.5333H33.0667V58.2667H33.2V58.1333H33.3333V58H33.4667V57.8667H33.6V57.7333H33.7333V57.4667H33.8667V57.3333H34V57.2H34.1333V57.0667H34.2667V56.9333H34.4V56.6667H34.5333V56.5333H34.6667V56.4H34.8V56.2667H34.9333V56.1333H35.0667V55.8667H35.2V55.7333H35.3333V55.6H35.4667V55.4667H35.6V55.3333H35.7333V55.0667H35.8667V54.9333H36V54.8H36.1333V54.6667H36.2667V54.5333H36.4V54.2667H36.5333V54.1333H36.6667V54H36.8V53.8667H36.9333V53.7333H37.0667V53.4667H37.2V53.3333H37.3333V53.2H37.4667V53.0667H37.6V52.9333H37.7333V52.6667H37.8667V52.5333H38V52.4H38.1333V52.2667H38.2667V52.1333H38.4V51.8667H38.5333V51.7333H38.6667V51.6H38.8V51.4667H38.9333V51.3333H39.0667V51.0667H39.2V50.9333H39.3333V50.8H39.4667V50.6667H39.6V50.5333H39.7333V50.2667H39.8667V50.1333H40V50H40.1333V49.8667H40.2667V49.7333H40.4V49.4667H40.5333V49.3333H40.6667V49.2H40.8V49.0667H40.9333V48.9333H41.0667V48.6667H41.2V48.5333H41.3333V48.4H41.4667V48.2667H41.6V48.1333H41.7333V47.8667H41.8667V47.7333H42V47.6H42.1333V47.4667H42.2667V47.3333H42.4V47.0667H42.5333V46.9333H42.6667V46.8H42.8V46.6667H42.9333V46.5333H43.0667V46.2667H43.2V46.1333H43.3333V46H43.4667V45.8667H43.6V45.7333H43.7333V45.4667H43.8667V45.3333H44V45.2H44.1333V45.0667H44.2667V44.9333H44.4V44.6667H44.5333V44.5333H44.6667V44.4H44.8V44.2667H44.9333V44.1333H45.0667V43.8667H45.2V43.7333H45.3333V43.6H45.4667V43.4667H45.6V43.3333H45.7333V43.0667H45.8667V42.9333H46V42.8H46.1333V42.6667H46.2667V42.5333H46.4V42.2667H46.5333V42.1333H46.6667V42H46.8V41.8667H46.9333V41.7333H47.0667V41.4667H47.2V41.3333H47.3333V41.2H47.4667V41.0667H47.6V40.9333H47.7333V40.6667H47.8667V40.5333H48V40.4H48.1333V40.2667H48.2667V40.1333H48.4V39.8667H48.5333V39.7333H48.6667V39.6H48.8V39.4667H48.9333V39.3333H49.0667V39.0667H49.2V38.9333H49.3333V38.8H49.4667V38.6667H49.6V38.5333H49.7333V38.4H49.8667V38.1333H50V38H50.1333V37.8667H50.2667V37.7333H50.4V37.6H50.5333V37.3333H50.6667V37.2H50.8V37.0667H50.9333V36.9333H51.0667V36.8H51.2V36.5333H51.3333V36.4H51.4667V36.2667H51.6V36.1333H51.7333V36H51.8667V35.7333H52V35.6H52.1333V35.4667H52.2667V35.3333H52.4V35.2H52.5333V34.9333H52.6667V34.8H52.8V34.6667H52.9333V34.5333H53.0667V34.4H53.2V34.1333H53.3333V34H53.4667V33.8667H53.6V33.7333H53.7333V33.6H53.8667V33.3333H54V33.2H54.1333V33.0667H54.2667V32.9333H54.4V32.8H54.5333V32.5333H54.6667V32.4H54.8V32.2667H54.9333V32.1333H55.0667V32H55.2V31.7333H55.3333V31.6H55.4667V31.4667H55.6V31.3333H55.7333V31.2H55.8667V30.9333H56V30.8H56.1333V30.6667H56.2667V30.5333H56.4V30.4H56.5333V30.1333H56.6667V30H56.8V29.8667H56.9333V29.7333H57.0667V29.6H57.2V29.3333H57.3333V29.2H57.4667V29.0667H57.6V28.9333H57.7333V28.8H57.8667V28.5333H58V28.4H58.1333V28.2667H58.2667V28.1333H58.4V28H58.5333V27.7333H58.6667V27.6H58.8V27.4667H58.9333V27.3333H59.0667V27.2H59.2V26.9333H59.3333V26.8H59.4667V26.6667H59.6V26.5333H59.7333V26.4H59.8667V26.1333H60V26H60.1333V25.8667H60.2667V25.7333H60.4V25.6H60.5333V25.3333H60.6667V25.2H60.8V25.0667H60.9333V24.9333H61.0667V24.8H61.2V24.5333H61.3333V24.4H61.4667V24.2667H61.6V24.1333H61.7333V24H61.8667V23.7333H62V23.6H62.1333V23.4667H62.2667V23.3333H62.4V23.2H62.5333V22.9333H62.6667V22.8H62.8V22.6667H62.9333V22.5333H63.0667V22.4H63.2V22.1333H63.3333V22H63.4667V21.8667H63.6V21.7333H63.7333V21.6H63.8667V21.3333H64V21.2H64.1333V21.0667H64.2667V20.9333H64.4V20.8H64.5333V20.5333H64.6667V20.4H64.8V20.2667H64.9333V20.1333H65.0667V20H65.2V19.7333H65.3333V19.6H65.4667V19.4667H65.6V19.3333H65.7333V19.2H65.8667V18.9333H66V18.8H66.1333V18.6667H66.2667V18.5333H66.4V18.4H66.5333V18.1333H66.6667V18H66.8V17.8667H66.9333V17.7333H67.0667V17.6H67.2V17.3333H67.3333V17.2H67.4667V17.0667H67.6V16.9333H67.7333V16.8H67.8667V16.5333H68V16.4H68.1333V16.2667H68.2667V16.1333H68.4V16H68.5333V15.7333H68.6667V15.6H68.8V15.4667H68.9333V15.3333H69.0667V15.2H69.2V15.0667H69.3333V14.8H69.4667V14.6667H69.6V14.5333H69.7333V14.4H69.8667V14.2667H70V14H70.1333V13.8667H70.2667V13.7333H70.4V13.6H70.5333V13.4667H70.6667V13.2H70.8V13.0667H70.9333V12.9333H71.0667V12.8H71.2V12.6667H71.3333V12.4H71.4667V12.2667H71.6V12.1333H71.7333V12H71.8667V11.8667H72V11.6H72.1333V11.4667H72.2667V11.3333H72.4V11.2H72.5333V11.0667H72.6667V10.8H72.8V10.6667H72.9333V10.5333H73.0667V10.4H73.2V10.2667H73.3333V10H73.4667V9.86667H73.6V9.73334H73.7333V9.59999H73.8667V9.46666H74V9.2H74.1333V9.06667H74.2667V8.93333H74.4V8.8H74.5333V8.66666H74.6667V8.39999H74.8V8.26666H74.9333V8.13333H75.0667V8H75.2V7.86667H75.3333V7.59999H75.4667V7.46666H75.6V7.33333H75.7333V7.2H75.8667V7.06667H76V6.8H76.1333V6.66666H76.2667V6.53333H76.4V6.39999H76.5333V6.26666H76.6667V6H76.8V5.86667H76.9333V5.73334H77.0667V5.59999H77.2V5.46666H77.3333V5.2H77.4667V5.06667H77.6V4.93333H77.7333V4.8H77.8667V4.66666H78V4.39999H78.1333V4.26666H78.2667V4.13333H78.4V4H78.5333V3.86667H78.6667V3.59999H78.8V3.46666H78.9333V3.33333H79.0667V3.2H79.2V3.06667H79.3333V2.8H79.4667V2.66666H79.6V2.53333H79.7333V2.39999H79.8667V2.26666H80V2H80.1333V1.86667H80.2667V1.73334H80.4V1.59999H80.5333V1.46666H80.6667V1.2H80.8V1.06667H80.9333V0.933334H81.0667V0.800003H81.2V0.666656H81.3333V0.399994H81.4667V0.266663H81.6V0.133331H81.7333V0H113.733V0.666656H113.6V2.13333H113.467V2.39999H113.6V3.33333H113.733V3.73334H113.867V4.13333H114V4.53333H114.133V4.66666H114.267V4.93333H114.4V5.2H114.533V5.33333H114.667V5.46666H114.8V5.59999H114.933V5.73334H115.067V5.86667H115.2V6H115.467V6.13333H115.6V6.26666H115.867V6.39999H116.267V6.53333H116.667V6.66666H118.533V6.53333H119.067V6.39999H119.467V6.26666H119.733V6.13333H120V6H120.267V5.86667H120.533V5.73334H120.8V5.59999H120.933V5.46666H121.067V5.33333H121.333V5.2H121.467V5.06667H121.6V4.93333H121.733V4.8H121.867V4.66666H122V4.53333H122.267V4.39999H122.4V4.26666H122.533V4H122.667V3.86667H122.8V3.73334H122.933V3.59999H123.067V3.33333H123.2V3.2H123.333V2.93333H123.467V2.8H123.6V2.53333H123.733V2.26666H123.867V2.13333H124V1.86667H124.133V1.59999H124.267V1.33333H124.4V0.933334H124.533V0.533325H124.667V0.133331H124.8V0H135.867V1.06667H135.733V2.93333H135.6V4.8H135.467V6.66666H135.333V8.53333H135.2V10.4H135.067V12.2667H134.933V14.2667H134.8V16.1333H134.667V18H134.533V19.6H134.4V20.4H134.267V21.0667H134.133V21.7333H134V22.2667H133.867V22.8H133.733V23.2H133.6V23.6H133.467V24.1333H133.333V24.5333H133.2V24.9333H133.067V25.2H132.933V25.6H132.8V26H132.667V26.2667H132.533V26.6667H132.4V26.9333H132.267V27.3333H132.133V27.6H132V27.8667H131.867V28.1333H131.733V28.4H131.6V28.8H131.467V29.0667H131.333V29.3333H131.2V29.4667H131.067V29.7333H130.933V30H130.8V30.2667H130.667V30.5333H130.533V30.8H130.4V31.0667H130.267V31.2H130.133V31.4667H130V31.6H129.867V31.8667H129.733V32.1333H129.6V32.2667H129.467V32.5333H129.333V32.6667H129.2V32.9333H129.067V33.0667H128.933V33.3333H128.8V33.4667H128.667V33.6H128.533V33.8667H128.4V34H128.267V34.1333H128.133V34.4H128V34.5333H127.867V34.6667H127.733V34.8H127.6V34.9333H127.467V35.2H127.333V35.3333H127.2V35.4667H127.067V35.6H126.933V35.7333H126.8V36H126.667V36.1333H126.533V36.2667H126.4V36.4H126.267V36.5333H126.133V36.8H126V36.9333H125.867V37.0667H125.733V37.2H125.6V37.3333H125.467V37.4667H125.333V37.7333H125.2V37.8667H125.067V38H124.933V38.1333H124.8V38.2667H124.667V38.5333H124.533V38.6667H124.4V38.8H124.267V38.9333H124.133V39.0667H124V39.3333H123.867V39.4667H123.733V39.6H123.6V39.7333H123.467V39.8667H123.333V40.1333H123.2V40.2667H123.067V40.4H122.933V40.5333H122.8V40.6667H122.667V40.9333H122.533V41.0667H122.4V41.2H122.267V41.3333H122.133V41.4667H122V41.7333H121.867V41.8667H121.733V42H121.6V42.1333H121.467V42.2667H121.333V42.5333H121.2V42.6667H121.067V42.8H120.933V42.9333H120.8V43.0667H120.667V43.3333H120.533V43.4667H120.4V43.6H120.267V43.7333H120.133V43.8667H120V44.1333H119.867V44.2667H119.733V44.4H119.6V44.5333H119.467V44.6667H119.333V44.9333H119.2V45.0667H119.067V45.2H118.933V45.3333H118.8V45.4667H118.667V45.7333H118.533V45.8667H118.4V46H118.267V46.1333H118.133V46.2667H118V46.5333H117.867V46.6667H117.733V46.8H117.6V46.9333H117.467V47.0667H117.333V47.3333H117.2V47.4667H117.067V47.6H116.933V47.7333H116.8V47.8667H116.667V48.1333H116.533V48.2667H116.4V48.4H116.267V48.5333H116.133V48.6667H116V48.9333H115.867V49.0667H115.733V49.2H115.6V49.3333H115.467V49.4667H115.333V49.7333H115.2V49.8667H115.067V50H114.933V50.1333H114.8V50.2667H114.667V50.5333H114.533V50.6667H114.4V50.8H114.267V50.9333H114.133V51.0667H114V51.3333H113.867V51.4667H113.733V51.6H113.6V51.7333H113.467V51.8667H113.333V52.1333H113.2V52.2667H113.067V52.4H112.933V52.5333H112.8V52.6667H112.667V52.9333H112.533V53.0667H112.4V53.2H112.267V53.3333H112.133V53.4667H112V53.7333H111.867V53.8667H111.733V54H111.6V54.1333H111.467V54.2667H111.333V54.5333H111.2V54.6667H111.067V54.8H110.933V54.9333H110.8V55.0667H110.667V55.3333H110.533V55.4667H110.4V55.6H110.267V55.7333H110.133V55.8667H110V56.1333H109.867V56.2667H109.733V56.4H109.6V56.5333H109.467V56.6667H109.333V56.9333H109.2V57.0667H109.067V57.2H108.933V57.3333H108.8V57.4667H108.667V57.7333H108.533V57.8667H108.4V58H108.267V58.1333H108.133V58.2667H108V58.5333H107.867V58.6667H107.733V58.8H107.6V58.9333H107.467V59.0667H107.333V59.3333H107.2V59.4667H107.067V59.6H106.933V59.7333H106.8V59.8667H106.667V60.1333H106.533V60.2667H106.4V60.4H106.267V60.5333H106.133V60.6667H106V60.8H105.867V61.0667H105.733V61.2H105.6V61.3333H105.467V61.4667H105.333V61.6H105.2V61.8667H105.067V62H104.933V62.1333H104.8V62.2667H104.667V62.4H104.533V62.6667H104.4V62.8H104.267V62.9333H104.133V63.0667H104V63.2H103.867V63.4667H103.733V63.6H103.6V63.7333H103.467V63.8667H103.333V64H103.2V64.2667H103.067V64.4H102.933V64.5333H102.8V64.6667H102.667V64.8H102.533V65.0667H102.4V65.2H102.267V65.3333H102.133V65.4667H102V65.6H101.867V65.8667H101.733V66H101.6V66.1333H101.467V66.2667H101.333V66.4H101.2V66.6667H101.067V66.8H100.933V66.9333H100.8V67.0667H100.667V67.2H100.533V67.4667H100.4V67.6H100.267V67.7333H100.133V67.8667H100V68H99.8667V68.2667H99.7333V68.4H99.6V68.5333H99.4667V68.6667H99.3333V68.8H99.2V69.0667H99.0667V69.2H98.9333V69.3333H98.8V69.4667H98.6667V69.6H98.5333V69.8667H98.4V70H98.2667V70.1333H98.1333V70.2667H98V70.4H97.8667V70.6667H97.7333V70.8H97.6V70.9333H97.4667V71.0667H97.3333V71.2H97.2V71.4667H97.0667V71.6H96.9333V71.7333H96.8V71.8667H96.6667V72H96.5333V72.2667H96.4V72.4H96.2667V72.5333H96.1333V72.6667H96V72.8H95.8667V73.0667H95.7333V73.2H95.6V73.3333H95.4667V73.4667H95.3333V73.6H95.2V73.8667H95.0667V74H94.9333V74.1333H94.8V74.2667H94.6667V74.4H94.5333V74.6667H94.4V74.8H94.2667V74.9333H94.1333V75.0667H94V75.2H93.8667V75.4667H93.7333V75.6H93.6V75.7333H93.4667V75.8667H93.3333V76H93.2V76.2667H93.0667V76.4H92.9333V76.5333H92.8V76.6667H92.6667V76.8H92.5333V77.0667H92.4V77.2H92.2667V77.3333H92.1333V77.4667H92V77.6H91.8667V77.8667H91.7333V78H91.6V78.1333H91.4667V78.2667H91.3333V78.4H91.2V78.6667H91.0667V78.8H90.9333V78.9333H90.8V79.0667H90.6667V79.2H90.5333V79.4667H90.4V79.6H90.2667V79.7333H90.1333V79.8667H90V80H89.8667V80.2667H89.7333V80.4H89.6V80.5333H89.4667V80.6667H89.3333V80.8H89.2V81.0667H89.0667V81.2H88.9333V81.3333H88.8V81.4667H88.6667V81.6H88.5333V81.8667H88.4V82H88.2667V82.1333H88.1333V82.2667H88V82.4H87.8667V82.6667H87.7333V82.8H87.6V82.9333H87.4667V83.0667H87.3333V83.2H87.2V83.4667H87.0667V83.6H86.9333V83.7333H86.8V83.8667H86.6667V84H86.5333V84.2667H86.4V84.4H86.2667V84.5333H86.1333V84.6667H86V84.8H85.8667V84.9333H85.7333V85.2H85.6V85.3333H85.4667V85.4667H85.3333V85.6H85.2V85.7333H85.0667V86H84.9333V86.1333H84.8V86.2667H84.6667V86.4H84.5333V86.5333H84.4V86.8H84.2667V86.9333H84.1333V87.0667H84V87.2H83.8667V87.3333H83.7333V87.6H83.6V87.7333H83.4667V87.8667H83.3333V88H83.2V88.1333H83.0667V88.4H82.9333V88.5333H82.8V88.6667H82.6667V88.8H82.5333V88.9333H82.4V89.2H82.2667V89.3333H82.1333V89.4667H82V89.6H81.8667V89.7333H81.7333V90H81.6V90.1333H81.4667V90.2667H81.3333V90.4H81.2V90.5333H81.0667V90.8H80.9333V90.9333H80.8V91.0667H80.6667V91.2H80.5333V91.3333H80.4V91.6H80.2667V91.7333H80.1333V91.8667H80V92H79.8667V92.1333H79.7333V92.4H79.6V92.5333H79.4667V92.6667H79.3333V92.8H79.2V92.9333H79.0667V93.2H78.9333V93.3333H78.8V93.4667H78.6667V93.6H78.5333V93.7333H78.4V94H78.2667V94.1333H78.1333V94.2667H78V94.4H77.8667V94.5333H77.7333V94.8H77.6V94.9333H77.4667V95.0667H77.3333V95.2H77.2V95.3333H77.0667V95.6H76.9333V95.7333H76.8V95.8667H76.6667V96H76.5333V96.1333H76.4V96.4H76.2667V96.5333H76.1333V96.6667H76V96.8H75.8667V96.9333H75.7333V97.2H75.6V97.3333H75.4667V97.4667H75.3333V97.6H75.2V97.7333H75.0667V98H74.9333V98.1333H74.8V98.2667H74.6667V98.4H74.5333V98.5333H74.4V98.8H74.2667V98.9333H74.1333V99.0667H74V99.2H73.8667V99.3333H73.7333V99.6H73.6V99.7333H73.4667V99.8667H73.3333V100H73.2V100.133H73.0667V100.4H72.9333V100.533H72.8V100.667H72.6667V100.8H72.5333V100.933H72.4V101.2H72.2667V101.333H72.1333V101.467H72V101.6H71.8667V101.733H71.7333V102H71.6V102.133H71.4667V102.267H71.3333V102.4H71.2V102.533H71.0667V102.8H70.9333V102.933H70.8V103.067H70.6667V103.2H70.5333V103.333H70.4V103.6H70.2667V103.733H70.1333V103.867H70V104H69.8667V104.133H69.7333V104.4H69.6V104.533H69.4667V104.667H69.3333V104.8H69.2V104.933H69.0667V105.2H68.9333V105.333H68.8V105.467H68.6667V105.6H68.5333V105.733H68.4V106H68.2667V106.133H68.1333V106.267H68V106.4H67.8667V106.533H67.7333V106.8H67.6V106.933H67.4667V107.067H67.3333V107.2H67.2V107.333H67.0667V107.6H66.9333V107.733H66.8V107.867H66.6667V108H66.5333V108.133H66.4V108.267H66.2667V108.533H66.1333V108.667H66V108.8H65.8667V108.933H65.7333V109.067H65.6V109.333H65.4667V109.467H65.3333V109.6H65.2V109.733H65.0667V109.867H64.9333V110.133H64.8V110.267H64.6667V110.4H64.5333V110.533H64.4V110.667H64.2667V110.933H64.1333V111.067H64V111.2H63.8667V111.333H63.7333V111.467H63.6V111.733H63.4667V111.867H63.3333V112H63.2V112.133H63.0667V112.267H62.9333V112.533H62.8V112.667H62.6667V112.8H62.5333V112.933H62.4V113.067H62.2667V113.333H62.1333V113.467H62V113.6H61.8667V113.733H61.7333V113.867H61.6V114.133H61.4667V114.267H61.3333V114.4H61.2V114.533H61.0667V114.667H60.9333V114.933H60.8V115.067H60.6667V115.2H60.5333V115.333H60.4V115.467H60.2667V115.733H60.1333V115.867H60V116H59.8667V116.133H59.7333V116.267H59.6V116.533H59.4667V116.667H59.3333V116.8H59.2V116.933H59.0667V117.067H58.9333V117.333H58.8V117.467H58.6667V117.6H58.5333V117.733H58.4V117.867H58.2667V118.133H58.1333V118.267H58V118.4H57.8667V118.533H57.7333V118.667H57.6V118.933H57.4667V119.067H57.3333V119.2H57.2V119.333H57.0667V119.467H56.9333V119.733H56.8V119.867H56.6667V120H56.5333V120.133H56.4V120.267H56.2667V120.533H56.1333V120.667H56V120.8H55.8667V120.933H55.7333V121.067H55.6V121.333H55.4667V121.467H55.3333V121.6H55.2V121.733H55.0667V121.867H54.9333V122.133H54.8V122.267H54.6667V122.4H54.5333V122.533H54.4V122.667H54.2667V122.933H54.1333V123.067H54V123.2H53.8667V123.333H53.7333V123.467H53.6V123.733H53.4667V123.867H53.3333V124H53.2V124.133H53.0667V124.267H52.9333V124.533H52.8V124.667H52.6667V124.8H52.5333V124.933H52.4V125.067H52.2667V125.333H52.1333V125.467H52V125.6H51.8667V125.733H51.7333V125.867H51.6V126.133H51.4667V126.267H51.3333V126.4H51.2V126.533H51.0667V126.667H50.9333V126.933H50.8V127.067H50.6667V127.2H50.5333V127.333H50.4V127.467H50.2667V127.733H50.1333V127.867H50V128H49.8667V128.133H49.7333V128.267H49.6V128.533H49.4667V128.667H49.3333V128.8H49.2V128.933H49.0667V129.067H48.9333V129.333H48.8V129.467H48.6667V129.6H48.5333V129.733H48.4V129.867H48.2667V130.133H48.1333V130.267H48V130.4H47.8667V130.533H47.7333V130.667H47.6V130.933H47.4667V131.067H47.3333V131.2H47.2V131.333H47.0667V131.467H46.9333V131.6H46.8V131.867H46.6667V132H46.5333V132.133H46.4V132.267H46.2667V132.4H46.1333V132.667H46V132.8H45.8667V132.933H45.7333V133.067H45.6V133.2H45.4667V133.467H45.3333V133.6H45.2V133.733H45.0667V133.867H44.9333V134H44.8V134.267H44.6667V134.4H44.5333V134.533H44.4V134.667H44.2667V134.8H44.1333V135.067H44V135.2H43.8667V135.333H43.7333V135.467H43.6V135.6H43.4667V135.867H43.3333V136H43.2V136.133H43.0667V136.267H42.9333V136.4H42.8V136.667H42.6667V136.8H42.5333V136.933H42.4V137.067H42.2667V137.2H42.1333V137.467H42V137.6H41.8667V137.733H41.7333V137.867H41.6V138H41.4667V138.267H41.3333V138.4H41.2V138.533H41.0667V138.667H40.9333V138.8H40.8V138.933H40.6667V139.067H40.5333V139.2H40.4V139.333H40.2667V139.467H40.1333V139.6H39.8667V139.733H39.7333V139.867H39.6V140H39.3333V140.133H39.2V140.267H39.0667V140.4H38.8V140.533H38.5333V140.667H38.2667V140.8H38V140.933H37.7333V141.067H37.6V141.2H37.2V141.333H36.6667V141.467H36.2667V141.6H35.4667V141.733" fill="url(#paint2_linear)"/>
<path d="M80.6533 25.8213C79.3546 24.3546 77.76 23.4813 75.8493 23.2079C73.9493 22.9253 71.9906 23.2412 69.9613 24.1612C67.9399 25.0732 66.1066 26.5133 64.4639 28.4826C62.8293 30.4439 61.6333 32.6319 60.8919 35.0333C60.1493 37.4359 59.9226 39.7346 60.2226 41.9386C60.5226 44.1426 61.316 45.9786 62.616 47.4452C63.9133 48.9092 65.5213 49.7826 67.4186 50.0599C69.3199 50.3399 71.2853 50.0053 73.316 49.0573C75.3426 48.1039 77.1773 46.6372 78.8133 44.6759C80.4559 42.7079 81.6386 40.5332 82.3626 38.1559C83.0919 35.7692 83.3093 33.4919 83.0253 31.3039C82.7479 29.1106 81.9519 27.2879 80.6533 25.8213ZM68.3413 40.5786C67.6079 39.7479 67.3199 38.6759 67.4626 37.3452C67.6146 36.0212 68.1533 34.7946 69.0759 33.6879C70.0079 32.5733 71.0373 31.9292 72.1679 31.7559C73.3079 31.5799 74.2199 31.8933 74.9239 32.6879C75.6306 33.4839 75.9079 34.5453 75.7639 35.8746C75.6146 37.1986 75.0933 38.4026 74.2013 39.4706C73.2786 40.5786 72.2399 41.2426 71.1079 41.4573C69.9679 41.6639 69.0493 41.3746 68.3413 40.5786ZM98.6426 47.1226L94.4039 42.3426C94.0399 41.9292 93.6146 41.8493 93.1133 42.1213L41.312 67.3706C41.1413 67.4319 40.9759 67.5719 40.7946 67.7879C40.4426 68.2119 40.4466 68.6319 40.8106 69.0439L45.0493 73.8252C45.412 74.2386 45.8453 74.3093 46.3399 74.0466L98.1013 48.7519C98.3666 48.6333 98.5679 48.4879 98.7093 48.3186C98.8493 48.1493 98.9226 47.9453 98.9146 47.7293C98.896 47.5146 98.8093 47.3119 98.6426 47.1226ZM77.3466 69.2959C76.048 67.8306 74.4466 66.9626 72.5439 66.6812C70.6399 66.3999 68.672 66.7159 66.6493 67.6279C64.628 68.5412 62.7999 69.9879 61.1586 71.9559C59.5133 73.9252 58.3213 76.0999 57.5786 78.5026C56.8373 80.9039 56.6173 83.2079 56.9173 85.4133C57.2146 87.6159 58.0066 89.4519 59.3079 90.9186C60.6079 92.3853 62.2093 93.252 64.1106 93.532C66.0133 93.8146 67.9773 93.4772 70.0053 92.5252C72.0306 91.5719 73.8639 90.1186 75.5053 88.1493C77.1479 86.1813 78.3319 84.0079 79.0559 81.6306C79.7799 79.2506 80.0013 76.9639 79.7173 74.7786C79.4333 72.5919 78.6453 70.7613 77.3466 69.2959ZM65.0359 84.0519C64.2999 83.2213 64.0079 82.1439 64.1573 80.8199C64.3053 79.4946 64.8439 78.2692 65.7706 77.1612C66.6999 76.0466 67.7293 75.4026 68.8599 75.2293C69.9879 75.0559 70.9119 75.3666 71.6173 76.1626C72.3226 76.9586 72.5999 78.0186 72.4559 79.3479C72.3066 80.6732 71.7866 81.8759 70.8946 82.9452C69.9693 84.0519 68.9333 84.7186 67.7986 84.9306C66.6599 85.1386 65.7399 84.8479 65.0359 84.0519Z" fill="url(#paint3_linear)"/>
<defs>
<linearGradient id="paint0_linear" x1="163.22" y1="-38.1387" x2="118.777" y2="1.85969" gradientUnits="userSpaceOnUse">
<stop stop-color="#94D562"/>
<stop offset="1" stop-color="#37A643"/>
</linearGradient>
<linearGradient id="paint1_linear" x1="151.676" y1="-36.6333" x2="91.2318" y2="73.5897" gradientUnits="userSpaceOnUse">
<stop stop-color="#94D562"/>
<stop offset="1" stop-color="#37A643"/>
</linearGradient>
<linearGradient id="paint2_linear" x1="114.32" y1="23.2973" x2="-50.568" y2="161.964" gradientUnits="userSpaceOnUse">
<stop stop-color="#94D562"/>
<stop offset="1" stop-color="#37A643"/>
</linearGradient>
<linearGradient id="paint3_linear" x1="40.5333" y1="58.3679" x2="98.9148" y2="58.3679" gradientUnits="userSpaceOnUse">
<stop stop-color="#CDE984"/>
<stop offset="1" stop-color="white"/>
</linearGradient>
</defs>
</svg>
