<svg width="97" height="97" viewBox="0 0 97 97" fill="none" xmlns="http://www.w3.org/2000/svg">
<path opacity="0.4" d="M81.0984 32.6622C89.8095 50.7025 82.2481 72.3849 64.2066 81.0966C46.1699 89.8059 24.4827 82.2468 15.7716 64.2065C7.06286 46.1711 14.6268 24.4815 32.6635 15.7722C50.7049 7.0605 72.3897 14.6267 81.0984 32.6622Z" fill="url(#paint0_radial)"/>
<path d="M31.7848 48.4797C32.5854 50.1377 33.3008 51.268 33.9309 51.8705C34.5611 52.473 35.1512 52.6414 35.7014 52.3757C36.2515 52.1101 36.4828 51.5539 36.3954 50.7072C36.3223 49.8535 35.8786 48.5832 35.064 46.8963C34.2634 45.2382 33.548 44.108 32.9179 43.5055C32.3022 42.896 31.7193 42.7241 31.1692 42.9897C30.6045 43.2624 30.3657 43.84 30.4526 44.7225C30.5541 45.5981 30.9981 46.8505 31.7848 48.4797ZM41.5806 43.6429C43.1123 46.8148 43.5826 49.6191 42.9917 52.0558C42.3939 54.478 40.7702 56.3288 38.1208 57.6081C35.6306 58.8105 33.2228 58.8709 30.8973 57.7891C28.5793 56.686 26.6823 54.6061 25.2064 51.5495C23.6747 48.3776 23.2076 45.5985 23.8049 43.2121C24.3952 40.8112 25.9717 38.9921 28.5342 37.7548C31.0678 36.5314 33.5084 36.4463 35.8559 37.4997C38.2034 38.553 40.1117 40.6008 41.5806 43.6429ZM52.8589 26.5692L50.5143 66.6918L44.0645 69.8062L46.4091 29.6836L52.8589 26.5692ZM62.0114 49.4057C62.812 51.0638 63.5274 52.194 64.1575 52.7965C64.7876 53.399 65.3778 53.5674 65.9279 53.3018C66.5505 53.0012 66.7757 52.3768 66.6035 51.4287C66.4389 50.4592 66.0085 49.2536 65.3123 47.8118C64.6161 46.37 63.943 45.2905 63.2931 44.5731C62.6507 43.8343 62.0183 43.6152 61.3957 43.9158C60.8311 44.1884 60.5922 44.766 60.6792 45.6486C60.7806 46.5241 61.2247 47.7765 62.0114 49.4057ZM71.8072 44.5689C73.3318 47.7265 73.7915 50.527 73.1861 52.9707C72.5882 55.3929 70.9718 57.2402 68.3369 58.5125C65.8467 59.7149 63.4389 59.7753 61.1134 58.6935C58.7954 57.5904 56.9019 55.5177 55.4329 52.4756C53.9013 49.3037 53.4341 46.5245 54.0314 44.1381C54.6218 41.7373 56.1982 39.9182 58.7608 38.6808C61.2944 37.4574 63.7349 37.3724 66.0825 38.4257C68.43 39.479 70.3382 41.5268 71.8072 44.5689Z" fill="white"/>
<defs>
<radialGradient id="paint0_radial" cx="0" cy="0" r="1" gradientUnits="userSpaceOnUse" gradientTransform="translate(46.83 20.7945) rotate(87.1894) scale(67.303)">
<stop stop-color="#FFFEF7"/>
<stop offset="0.182796" stop-color="#FFB526"/>
<stop offset="1" stop-color="#E12020"/>
</radialGradient>
</defs>
</svg>
