<svg width="67" height="67" viewBox="0 0 67 67" fill="none" xmlns="http://www.w3.org/2000/svg">
<path opacity="0.4" d="M54.9369 45.3662C48.3832 57.2053 33.4754 61.4892 21.6355 54.935C9.79868 48.3825 5.51165 33.473 12.0654 21.6339C18.6175 9.79788 33.5301 5.5126 45.3669 12.0651C57.2068 18.6193 61.489 33.5302 54.9369 45.3662Z" fill="url(#paint0_radial)"/>
<path d="M26.9839 24.3339C26.3815 25.4221 26.037 26.2574 25.9504 26.8398C25.8638 27.4223 26.001 27.8135 26.3621 28.0134C26.7231 28.2132 27.1201 28.124 27.553 27.7455C27.9954 27.3724 28.523 26.6323 29.1359 25.5252C29.7382 24.4371 30.0827 23.6018 30.1693 23.0193C30.2654 22.4421 30.1329 22.0536 29.7719 21.8537C29.4013 21.6486 28.9896 21.7421 28.5367 22.1341C28.0934 22.5315 27.5757 23.2648 26.9839 24.3339ZM33.4713 27.851C32.319 29.9326 30.9557 31.2855 29.3813 31.9097C27.8121 32.5245 26.1582 32.3506 24.4195 31.3881C22.7853 30.4834 21.8131 29.1789 21.503 27.4744C21.2076 25.7657 21.6151 23.9084 22.7255 21.9025C23.8778 19.8209 25.2286 18.4795 26.7777 17.8785C28.3321 17.268 29.9502 17.4282 31.6319 18.3591C33.2946 19.2795 34.2932 20.5925 34.6275 22.298C34.9619 24.0036 34.5765 25.8546 33.4713 27.851ZM47.2864 27.4143L24.2417 41.7659L20.009 39.4228L43.0536 25.0712L47.2864 27.4143ZM38.2592 41.3671C37.6569 42.4552 37.3124 43.2905 37.2258 43.873C37.1392 44.4555 37.2764 44.8466 37.6374 45.0465C38.046 45.2727 38.4782 45.1534 38.934 44.6888C39.4045 44.22 39.9017 43.5124 40.4255 42.5663C40.9493 41.6201 41.2823 40.8279 41.4245 40.1897C41.5816 39.5473 41.4558 39.113 41.0472 38.8868C40.6767 38.6817 40.265 38.7752 39.8121 39.1673C39.3687 39.5646 38.8511 40.2979 38.2592 41.3671ZM44.7467 44.8842C43.5996 46.9563 42.2341 48.3019 40.6502 48.9208C39.0811 49.5355 37.4319 49.3643 35.7027 48.407C34.0685 47.5024 33.0963 46.1978 32.7862 44.4933C32.4908 42.7846 32.8957 40.9321 34.0009 38.9356C35.1532 36.854 36.5039 35.5127 38.0531 34.9116C39.6075 34.3011 41.2256 34.4613 42.9073 35.3922C44.57 36.3126 45.5685 37.6256 45.9029 39.3312C46.2372 41.0367 45.8518 42.8877 44.7467 44.8842Z" fill="white"/>
<defs>
<radialGradient id="paint0_radial" cx="0" cy="0" r="1" gradientUnits="userSpaceOnUse" gradientTransform="translate(48.1207 21.8372) rotate(141.931) scale(45.4617)">
<stop stop-color="white"/>
<stop offset="0.182796" stop-color="#FAD428"/>
<stop offset="0.865591" stop-color="#DE671B"/>
<stop offset="1" stop-color="#DE671B"/>
</radialGradient>
</defs>
</svg>
