<svg width="191" height="254" viewBox="0 0 191 254" fill="none" xmlns="http://www.w3.org/2000/svg">
<path d="M142.026 58.9551C144.761 54.8881 149.826 52.4865 153.333 53.6055C154.173 53.871 154.845 54.3126 155.346 54.8892L150.405 49.2211C149.904 48.6445 149.229 48.2032 148.391 47.9356C144.885 46.8183 139.82 49.2199 137.085 53.2869C135.007 56.3811 134.872 59.5529 136.469 61.3868L141.41 67.0562C139.811 65.2218 139.948 62.0493 142.026 58.9551Z" fill="url(#paint0_linear)"/>
<path d="M137.085 53.2869C134.35 57.3551 134.976 61.558 138.485 62.6763C141.993 63.7958 147.051 61.4026 149.785 57.3369C152.52 53.2687 151.9 49.055 148.391 47.9356C144.885 46.8183 139.82 49.2199 137.085 53.2869ZM74.5849 220.205C71.1219 225.356 64.6575 228.409 60.2291 226.995L7.18645 210.085C2.75507 208.672 1.9536 203.304 5.41734 198.154L97.6085 61.0104C101.069 55.8608 108.491 49.6936 114.107 47.3206L152.45 31.0514C158.061 28.6609 163.478 30.3873 164.464 34.8807L171.261 65.5406C172.262 70.0255 170.238 77.9131 166.775 83.0635L74.5849 220.205Z" fill="url(#paint1_linear)"/>
<path d="M95.5849 99.3239C93.3654 98.6178 90.9118 98.5618 88.2128 99.1815C85.5152 99.7903 82.9241 100.948 80.4152 102.67C77.9157 104.389 75.8314 106.481 74.1669 108.956C72.5095 111.423 71.5227 113.891 71.2245 116.341C70.9251 118.797 71.3077 120.926 72.3768 122.733C73.448 124.542 75.0853 125.808 77.308 126.516C79.5293 127.222 81.9947 127.269 84.6836 126.657C87.3773 126.051 89.9763 124.869 92.4774 123.12C94.9762 121.366 97.0512 119.25 98.7098 116.783C100.372 114.307 101.344 111.855 101.627 109.434C101.914 107 101.526 104.895 100.479 103.091C99.4457 101.285 97.8094 100.032 95.5849 99.3239ZM83.1121 117.879C81.8543 117.478 81.1373 116.664 80.938 115.425C80.7455 114.19 81.1178 112.864 82.0572 111.472C82.998 110.07 84.2204 109.037 85.7161 108.377C87.2296 107.709 88.5747 107.574 89.7806 107.958C90.9848 108.342 91.6872 109.154 91.8875 110.39C92.0812 111.625 91.7235 112.922 90.82 114.266C89.8851 115.66 88.6599 116.715 87.1674 117.41C85.6684 118.108 84.3204 118.264 83.1121 117.879ZM126.654 110.016L119.407 107.706C118.783 107.505 118.174 107.629 117.564 108.094L54.0426 153.676C53.8279 153.807 53.6447 154.007 53.4599 154.277C53.1009 154.808 53.2321 155.177 53.8583 155.378L61.1028 157.689C61.7299 157.887 62.3444 157.756 62.9443 157.301L126.399 111.695C126.727 111.473 126.958 111.254 127.105 111.041C127.248 110.826 127.281 110.618 127.207 110.427C127.12 110.248 126.939 110.108 126.654 110.016ZM104.071 139.158C101.848 138.449 99.393 138.404 96.6959 139.011C94.002 139.621 91.3922 140.783 88.8902 142.502C86.3906 144.214 84.3143 146.315 82.6498 148.79C80.987 151.264 80.0018 153.723 79.7024 156.173C79.4015 158.626 79.7905 160.76 80.8614 162.566C81.9321 164.377 83.5719 165.636 85.7929 166.345C88.0159 167.057 90.4735 167.099 93.1669 166.49C95.8641 165.882 98.4597 164.702 100.953 162.95C103.451 161.195 105.529 159.09 107.196 156.613C108.86 154.139 109.831 151.69 110.111 149.266C110.391 146.842 110.012 144.724 108.969 142.926C107.921 141.123 106.292 139.863 104.071 139.158ZM91.5967 157.713C90.3394 157.31 89.6125 156.492 89.4213 155.257C89.2294 154.022 89.6042 152.696 90.5406 151.305C91.4824 149.9 92.7062 148.871 94.2024 148.21C95.7004 147.548 97.0613 147.409 98.266 147.793C99.4731 148.177 100.171 148.987 100.373 150.224C100.564 151.461 100.209 152.755 99.3059 154.099C98.3719 155.492 97.145 156.547 95.6562 157.244C94.1535 157.94 92.8025 158.096 91.5967 157.713Z" fill="url(#paint2_linear)"/>
<path d="M79.5261 225.873L171.716 88.7299C175.178 83.5807 177.205 75.6947 176.201 71.21L169.403 40.5479C169.183 39.536 168.737 38.663 168.11 37.9468C166.462 36.0569 164.817 34.1697 163.17 32.2803C163.793 32.9951 164.242 33.8679 164.465 34.8807L171.261 65.5407C172.262 70.0255 170.238 77.9131 166.775 83.0635L74.585 220.205C71.122 225.356 64.6576 228.409 60.2291 226.995L7.18654 210.085C6.1327 209.749 5.28452 209.187 4.64652 208.46C6.29481 210.349 7.94186 212.239 9.58815 214.126C10.2232 214.855 11.0726 215.416 12.1282 215.752L65.1698 232.664C69.5999 234.077 76.0631 231.024 79.5261 225.873Z" fill="url(#paint3_linear)"/>
<defs>
<linearGradient id="paint0_linear" x1="143.702" y1="48.061" x2="147.097" y2="65.9792" gradientUnits="userSpaceOnUse">
<stop stop-color="#FAD428"/>
<stop offset="1" stop-color="#F36817"/>
</linearGradient>
<linearGradient id="paint1_linear" x1="215.982" y1="180.537" x2="58.9772" y2="108.966" gradientUnits="userSpaceOnUse">
<stop stop-color="#FAD428"/>
<stop offset="1" stop-color="#F36817"/>
</linearGradient>
<linearGradient id="paint2_linear" x1="158.608" y1="118.476" x2="61.3271" y2="139.043" gradientUnits="userSpaceOnUse">
<stop stop-color="white"/>
<stop offset="0.204301" stop-color="white"/>
<stop offset="0.994624" stop-color="#FCD2CE"/>
<stop offset="1" stop-color="#FCD2CE"/>
</linearGradient>
<linearGradient id="paint3_linear" x1="124.868" y1="135.717" x2="5.89176" y2="99.6292" gradientUnits="userSpaceOnUse">
<stop stop-color="#FAD428"/>
<stop offset="1" stop-color="#F36817"/>
</linearGradient>
</defs>
</svg>
