<svg width="332" height="79" viewBox="0 0 332 79" fill="none" xmlns="http://www.w3.org/2000/svg">
<path d="M51.9454 42.7176C50.8007 44.8011 49.3939 46.6829 47.7249 48.3637C46.0555 50.0448 44.2076 51.4888 42.181 52.6962C40.1542 53.9035 37.9605 54.8387 35.5997 55.5015C33.2393 56.1642 30.7951 56.4958 28.2675 56.4958C24.5477 56.4958 21.0428 55.7856 17.7521 54.365C14.4615 52.9446 11.5882 51.0154 9.13221 48.577C6.67623 46.1386 4.73307 43.2859 3.30218 40.0188C1.87156 36.7518 1.15625 33.272 1.15625 29.5789C1.15625 25.8857 1.87156 22.4057 3.30218 19.1386C4.73307 15.8718 6.67623 13.0191 9.13221 10.5807C11.5882 8.14234 14.4615 6.21283 17.7521 4.79247C21.0428 3.3721 24.5477 2.66192 28.2675 2.66192C30.7951 2.66192 33.2393 2.99318 35.5997 3.65596C37.9605 4.31901 40.1542 5.25394 42.181 6.46155C44.2076 7.66888 46.0555 9.11295 47.7249 10.7937C49.3939 12.4745 50.8007 14.3329 51.9454 16.369L42.5742 20.1329C41.8114 18.9967 40.9172 17.9313 39.8919 16.9369C38.8665 15.9426 37.7339 15.0668 36.4939 14.3092C35.254 13.5517 33.9425 12.9597 32.5596 12.5336C31.1767 12.1076 29.7458 11.8946 28.2675 11.8946C25.8831 11.8946 23.6535 12.3797 21.5792 13.3503C19.5046 14.321 17.7044 15.6114 16.1783 17.2211C14.6522 18.831 13.4361 20.7129 12.5301 22.8674C11.6241 25.0216 11.1709 27.2587 11.1709 29.5789C11.1709 31.9461 11.6241 34.1952 12.5301 36.3257C13.4361 38.4563 14.6522 40.3267 16.1783 41.9364C17.7044 43.5463 19.5046 44.8365 21.5792 45.8071C23.6535 46.7777 25.8831 47.2629 28.2675 47.2629C29.7458 47.2629 31.1767 47.0498 32.5596 46.6238C33.9425 46.1977 35.254 45.6058 36.4939 44.8482C37.7339 44.0906 38.8665 43.2031 39.8919 42.1851C40.9172 41.1671 41.8114 40.0899 42.5742 38.9534L51.9454 42.7176ZM102.102 3.51403V55.5015H92.0872V34.8343H66.2636V55.5015H56.2488V3.51403H66.2636V26.0277H92.0872V3.51403H102.102ZM120.069 55.5015H110.054V3.58513H120.069V55.5015ZM176.02 42.7176C174.875 44.8011 173.468 46.6829 171.799 48.3637C170.13 50.0448 168.282 51.4888 166.255 52.6962C164.228 53.9035 162.035 54.8387 159.674 55.5015C157.313 56.1642 154.87 56.4958 152.342 56.4958C148.622 56.4958 145.117 55.7856 141.827 54.365C138.536 52.9446 135.663 51.0154 133.207 48.577C130.751 46.1386 128.807 43.2859 127.377 40.0188C125.946 36.7518 125.231 33.272 125.231 29.5789C125.231 25.8857 125.946 22.4057 127.377 19.1386C128.807 15.8718 130.751 13.0191 133.207 10.5807C135.663 8.14234 138.536 6.21283 141.827 4.79247C145.117 3.3721 148.622 2.66192 152.342 2.66192C154.87 2.66192 157.313 2.99318 159.674 3.65596C162.035 4.31901 164.228 5.25394 166.255 6.46155C168.282 7.66888 170.13 9.11295 171.799 10.7937C173.468 12.4745 174.875 14.3329 176.02 16.369L166.649 20.1329C165.886 18.9967 164.991 17.9313 163.966 16.9369C162.941 15.9426 161.808 15.0668 160.568 14.3092C159.328 13.5517 158.017 12.9597 156.634 12.5336C155.251 12.1076 153.82 11.8946 152.342 11.8946C149.958 11.8946 147.728 12.3797 145.654 13.3503C143.579 14.321 141.779 15.6114 140.253 17.2211C138.727 18.831 137.511 20.7129 136.605 22.8674C135.698 25.0216 135.245 27.2587 135.245 29.5789C135.245 31.9461 135.698 34.1952 136.605 36.3257C137.511 38.4563 138.727 40.3267 140.253 41.9364C141.779 43.5463 143.579 44.8365 145.654 45.8071C147.728 46.7777 149.958 47.2629 152.342 47.2629C153.82 47.2629 155.251 47.0498 156.634 46.6238C158.017 46.1977 159.328 45.6058 160.568 44.8482C161.808 44.0906 162.941 43.2031 163.966 42.1851C164.991 41.1671 165.886 40.0899 166.649 38.9534L176.02 42.7176ZM282.277 27.0931C282.229 28.0874 282.205 29.0106 282.205 29.863C282.157 30.6203 282.134 31.3662 282.134 32.1C282.134 32.8339 282.11 33.3902 282.062 33.7691C281.776 37.0359 280.882 40.0662 279.379 42.8596C277.877 45.6532 275.946 48.0561 273.585 50.0684C271.225 52.0805 268.507 53.6548 265.43 54.7913C262.354 55.9275 259.124 56.4958 255.738 56.4958C252.018 56.4958 248.513 55.7856 245.222 54.365C241.932 52.9446 239.046 51.0154 236.579 48.577C234.111 46.1386 232.155 43.2859 230.713 40.0188C229.27 36.7518 228.555 33.272 228.555 29.5789C228.555 25.8857 229.27 22.3939 230.713 19.1032C232.155 15.8124 234.111 12.948 236.579 10.5096C239.046 8.07124 241.932 6.14173 245.222 4.72137C248.513 3.301 252.018 2.59082 255.738 2.59082C260.459 2.59082 264.787 3.67966 268.721 5.85761C272.655 8.03583 275.839 10.9477 278.271 14.5934L269.687 19.7779C268.161 17.5526 266.17 15.6822 263.714 14.1673C261.258 12.6521 258.599 11.8946 255.738 11.8946C253.353 11.8946 251.124 12.3797 249.049 13.3503C246.975 14.321 245.163 15.6114 243.613 17.2211C242.063 18.831 240.835 20.7129 239.929 22.8674C239.022 25.0216 238.569 27.2587 238.569 29.5789C238.569 31.9461 239.022 34.1952 239.929 36.3257C240.835 38.4563 242.063 40.3267 243.613 41.9364C245.163 43.5463 246.975 44.8365 249.049 45.8071C251.124 46.7777 253.353 47.2629 255.738 47.2629C257.55 47.2629 259.29 46.9907 260.96 46.4462C262.629 45.9019 264.155 45.1323 265.538 44.138C266.921 43.1437 268.125 41.9601 269.15 40.5871C270.176 39.2139 270.927 37.699 271.403 36.0416H252.089V27.0931H282.277ZM276.136 55.5015L302.89 3.58513H303.891L330.645 55.5015H319.772L315.694 47.334H291.015L287.009 55.5015H276.136ZM295.88 38.6696H310.83L303.391 22.9739L295.88 38.6696Z" fill="white"/>
<path d="M13.773 77.9019H6.92826V72.2725H13.4511V71.6331H6.92826V66.3325H13.773V65.6809H6.2168V78.5535H13.773V77.9019ZM23.1175 65.6809V78.5535H27.1501C31.0754 78.5535 33.3294 76.2061 33.3294 72.1142C33.3294 68.0283 31.0754 65.6809 27.1501 65.6809H23.1175ZM23.835 66.3325H27.1133C30.6369 66.3325 32.6116 68.4029 32.6116 72.1202C32.6116 75.8223 30.646 77.9019 27.1133 77.9019H23.835V66.3325ZM43.0696 65.6779H42.3581V74.084C42.3581 76.8973 44.2195 78.739 47.2031 78.739C50.187 78.739 52.0484 76.8973 52.0484 74.084V65.6779H51.337V74.0595C51.337 76.5134 49.7546 78.0814 47.2031 78.0814C44.652 78.0814 43.0696 76.5134 43.0696 74.0595V65.6779ZM66.7873 78.739C69.5286 78.739 71.5865 77.1103 71.8809 74.6654H71.1724C70.8934 76.7357 69.0688 78.0814 66.7873 78.0814C63.7697 78.0814 61.81 75.7433 61.81 72.0409C61.81 68.4271 63.742 66.1527 66.7873 66.1527C69.0166 66.1527 70.8934 67.73 71.1724 69.8001H71.8809C71.6109 67.3462 69.4213 65.4951 66.7873 65.4951C63.3005 65.4951 61.0802 68.0343 61.0802 72.0409C61.0802 76.1361 63.3095 78.739 66.7873 78.739ZM89.7076 78.5565H90.4712L85.5401 65.6779H84.8193L79.8791 78.5565H80.652L82.2588 74.2606H88.0915L89.7076 78.5565ZM85.1538 66.5913H85.1966L87.8646 73.6272H82.4917L85.1538 66.5913ZM101.558 78.5565V66.3325H106.121V65.6809H96.2768V66.3325H100.84V78.5565H101.558ZM115.462 78.5565V65.6779H114.751V78.5565H115.462ZM130.281 65.4951C126.748 65.4951 124.497 68.0618 124.497 72.111C124.497 76.1816 126.739 78.739 130.281 78.739C133.822 78.739 136.064 76.1816 136.064 72.111C136.064 68.0618 133.813 65.4951 130.281 65.4951ZM130.281 66.1527C133.366 66.1527 135.334 68.4636 135.334 72.111C135.334 75.7616 133.366 78.0814 130.281 78.0814C127.205 78.0814 125.227 75.7616 125.227 72.111C125.227 68.4636 127.196 66.1527 130.281 66.1527ZM145.81 78.5565V66.8833H145.863L154.185 78.5565H154.86V65.6779H154.149V77.2778H154.093L145.844 65.6779H145.111V78.5565H145.81ZM192.42 78.5565H193.328L191.12 76.2881C191.917 75.1345 192.43 73.5177 192.43 72.0532V71.3651H191.755V72.0714C191.755 73.3654 191.325 74.7689 190.648 75.8316L186.603 71.5814C188.869 70.4364 189.746 69.3923 189.746 68.1683C189.746 66.6245 188.455 65.4951 186.719 65.4951C184.984 65.4951 183.638 66.6673 183.638 68.1866C183.638 69.1425 184.104 69.9281 185.585 71.4291C185.566 71.4381 184.738 71.8737 184.668 71.9102C182.954 72.8296 182.187 73.947 182.187 75.2865C182.187 77.2991 183.861 78.736 186.278 78.736C187.906 78.736 189.584 77.9962 190.7 76.7722L192.42 78.5565ZM185.073 72.382C185.1 72.3638 185.98 71.8979 186.008 71.8797L190.237 76.3369C189.335 77.3903 187.716 78.1212 186.324 78.1212C184.272 78.1212 182.898 76.879 182.898 75.2652C182.898 74.1753 183.567 73.2012 185.073 72.382ZM186.198 71.1491C184.732 69.6753 184.318 69.0237 184.318 68.2108C184.318 67.0509 185.407 66.0797 186.719 66.0797C188.041 66.0797 189.065 66.9991 189.065 68.1866C189.065 69.2125 188.222 70.1686 186.198 71.1491ZM228.085 77.9019H221.241V72.2725H227.763V71.6331H221.241V66.3325H228.085V65.6809H220.529V78.5535H228.085V77.9019ZM238.129 78.5565V66.8833H238.181L246.504 78.5565H247.178V65.6779H246.467V77.2778H246.412L238.163 65.6779H237.43V78.5565H238.129ZM267.124 73.4537V72.181H261.887V72.8203H266.413V73.5602C266.413 76.3399 264.677 78.0814 261.887 78.0814C258.927 78.0814 256.931 75.6521 256.931 72.032C256.931 68.4696 258.884 66.1527 261.887 66.1527C264.073 66.1527 265.803 67.4194 266.315 69.3893H267.045C266.557 67.0539 264.496 65.4951 261.887 65.4951C258.47 65.4951 256.201 68.0953 256.201 72.0379C256.201 76.0356 258.504 78.739 261.887 78.739C265.143 78.739 267.124 76.742 267.124 73.4537ZM283.758 77.9019H276.957V65.6779H276.245V78.5535H283.758V77.9019ZM293.446 78.5565V65.6779H292.735V78.5565H293.446ZM302.408 75.1162C302.515 77.2473 304.422 78.736 307.081 78.736C309.792 78.736 311.601 77.2473 311.601 75.1162C311.601 73.4049 310.476 72.452 307.97 71.8372L306.523 71.4716C304.441 70.954 303.487 70.2141 303.487 68.9294C303.487 67.3097 305.042 66.1497 306.989 66.1497C309.028 66.1497 310.549 67.2732 310.648 68.8137H311.359C311.276 66.9261 309.452 65.4981 307.007 65.4981C304.646 65.4981 302.757 66.9444 302.757 68.9477C302.757 70.5615 303.846 71.5234 306.244 72.1292L307.78 72.5038C309.954 73.0489 310.871 73.8252 310.871 75.171C310.871 76.8455 309.335 78.0847 307.133 78.0847C304.879 78.0847 303.226 76.8637 303.119 75.1162H302.408ZM330.173 78.5565V65.6779H329.462V71.6331H321.249V65.6779H320.538V78.5565H321.249V72.2725H329.462V78.5565H330.173Z" fill="white"/>
<path d="M202.003 57.2313C217.742 57.2313 230.501 44.5547 230.501 28.9174C230.501 13.2801 217.742 0.603516 202.003 0.603516C186.263 0.603516 173.504 13.2801 173.504 28.9174C173.504 44.5547 186.263 57.2313 202.003 57.2313Z" fill="#FEFEFE"/>
<path fill-rule="evenodd" clip-rule="evenodd" d="M229.786 35.2959C229.039 38.3965 227.831 41.3285 226.179 43.9061L219.705 31.3486L229.786 35.2959Z" fill="#C32B23"/>
<path fill-rule="evenodd" clip-rule="evenodd" d="M203.91 0.670898C204.175 0.686971 204.444 0.705495 204.715 0.727016L204.785 2.37103L203.91 0.670898Z" fill="#E84145"/>
<path fill-rule="evenodd" clip-rule="evenodd" d="M191.75 17.8669L182.34 20.2153L180.998 16.0142L194.465 1.59995C196.523 1.03442 198.572 0.712152 200.626 0.629883L191.75 17.8669Z" fill="#E84145"/>
<path fill-rule="evenodd" clip-rule="evenodd" d="M179.543 11.4774C183.504 6.50201 188.785 3.11428 194.468 1.60156L180.999 16.0163L179.543 11.4774Z" fill="#A52621"/>
<path fill-rule="evenodd" clip-rule="evenodd" d="M174.103 34.722L178.832 31.2662L177.253 30.3269L184.421 26.7289L183.077 22.5195L173.505 28.5426C173.487 30.9505 173.724 32.8944 174.103 34.722Z" fill="#E94D51"/>
<path fill-rule="evenodd" clip-rule="evenodd" d="M185.157 29.0314L186.171 28.7069L190.283 20.7217L183.646 24.7166L185.157 29.0314Z" fill="#E94A45"/>
<path fill-rule="evenodd" clip-rule="evenodd" d="M190.279 20.7318L183.762 24.6608L183.078 22.5199L190.336 18.1725L191.776 17.8232L190.279 20.7318Z" fill="#932B1F"/>
<path fill-rule="evenodd" clip-rule="evenodd" d="M190.334 18.1719L183.076 22.5193L181.994 19.1313L190.334 18.1719Z" fill="#E63C28"/>
<path fill-rule="evenodd" clip-rule="evenodd" d="M183.324 34.2366L180.631 32.5264L184.098 32.7334L183.324 34.2366Z" fill="#E94A45"/>
<path fill-rule="evenodd" clip-rule="evenodd" d="M185.48 30.0462L185.219 29.2289L185.99 29.0557L185.48 30.0462Z" fill="#A92C21"/>
<path fill-rule="evenodd" clip-rule="evenodd" d="M226.779 37.4402L204.713 0.727812L203.91 0.675781L222.867 37.4887L226.779 37.4402L226.83 36.8575L226.779 37.4402Z" fill="#E63B26"/>
<path fill-rule="evenodd" clip-rule="evenodd" d="M204.715 0.728516L217.545 22.0754L228.329 18.0045C224.368 8.71569 215.537 1.75252 204.715 0.728516Z" fill="#E94D51"/>
<path fill-rule="evenodd" clip-rule="evenodd" d="M217.545 22.0749L226.78 37.4404L228.328 18.0039L217.545 22.0749Z" fill="#E94A45"/>
<path fill-rule="evenodd" clip-rule="evenodd" d="M223.639 32.2127L223.006 33.4974L226.78 37.4393L227.279 31.165L223.639 32.2127Z" fill="#A92C21"/>
<path fill-rule="evenodd" clip-rule="evenodd" d="M217.545 22.0749L219.743 25.7317L227.859 23.8973L228.328 18.0039L217.545 22.0749Z" fill="#BD2922"/>
<path fill-rule="evenodd" clip-rule="evenodd" d="M226.779 37.4398L226.944 35.3779L229.95 34.6514L224.81 41.2612L222.867 37.4883L226.779 37.4398Z" fill="#E74036"/>
<path fill-rule="evenodd" clip-rule="evenodd" d="M209.398 11.3301L210.555 10.4453L212.448 13.5939L211.151 14.7339L209.398 11.3301Z" fill="#E53524"/>
<path fill-rule="evenodd" clip-rule="evenodd" d="M228.328 18.0039L227.137 32.9668L230.237 32.8777C230.928 27.5152 230.264 22.6842 228.328 18.0039Z" fill="#E94A45"/>
<path fill-rule="evenodd" clip-rule="evenodd" d="M183.189 22.4511L173.504 28.542C173.611 21.9338 175.848 16.1063 179.543 11.4756L183.189 22.4511Z" fill="#A52621"/>
<path fill-rule="evenodd" clip-rule="evenodd" d="M174.102 34.7224C174.488 36.5716 174.995 38.1069 175.727 39.9005L181.153 38.4477L183.392 34.1005L178.831 31.2666L174.102 34.7224Z" fill="#CA2E23"/>
<path fill-rule="evenodd" clip-rule="evenodd" d="M175.281 38.7728C175.464 39.2765 175.576 39.5179 175.728 39.9006L181.154 38.4479L182.865 35.1258L182.549 35.0195L175.281 38.7728Z" fill="#EA524D"/>
<path fill-rule="evenodd" clip-rule="evenodd" d="M204.715 0.728516L210.556 10.4461L217.489 5.14462C213.779 2.75173 209.429 1.18263 204.715 0.728516Z" fill="#E73B34"/>
<path fill-rule="evenodd" clip-rule="evenodd" d="M178.128 44.3261C177.226 42.9504 176.428 41.4745 175.729 39.901L181.155 38.4482L178.128 44.3261Z" fill="#E53524"/>
<path fill-rule="evenodd" clip-rule="evenodd" d="M226.943 35.3787L227.135 32.967L230.236 32.8779C230.137 33.7031 229.977 34.4732 229.786 35.2972L226.943 35.3787Z" fill="#C32B23"/>
<path fill-rule="evenodd" clip-rule="evenodd" d="M180.631 32.5274L177.254 30.3285L184.421 26.7305L185.481 30.0485L184.098 32.7345L180.631 32.5274Z" fill="#CA2E23"/>
<path fill-rule="evenodd" clip-rule="evenodd" d="M177.095 29.0262L175.399 29.3567L173.504 28.5427L176.786 26.4775L177.095 29.0262Z" fill="#CA2E23"/>
<path fill-rule="evenodd" clip-rule="evenodd" d="M204.219 20.9197L196.77 28.0074L202.248 16.8896L204.219 20.9197Z" fill="#E84145"/>
<path fill-rule="evenodd" clip-rule="evenodd" d="M205.615 34.4285L205.772 28.41L207.508 27.6396L210.829 34.4285H205.615Z" fill="#CC2D23"/>
<path fill-rule="evenodd" clip-rule="evenodd" d="M196.77 28.0076L204.22 20.9199L205.671 23.8865L206.029 34.4284H193.605L196.77 28.0076Z" fill="#A92F21"/>
<path fill-rule="evenodd" clip-rule="evenodd" d="M205.937 31.0596L199.432 33.3318L205.883 30.1113L205.937 31.0596Z" fill="#E94D51"/>
<path fill-rule="evenodd" clip-rule="evenodd" d="M205.825 28.3919L207.509 27.6414L205.672 23.8867L205.825 28.3919Z" fill="#E94D51"/>
<path fill-rule="evenodd" clip-rule="evenodd" d="M185.219 29.2295L185.156 29.0315L186.17 28.707L185.99 29.0563L185.219 29.2295Z" fill="#E42925"/>
<path fill-rule="evenodd" clip-rule="evenodd" d="M180.885 32.541L183.411 34.0671L182.869 35.1202L182.55 35.0192L180.885 32.541Z" fill="#A92C21"/>
<path fill-rule="evenodd" clip-rule="evenodd" d="M178.117 44.3517C177.215 42.9758 176.387 41.4543 175.729 39.901L181.155 38.4482L178.117 44.3517Z" fill="#CB2F23"/>
<path fill-rule="evenodd" clip-rule="evenodd" d="M180.329 13.9141L179.723 12.0156L178.098 14.2633L180.005 12.9002L177.457 16.152L180.329 13.9141Z" fill="#E84145"/>
<path fill-rule="evenodd" clip-rule="evenodd" d="M218.793 24.1523L220.52 27.0246L227.638 26.6563L228.029 21.7441L227.248 23.702L225.761 22.6447L218.793 24.1523Z" fill="#E63B26"/>
<path fill-rule="evenodd" clip-rule="evenodd" d="M220.521 27.0254L223.64 32.2143L220.57 29.1647L220.521 27.0254Z" fill="#932B1F"/>
<path fill-rule="evenodd" clip-rule="evenodd" d="M226.781 37.4409L204.715 0.728516L205.395 3.53193L205.393 3.55181L209.404 11.3409L210.129 10.7721L226.832 36.8582L226.781 37.4409Z" fill="#C32B23"/>
<path fill-rule="evenodd" clip-rule="evenodd" d="M200.659 57.2331L192.014 43.7666H205.397L205.025 57.1042L200.659 57.2331Z" fill="#BC2F22"/>
<path fill-rule="evenodd" clip-rule="evenodd" d="M219.173 51.4993C215.226 54.4809 210.43 56.4668 205.025 57.1042L205.373 43.7666H215.313L219.173 51.4993Z" fill="#CC2D23"/>
<path fill-rule="evenodd" clip-rule="evenodd" d="M200.65 57.2236C194.844 56.8632 189.522 54.9723 185.141 51.7339L189.048 43.7666H192.093L200.65 57.2236Z" fill="#E52C33"/>
<path fill-rule="evenodd" clip-rule="evenodd" d="M205.024 57.1042C203.483 57.2546 202.134 57.2799 200.658 57.2331L203.003 44.8674L204.709 43.7666H205.989L205.024 57.1042Z" fill="#A22B21"/>
<path fill-rule="evenodd" clip-rule="evenodd" d="M192.381 45.9669L192.946 45.3145L197.707 46.1676L192.381 45.9669Z" fill="#EA5452"/>
<path fill-rule="evenodd" clip-rule="evenodd" d="M201.823 57.1985L200.66 57.2331L195.457 51.2877L197.185 48.624L201.823 57.1985Z" fill="#A22B21"/>
<path fill-rule="evenodd" clip-rule="evenodd" d="M210.938 45.8214L216.286 45.7157L215.341 43.823L215.095 43.7666H211.34L210.938 45.8214Z" fill="#A22B21"/>
<path fill-rule="evenodd" clip-rule="evenodd" d="M227.64 26.6553L227.207 32.0918L228.436 30.7753L227.64 26.6553Z" fill="#E63B26"/>
<path d="M231.041 29.1957C231.041 44.9007 218.216 57.6413 202.385 57.6413C186.553 57.6413 173.729 44.9007 173.729 29.1957C173.729 13.4906 186.553 0.75 202.385 0.75C218.216 0.75 231.041 13.4906 231.041 29.1957Z" stroke="white" stroke-width="1.5"/>
</svg>
