<svg width="757" height="834" viewBox="0 0 757 834" fill="none" xmlns="http://www.w3.org/2000/svg">
<path d="M17.3153 387.41C16.893 387.41 16.4705 386.988 16.4705 386.566V17.2917C16.4705 16.8698 16.893 16.448 17.3153 16.448H424.236C424.659 16.448 425.081 16.8698 425.081 17.2917C425.081 17.7136 424.659 18.1354 424.236 18.1354H18.5823V386.144C18.5823 386.988 18.16 387.41 17.3153 387.41Z" fill="#B6B1D9"/>
<path d="M17.3162 0H1.51383e-06V17.2967H17.3162V0Z" fill="#B6B1D9"/>
<path d="M383.918 19.4043H278.331C277.064 19.4043 276.22 18.5605 276.22 17.2949C276.22 16.0293 277.064 15.1855 278.331 15.1855H383.918C385.185 15.1855 386.03 16.0293 386.03 17.2949C386.03 18.1386 384.763 19.4043 383.918 19.4043Z" fill="#B6B1D9"/>
<path d="M17.3144 317.38C16.0474 317.38 15.2026 316.536 15.2026 315.27V279.411C15.2026 278.146 16.0474 277.302 17.3144 277.302C18.5814 277.302 19.4261 278.146 19.4261 279.411V315.27C19.4261 316.536 18.5814 317.38 17.3144 317.38Z" fill="#B6B1D9"/>
<path d="M17.3153 377.079C16.8929 377.079 16.4705 377.501 16.4705 377.923L16.4705 816.708C16.4705 817.13 16.893 817.552 17.3153 817.552H415.172C415.594 817.552 416.016 817.13 416.016 816.708C416.016 816.286 415.594 815.864 415.172 815.864L18.5823 815.865L18.5823 378.345C18.5823 377.501 18.16 377.079 17.3153 377.079Z" fill="#B6B1D9"/>
<path d="M17.3162 834H1.51383e-06L0 816.703L17.3162 816.703L17.3162 834Z" fill="#B6B1D9"/>
<path d="M383.918 814.596L278.331 814.596C277.064 814.596 276.22 815.439 276.22 816.705C276.22 817.971 277.064 818.814 278.331 818.814H383.918C385.185 818.814 386.03 817.971 386.03 816.705C386.03 815.861 384.763 814.596 383.918 814.596Z" fill="#B6B1D9"/>
<path d="M17.3144 512.538C16.0473 512.538 15.2026 513.382 15.2026 514.647L15.2026 550.506C15.2026 551.772 16.0473 552.616 17.3144 552.616C18.5814 552.616 19.426 551.772 19.426 550.506L19.426 514.647C19.426 513.382 18.5814 512.538 17.3144 512.538Z" fill="#B6B1D9"/>
<path d="M381.69 17.2959C381.69 16.874 382.113 16.452 382.535 16.452L739.689 16.452C740.111 16.452 740.534 16.874 740.534 17.2959L740.533 446.054C740.533 446.476 740.111 446.898 739.689 446.898C739.266 446.898 738.844 446.476 738.844 446.054V18.5615L382.957 18.5614C382.113 18.5614 381.69 18.1396 381.69 17.2959Z" fill="#B6B1D9"/>
<path d="M757 17.2968V7.56063e-07L739.684 0V17.2968H757Z" fill="#B6B1D9"/>
<path d="M737.574 414.835V309.367C737.574 308.102 738.419 307.258 739.686 307.258C740.953 307.258 741.797 308.102 741.797 309.367V414.835C741.797 416.101 740.953 416.945 739.686 416.945C738.841 416.945 737.574 415.679 737.574 414.835Z" fill="#B6B1D9"/>
<path d="M486.876 17.295C486.876 16.0293 487.72 15.1855 488.987 15.1855H524.887C526.154 15.1855 526.998 16.0293 526.998 17.295C526.998 18.5606 526.154 19.4042 524.887 19.4042H488.987C487.72 19.4042 486.876 18.5606 486.876 17.295Z" fill="#B6B1D9"/>
<path d="M416.767 816.704C416.767 817.126 417.189 817.548 417.611 817.548L739.689 817.548C740.111 817.548 740.533 817.126 740.533 816.704V383.864C740.533 383.442 740.111 383.02 739.689 383.02C739.266 383.02 738.844 383.442 738.844 383.864L738.844 815.439L418.034 815.439C417.189 815.439 416.767 815.86 416.767 816.704Z" fill="#B6B1D9"/>
<path d="M757 816.703V834H739.684L739.684 816.703H757Z" fill="#B6B1D9"/>
<path d="M737.574 415.082V520.55C737.574 521.816 738.419 522.66 739.686 522.66C740.953 522.66 741.797 521.816 741.797 520.55V415.082C741.797 413.817 740.953 412.973 739.686 412.973C738.841 412.973 737.574 414.239 737.574 415.082Z" fill="#B6B1D9"/>
<path d="M486.876 816.705C486.876 817.971 487.72 818.815 488.987 818.815H524.887C526.154 818.815 526.998 817.971 526.998 816.705C526.998 815.439 526.154 814.596 524.887 814.596H488.987C487.72 814.596 486.876 815.439 486.876 816.705Z" fill="#B6B1D9"/>
</svg>
