<svg width="267" height="109" viewBox="0 0 267 109" fill="none" xmlns="http://www.w3.org/2000/svg">
<path d="M142 73H106V37H142V73ZM106.235 72.7648H141.765V37.2352H106.235V72.7648Z" fill="#7857FF"/>
<path d="M141.059 72.0703H106.93V37.9297H141.059V72.0703ZM107.154 71.8463H140.846V38.1537H107.154V71.8463Z" fill="#7857FF"/>
<path d="M106.19 37.0399L106.024 37.2062L141.792 72.974L141.958 72.8076L106.19 37.0399Z" fill="#7857FF"/>
<path d="M141.798 37.0412L106.078 72.7614L106.244 72.9278L141.965 37.2076L141.798 37.0412Z" fill="#7857FF"/>
<path d="M108.621 37.112L106.112 37.112V39.621H108.621V37.112Z" fill="#7857FF"/>
<path d="M141.888 37.112L139.379 37.112V39.621H141.888V37.112Z" fill="#7857FF"/>
<path d="M108.621 70.379H106.112V72.888H108.621V70.379Z" fill="#7857FF"/>
<path d="M141.888 70.379H139.379V72.888H141.888V70.379Z" fill="#7857FF"/>
<path d="M106.112 37.112L141.888 72.888M106.112 37.112L108.621 37.112V39.621H106.112V37.112ZM141.888 72.888V70.379H139.379V72.888H141.888ZM141.888 37.112L106.157 72.8432M141.888 37.112L139.379 37.112V39.621H141.888V37.112ZM142 73H106V37H142V73ZM106.235 72.7648H141.765V37.2352H106.235V72.7648ZM141.059 72.0703H106.93V37.9297H141.059V72.0703ZM107.154 71.8463H140.846V38.1537H107.154V71.8463ZM106.024 37.2062L106.19 37.0399L141.958 72.8076L141.792 72.974L106.024 37.2062ZM106.078 72.7614L141.798 37.0412L141.965 37.2076L106.244 72.9278L106.078 72.7614ZM106.112 70.379H108.621V72.888H106.112V70.379Z" stroke="#7857FF"/>
<path d="M116.933 4.72978C115.618 4.72978 114.551 3.67097 114.551 2.36487C114.551 1.05878 115.618 0 116.933 0C118.249 0 119.315 1.05878 119.315 2.36487C119.315 3.67097 118.249 4.72978 116.933 4.72978Z" fill="#7857FF"/>
<path d="M131.227 4.72978C129.911 4.72978 128.845 3.67097 128.845 2.36487C128.845 1.05878 129.911 0 131.227 0C132.542 0 133.609 1.05878 133.609 2.36487C133.609 3.67097 132.542 4.72978 131.227 4.72978Z" fill="#7857FF"/>
<path d="M145.302 4.72978C143.987 4.72978 142.92 3.67097 142.92 2.36487C142.92 1.05878 143.987 0 145.302 0C146.618 0 147.684 1.05878 147.684 2.36487C147.684 3.67097 146.618 4.72978 145.302 4.72978Z" fill="#7857FF"/>
<path d="M159.593 4.72978C158.278 4.72978 157.211 3.67097 157.211 2.36487C157.211 1.05878 158.278 0 159.593 0C160.909 0 161.975 1.05878 161.975 2.36487C161.975 3.67097 160.909 4.72978 159.593 4.72978Z" fill="#7857FF"/>
<path d="M173.669 4.72978C172.353 4.72978 171.287 3.67097 171.287 2.36487C171.287 1.05878 172.353 0 173.669 0C174.984 0 176.051 1.05878 176.051 2.36487C176.051 3.67097 174.984 4.72978 173.669 4.72978Z" fill="#7857FF"/>
<path d="M187.96 4.72978C186.644 4.72978 185.578 3.67097 185.578 2.36487C185.578 1.05878 186.644 0 187.96 0C189.276 0 190.342 1.05878 190.342 2.36487C190.342 3.67097 189.276 4.72978 187.96 4.72978Z" fill="#7857FF"/>
<path d="M202.035 4.72978C200.72 4.72978 199.653 3.67097 199.653 2.36487C199.653 1.05878 200.72 0 202.035 0C203.351 0 204.417 1.05878 204.417 2.36487C204.417 3.67097 203.351 4.72978 202.035 4.72978Z" fill="#7857FF"/>
<path d="M216.329 4.72978C215.013 4.72978 213.947 3.67097 213.947 2.36487C213.947 1.05878 215.013 0 216.329 0C217.644 0 218.711 1.05878 218.711 2.36487C218.711 3.67097 217.644 4.72978 216.329 4.72978Z" fill="#7857FF"/>
<path d="M17.756 22.1431C16.4404 22.1431 15.3739 21.0844 15.3739 19.7783C15.3739 18.4722 16.4404 17.4134 17.756 17.4134C19.0715 17.4134 20.1379 18.4722 20.1379 19.7783C20.1379 21.0844 19.0715 22.1431 17.756 22.1431Z" fill="#7857FF"/>
<path d="M31.8314 22.1431C30.5159 22.1431 29.4494 21.0844 29.4494 19.7783C29.4494 18.4722 30.5159 17.4134 31.8314 17.4134C33.1469 17.4134 34.2134 18.4722 34.2134 19.7783C34.2134 21.0844 33.1469 22.1431 31.8314 22.1431Z" fill="#7857FF"/>
<path d="M46.1226 22.1431C44.807 22.1431 43.7406 21.0844 43.7406 19.7783C43.7406 18.4722 44.807 17.4134 46.1226 17.4134C47.4381 17.4134 48.5046 18.4722 48.5046 19.7783C48.5046 21.0844 47.4381 22.1431 46.1226 22.1431Z" fill="#7857FF"/>
<path d="M60.198 22.1431C58.8825 22.1431 57.816 21.0844 57.816 19.7783C57.816 18.4722 58.8825 17.4134 60.198 17.4134C61.5136 17.4134 62.58 18.4722 62.58 19.7783C62.58 21.0844 61.5136 22.1431 60.198 22.1431Z" fill="#7857FF"/>
<path d="M74.4913 22.1431C73.1758 22.1431 72.1093 21.0844 72.1093 19.7783C72.1093 18.4722 73.1758 17.4134 74.4913 17.4134C75.8069 17.4134 76.8733 18.4722 76.8733 19.7783C76.8733 21.0844 75.8069 22.1431 74.4913 22.1431Z" fill="#7857FF"/>
<path d="M88.5668 22.1431C87.2513 22.1431 86.1848 21.0844 86.1848 19.7783C86.1848 18.4722 87.2513 17.4134 88.5668 17.4134C89.8823 17.4134 90.9488 18.4722 90.9488 19.7783C90.9488 21.0844 89.8823 22.1431 88.5668 22.1431Z" fill="#7857FF"/>
<path d="M102.858 22.1431C101.542 22.1431 100.476 21.0844 100.476 19.7783C100.476 18.4722 101.542 17.4134 102.858 17.4134C104.173 17.4134 105.24 18.4722 105.24 19.7783C105.24 21.0844 104.173 22.1431 102.858 22.1431Z" fill="#7857FF"/>
<path d="M116.933 22.1431C115.618 22.1431 114.551 21.0844 114.551 19.7783C114.551 18.4722 115.618 17.4134 116.933 17.4134C118.249 17.4134 119.315 18.4722 119.315 19.7783C119.315 21.0844 118.249 22.1431 116.933 22.1431Z" fill="#7857FF"/>
<path d="M131.227 22.1431C129.911 22.1431 128.845 21.0844 128.845 19.7783C128.845 18.4722 129.911 17.4134 131.227 17.4134C132.542 17.4134 133.609 18.4722 133.609 19.7783C133.609 21.0844 132.542 22.1431 131.227 22.1431Z" fill="#7857FF"/>
<path d="M145.302 22.1431C143.987 22.1431 142.92 21.0844 142.92 19.7783C142.92 18.4722 143.987 17.4134 145.302 17.4134C146.618 17.4134 147.684 18.4722 147.684 19.7783C147.684 21.0844 146.618 22.1431 145.302 22.1431Z" fill="#7857FF"/>
<path d="M159.593 22.1431C158.278 22.1431 157.211 21.0844 157.211 19.7783C157.211 18.4722 158.278 17.4134 159.593 17.4134C160.909 17.4134 161.975 18.4722 161.975 19.7783C161.975 21.0844 160.909 22.1431 159.593 22.1431Z" fill="#7857FF"/>
<path d="M216.329 22.1431C215.013 22.1431 213.947 21.0844 213.947 19.7783C213.947 18.4722 215.013 17.4134 216.329 17.4134C217.644 17.4134 218.711 18.4722 218.711 19.7783C218.711 21.0844 217.644 22.1431 216.329 22.1431Z" fill="#7857FF"/>
<path d="M17.756 39.5586C16.4404 39.5586 15.3739 38.4998 15.3739 37.1937C15.3739 35.8876 16.4404 34.8288 17.756 34.8288C19.0715 34.8288 20.1379 35.8876 20.1379 37.1937C20.1379 38.4998 19.0715 39.5586 17.756 39.5586Z" fill="#7857FF"/>
<path d="M31.8314 39.5586C30.5159 39.5586 29.4494 38.4998 29.4494 37.1937C29.4494 35.8876 30.5159 34.8288 31.8314 34.8288C33.1469 34.8288 34.2134 35.8876 34.2134 37.1937C34.2134 38.4998 33.1469 39.5586 31.8314 39.5586Z" fill="#7857FF"/>
<path d="M46.1226 39.5586C44.807 39.5586 43.7406 38.4998 43.7406 37.1937C43.7406 35.8876 44.807 34.8288 46.1226 34.8288C47.4381 34.8288 48.5046 35.8876 48.5046 37.1937C48.5046 38.4998 47.4381 39.5586 46.1226 39.5586Z" fill="#7857FF"/>
<path d="M60.198 39.5586C58.8825 39.5586 57.816 38.4998 57.816 37.1937C57.816 35.8876 58.8825 34.8288 60.198 34.8288C61.5136 34.8288 62.58 35.8876 62.58 37.1937C62.58 38.4998 61.5136 39.5586 60.198 39.5586Z" fill="#7857FF"/>
<path d="M74.4913 39.5586C73.1758 39.5586 72.1093 38.4998 72.1093 37.1937C72.1093 35.8876 73.1758 34.8288 74.4913 34.8288C75.8069 34.8288 76.8733 35.8876 76.8733 37.1937C76.8733 38.4998 75.8069 39.5586 74.4913 39.5586Z" fill="#7857FF"/>
<path d="M88.5668 39.5586C87.2513 39.5586 86.1848 38.4998 86.1848 37.1937C86.1848 35.8876 87.2513 34.8288 88.5668 34.8288C89.8823 34.8288 90.9488 35.8876 90.9488 37.1937C90.9488 38.4998 89.8823 39.5586 88.5668 39.5586Z" fill="#7857FF"/>
<path d="M159.593 39.5586C158.278 39.5586 157.211 38.4998 157.211 37.1937C157.211 35.8876 158.278 34.8288 159.593 34.8288C160.909 34.8288 161.975 35.8876 161.975 37.1937C161.975 38.4998 160.909 39.5586 159.593 39.5586Z" fill="#7857FF"/>
<path d="M173.669 39.5586C172.353 39.5586 171.287 38.4998 171.287 37.1937C171.287 35.8876 172.353 34.8288 173.669 34.8288C174.984 34.8288 176.051 35.8876 176.051 37.1937C176.051 38.4998 174.984 39.5586 173.669 39.5586Z" fill="#7857FF"/>
<path d="M187.96 39.5586C186.644 39.5586 185.578 38.4998 185.578 37.1937C185.578 35.8876 186.644 34.8288 187.96 34.8288C189.276 34.8288 190.342 35.8876 190.342 37.1937C190.342 38.4998 189.276 39.5586 187.96 39.5586Z" fill="#7857FF"/>
<path d="M17.756 56.972C16.4404 56.972 15.3739 55.9132 15.3739 54.6071C15.3739 53.301 16.4404 52.2422 17.756 52.2422C19.0715 52.2422 20.1379 53.301 20.1379 54.6071C20.1379 55.9132 19.0715 56.972 17.756 56.972Z" fill="#7857FF"/>
<path d="M2.38205 4.72978C1.06651 4.72978 0 3.67097 0 2.36487C0 1.05878 1.06651 0 2.38205 0C3.69759 0 4.76404 1.05878 4.76404 2.36487C4.76404 3.67097 3.69759 4.72978 2.38205 4.72978Z" fill="#7857FF"/>
<path d="M2.38205 22.1431C1.06651 22.1431 0 21.0844 0 19.7783C0 18.4722 1.06651 17.4134 2.38205 17.4134C3.69759 17.4134 4.76404 18.4722 4.76404 19.7783C4.76404 21.0844 3.69759 22.1431 2.38205 22.1431Z" fill="#7857FF"/>
<path d="M2.38205 39.5586C1.06651 39.5586 0 38.4998 0 37.1937C0 35.8876 1.06651 34.8288 2.38205 34.8288C3.69759 34.8288 4.76404 35.8876 4.76404 37.1937C4.76404 38.4998 3.69759 39.5586 2.38205 39.5586Z" fill="#7857FF"/>
<path d="M31.8314 56.972C30.5159 56.972 29.4494 55.9132 29.4494 54.6071C29.4494 53.301 30.5159 52.2422 31.8314 52.2422C33.1469 52.2422 34.2134 53.301 34.2134 54.6071C34.2134 55.9132 33.1469 56.972 31.8314 56.972Z" fill="#7857FF"/>
<path d="M74.4913 56.972C73.1758 56.972 72.1093 55.9132 72.1093 54.6071C72.1093 53.301 73.1758 52.2422 74.4913 52.2422C75.8069 52.2422 76.8733 53.301 76.8733 54.6071C76.8733 55.9132 75.8069 56.972 74.4913 56.972Z" fill="#7857FF"/>
<path d="M88.5668 56.972C87.2513 56.972 86.1848 55.9132 86.1848 54.6071C86.1848 53.301 87.2513 52.2422 88.5668 52.2422C89.8823 52.2422 90.9488 53.301 90.9488 54.6071C90.9488 55.9132 89.8823 56.972 88.5668 56.972Z" fill="#7857FF"/>
<path d="M159.593 56.972C158.278 56.972 157.211 55.9132 157.211 54.6071C157.211 53.301 158.278 52.2422 159.593 52.2422C160.909 52.2422 161.975 53.301 161.975 54.6071C161.975 55.9132 160.909 56.972 159.593 56.972Z" fill="#7857FF"/>
<path d="M173.669 56.972C172.353 56.972 171.287 55.9132 171.287 54.6071C171.287 53.301 172.353 52.2422 173.669 52.2422C174.984 52.2422 176.051 53.301 176.051 54.6071C176.051 55.9132 174.984 56.972 173.669 56.972Z" fill="#7857FF"/>
<path d="M187.96 56.972C186.644 56.972 185.578 55.9132 185.578 54.6071C185.578 53.301 186.644 52.2422 187.96 52.2422C189.276 52.2422 190.342 53.301 190.342 54.6071C190.342 55.9132 189.276 56.972 187.96 56.972Z" fill="#7857FF"/>
<path d="M202.035 56.972C200.72 56.972 199.653 55.9132 199.653 54.6071C199.653 53.301 200.72 52.2422 202.035 52.2422C203.351 52.2422 204.417 53.301 204.417 54.6071C204.417 55.9132 203.351 56.972 202.035 56.972Z" fill="#7857FF"/>
<path d="M216.329 56.972C215.013 56.972 213.947 55.9132 213.947 54.6071C213.947 53.301 215.013 52.2422 216.329 52.2422C217.644 52.2422 218.711 53.301 218.711 54.6071C218.711 55.9132 217.644 56.972 216.329 56.972Z" fill="#7857FF"/>
<path d="M17.756 74.3875C16.4404 74.3875 15.3739 73.3287 15.3739 72.0226C15.3739 70.7165 16.4404 69.6577 17.756 69.6577C19.0715 69.6577 20.1379 70.7165 20.1379 72.0226C20.1379 73.3287 19.0715 74.3875 17.756 74.3875Z" fill="#7857FF"/>
<path d="M31.8314 74.3875C30.5159 74.3875 29.4494 73.3287 29.4494 72.0226C29.4494 70.7165 30.5159 69.6577 31.8314 69.6577C33.1469 69.6577 34.2134 70.7165 34.2134 72.0226C34.2134 73.3287 33.1469 74.3875 31.8314 74.3875Z" fill="#7857FF"/>
<path d="M46.1226 74.3875C44.807 74.3875 43.7406 73.3287 43.7406 72.0226C43.7406 70.7165 44.807 69.6577 46.1226 69.6577C47.4381 69.6577 48.5046 70.7165 48.5046 72.0226C48.5046 73.3287 47.4381 74.3875 46.1226 74.3875Z" fill="#7857FF"/>
<path d="M60.198 74.3875C58.8825 74.3875 57.816 73.3287 57.816 72.0226C57.816 70.7165 58.8825 69.6577 60.198 69.6577C61.5136 69.6577 62.58 70.7165 62.58 72.0226C62.58 73.3287 61.5136 74.3875 60.198 74.3875Z" fill="#7857FF"/>
<path d="M74.4913 74.3875C73.1758 74.3875 72.1093 73.3287 72.1093 72.0226C72.1093 70.7165 73.1758 69.6577 74.4913 69.6577C75.8069 69.6577 76.8733 70.7165 76.8733 72.0226C76.8733 73.3287 75.8069 74.3875 74.4913 74.3875Z" fill="#7857FF"/>
<path d="M88.5668 74.3875C87.2513 74.3875 86.1848 73.3287 86.1848 72.0226C86.1848 70.7165 87.2513 69.6577 88.5668 69.6577C89.8823 69.6577 90.9488 70.7165 90.9488 72.0226C90.9488 73.3287 89.8823 74.3875 88.5668 74.3875Z" fill="#7857FF"/>
<path d="M159.593 74.3875C158.278 74.3875 157.211 73.3287 157.211 72.0226C157.211 70.7165 158.278 69.6577 159.593 69.6577C160.909 69.6577 161.975 70.7165 161.975 72.0226C161.975 73.3287 160.909 74.3875 159.593 74.3875Z" fill="#7857FF"/>
<path d="M173.669 74.3875C172.353 74.3875 171.287 73.3287 171.287 72.0226C171.287 70.7165 172.353 69.6577 173.669 69.6577C174.984 69.6577 176.051 70.7165 176.051 72.0226C176.051 73.3287 174.984 74.3875 173.669 74.3875Z" fill="#7857FF"/>
<path d="M216.329 74.3875C215.013 74.3875 213.947 73.3287 213.947 72.0226C213.947 70.7165 215.013 69.6577 216.329 69.6577C217.644 69.6577 218.711 70.7165 218.711 72.0226C218.711 73.3287 217.644 74.3875 216.329 74.3875Z" fill="#7857FF"/>
<path d="M17.756 91.8008C16.4404 91.8008 15.3739 90.742 15.3739 89.4359C15.3739 88.1298 16.4404 87.071 17.756 87.071C19.0715 87.071 20.1379 88.1298 20.1379 89.4359C20.1379 90.742 19.0715 91.8008 17.756 91.8008Z" fill="#7857FF"/>
<path d="M31.8314 91.8008C30.5159 91.8008 29.4494 90.742 29.4494 89.4359C29.4494 88.1298 30.5159 87.071 31.8314 87.071C33.1469 87.071 34.2134 88.1298 34.2134 89.4359C34.2134 90.742 33.1469 91.8008 31.8314 91.8008Z" fill="#7857FF"/>
<path d="M46.1226 91.8008C44.807 91.8008 43.7406 90.742 43.7406 89.4359C43.7406 88.1298 44.807 87.071 46.1226 87.071C47.4381 87.071 48.5046 88.1298 48.5046 89.4359C48.5046 90.742 47.4381 91.8008 46.1226 91.8008Z" fill="#7857FF"/>
<path d="M102.858 91.8008C101.542 91.8008 100.476 90.742 100.476 89.4359C100.476 88.1298 101.542 87.071 102.858 87.071C104.173 87.071 105.24 88.1298 105.24 89.4359C105.24 90.742 104.173 91.8008 102.858 91.8008Z" fill="#7857FF"/>
<path d="M116.933 91.8008C115.618 91.8008 114.551 90.742 114.551 89.4359C114.551 88.1298 115.618 87.071 116.933 87.071C118.249 87.071 119.315 88.1298 119.315 89.4359C119.315 90.742 118.249 91.8008 116.933 91.8008Z" fill="#7857FF"/>
<path d="M131.227 91.8008C129.911 91.8008 128.845 90.742 128.845 89.4359C128.845 88.1298 129.911 87.071 131.227 87.071C132.542 87.071 133.609 88.1298 133.609 89.4359C133.609 90.742 132.542 91.8008 131.227 91.8008Z" fill="#7857FF"/>
<path d="M145.302 91.8008C143.987 91.8008 142.92 90.742 142.92 89.4359C142.92 88.1298 143.987 87.071 145.302 87.071C146.618 87.071 147.684 88.1298 147.684 89.4359C147.684 90.742 146.618 91.8008 145.302 91.8008Z" fill="#7857FF"/>
<path d="M159.593 91.8008C158.278 91.8008 157.211 90.742 157.211 89.4359C157.211 88.1298 158.278 87.071 159.593 87.071C160.909 87.071 161.975 88.1298 161.975 89.4359C161.975 90.742 160.909 91.8008 159.593 91.8008Z" fill="#7857FF"/>
<path d="M187.96 91.8008C186.644 91.8008 185.578 90.742 185.578 89.4359C185.578 88.1298 186.644 87.071 187.96 87.071C189.276 87.071 190.342 88.1298 190.342 89.4359C190.342 90.742 189.276 91.8008 187.96 91.8008Z" fill="#7857FF"/>
<path d="M202.035 91.8008C200.72 91.8008 199.653 90.742 199.653 89.4359C199.653 88.1298 200.72 87.071 202.035 87.071C203.351 87.071 204.417 88.1298 204.417 89.4359C204.417 90.742 203.351 91.8008 202.035 91.8008Z" fill="#7857FF"/>
<path d="M216.329 91.8008C215.013 91.8008 213.947 90.742 213.947 89.4359C213.947 88.1298 215.013 87.071 216.329 87.071C217.644 87.071 218.711 88.1298 218.711 89.4359C218.711 90.742 217.644 91.8008 216.329 91.8008Z" fill="#7857FF"/>
<path d="M236.251 91.8008C234.936 91.8008 233.869 90.742 233.869 89.4359C233.869 88.1298 234.936 87.071 236.251 87.071C237.567 87.071 238.633 88.1298 238.633 89.4359C238.633 90.742 237.567 91.8008 236.251 91.8008Z" fill="#7857FF"/>
<path d="M250.543 91.8008C249.227 91.8008 248.161 90.742 248.161 89.4359C248.161 88.1298 249.227 87.071 250.543 87.071C251.858 87.071 252.925 88.1298 252.925 89.4359C252.925 90.742 251.858 91.8008 250.543 91.8008Z" fill="#7857FF"/>
<path d="M264.618 91.8008C263.302 91.8008 262.236 90.742 262.236 89.4359C262.236 88.1298 263.302 87.071 264.618 87.071C265.934 87.071 267 88.1298 267 89.4359C267 90.742 265.934 91.8008 264.618 91.8008Z" fill="#7857FF"/>
<path d="M17.756 109C16.4404 109 15.3739 107.941 15.3739 106.635C15.3739 105.329 16.4404 104.27 17.756 104.27C19.0715 104.27 20.1379 105.329 20.1379 106.635C20.1379 107.941 19.0715 109 17.756 109Z" fill="#7857FF"/>
<path d="M31.8314 109C30.5159 109 29.4494 107.941 29.4494 106.635C29.4494 105.329 30.5159 104.27 31.8314 104.27C33.1469 104.27 34.2134 105.329 34.2134 106.635C34.2134 107.941 33.1469 109 31.8314 109Z" fill="#7857FF"/>
<path d="M46.1226 109C44.807 109 43.7406 107.941 43.7406 106.635C43.7406 105.329 44.807 104.27 46.1226 104.27C47.4381 104.27 48.5046 105.329 48.5046 106.635C48.5046 107.941 47.4381 109 46.1226 109Z" fill="#7857FF"/>
<path d="M60.198 109C58.8825 109 57.816 107.941 57.816 106.635C57.816 105.329 58.8825 104.27 60.198 104.27C61.5136 104.27 62.58 105.329 62.58 106.635C62.58 107.941 61.5136 109 60.198 109Z" fill="#7857FF"/>
<path d="M74.4913 109C73.1758 109 72.1093 107.941 72.1093 106.635C72.1093 105.329 73.1758 104.27 74.4913 104.27C75.8069 104.27 76.8733 105.329 76.8733 106.635C76.8733 107.941 75.8069 109 74.4913 109Z" fill="#7857FF"/>
<path d="M88.5668 109C87.2513 109 86.1848 107.941 86.1848 106.635C86.1848 105.329 87.2513 104.27 88.5668 104.27C89.8823 104.27 90.9488 105.329 90.9488 106.635C90.9488 107.941 89.8823 109 88.5668 109Z" fill="#7857FF"/>
<path d="M102.858 109C101.542 109 100.476 107.941 100.476 106.635C100.476 105.329 101.542 104.27 102.858 104.27C104.173 104.27 105.24 105.329 105.24 106.635C105.24 107.941 104.173 109 102.858 109Z" fill="#7857FF"/>
<path d="M116.933 109C115.618 109 114.551 107.941 114.551 106.635C114.551 105.329 115.618 104.27 116.933 104.27C118.249 104.27 119.315 105.329 119.315 106.635C119.315 107.941 118.249 109 116.933 109Z" fill="#7857FF"/>
<path d="M131.227 109C129.911 109 128.845 107.941 128.845 106.635C128.845 105.329 129.911 104.27 131.227 104.27C132.542 104.27 133.609 105.329 133.609 106.635C133.609 107.941 132.542 109 131.227 109Z" fill="#7857FF"/>
<path d="M145.302 109C143.987 109 142.92 107.941 142.92 106.635C142.92 105.329 143.987 104.27 145.302 104.27C146.618 104.27 147.684 105.329 147.684 106.635C147.684 107.941 146.618 109 145.302 109Z" fill="#7857FF"/>
</svg>
