<svg width="12" height="21" viewBox="0 0 12 21" fill="none" xmlns="http://www.w3.org/2000/svg">
<path d="M10.5586 11.375H7.92188V19.25H4.40625V11.375H1.55859V8.10547H4.40625V5.64453C4.40625 4.70703 4.58203 3.91016 4.93359 3.25391C5.28516 2.59766 5.77734 2.10547 6.41016 1.77734C7.06641 1.42578 7.81641 1.25 8.66016 1.25C9.03516 1.25 9.43359 1.27344 9.85547 1.32031C10.2773 1.34375 10.6055 1.37891 10.8398 1.42578L11.1914 1.46094V4.23828H9.78516C9.12891 4.23828 8.64844 4.41406 8.34375 4.76562C8.0625 5.09375 7.92188 5.50391 7.92188 5.99609V8.10547H11.0508L10.5586 11.375Z" fill="white"/>
</svg>
