<svg width="19" height="23" viewBox="0 0 19 23" fill="none" xmlns="http://www.w3.org/2000/svg">
<path d="M18 5.36719L15.3438 17.7891C15.1354 18.6745 14.6536 18.9089 13.8984 18.4922L9.875 15.5234L7.92188 17.3984C7.66146 17.6589 7.38802 17.7891 7.10156 17.7891L7.41406 13.6875L14.875 6.96875C15.0573 6.78646 15.0573 6.68229 14.875 6.65625C14.7188 6.60417 14.5495 6.64323 14.3672 6.77344L5.14844 12.5938L1.16406 11.3438C0.721354 11.2135 0.513021 11.0182 0.539062 10.7578C0.565104 10.4974 0.838542 10.276 1.35938 10.0938L16.8672 4.07812C17.2578 3.94792 17.5703 4 17.8047 4.23438C18.0391 4.44271 18.1042 4.82031 18 5.36719Z" fill="white"/>
</svg>
