<svg width="70" height="58" fill="none" xmlns="http://www.w3.org/2000/svg"><path d="M70 13.648v37.746a5.634 5.634 0 01-5.634 5.634H5.634A5.634 5.634 0 010 51.394V13.648h70z" fill="#F5F5F5"/><path d="M70 16.465v-2.817l-35-1.409-35 1.409v37.747a5.634 5.634 0 005.634 5.633H8.45a5.634 5.634 0 01-5.634-5.634v-34.93H70z" fill="#E6E6E6"/><path d="M70 6.606v7.042H0V6.606A5.634 5.634 0 015.634.972h58.732A5.634 5.634 0 0170 6.606z" fill="#50758D"/><path d="M66.831 7.31a3.173 3.173 0 00-3.169-3.17h-30c-.9 0-1.712.378-2.289.982-.671.67-.356.354-1.026 1.026a3.16 3.16 0 00-.98 2.289 3.173 3.173 0 003.168 3.169h30c.9 0 1.712-.377 2.29-.981l1.025-1.026a3.16 3.16 0 00.981-2.29zM9.613 7.275a3.173 3.173 0 00-3.17-3.17c-.899 0-1.71.378-2.288.981-.672.67-.356.355-1.026 1.027A3.16 3.16 0 002.148 8.4a3.173 3.173 0 003.169 3.17c.9 0 1.711-.377 2.289-.981l1.026-1.026a3.16 3.16 0 00.98-2.29zm9.049 0a3.173 3.173 0 00-3.17-3.17c-.898 0-1.71.378-2.288.981-.671.67-.356.355-1.026 1.027a3.159 3.159 0 00-.98 2.288 3.173 3.173 0 003.168 3.17c.9 0 1.712-.377 2.29-.981l1.025-1.026a3.16 3.16 0 00.981-2.29zm9.014 0a3.173 3.173 0 00-3.169-3.17c-.9 0-1.712.378-2.289.981-.671.67-.356.355-1.026 1.027a3.159 3.159 0 00-.98 2.288 3.173 3.173 0 003.168 3.17c.9 0 1.712-.377 2.29-.981l1.025-1.026a3.16 3.16 0 00.981-2.29z" fill="#2B597F"/><path d="M6.444 10.444a3.173 3.173 0 01-3.17-3.17 3.173 3.173 0 013.17-3.168 3.173 3.173 0 013.169 3.169 3.173 3.173 0 01-3.17 3.169z" fill="#FD646F"/><path d="M15.493 10.48a3.173 3.173 0 01-3.17-3.17 3.173 3.173 0 013.17-3.169 3.173 3.173 0 013.169 3.17 3.173 3.173 0 01-3.169 3.168z" fill="#FFC682"/><path d="M24.507 10.48a3.173 3.173 0 01-3.169-3.17 3.173 3.173 0 013.169-3.169 3.173 3.173 0 013.169 3.17 3.173 3.173 0 01-3.169 3.168z" fill="#93DDB7"/><path d="M63.662 10.48h-30a3.173 3.173 0 01-3.169-3.17 3.173 3.173 0 013.169-3.169h30a3.173 3.173 0 013.169 3.17 3.173 3.173 0 01-3.169 3.168z" fill="#F5F5F5"/><path d="M30.52 47.79a2.212 2.212 0 01-2.026-3.098l8.957-20.505a2.212 2.212 0 014.054 1.77L32.55 46.463a2.212 2.212 0 01-2.028 1.327zm-8.846-.798a2.205 2.205 0 01-1.564-.647l-8.295-8.295a2.212 2.212 0 010-3.128l8.184-8.184a2.212 2.212 0 013.128 3.128l-6.62 6.62 6.73 6.73a2.212 2.212 0 01-1.563 3.776zm26.652 0c.566 0 1.133-.216 1.564-.647l8.295-8.295a2.212 2.212 0 000-3.128l-8.184-8.184a2.212 2.212 0 00-3.128 3.128l6.62 6.62-6.73 6.73a2.212 2.212 0 001.563 3.776z" fill="#50758D"/></svg>