<svg width="25" height="25" fill="none" xmlns="http://www.w3.org/2000/svg"><mask id="mask0" style="mask-type:alpha" maskUnits="userSpaceOnUse" x="0" y="0" width="25" height="25"><path fill="#C4C4C4" d="M0 0h25v25H0z"/></mask><g mask="url(#mask0)"><path d="M14.429 8.347a.403.403 0 00-.409-.408h-.816a.403.403 0 00-.408.408v4.49H9.939a.403.403 0 00-.408.408v.816c0 .23.178.408.408.408h4.081c.23 0 .409-.178.409-.408V8.347zm5.306 4.49a6.946 6.946 0 01-6.94 6.939 6.946 6.946 0 01-6.938-6.94 6.946 6.946 0 016.939-6.938 6.946 6.946 0 016.939 6.939zm2.857 0c0-5.408-4.388-9.796-9.796-9.796C7.388 3.04 3 7.429 3 12.837c0 5.408 4.388 9.796 9.796 9.796 5.408 0 9.796-4.388 9.796-9.796z" fill="#fff"/></g></svg>