<svg width="44" height="43" fill="none" xmlns="http://www.w3.org/2000/svg"><path d="M0 19c0 10.493 8.507 19 19 19 3.584 0 6.936-.992 9.797-2.717L22 28.763 28.487 22l6.901 6.62A18.912 18.912 0 0038 19C38 8.507 29.493 0 19 0S0 8.507 0 19z" fill="#5A66F4"/><path fill-rule="evenodd" clip-rule="evenodd" d="M28.797 35.283a19.095 19.095 0 006.591-6.663l7.632 7.32-6.487 6.763-7.736-7.42z" fill="#F1C244"/><path d="M28.487 22L22 28.763l6.797 6.52a19.095 19.095 0 006.591-6.663L28.487 22z" fill="#D55E57"/></svg>