<svg width="39" height="43" fill="none" xmlns="http://www.w3.org/2000/svg"><path fill-rule="evenodd" clip-rule="evenodd" d="M31.99 13c.007-.166.01-.332.01-.5C32 5.596 26.404 0 19.5 0S7 5.596 7 12.5c0 .168.003.334.01.5h24.98z" fill="#F1C244"/><path fill-rule="evenodd" clip-rule="evenodd" d="M7.01 13c.262 6.672 5.754 12 12.49 12 6.736 0 12.228-5.328 12.49-12H7.01z" fill="#D55E57"/><path fill-rule="evenodd" clip-rule="evenodd" d="M19.5 25c6.736 0 12.228-5.328 12.49-12H7.01c.262 6.672 5.754 12 12.49 12z" fill="#D55E57"/><path fill-rule="evenodd" clip-rule="evenodd" d="M31.99 13H39v30H0V13h7.01c.262 6.672 5.754 12 12.49 12 6.736 0 12.228-5.328 12.49-12z" fill="#5A66F4"/></svg>