<svg width="186" height="543" fill="none" xmlns="http://www.w3.org/2000/svg"><path d="M288.803 136.377c.06 1.013.107 2.03.14 3.05l-.5.016a110.614 110.614 0 010 7.114l.5.016c-.077 2.39-.23 4.761-.458 7.111l-.497-.048c-.098 1.013-.21 2.022-.336 3.027l.496.062c-.296 2.372-.669 4.72-1.114 7.042l-.491-.095a108.447 108.447 0 01-1.565 6.92l.484.126c-.258.989-.529 1.972-.814 2.95l-.48-.14a108.386 108.386 0 01-2.204 6.744l.469.171c-.814 2.241-1.7 4.448-2.655 6.619l-.457-.202c-.409.93-.83 1.852-1.264 2.768l.452.214a109.133 109.133 0 01-3.259 6.341l-.437-.243a109.1 109.1 0 01-3.649 6.089l.42.271a107.92 107.92 0 01-1.69 2.546l-.412-.283a109.703 109.703 0 01-4.196 5.726l.394.309a111.175 111.175 0 01-4.577 5.468l-.373-.333a106.16 106.16 0 01-2.058 2.24l.364.344a111.51 111.51 0 01-5.059 5.025l-.341-.366a110.363 110.363 0 01-5.347 4.668l.316.387c-.788.645-1.585 1.279-2.391 1.902l-.306-.395a110.761 110.761 0 01-5.754 4.159l.28.414a110.404 110.404 0 01-6.035 3.796l-.252-.432c-.875.512-1.758 1.012-2.648 1.501l.24.438c-2.079 1.14-4.2 2.216-6.359 3.224l-.211-.453a109.505 109.505 0 01-6.524 2.794l.182.466c-.949.37-1.903.728-2.864 1.072l-.169-.47a110.709 110.709 0 01-6.753 2.178l.138.48a110.398 110.398 0 01-6.914 1.745l-.107-.489c-.989.216-1.982.419-2.981.608l.093.491c-2.323.44-4.672.807-7.044 1.1l-.061-.497c-2.335.288-4.693.504-7.072.644l.03.499c-1.013.059-2.03.105-3.05.138l-.016-.5a113.598 113.598 0 01-7.114 0l-.016.5a111.96 111.96 0 01-7.112-.452l.048-.497a111.184 111.184 0 01-3.028-.332l-.062.497c-2.372-.293-4.72-.66-7.043-1.1l.093-.491a110.02 110.02 0 01-6.924-1.545l-.125.485c-.99-.255-1.974-.523-2.953-.804l.138-.48a110.709 110.709 0 01-6.753-2.178l-.169.47a110.052 110.052 0 01-6.631-2.624l.199-.458c-.931-.404-1.856-.821-2.774-1.25l-.211.453a110.118 110.118 0 01-6.359-3.224l.24-.438a110.754 110.754 0 01-6.111-3.613l-.268.422c-.86-.546-1.712-1.105-2.556-1.674l.28-.414a110.761 110.761 0 01-5.754-4.159l-.306.395a111.245 111.245 0 01-5.498-4.539l.331-.376c-.761-.67-1.513-1.351-2.255-2.042l-.341.366a111.405 111.405 0 01-5.059-5.025l.364-.344a110.138 110.138 0 01-4.705-5.315l-.385.319a110.72 110.72 0 01-1.918-2.379l.394-.309a109.695 109.695 0 01-4.196-5.726l-.412.283c-1.34-1.96-2.62-3.965-3.834-6.012l.43-.255a109.826 109.826 0 01-1.515-2.639l-.437.243a109.517 109.517 0 01-3.26-6.341l.453-.214a108.588 108.588 0 01-2.826-6.51l-.465.184c-.375-.947-.737-1.9-1.085-2.859l.47-.171a108.26 108.26 0 01-2.205-6.744l-.48.14a108.794 108.794 0 01-1.768-6.908l.489-.108c-.219-.989-.424-1.982-.616-2.98l-.49.095c-.446-2.322-.819-4.67-1.115-7.042l.496-.062a109.42 109.42 0 01-.652-7.07l-.499.03a110.62 110.62 0 01-.14-3.05l.5-.016a111.198 111.198 0 010-7.114l-.5-.016c.077-2.39.23-4.761.457-7.111l.498.048c.098-1.013.21-2.022.336-3.027l-.496-.062c.296-2.372.669-4.72 1.114-7.042l.491.095c.448-2.334.97-4.642 1.565-6.92l-.484-.126c.258-.989.529-1.972.814-2.95l.48.14c.663-2.28 1.399-4.528 2.204-6.744l-.47-.171a108.717 108.717 0 012.656-6.619l.457.202c.409-.93.83-1.852 1.263-2.768l-.451-.214a109.467 109.467 0 013.26-6.341l.436.243a109.377 109.377 0 013.649-6.09l-.42-.27a107.92 107.92 0 011.69-2.546l.412.283a109.91 109.91 0 014.196-5.726l-.394-.309a110.73 110.73 0 014.577-5.468l.373.334c.675-.757 1.362-1.504 2.058-2.242l-.364-.343a110.99 110.99 0 015.059-5.025l.341.366a110.486 110.486 0 015.347-4.668l-.316-.387c.788-.645 1.585-1.28 2.391-1.902l.306.395a110.58 110.58 0 015.754-4.159l-.28-.414a110.527 110.527 0 016.035-3.796l.252.431c.875-.511 1.758-1.011 2.648-1.5l-.24-.438c2.079-1.14 4.2-2.216 6.359-3.224l.211.453a109.505 109.505 0 016.524-2.794l-.182-.466c.949-.37 1.903-.728 2.864-1.072l.169.47a109.676 109.676 0 016.753-2.178l-.138-.48a110.257 110.257 0 016.914-1.745l.107.489c.989-.216 1.982-.419 2.981-.608l-.093-.49c2.323-.44 4.672-.808 7.044-1.1l.061.496c2.335-.288 4.693-.504 7.072-.644l-.03-.499c1.013-.06 2.03-.105 3.05-.138l.016.5a112.387 112.387 0 017.114 0l.016-.5c2.39.076 4.762.227 7.112.452l-.048.497c1.014.097 2.023.208 3.028.332l.062-.497c2.372.293 4.72.66 7.043 1.1l-.093.491c2.335.443 4.644.958 6.924 1.545l.125-.485c.99.255 1.974.523 2.953.804l-.138.48c2.282.656 4.534 1.383 6.753 2.178l.169-.47c2.245.805 4.456 1.68 6.631 2.624l-.199.459c.931.403 1.856.82 2.774 1.249l.211-.453a109.995 109.995 0 016.359 3.224l-.24.438a109.998 109.998 0 016.111 3.613l.268-.422c.86.546 1.712 1.105 2.556 1.674l-.28.414a110.582 110.582 0 015.754 4.16l.306-.396a110.812 110.812 0 015.498 4.54l-.331.375c.761.67 1.513 1.351 2.255 2.042l.341-.366a111.04 111.04 0 015.059 5.025l-.364.344a109.937 109.937 0 014.705 5.315l.385-.319c.65.784 1.289 1.577 1.918 2.38l-.394.308a109.917 109.917 0 014.196 5.726l.412-.283c1.341 1.96 2.62 3.965 3.834 6.012l-.431.255c.517.872 1.023 1.752 1.516 2.639l.437-.243a109.083 109.083 0 013.259 6.341l-.452.214a108.549 108.549 0 012.826 6.51l.465-.184c.375.947.737 1.9 1.085 2.859l-.469.171a108.386 108.386 0 012.204 6.744l.48-.14a108.799 108.799 0 011.768 6.908l-.489.108c.219.989.424 1.982.616 2.98l.491-.095c.445 2.322.818 4.67 1.114 7.042l-.496.062c.292 2.334.51 4.692.652 7.07l.499-.03z" stroke="#fff" stroke-dasharray="7 3 7 7 3 7"/><circle cx="178.5" cy="143.5" r="178" stroke="#fff" stroke-dasharray="7 3 7 7 3 7"/><circle cx="307.5" cy="348.5" r="194" stroke="#fff" stroke-dasharray="7 3 7 7 3 7"/></svg>