<svg width="636" height="984" fill="none" xmlns="http://www.w3.org/2000/svg"><mask id="mask0" style="mask-type:alpha" maskUnits="userSpaceOnUse" x="0" y="0" width="636" height="984"><path fill="#C4C4C4" d="M0 0h636v984H0z"/></mask><g mask="url(#mask0)" stroke="#fff" stroke-dasharray="7 3 7 7 3 7"><path d="M605.915-19.816c.026.968.046 1.938.06 2.91l-.5.007a226.137 226.137 0 010 6.798l.5.007a234.084 234.084 0 01-.196 6.776l-.5-.021c-.042.966-.09 1.932-.144 2.895l.499.028a232.62 232.62 0 01-.479 6.775l-.499-.042a229.289 229.289 0 01-.675 6.733l.497.057c-.112.966-.229 1.929-.352 2.89l-.496-.063a229.88 229.88 0 01-.957 6.692l.494.078a226.768 226.768 0 01-1.16 6.691l-.491-.092c-.179.949-.364 1.895-.554 2.84l.49.1c-.449 2.223-.93 4.436-1.442 6.636l-.487-.113a230.63 230.63 0 01-1.632 6.564l.483.128c-.248.94-.502 1.876-.762 2.81l-.482-.133a227.774 227.774 0 01-1.908 6.487l.478.149a230.777 230.777 0 01-2.109 6.455l-.473-.163c-.314.915-.634 1.827-.959 2.736l.471.168a230.643 230.643 0 01-2.379 6.356l-.466-.182a227.411 227.411 0 01-2.559 6.262l.46.196c-.38.893-.766 1.784-1.158 2.671l-.457-.202a230.815 230.815 0 01-2.823 6.151l.451.215a229.276 229.276 0 01-3.012 6.082l-.445-.228c-.442.86-.889 1.717-1.341 2.571l.442.234c-1.06 2-2.149 3.983-3.266 5.948l-.434-.247a232.125 232.125 0 01-3.43 5.833l.427.26a231.48 231.48 0 01-1.527 2.476l-.424-.265a226.794 226.794 0 01-3.674 5.686l.416.278a230.428 230.428 0 01-3.848 5.588l-.407-.289c-.561.788-1.126 1.573-1.695 2.354l.404.295a231.809 231.809 0 01-4.079 5.422l-.395-.307a229.059 229.059 0 01-4.226 5.288l.386.318c-.616.748-1.237 1.493-1.862 2.233l-.382-.322a232.015 232.015 0 01-4.444 5.107l.372.334a233.014 233.014 0 01-4.601 4.986l-.362-.345c-.666.701-1.337 1.398-2.012 2.091l.358.349a230.813 230.813 0 01-4.805 4.789l-.347-.359a232.277 232.277 0 01-4.933 4.638l.337.369c-.716.653-1.436 1.302-2.159 1.947l-.333-.374a227.219 227.219 0 01-5.122 4.428l.322.383a232.708 232.708 0 01-5.26 4.284l-.31-.392c-.758.6-1.521 1.195-2.287 1.785l.305.396a233.9 233.9 0 01-5.434 4.062l-.294-.405a233.175 233.175 0 01-5.54 3.893l.281.413c-.8.545-1.605 1.086-2.413 1.621l-.276-.417a231.578 231.578 0 01-5.697 3.657l.264.425a231.658 231.658 0 01-5.813 3.495l-.252-.432c-.836.486-1.675.967-2.517 1.442l.246.436a229.732 229.732 0 01-5.957 3.248l-.233-.442a230.797 230.797 0 01-6.037 3.066l.22.449c-.87.426-1.744.846-2.62 1.262l-.214-.452a228.016 228.016 0 01-6.158 2.807l.201.458a227.868 227.868 0 01-6.253 2.631l-.187-.463c-.896.361-1.795.717-2.697 1.068l.181.466a227.028 227.028 0 01-6.361 2.366l-.167-.471c-2.123.754-4.26 1.478-6.412 2.171l.154.476c-.923.298-1.849.589-2.777.876l-.148-.478c-2.15.663-4.314 1.295-6.491 1.897l.133.482a230.66 230.66 0 01-6.567 1.71l-.119-.486c-.937.23-1.877.453-2.819.671l.112.488c-2.201.509-4.414.987-6.639 1.433l-.098-.491c-2.205.442-4.422.853-6.649 1.232l.083.493c-.956.162-1.915.319-2.876.47l-.077-.494c-2.221.349-4.453.666-6.694.951l.063.496c-2.241.285-4.491.538-6.751.759l-.049-.498c-.958.093-1.919.181-2.881.263l.043.498c-2.25.191-4.508.35-6.776.476l-.028-.499a235.55 235.55 0 01-6.753.279l.013.499c-.968.026-1.938.046-2.91.06l-.007-.5a226.163 226.163 0 01-6.798 0l-.007.5a234.173 234.173 0 01-6.777-.195l.022-.499c-.967-.042-1.932-.09-2.895-.144l-.028.499a232.688 232.688 0 01-6.776-.476l.043-.498a236.42 236.42 0 01-6.734-.671l-.057.496a211.02 211.02 0 01-2.89-.349l.063-.496a230.274 230.274 0 01-6.694-.951l-.077.494a230.154 230.154 0 01-6.693-1.152l.092-.492c-.949-.178-1.896-.361-2.841-.551l-.098.491a230.735 230.735 0 01-6.639-1.433l.112-.488c-2.201-.509-4.39-1.05-6.566-1.621l-.127.483c-.94-.246-1.877-.499-2.812-.757l.133-.482a231.594 231.594 0 01-6.492-1.897l-.147.478a233.935 233.935 0 01-6.459-2.097l.161-.473a232.69 232.69 0 01-2.737-.953l-.167.471a227.028 227.028 0 01-6.361-2.366l.181-.466a226.751 226.751 0 01-6.267-2.544l-.195.46a211.1 211.1 0 01-2.675-1.152l.201-.458a228.016 228.016 0 01-6.158-2.807l-.214.452a229.038 229.038 0 01-6.09-2.997l.228-.445c-.862-.44-1.72-.885-2.575-1.335l-.233.442a229.732 229.732 0 01-5.957-3.248l.246-.436a232.507 232.507 0 01-5.843-3.413l-.258.428a238.068 238.068 0 01-2.481-1.52l.264-.425a231.578 231.578 0 01-5.697-3.657l-.276.417a228.582 228.582 0 01-5.601-3.831l.289-.409c-.791-.557-1.577-1.12-2.36-1.687l-.294.405a231.785 231.785 0 01-5.434-4.062l.305-.396a231.206 231.206 0 01-5.301-4.209l-.317.387c-.75-.614-1.496-1.232-2.239-1.855l.321-.383a229.398 229.398 0 01-5.121-4.428l-.333.374a235.657 235.657 0 01-5.001-4.585l.344-.364a220.614 220.614 0 01-2.098-2.005l-.347.359a230.813 230.813 0 01-4.805-4.789l.358-.349a232.187 232.187 0 01-4.653-4.917l-.369.338a233.915 233.915 0 01-1.953-2.153l.372-.334a232.015 232.015 0 01-4.444-5.107l-.382.322a229.986 229.986 0 01-4.301-5.246l.391-.311a233.483 233.483 0 01-1.792-2.282l-.395.307a231.809 231.809 0 01-4.079-5.422l.404-.295a228.252 228.252 0 01-3.909-5.528l-.413.283c-.548-.799-1.09-1.602-1.628-2.408l.416-.278a226.794 226.794 0 01-3.674-5.686l-.424.265a231.64 231.64 0 01-3.512-5.803l.432-.253c-.489-.834-.972-1.672-1.45-2.513l-.434.247a229.412 229.412 0 01-3.266-5.948l.442-.234a227.503 227.503 0 01-3.081-6.029l-.449.221c-.428-.87-.851-1.741-1.268-2.617l.451-.215a230.525 230.525 0 01-2.823-6.15l-.457.201a227.439 227.439 0 01-2.646-6.247l.463-.188a243.57 243.57 0 01-1.074-2.694l-.466.182a230.77 230.77 0 01-2.379-6.356l.471-.168a225.312 225.312 0 01-2.184-6.407l-.476.154a234.48 234.48 0 01-.881-2.776l.478-.148a227.582 227.582 0 01-1.908-6.487l-.482.134a227.84 227.84 0 01-1.721-6.565l.486-.12a235.98 235.98 0 01-.676-2.818l-.487.113c-.512-2.2-.993-4.413-1.442-6.637l.49-.099c-.444-2.204-.858-4.42-1.239-6.647l-.493.084c-.163-.956-.321-1.915-.473-2.875l.494-.079a229.25 229.25 0 01-.957-6.693l-.496.064a226.85 226.85 0 01-.763-6.751l.497-.049c-.094-.958-.182-1.919-.264-2.88l-.499.042c-.192-2.25-.352-4.508-.479-6.775l.499-.028a232.032 232.032 0 01-.28-6.753l-.5.013a234.2 234.2 0 01-.06-2.91l.5-.007a226.137 226.137 0 010-6.798l-.5-.007c.033-2.267.098-4.526.196-6.776l.5.021c.042-.966.09-1.932.144-2.895l-.499-.028c.127-2.268.287-4.526.479-6.775l.499.042c.192-2.254.418-4.498.675-6.733l-.497-.058c.112-.965.229-1.928.352-2.889l.496.063c.287-2.24.606-4.472.957-6.692l-.494-.079c.354-2.24.741-4.471 1.16-6.69l.491.092c.179-.949.364-1.896.554-2.84l-.49-.1c.449-2.223.93-4.436 1.442-6.636l.487.113a230.63 230.63 0 011.632-6.564l-.483-.128c.248-.94.502-1.876.762-2.81l.482.133a227.774 227.774 0 011.908-6.487l-.478-.149a230.777 230.777 0 012.109-6.455l.473.162c.314-.914.634-1.826.959-2.735l-.471-.168a230.764 230.764 0 012.379-6.356l.466.182c.823-2.102 1.676-4.19 2.559-6.262l-.46-.196c.38-.893.766-1.784 1.158-2.671l.457.202a229.682 229.682 0 012.823-6.151l-.451-.215a228.96 228.96 0 013.012-6.082l.445.228c.442-.86.889-1.717 1.341-2.571l-.442-.234c1.06-2 2.149-3.983 3.266-5.948l.434.247a232.471 232.471 0 013.43-5.833l-.427-.26a231.48 231.48 0 011.527-2.476l.424.265a226.794 226.794 0 013.674-5.686l-.416-.278a230.428 230.428 0 013.848-5.588l.407.289c.561-.788 1.126-1.573 1.695-2.354l-.404-.295a231.809 231.809 0 014.079-5.422l.395.307a229.059 229.059 0 014.226-5.288l-.386-.318c.616-.748 1.237-1.493 1.862-2.233l.382.322a232.015 232.015 0 014.444-5.107l-.372-.334a233.014 233.014 0 014.601-4.986l.362.345c.666-.701 1.337-1.398 2.012-2.091l-.358-.349c1.578-1.62 3.18-3.216 4.805-4.789l.348.359a229.834 229.834 0 014.932-4.638l-.337-.369c.716-.653 1.435-1.302 2.159-1.947l.333.374a227.219 227.219 0 015.122-4.428l-.322-.383a232.708 232.708 0 015.26-4.284l.31.392c.758-.6 1.521-1.195 2.287-1.785l-.305-.396a233.9 233.9 0 015.434-4.062l.294.405a233.175 233.175 0 015.54-3.893l-.281-.413c.8-.545 1.605-1.086 2.413-1.621l.276.417a231.578 231.578 0 015.697-3.657l-.264-.425a231.658 231.658 0 015.813-3.495l.252.432c.836-.486 1.675-.967 2.517-1.442l-.246-.436a229.732 229.732 0 015.957-3.248l.233.442a230.797 230.797 0 016.037-3.066l-.22-.449a252.17 252.17 0 012.62-1.262l.214.452a228.016 228.016 0 016.158-2.807l-.201-.458a227.868 227.868 0 016.253-2.631l.187.463c.896-.361 1.795-.717 2.697-1.068l-.181-.466a227.028 227.028 0 016.361-2.366l.167.471c2.123-.754 4.26-1.478 6.412-2.171l-.154-.476c.923-.298 1.849-.589 2.777-.876l.148.478c2.15-.663 4.314-1.295 6.491-1.897l-.133-.482a230.66 230.66 0 016.567-1.71l.119.486c.937-.23 1.877-.453 2.819-.671l-.112-.488c2.201-.509 4.414-.987 6.639-1.433l.098.491c2.205-.442 4.422-.853 6.649-1.232l-.083-.493c.956-.162 1.915-.319 2.876-.47l.077.494c2.221-.349 4.453-.666 6.694-.951l-.063-.496c2.241-.285 4.491-.538 6.751-.759l.049.498a246.49 246.49 0 012.881-.263l-.043-.498c2.25-.191 4.508-.35 6.776-.476l.028.499a235.55 235.55 0 016.753-.279l-.013-.499a233.77 233.77 0 012.91-.06l.007.499a240.288 240.288 0 016.798 0l.007-.499c2.267.032 4.526.098 6.777.195l-.022.499c.967.042 1.932.09 2.895.144l.028-.499c2.268.126 4.526.285 6.776.476l-.043.498c2.254.192 4.499.416 6.734.671l.057-.496c.965.11 1.929.226 2.89.349l-.063.496c2.241.285 4.473.602 6.694.951l.077-.494c2.242.352 4.473.736 6.693 1.152l-.092.492c.949.178 1.896.361 2.841.551l.098-.491c2.225.446 4.438.924 6.639 1.433l-.112.488c2.201.509 4.39 1.05 6.566 1.621l.127-.483c.94.246 1.877.499 2.812.757l-.133.482c2.177.602 4.341 1.234 6.492 1.897l.147-.478c2.167.669 4.32 1.368 6.459 2.097l-.161.473c.915.312 1.827.63 2.737.953l.167-.471c2.135.758 4.256 1.547 6.361 2.366l-.181.466c2.104.818 4.194 1.666 6.267 2.544l.195-.46a211.1 211.1 0 012.675 1.152l-.201.458c2.069.906 4.121 1.842 6.158 2.807l.214-.452c2.047.97 4.077 1.969 6.09 2.997l-.228.445c.862.44 1.72.885 2.575 1.335l.233-.442a229.732 229.732 0 015.957 3.248l-.246.436a232.507 232.507 0 015.843 3.413l.258-.428c.831.502 1.658 1.009 2.481 1.52l-.264.425a231.578 231.578 0 015.697 3.657l.276-.417a228.582 228.582 0 015.601 3.831l-.289.409c.791.557 1.577 1.12 2.36 1.687l.294-.405a231.785 231.785 0 015.434 4.062l-.305.396a231.206 231.206 0 015.301 4.209l.317-.387c.75.614 1.496 1.232 2.239 1.855l-.321.383a229.398 229.398 0 015.121 4.428l.333-.374a235.657 235.657 0 015.001 4.585l-.344.364c.704.664 1.403 1.332 2.098 2.005l.347-.359a230.813 230.813 0 014.805 4.789l-.358.349a232.187 232.187 0 014.653 4.917l.369-.338c.655.714 1.307 1.431 1.953 2.153l-.372.334a232.015 232.015 0 014.444 5.107l.382-.322a229.986 229.986 0 014.301 5.246l-.391.311c.602.757 1.199 1.517 1.792 2.282l.395-.307a231.809 231.809 0 014.079 5.422l-.404.295a228.252 228.252 0 013.909 5.528l.413-.283c.548.799 1.09 1.602 1.628 2.408l-.416.278a226.794 226.794 0 013.674 5.686l.424-.265a231.64 231.64 0 013.512 5.803l-.432.253c.489.834.972 1.672 1.45 2.513l.434-.247a229.749 229.749 0 013.266 5.948l-.442.234a226.143 226.143 0 013.081 6.029l.449-.221c.428.869.851 1.741 1.268 2.617l-.451.215c.97 2.034 1.911 4.084 2.823 6.151l.457-.202a226.535 226.535 0 012.646 6.247l-.463.188c.363.895.721 1.793 1.074 2.694l.466-.182a230.77 230.77 0 012.379 6.356l-.471.168a225.312 225.312 0 012.184 6.407l.476-.154c.299.922.593 1.848.881 2.776l-.478.148a228.106 228.106 0 011.908 6.487l.482-.133a227.92 227.92 0 011.721 6.564l-.486.12c.231.937.456 1.876.676 2.818l.487-.113c.512 2.2.993 4.413 1.442 6.637l-.49.099c.444 2.204.858 4.42 1.239 6.647l.493-.084c.163.956.321 1.915.473 2.875l-.494.079c.351 2.22.67 4.451.957 6.693l.496-.064c.287 2.24.542 4.491.763 6.751l-.497.049c.094.958.182 1.919.264 2.88l.499-.042c.192 2.25.352 4.508.479 6.775l-.499.028c.126 2.242.219 4.494.28 6.753l.5-.013z"/><circle cx="375" cy="-13" r="374.5"/><circle cx="695" cy="574" r="407.5"/></g></svg>