<svg width="30" height="35" fill="none" xmlns="http://www.w3.org/2000/svg"><path d="M11.632 0h-9.51C.95 0 0 .95 0 2.121v30.14c0 1.172.95 2.122 2.121 2.122h9.51c1.172 0 2.122-.95 2.122-2.121V2.122C13.753.95 12.803 0 11.632 0z" fill="#F1C244"/><path d="M18.316 34.383h9.215a2.27 2.27 0 002.269-2.27V18.315a2.27 2.27 0 00-2.27-2.27h-9.214a2.27 2.27 0 00-2.27 2.27v13.8a2.27 2.27 0 002.27 2.27z" fill="#5A66F4"/><path d="M22.922 13.753a6.877 6.877 0 100-13.753 6.877 6.877 0 000 13.753z" fill="#D55E57"/></svg>