<svg width="101" height="38" fill="none" xmlns="http://www.w3.org/2000/svg"><path d="M11.632.157h-9.51C.95.157 0 1.196 0 2.477v32.967c0 1.281.95 2.32 2.121 2.32h9.51c1.172 0 2.122-1.039 2.122-2.32V2.477c0-1.281-.95-2.32-2.121-2.32z" fill="#F1C244"/><path d="M18.316 37.764h9.215c1.253 0 2.269-1.111 2.269-2.482V20.188c0-1.37-1.016-2.482-2.27-2.482h-9.214c-1.253 0-2.27 1.111-2.27 2.482v15.094c0 1.37 1.017 2.482 2.27 2.482z" fill="#5A66F4"/><path d="M22.922 15.2c3.797 0 6.876-3.368 6.876-7.522S26.72.157 22.922.157c-3.798 0-6.877 3.367-6.877 7.521s3.079 7.522 6.877 7.522z" fill="#D55E57"/><path d="M69.93 30.779a.63.63 0 01-.048.245.583.583 0 01-.137.2.668.668 0 01-.457.184.668.668 0 01-.456-.184.59.59 0 01-.137-.2.638.638 0 010-.49.59.59 0 01.137-.201.669.669 0 01.456-.184c.168 0 .33.065.457.184a.578.578 0 01.138.2c.032.077.048.16.047.245zm-.074 5.293c0 .076-.015.15-.045.22a.593.593 0 01-.53.339.593.593 0 01-.53-.34.557.557 0 01-.045-.22v-3.538c0-.075.017-.148.046-.215a.593.593 0 01.529-.334.593.593 0 01.53.334c.029.067.045.14.045.215v3.539zm1.134-4.862a.572.572 0 01.037-.213.53.53 0 01.112-.179.567.567 0 01.195-.125.532.532 0 01.224-.033.517.517 0 01.225.034.524.524 0 01.304.3.56.56 0 01.04.206v1h.609a.534.534 0 01.504.327c.027.067.04.14.039.213a.52.52 0 01-.04.207.48.48 0 01-.116.169.54.54 0 01-.387.148h-.609v1.36c0 .167 0 .31.012.423.005.096.026.19.062.278a.302.302 0 00.136.154.505.505 0 00.234.046c.03.002.06.002.09 0h.049a.885.885 0 01.536.116c.05.046.088.104.112.17a.473.473 0 01.028.206.652.652 0 01-.066.316.477.477 0 01-.172.188.715.715 0 01-.25.081 2.486 2.486 0 01-.298.017 2.11 2.11 0 01-.79-.126 1.115 1.115 0 01-.493-.376 1.457 1.457 0 01-.25-.598 4.27 4.27 0 01-.071-.814l-.005-3.496z" fill="#000105" stroke="#000105" stroke-width=".083" stroke-miterlimit="10"/><path d="M76.472 33.874a.548.548 0 01-.04.214.506.506 0 01-.117.177.524.524 0 01-.387.158H73.88a.536.536 0 01-.552-.55c0-.072.014-.145.041-.211a.532.532 0 01.511-.337h2.05a.521.521 0 01.386.161.56.56 0 01.156.387zm1.325 2.7a.55.55 0 01-.404-.162.508.508 0 01-.127-.177.552.552 0 01-.045-.22v-3.482c0-.075.015-.15.045-.217a.494.494 0 01.127-.174.602.602 0 01.403-.158c.147 0 .29.055.403.158a.492.492 0 01.127.174c.03.067.046.142.045.217v3.023h.84v-3.023c0-.075.016-.148.046-.215a.593.593 0 01.529-.334.593.593 0 01.528.334c.03.067.046.14.046.215v3.023h.84v-3.023c0-.075.014-.15.044-.217a.495.495 0 01.127-.174.602.602 0 01.403-.158c.147 0 .29.055.403.158a.494.494 0 01.123.175.535.535 0 01.04.216v3.482a.548.548 0 01-.04.219.509.509 0 01-.123.178.55.55 0 01-.404.162h-3.976zm6.698-1.674v1.172c0 .076-.016.15-.046.22a.593.593 0 01-.53.339.593.593 0 01-.529-.34.557.557 0 01-.045-.22v-3.538c0-.075.016-.148.046-.215a.593.593 0 01.529-.334.593.593 0 01.529.334c.03.067.045.14.046.215v1.198h.115l1.004-1.486a.572.572 0 01.206-.19.516.516 0 01.263-.062.55.55 0 01.39.13.495.495 0 01.124.167c.03.065.047.136.049.21a.702.702 0 01-.09.323l-1.031 1.494 1.031 1.493a.75.75 0 01.09.326.538.538 0 01-.049.208.494.494 0 01-.123.168.552.552 0 01-.382.135.516.516 0 01-.263-.062.572.572 0 01-.206-.19l-1.004-1.485-.124-.01zm4.427 1.736a2.081 2.081 0 01-.77-.132 1.607 1.607 0 01-.56-.355 1.464 1.464 0 01-.343-.53 1.88 1.88 0 01-.115-.659v-1.333a1.87 1.87 0 01.115-.656 1.47 1.47 0 01.344-.532c.163-.157.353-.278.559-.356a2.352 2.352 0 011.547 0c.205.078.395.2.558.356.15.147.268.329.344.532.077.208.117.431.115.656v1.34c.002.226-.038.45-.115.66a1.463 1.463 0 01-.344.53 1.607 1.607 0 01-.558.355 2.08 2.08 0 01-.777.124zm0-1.063a.664.664 0 00.484-.161.578.578 0 00.132-.205.625.625 0 00.04-.247v-1.35a.612.612 0 00-.04-.24.567.567 0 00-.132-.2.816.816 0 00-.484-.162.817.817 0 00-.485.162.565.565 0 00-.13.2.61.61 0 00-.042.24v1.35a.624.624 0 00.04.247c.03.078.075.148.132.205.137.118.31.177.485.163v-.002zm3.381-3.004a.693.693 0 01.145-.377.42.42 0 01.149-.126.384.384 0 01.184-.04h2.063a.434.434 0 01.382.202.758.758 0 01.103.36v3.484c0 .076-.016.15-.045.22a.593.593 0 01-.53.339.593.593 0 01-.53-.34.555.555 0 01-.045-.22v-3.025h-.829l-.156 1.99a3.598 3.598 0 01-.115.646 1.6 1.6 0 01-.23.497 1.019 1.019 0 01-.367.32 1.148 1.148 0 01-.516.11 1.69 1.69 0 01-.275-.022.734.734 0 01-.242-.081.417.417 0 01-.172-.156.49.49 0 01-.062-.261.557.557 0 01.037-.242.512.512 0 01.135-.195.44.44 0 01.176-.099.401.401 0 01.197-.004l.059.013h.05c.12 0 .194-.171.221-.513l.213-2.48zm7.237 2.925a.44.44 0 00.02.153.175.175 0 00.144.116.38.38 0 01.1.038.307.307 0 01.147.135.353.353 0 01.042.205.463.463 0 01-.132.342.655.655 0 01-.461.126.882.882 0 01-.396-.08.784.784 0 01-.304-.298 1.53 1.53 0 01-.497.307 1.76 1.76 0 01-.613.1c-.484 0-.85-.13-1.096-.388a1.386 1.386 0 01-.285-.475 1.486 1.486 0 01-.084-.56v-.027c0-.918.543-1.377 1.63-1.377.114 0 .223.006.325.017.11.013.219.038.325.074v-.29c0-.414-.21-.62-.626-.62a.88.88 0 00-.293.041 1.636 1.636 0 00-.242.103c-.033.012-.074.03-.124.053a.424.424 0 01-.189.038.446.446 0 01-.37-.177.444.444 0 01-.082-.171.657.657 0 01-.026-.175.509.509 0 01.124-.342.911.911 0 01.325-.233c.146-.064.298-.108.454-.132.167-.026.336-.04.505-.04.599 0 1.032.157 1.288.472.256.316.39.779.39 1.386v1.68zm-1.72-.81a.84.84 0 00-.292.041.392.392 0 00-.172.111.376.376 0 00-.083.168.899.899 0 00-.02.188v.026a.393.393 0 00.024.177.359.359 0 00.1.143.622.622 0 00.385.094c.108 0 .217-.016.321-.05a.961.961 0 00.322-.187v-.64a2.84 2.84 0 00-.585-.071z" fill="#000105" stroke="#000105" stroke-width=".083" stroke-miterlimit="10"/><path d="M43.323 31.99a.447.447 0 01.234.058.472.472 0 01.148.144.769.769 0 01.102.36v2.956h.057a.428.428 0 01.38.2.769.769 0 01.101.36v1.154a.547.547 0 01-.04.217.505.505 0 01-.122.176.587.587 0 01-.401.162.587.587 0 01-.527-.337.547.547 0 01-.046-.218v-.7h-2.253v.7a.547.547 0 01-.042.217.504.504 0 01-.122.176.586.586 0 01-.4.162.586.586 0 01-.527-.337.547.547 0 01-.046-.218v-1.154a.952.952 0 01.02-.162.485.485 0 01.222-.335.429.429 0 01.241-.062c.139-.137.239-.314.29-.511.075-.27.118-.55.127-.831l.073-1.63a.615.615 0 01.14-.377.43.43 0 01.154-.127.393.393 0 01.19-.04l2.047-.004zm-1.506 2.184a5.124 5.124 0 01-.077.72 2.842 2.842 0 01-.172.606h1.112v-2.499h-.818l-.045 1.173zm3.755 2.416a.56.56 0 01-.235-.039.6.6 0 01-.202-.135.546.546 0 01-.128-.187.59.59 0 01-.044-.229v-3.5c0-.076.013-.15.04-.22a.531.531 0 01.12-.18.55.55 0 01.183-.126.51.51 0 01.214-.039.55.55 0 01.404.165c.054.049.097.11.127.179a.56.56 0 01.045.22v2.05l1.367-2.31c.053-.1.132-.18.228-.229a.676.676 0 01.311-.075.571.571 0 01.427.165c.053.055.095.12.123.194a.613.613 0 01.04.231v3.492a.586.586 0 01-.042.22.57.57 0 01-.522.351.57.57 0 01-.565-.57v-2.015l-1.359 2.29a.673.673 0 01-.23.215.584.584 0 01-.303.083zm5.941-.57a.553.553 0 01-.042.215.509.509 0 01-.122.177.547.547 0 01-.4.162.555.555 0 01-.566-.555v-2.956h-.605a.528.528 0 01-.5-.327.565.565 0 01.115-.596.536.536 0 01.385-.152h2.342a.52.52 0 01.5.327.561.561 0 01-.117.596.526.526 0 01-.383.152h-.607v2.956zm4.55.554a.547.547 0 01-.4-.162.503.503 0 01-.122-.176.546.546 0 01-.042-.217v-1.154h-.343l-.975 1.459a.585.585 0 01-.206.186.529.529 0 01-.26.064.56.56 0 01-.385-.13.485.485 0 01-.118-.162.528.528 0 01-.046-.2.709.709 0 01.09-.332l.713-1.038a1.099 1.099 0 01-.59-.493 1.686 1.686 0 01-.18-.814 1.423 1.423 0 01.095-.561 1.32 1.32 0 01.302-.465c.265-.26.666-.39 1.204-.39h1.26a.546.546 0 01.402.168.51.51 0 01.12.175c.028.067.042.14.042.214v3.473a.55.55 0 01-.041.216.556.556 0 01-.52.339zm-1.738-3.135c0 .052.007.103.02.153a.293.293 0 00.087.133.454.454 0 00.18.1c.1.026.201.038.303.035h.59v-.842h-.68c-.338-.008-.5.133-.5.421zm4.325.188a.81.81 0 00.016.156c.012.05.034.097.066.136a.36.36 0 00.144.094.72.72 0 00.248.035c.055 0 .137 0 .245-.018.109-.02.233-.03.37-.055V32.5a.54.54 0 01.043-.213.499.499 0 01.12-.172.591.591 0 01.401-.16.591.591 0 01.526.331.56.56 0 01.047.214v3.528c0 .075-.016.15-.046.217a.587.587 0 01-.527.337.587.587 0 01-.4-.161.505.505 0 01-.122-.177.547.547 0 01-.042-.216v-1.084a1.097 1.097 0 01-.323.087c-.101 0-.19.013-.267.013-.572 0-.988-.126-1.244-.376a1.347 1.347 0 01-.298-.477 1.447 1.447 0 01-.086-.57v-1.128a.535.535 0 01.047-.214.592.592 0 01.526-.331.592.592 0 01.526.33c.03.067.045.14.046.215l-.015 1.135zm6.425 1.809a.447.447 0 00.02.152.164.164 0 00.058.081c.025.018.054.03.084.036a.29.29 0 01.1.036.307.307 0 01.146.135.352.352 0 01.04.205.464.464 0 01-.03.186.431.431 0 01-.1.154.662.662 0 01-.457.125.896.896 0 01-.394-.08.803.803 0 01-.302-.295 1.517 1.517 0 01-.495.303 1.75 1.75 0 01-.61.1c-.481 0-.844-.126-1.089-.376a1.372 1.372 0 01-.284-.472 1.469 1.469 0 01-.084-.557v-.037c0-.912.54-1.368 1.62-1.37.11 0 .218 0 .323.017.11.014.219.04.325.074v-.288c0-.411-.208-.617-.623-.617a.92.92 0 00-.29.04 1.854 1.854 0 00-.243.103c-.032.012-.072.03-.122.053a.424.424 0 01-.189.038.44.44 0 01-.368-.175.5.5 0 01-.082-.171.73.73 0 01-.024-.175.506.506 0 01.124-.34.884.884 0 01.323-.232c.144-.063.295-.107.449-.13a3.14 3.14 0 01.503-.041c.595 0 1.023.158 1.281.47.258.312.39.775.39 1.384v1.664zm-1.719-.805a.89.89 0 00-.29.04.398.398 0 00-.172.113.375.375 0 00-.081.165.88.88 0 00-.02.188v.026a.39.39 0 00.023.176.36.36 0 00.098.142.626.626 0 00.385.094.999.999 0 00.32-.049 1 1 0 00.32-.188v-.645a2.828 2.828 0 00-.576-.062h-.007zM44.672 3.846a2.587 2.587 0 01.755-1.692c.22-.217.47-.394.74-.523.288-.138.599-.207.912-.203h8.424a2.15 2.15 0 01.925.203c.277.126.533.303.756.523.216.212.394.468.525.752.133.291.202.614.2.94v19.509a2.29 2.29 0 01-.207.817 2.136 2.136 0 01-.48.666 2.037 2.037 0 01-1.482.61 2.104 2.104 0 01-1.547-.61 1.947 1.947 0 01-.464-.683 2.108 2.108 0 01-.153-.834V5.668h-4.814l-.896 13.4a14.522 14.522 0 01-.447 2.564 6.553 6.553 0 01-.895 2.03 4.24 4.24 0 01-1.436 1.316 4.013 4.013 0 01-1.99.473c-.411 0-.814-.013-1.204-.033a3.026 3.026 0 01-1.049-.237 1.633 1.633 0 01-.74-.642 2.335 2.335 0 01-.277-1.248c0-.789.21-1.357.632-1.706a2.191 2.191 0 011.434-.522.95.95 0 01.325.05c.115.038.234.055.354.051h.186c.451 0 .729-.675.832-2.025l1.081-15.293zm22-.37a2.35 2.35 0 01-.174.918 2.168 2.168 0 01-.513.751 2.504 2.504 0 01-1.712.692 2.504 2.504 0 01-1.713-.692 2.214 2.214 0 01-.513-.753 2.394 2.394 0 010-1.835 2.22 2.22 0 01.513-.753 2.504 2.504 0 011.713-.692c.627 0 1.235.245 1.712.692.219.207.393.464.512.753s.179.602.175.919zm-.276 19.879c.002.282-.051.56-.158.817a1.917 1.917 0 01-.46.666 2.21 2.21 0 01-1.512.61c-.554 0-1.09-.216-1.512-.61a1.908 1.908 0 01-.46-.666 2.068 2.068 0 01-.157-.817V10.057a2.03 2.03 0 01.158-.8c.106-.252.261-.474.454-.652a2.22 2.22 0 011.512-.607c.554 0 1.09.215 1.512.607.194.178.35.4.457.651.106.25.161.524.16.8l.006 13.299zm7.872 1.483c-.422.394-.958.61-1.512.61s-1.09-.216-1.512-.61a1.917 1.917 0 01-.46-.666 2.077 2.077 0 01-.157-.817V10.057c-.001-.277.054-.55.16-.801a1.88 1.88 0 01.457-.65 2.22 2.22 0 011.512-.608c.554 0 1.09.215 1.512.607.194.178.35.4.457.65.106.252.161.525.16.802v4.488h4.691v-4.488a2.03 2.03 0 01.16-.801 1.87 1.87 0 01.458-.65 2.22 2.22 0 011.512-.608c.554 0 1.09.215 1.512.607.193.178.35.4.456.651.106.25.161.524.16.8v13.299c.004.282-.05.56-.157.817a1.916 1.916 0 01-.46.666 2.21 2.21 0 01-1.511.61c-.555 0-1.09-.216-1.512-.61a1.907 1.907 0 01-.46-.666 2.068 2.068 0 01-.157-.817v-5.03H74.88v5.03c.004.281-.05.56-.155.816a1.908 1.908 0 01-.457.667zm17.707-5.906v4.423c.003.282-.05.56-.157.817a1.917 1.917 0 01-.46.666c-.422.394-.958.61-1.512.61s-1.09-.216-1.512-.61a1.915 1.915 0 01-.46-.666 2.076 2.076 0 01-.157-.817V10.057c0-.277.054-.55.161-.801a1.88 1.88 0 01.456-.65 2.22 2.22 0 011.512-.608c.554 0 1.09.215 1.512.607.194.178.35.4.456.651.107.25.162.524.161.8v4.49h.432l3.765-5.57c.2-.303.465-.547.772-.71.306-.165.645-.244.986-.23a2.088 2.088 0 011.438.502c.189.168.343.378.452.617.11.239.17.5.18.766a2.29 2.29 0 01-.093.608c-.057.213-.14.418-.247.607l-3.887 5.604 3.885 5.605c.107.19.19.394.248.607.057.197.088.401.093.608-.01.266-.072.526-.18.764a1.86 1.86 0 01-.451.616 2.08 2.08 0 01-1.436.508 1.933 1.933 0 01-.987-.23 2.142 2.142 0 01-.772-.71l-3.764-5.57-.434-.006z" fill="#000"/></svg>