<svg width="62" height="35" fill="none" xmlns="http://www.w3.org/2000/svg"><path d="M30.93 27.996a.535.535 0 01-.186.408.703.703 0 01-.913 0 .54.54 0 010-.815.703.703 0 01.913 0 .531.531 0 01.186.407zm-.074 4.84a.47.47 0 01-.172.363.624.624 0 01-.806 0 .471.471 0 01-.172-.363V29.6a.46.46 0 01.172-.354.624.624 0 01.806 0 .46.46 0 01.172.354v3.236zm1.135-4.446a.483.483 0 01.148-.357.578.578 0 01.42-.145.56.56 0 01.42.15.477.477 0 01.149.344v.914h.608a.562.562 0 01.387.14.457.457 0 01.157.354.44.44 0 01-.157.343.569.569 0 01-.387.136h-.608v1.243c0 .153 0 .284.012.387a.698.698 0 00.062.254.285.285 0 00.135.141.552.552 0 00.234.042.63.63 0 00.091 0h.049a.953.953 0 01.536.106.4.4 0 01.14.344c.004.1-.019.2-.066.289a.454.454 0 01-.172.172.763.763 0 01-.251.074c-.099.01-.198.016-.298.015a2.292 2.292 0 01-.789-.115 1.11 1.11 0 01-.493-.344 1.274 1.274 0 01-.251-.547 3.571 3.571 0 01-.07-.744l-.006-3.196zm5.481 2.436a.464.464 0 01-.157.358.55.55 0 01-.387.144H34.88a.564.564 0 01-.395-.144.468.468 0 01-.157-.358.481.481 0 01.157-.354.56.56 0 01.395-.148h2.05a.547.547 0 01.502.308.462.462 0 01.04.194zm1.325 2.469a.577.577 0 01-.404-.148.467.467 0 01-.172-.363V29.6a.455.455 0 01.172-.357.635.635 0 01.806 0 .455.455 0 01.172.357v2.765h.839V29.6a.46.46 0 01.172-.354.624.624 0 01.806 0 .46.46 0 01.172.354v2.765h.839V29.6a.458.458 0 01.172-.357.634.634 0 01.806 0 .453.453 0 01.163.357v3.184a.467.467 0 01-.163.363.577.577 0 01-.404.148h-3.976zm6.698-1.53v1.07a.47.47 0 01-.172.364.624.624 0 01-.806 0 .47.47 0 01-.172-.363V29.6a.46.46 0 01.172-.354.624.624 0 01.806 0 .46.46 0 01.172.354v1.095h.115l1.004-1.358a.555.555 0 01.47-.23.585.585 0 01.39.119.457.457 0 01.172.343.608.608 0 01-.09.296l-1.031 1.367 1.031 1.365a.655.655 0 01.09.297.457.457 0 01-.172.344.585.585 0 01-.382.124.558.558 0 01-.47-.23l-1.003-1.359-.124-.008zm4.427 1.587a2.258 2.258 0 01-.77-.12 1.633 1.633 0 01-.56-.326 1.337 1.337 0 01-.343-.484 1.588 1.588 0 01-.115-.602V30.6a1.58 1.58 0 01.115-.6c.077-.186.194-.352.344-.487.163-.143.353-.253.559-.325a2.56 2.56 0 011.547 0c.205.072.395.182.559.325.15.135.267.301.343.487.077.19.117.394.116.6v1.226a1.59 1.59 0 01-.116.601 1.332 1.332 0 01-.343.485 1.632 1.632 0 01-.56.325c-.25.083-.513.121-.776.114zm0-.972a.705.705 0 00.485-.148.526.526 0 00.172-.412v-1.235a.517.517 0 00-.172-.402.867.867 0 00-.97 0 .516.516 0 00-.172.402v1.235a.526.526 0 00.172.412c.137.109.31.162.485.15v-.002zm3.381-2.747a.603.603 0 01.145-.344.413.413 0 01.333-.153h2.063a.466.466 0 01.234.054c.06.031.11.077.148.132a.637.637 0 01.103.328v3.186a.472.472 0 01-.172.363.624.624 0 01-.806 0 .471.471 0 01-.172-.363V30.07h-.829l-.156 1.819c-.019.2-.057.398-.115.591a1.391 1.391 0 01-.23.454.999.999 0 01-.367.292c-.163.07-.338.105-.516.102a1.82 1.82 0 01-.275-.021.786.786 0 01-.242-.074.406.406 0 01-.172-.143.417.417 0 01-.062-.239.47.47 0 01.348-.489.439.439 0 01.197-.004l.059.012h.05c.12 0 .194-.156.221-.47l.213-2.267zm7.237 2.675a.37.37 0 00.02.14c.012.03.032.055.059.073a.199.199 0 00.086.033.406.406 0 01.1.034.299.299 0 01.188.312.391.391 0 01-.132.312.7.7 0 01-.46.115.952.952 0 01-.396-.073.756.756 0 01-.304-.272 1.557 1.557 0 01-.497.28 1.919 1.919 0 01-.614.091c-.484 0-.849-.118-1.095-.354a1.252 1.252 0 01-.37-.947v-.024c0-.84.544-1.259 1.63-1.259.115 0 .223.006.325.016.11.012.22.034.325.067v-.265c0-.378-.209-.567-.626-.567a.957.957 0 00-.292.038 1.717 1.717 0 00-.242.094c-.033.01-.074.028-.124.048a.46.46 0 01-.19.035.48.48 0 01-.221-.047.434.434 0 01-.23-.271.552.552 0 01-.026-.16.442.442 0 01.123-.313.913.913 0 01.325-.213c.146-.058.299-.099.454-.12.168-.025.337-.037.506-.037.598 0 1.031.143 1.287.432.257.289.39.712.39 1.267v1.535zm-1.72-.74a.914.914 0 00-.292.037.398.398 0 00-.172.101.333.333 0 00-.082.153.754.754 0 00-.02.172v.024a.33.33 0 00.123.293.668.668 0 00.385.086.986.986 0 00.643-.217v-.585a3.105 3.105 0 00-.584-.065z" fill="#000105" stroke="#000105" stroke-width=".083" stroke-miterlimit="10"/><path d="M4.323 29.104a.443.443 0 01.382.186.642.642 0 01.101.328v2.702h.059a.46.46 0 01.232.053c.059.031.11.076.147.131a.643.643 0 01.101.328v1.056a.463.463 0 01-.162.36.617.617 0 01-.802 0 .464.464 0 01-.171-.36v-.64H1.956v.64a.463.463 0 01-.164.36.617.617 0 01-.8 0 .462.462 0 01-.173-.36v-1.056a.723.723 0 01.02-.147.524.524 0 01.073-.172c.04-.055.09-.1.148-.134a.46.46 0 01.242-.057.996.996 0 00.29-.468 2.92 2.92 0 00.126-.76l.074-1.49a.535.535 0 01.294-.46.424.424 0 01.19-.037l2.047-.003zM2.817 31.1a4.3 4.3 0 01-.077.659c-.035.19-.093.376-.172.553H3.68v-2.285h-.818L2.817 31.1zm3.755 2.21a.605.605 0 01-.565-.33.499.499 0 01-.044-.21v-3.2a.483.483 0 01.16-.365.553.553 0 01.397-.151c.15-.004.294.05.404.151a.474.474 0 01.172.364v1.874l1.367-2.11a.515.515 0 01.228-.21.726.726 0 01.311-.07.601.601 0 01.427.152.515.515 0 01.163.389v3.192a.494.494 0 01-.163.368.599.599 0 01-.803 0 .494.494 0 01-.163-.368v-1.841l-1.359 2.094a.653.653 0 01-.23.196.625.625 0 01-.302.075zm5.941-.522a.468.468 0 01-.163.359.576.576 0 01-.4.148.585.585 0 01-.403-.148.468.468 0 01-.163-.36v-2.702h-.606a.555.555 0 01-.385-.139.479.479 0 010-.705.564.564 0 01.385-.14h2.342a.561.561 0 01.383.14.474.474 0 010 .705.553.553 0 01-.383.14h-.607v2.702zm4.551.507a.576.576 0 01-.4-.148.462.462 0 01-.164-.36v-1.055h-.344l-.975 1.334a.57.57 0 01-.466.229.594.594 0 01-.385-.119.447.447 0 01-.163-.332.611.611 0 01.09-.303l.713-.948a1.081 1.081 0 01-.59-.45 1.433 1.433 0 01-.18-.745 1.203 1.203 0 01.397-.939c.264-.237.666-.355 1.203-.355h1.26a.573.573 0 01.522.313.468.468 0 01.042.195v3.176a.466.466 0 01-.161.359.584.584 0 01-.4.148zm-1.738-2.866c0 .047.006.094.02.14.017.047.047.09.086.121a.467.467 0 00.18.091c.1.024.201.035.303.033h.59v-.77h-.679c-.339-.007-.5.122-.5.385zm4.324.171a.69.69 0 00.016.144.286.286 0 00.066.123c.04.04.09.07.144.086.08.024.164.035.248.033.055 0 .137 0 .245-.017.109-.017.233-.028.37-.05v-1.35a.458.458 0 01.163-.352.623.623 0 01.802 0 .461.461 0 01.171.352v3.226a.463.463 0 01-.171.359.617.617 0 01-.802 0 .463.463 0 01-.163-.36v-.99a1.174 1.174 0 01-.323.08c-.102 0-.19.011-.267.011-.572 0-.988-.115-1.244-.343a1.22 1.22 0 01-.384-.958v-1.031a.46.46 0 01.172-.353.623.623 0 01.801 0 .46.46 0 01.172.353l-.015 1.038zm6.425 1.655a.376.376 0 00.02.139c.01.03.03.056.058.074a.225.225 0 00.084.033.308.308 0 01.1.032.298.298 0 01.187.311.391.391 0 01-.13.312.709.709 0 01-.458.113.972.972 0 01-.394-.072.774.774 0 01-.302-.27 1.546 1.546 0 01-.495.277 1.906 1.906 0 01-.61.09c-.481 0-.844-.114-1.089-.343a1.239 1.239 0 01-.368-.94v-.035c0-.833.54-1.25 1.62-1.251.11 0 .218 0 .323.015.11.013.219.035.325.067v-.263c0-.376-.208-.564-.623-.564a1 1 0 00-.29.036 1.95 1.95 0 00-.243.095c-.032.01-.072.027-.122.048a.459.459 0 01-.189.035.474.474 0 01-.368-.16.442.442 0 01-.082-.157.614.614 0 01-.024-.16.44.44 0 01.124-.31.888.888 0 01.323-.212c.144-.058.295-.098.448-.119a3.4 3.4 0 01.504-.038c.595 0 1.023.145 1.28.43.259.285.391.708.391 1.265v1.522zm-1.719-.736a.963.963 0 00-.29.036.403.403 0 00-.172.103.332.332 0 00-.081.151.738.738 0 00-.02.172v.024a.33.33 0 00.121.291.673.673 0 00.385.086c.108 0 .216-.014.32-.045.116-.038.224-.096.32-.172v-.59a3.067 3.067 0 00-.576-.056h-.007zM5.673 3.373a2.2 2.2 0 01.23-.86c.13-.26.309-.492.524-.687.22-.198.47-.36.741-.478.287-.126.598-.19.911-.186h8.424c.318-.002.633.061.925.186.278.115.533.277.757.478.216.194.394.427.524.687.134.267.203.562.201.86v17.836a1.972 1.972 0 01-.688 1.357 2.138 2.138 0 01-1.481.557 2.214 2.214 0 01-1.548-.557 1.781 1.781 0 01-.617-1.388V5.038H9.763L8.867 17.29c-.072.794-.222 1.58-.447 2.345a5.748 5.748 0 01-.896 1.854c-.38.506-.87.918-1.435 1.204-.62.3-1.302.45-1.991.433-.411 0-.813-.012-1.203-.03a3.266 3.266 0 01-1.05-.218 1.6 1.6 0 01-.74-.586 1.986 1.986 0 01-.277-1.141c0-.721.211-1.24.633-1.56a2.32 2.32 0 011.434-.477c.11-.002.22.013.324.046.115.034.235.05.355.046h.185c.452 0 .73-.617.832-1.851L5.673 3.373zm21.999-.339a1.986 1.986 0 01-.688 1.527 2.634 2.634 0 01-3.424 0 2.027 2.027 0 010-3.055 2.634 2.634 0 013.424 0 1.993 1.993 0 01.688 1.528zm-.277 18.175a1.756 1.756 0 01-.617 1.357 2.331 2.331 0 01-3.024 0 1.75 1.75 0 01-.617-1.357V9.051a1.72 1.72 0 01.612-1.327 2.336 2.336 0 013.024 0 1.729 1.729 0 01.617 1.327l.005 12.158zm7.872 1.357a2.331 2.331 0 01-3.024 0 1.758 1.758 0 01-.617-1.357V9.051a1.726 1.726 0 01.617-1.327 2.336 2.336 0 013.024 0 1.718 1.718 0 01.617 1.327v4.104h4.692V9.051a1.72 1.72 0 01.617-1.327 2.336 2.336 0 013.024 0 1.729 1.729 0 01.617 1.327V21.21a1.756 1.756 0 01-.617 1.357 2.331 2.331 0 01-3.024 0 1.75 1.75 0 01-.617-1.357v-4.6h-4.697v4.6a1.75 1.75 0 01-.612 1.356zm17.708-5.4v4.043a1.756 1.756 0 01-.617 1.357 2.331 2.331 0 01-3.024 0 1.757 1.757 0 01-.617-1.357V9.051a1.729 1.729 0 01.617-1.327 2.336 2.336 0 013.024 0 1.728 1.728 0 01.617 1.327v4.104h.432l3.765-5.092a2.08 2.08 0 011.758-.86 2.212 2.212 0 011.438.46A1.718 1.718 0 0161 8.927a1.943 1.943 0 01-.093.555c-.057.195-.14.382-.247.555l-3.887 5.123 3.885 5.125c.107.173.19.36.248.555.057.18.089.367.093.556a1.72 1.72 0 01-.631 1.262 2.204 2.204 0 01-1.436.464 2.081 2.081 0 01-1.759-.86l-3.765-5.092-.433-.005z" fill="#000"/></svg>