<svg width="288" height="451" fill="none" xmlns="http://www.w3.org/2000/svg"><path d="M69.588 433V206.007m0 226.993L256 318.067v-215.5M69.588 433L-114 318.067v-215.5m183.588 103.44L256 102.567M69.588 206.007L-114 102.567m183.588 103.44L256 102.567m0 0L75.237 2-114 102.567" stroke="#fff" stroke-width="2"/><path d="M240.817 407.501l-34.932.665 24.193-25.206 10.739 24.541zm1.25 15.265l27.734-21.249-4.535 34.643-23.199-13.394z" fill="#fff" stroke="#fff" stroke-width="3.039"/><path d="M90.325 405.455v-4.857h-4.513v-2.182h4.513v-4.857h2.404v4.857h4.513v2.182h-4.513v4.857h-2.404z" fill="#fff"/><path d="M106.077 253.248c-.977 0-1.859-.152-2.643-.455a5.376 5.376 0 01-2.003-1.383c-.551-.62-.978-1.384-1.281-2.292-.303-.923-.454-1.997-.454-3.222 0-1.212.151-2.285.454-3.222.303-.95.73-1.741 1.281-2.374a5.281 5.281 0 012.003-1.467c.784-.33 1.666-.495 2.643-.495 1.336 0 2.437.275 3.304.826.868.537 1.563 1.39 2.086 2.56l-2.705 1.405c-.193-.606-.496-1.088-.909-1.446-.399-.372-.991-.557-1.776-.557-.922 0-1.666.302-2.23.908-.551.592-.826 1.46-.826 2.602v2.313c0 1.143.275 2.017.826 2.623.564.592 1.308.888 2.23.888.771 0 1.384-.207 1.838-.62a3.866 3.866 0 001.033-1.528l2.56 1.487c-.537 1.101-1.246 1.955-2.127 2.561-.867.592-1.968.888-3.304.888zm14.257-11.875V253h-3.139v-11.627h-3.903v-2.788h10.945v2.788h-3.903zM134.533 253l-1.033-3.428h-4.812L127.656 253h-3.18l4.749-14.415h3.883L137.796 253h-3.263zm-3.408-11.565h-.103l-1.59 5.473h3.304l-1.611-5.473zm13.943-.062V253h-3.139v-11.627h-3.903v-2.788h10.945v2.788h-3.903zm6.67-2.788h3.056v7.043l-.33 3.035h.062l1.425-2.746 4.749-7.332h2.809V253h-3.056v-7.042l.33-3.036h-.062l-1.425 2.747-4.75 7.331h-2.808v-14.415zm21.387 14.663c-.978 0-1.859-.152-2.644-.455a5.392 5.392 0 01-2.003-1.383c-.55-.62-.977-1.384-1.28-2.292-.303-.923-.454-1.997-.454-3.222 0-1.212.151-2.285.454-3.222.303-.95.73-1.741 1.28-2.374a5.296 5.296 0 012.003-1.467c.785-.33 1.666-.495 2.644-.495 1.335 0 2.437.275 3.304.826.867.537 1.563 1.39 2.086 2.56l-2.706 1.405c-.192-.606-.495-1.088-.908-1.446-.399-.372-.991-.557-1.776-.557-.923 0-1.666.302-2.231.908-.55.592-.826 1.46-.826 2.602v2.313c0 1.143.276 2.017.826 2.623.565.592 1.308.888 2.231.888.771 0 1.383-.207 1.838-.62a3.853 3.853 0 001.032-1.528l2.561 1.487c-.537 1.101-1.246 1.955-2.127 2.561-.867.592-1.969.888-3.304.888zm14.257-11.875V253h-3.139v-11.627h-3.903v-2.788h10.945v2.788h-3.903zm6.67-2.788h3.056v7.043l-.33 3.035h.062l1.425-2.746 4.749-7.332h2.809V253h-3.057v-7.042l.331-3.036h-.062l-1.425 2.747-4.75 7.331h-2.808v-14.415zm15.563 0h3.139v5.742h2.086l2.148-4.027c.316-.579.667-1.005 1.053-1.281.399-.289.908-.434 1.528-.434h1.28v2.788h-1.28l-1.487 2.809c-.193.372-.413.661-.661.867a2.632 2.632 0 01-.846.455v.124c.357.068.66.206.908.413.262.192.489.488.682.888l1.693 3.283h1.28V253h-1.631c-.578 0-1.06-.124-1.446-.372-.371-.248-.729-.709-1.073-1.383l-2.148-4.151h-2.086V253h-3.139v-14.415zM233.05 253l-1.032-3.428h-4.812L226.173 253h-3.18l4.75-14.415h3.882L236.313 253h-3.263zm-3.407-11.565h-.104l-1.59 5.473h3.304l-1.61-5.473zm-104.757 21.15h3.139v11.627h4.358v-11.627h3.139v11.627h4.316v-11.627h3.139V277h-18.091v-14.415zm21.896 0h3.139v5.742h2.086l2.148-4.027c.316-.579.667-1.005 1.053-1.281.399-.289.909-.434 1.528-.434h1.281v2.788h-1.281l-1.487 2.809c-.192.372-.413.661-.661.867a2.632 2.632 0 01-.846.455v.124c.358.068.661.206.908.413.262.192.489.488.682.888l1.693 3.283h1.281V277h-1.632c-.578 0-1.06-.124-1.445-.372-.372-.248-.73-.709-1.074-1.383l-2.148-4.151h-2.086V277h-3.139v-14.415zm19.874 14.663c-.95 0-1.817-.159-2.602-.475a5.29 5.29 0 01-2.003-1.404c-.551-.634-.978-1.412-1.281-2.334-.303-.936-.454-2.017-.454-3.242 0-1.226.151-2.299.454-3.222.303-.936.73-1.714 1.281-2.333a5.169 5.169 0 012.003-1.425c.785-.317 1.652-.475 2.602-.475s1.817.158 2.602.475a5.176 5.176 0 012.003 1.425c.551.619.978 1.397 1.28 2.333.303.923.455 1.996.455 3.222 0 1.225-.152 2.306-.455 3.242-.302.922-.729 1.7-1.28 2.334a5.298 5.298 0 01-2.003 1.404c-.785.316-1.652.475-2.602.475zm0-2.788c.95 0 1.686-.31 2.209-.929.537-.62.806-1.508.806-2.664v-2.148c0-1.157-.269-2.045-.806-2.664-.523-.62-1.259-.929-2.209-.929-.95 0-1.694.309-2.231.929-.523.619-.784 1.507-.784 2.664v2.148c0 1.156.261 2.044.784 2.664.537.619 1.281.929 2.231.929zm7.777-.248h1.714c.22-.234.413-.523.578-.867.165-.358.303-.813.413-1.363.124-.551.214-1.212.269-1.983.069-.784.103-1.728.103-2.829v-4.585h10.181V277h-3.139v-11.627h-3.986v2.231a32.9 32.9 0 01-.144 3.304c-.097.922-.227 1.714-.393 2.375-.165.661-.364 1.204-.598 1.631a4.166 4.166 0 01-.723 1.033c-.427.427-.888.729-1.384.908-.482.179-1.088.269-1.817.269h-1.074v-2.912zm17.063-11.627h3.056v7.043l-.33 3.035h.062l1.425-2.746 4.75-7.332h2.808V277h-3.056v-7.042l.33-3.036h-.062l-1.425 2.747-4.749 7.331h-2.809v-14.415zm16.658 9.872l-.971-5.865v-4.007h3.222v4.007l-.95 5.865h-1.301zm.62 4.791c-.661 0-1.136-.152-1.425-.455-.276-.302-.413-.674-.413-1.115v-.495c0-.441.137-.813.413-1.115.289-.303.764-.455 1.425-.455.66 0 1.128.152 1.404.455.289.302.433.674.433 1.115v.495c0 .441-.144.813-.433 1.115-.276.303-.744.455-1.404.455z" fill="#262626"/></svg>