<svg width="25" height="25" fill="none" xmlns="http://www.w3.org/2000/svg"><mask id="mask0" style="mask-type:alpha" maskUnits="userSpaceOnUse" x="0" y="0" width="25" height="25"><path fill="#C4C4C4" d="M0 0h25v25H0z"/></mask><g mask="url(#mask0)"><path d="M18.73 12.61l-6.06 1.91a1.684 1.684 0 01-.507.074c-.169 0-.338-.021-.507-.074l-6.06-1.91-.19 3.336c-.085 1.488 3.03 2.702 6.757 2.702s6.842-1.214 6.758-2.702l-.19-3.337zm5.596-3.422a.353.353 0 00-.232-.327L12.27 5.144c-.042-.01-.074-.01-.106-.01-.031 0-.063 0-.105.01L.232 8.861A.353.353 0 000 9.188c0 .148.095.275.232.328l3.516 1.098c-.654.918-.971 2.248-1.034 3.484A1.345 1.345 0 002.64 16.4l-.613 4.571c-.01.095.021.19.085.264a.337.337 0 00.253.117h2.027a.348.348 0 00.338-.38L4.118 16.4c.37-.243.612-.655.612-1.13 0-.496-.264-.919-.665-1.151.084-1.425.507-2.587 1.109-3.062l6.884 2.175c.042.01.074.01.105.01.032 0 .064 0 .106-.01l11.825-3.716a.353.353 0 00.232-.328z" fill="#fff"/></g></svg>