<svg width="16" height="16" fill="none" xmlns="http://www.w3.org/2000/svg"><path d="M15.714 12.696c0-.078 0-.156-.033-.234-.078-.234-.625-.48-.848-.591-.637-.358-1.284-.704-1.909-1.072-.29-.178-.647-.513-.993-.513-.681 0-1.674 2.02-2.277 2.02-.301 0-.692-.28-.96-.435-2.031-1.128-3.437-2.534-4.565-4.565-.156-.268-.435-.659-.435-.96 0-.603 2.02-1.596 2.02-2.277 0-.346-.335-.703-.513-.993-.368-.625-.714-1.272-1.072-1.909-.111-.223-.357-.77-.591-.848C3.46.286 3.382.286 3.304.286c-.402 0-1.183.178-1.552.346-.547.234-.904.86-1.183 1.361C.212 2.652 0 3.321 0 4.07c0 1.038.424 1.976.77 2.924.246.681.547 1.34.926 1.953 1.172 1.898 3.46 4.186 5.358 5.358.613.379 1.272.68 1.953.926.948.346 1.886.77 2.924.77.748 0 1.417-.212 2.076-.57.502-.278 1.127-.635 1.361-1.182.168-.368.346-1.15.346-1.552z" fill="#262626"/></svg>