<svg width="48" height="48" fill="none" xmlns="http://www.w3.org/2000/svg"><circle cx="24" cy="24" r="24" fill="#039BE5"/><g clip-path="url(#clip0)"><path d="M18.987 28.378l-.463 6.515c.662 0 .95-.285 1.293-.627l3.107-2.969 6.438 4.715c1.18.658 2.012.311 2.33-1.086l4.227-19.801v-.001c.375-1.745-.63-2.428-1.78-2l-24.84 9.51c-1.694.658-1.669 1.603-.287 2.03l6.35 1.976 14.75-9.23c.694-.46 1.325-.205.806.255L18.987 28.378z" fill="#fff"/></g><defs><clipPath id="clip0"><path fill="#fff" transform="translate(8 11)" d="M0 0h28v28H0z"/></clipPath></defs></svg>