<svg width="78" height="78" fill="none" xmlns="http://www.w3.org/2000/svg"><rect width="78" height="78" rx="10" fill="#E8F5FF"/><path d="M53.063 37.57a.952.952 0 00.937-.963v-1.93a.967.967 0 00-.497-.85l-14.062-7.714a.92.92 0 00-.884 0l-14.062 7.714a.97.97 0 00-.495.85v1.93c0 .532.42.964.938.964h2.812v9.643h-1.875c-1.033 0-1.875.864-1.875 1.929v2.893c0 .532.42.964.938.964h28.125a.952.952 0 00.937-.964v-2.893c0-1.065-.84-1.929-1.875-1.929H50.25v-9.643h2.813zm-15.938 9.644H31.5v-9.643h5.625v9.643zm9.375 0h-5.625v-9.643H46.5v9.643z" fill="#58B9FF"/></svg>