<svg width="78" height="78" fill="none" xmlns="http://www.w3.org/2000/svg"><rect width="78" height="78" rx="10" fill="#FFF0ED"/><g clip-path="url(#clip0)" fill="#FF6746"><path d="M47.025 49.248v-6.301a3.785 3.785 0 013.781-3.781 1.26 1.26 0 11-.015 2.52c-.69-.008-1.245.57-1.245 1.26v3.781a2.52 2.52 0 01-2.52 2.52zm-17.642 0v-6.301a3.785 3.785 0 00-3.781-3.781 1.26 1.26 0 10.015 2.52c.69-.008 1.245.57 1.245 1.26v3.781a2.52 2.52 0 002.52 2.52zm14.177 5.671H32.848a1.26 1.26 0 010-2.52H43.56a1.26 1.26 0 010 2.52z"/><path d="M38.204 54.919a1.26 1.26 0 01-1.26-1.26v-5.357a1.26 1.26 0 012.52 0v5.356a1.26 1.26 0 01-1.26 1.26zm6.379-13.863H31.827a2.2 2.2 0 01-1.688-.786 2.196 2.196 0 01-.485-1.797L31.736 26.5a2.201 2.201 0 012.173-1.827h8.59c1.077 0 1.99.768 2.173 1.828l2.082 11.972a2.195 2.195 0 01-.485 1.797 2.2 2.2 0 01-1.686.785z"/><path d="M47.341 49.248H29.068a.946.946 0 01-.945-.946v-2.52a3.468 3.468 0 013.466-3.466H44.82a3.468 3.468 0 013.465 3.466v2.52a.945.945 0 01-.945.946z"/></g><defs><clipPath id="clip0"><path fill="#fff" transform="translate(23.082 24.674)" d="M0 0h30.245v30.245H0z"/></clipPath></defs></svg>