<svg xmlns="http://www.w3.org/2000/svg" width="37" height="37"><path data-name="Shape 9 copy" d="M3.086 9.563a17.721 17.721 0 016.478-6.477A17.409 17.409 0 0118.5.7a17.407 17.407 0 018.935 2.388 17.715 17.715 0 016.478 6.477A17.413 17.413 0 0136.3 18.5a17.412 17.412 0 01-2.388 8.934 17.719 17.719 0 01-6.478 6.478A17.417 17.417 0 0118.5 36.3a17.416 17.416 0 01-8.935-2.387 17.714 17.714 0 01-6.478-6.478A17.411 17.411 0 01.7 18.5a17.422 17.422 0 012.386-8.937zm9.214 9.612a.68.68 0 00.672.67h7.268l-1.983 1.978a.681.681 0 000 .942l.955.952a.686.686 0 00.945 0l3.8-3.788.955-.953a.681.681 0 000-.941l-.955-.952-3.8-3.789a.686.686 0 00-.945 0l-.955.952a.657.657 0 000 .942l1.983 1.978h-7.271a.681.681 0 00-.672.67v1.34z" fill="#416894" fill-rule="evenodd"/></svg>