<svg width="104" height="85" viewBox="0 0 104 85" fill="none" xmlns="http://www.w3.org/2000/svg">
<rect width="104" height="85" fill="#EBEBEB"/>
<path d="M45.225 27.9515H59.7734V29.2741H45.225V27.9515Z" fill="#D9D9D9"/>
<path d="M47.2087 25.9677H57.7893V27.2902H47.2087V25.9677Z" fill="#D9D9D9"/>
<path d="M45.225 55.7258H59.7734V57.0484H45.225V55.7258Z" fill="#D9D9D9"/>
<path d="M47.2087 57.7096H57.7893V59.0322H47.2087V57.7096Z" fill="#D9D9D9"/>
<path d="M72.9886 33.8477C72.9845 33.8027 72.9757 33.7585 72.9623 33.7151C72.9514 33.6756 72.9367 33.6371 72.9179 33.6004C72.8993 33.5645 72.877 33.5302 72.8517 33.4987C72.8241 33.463 72.7928 33.4302 72.7585 33.4008C72.7432 33.3889 72.7355 33.3713 72.7197 33.3605L66.3871 28.9296V23.3225C66.3871 22.9573 66.0911 22.6613 65.7258 22.6613H39.2742C38.9089 22.6613 38.6129 22.9573 38.6129 23.3225V28.9296L32.2821 33.3605C32.2663 33.3713 32.2586 33.3889 32.2433 33.4008C32.2092 33.4302 32.1782 33.463 32.1501 33.4987C32.125 33.5302 32.1028 33.5645 32.084 33.6004C32.0656 33.6371 32.0506 33.6756 32.0398 33.7151C32.0261 33.7585 32.0176 33.8027 32.0132 33.8477C32.0077 33.866 32.0031 33.8846 32 33.9032V51.0967C32 51.462 32.296 51.758 32.6613 51.758H38.6129V61.6774C38.6129 62.0426 38.9089 62.3387 39.2742 62.3387H65.7258C66.0911 62.3387 66.3871 62.0426 66.3871 61.6774V51.758H72.3387C72.704 51.758 73 51.462 73 51.0967V33.9032C72.9974 33.8846 72.9935 33.866 72.9886 33.8477ZM70.2412 33.2419H66.3871V30.5446L70.2412 33.2419ZM65.0645 23.9838V33.2419H63.0806V30.5967C63.0806 30.2315 62.7846 29.9354 62.4194 29.9354H42.5806C42.2154 29.9354 41.9194 30.2315 41.9194 30.5967V33.2419H39.9355V23.9838H65.0645ZM43.2419 33.2419V31.258H61.7581V33.2419H43.2419ZM38.6129 33.2419H34.7588L38.6129 30.5446V33.2419ZM65.0645 61.0161H39.9355V51.758H41.9194V54.4032C41.9194 54.7685 42.2154 55.0645 42.5806 55.0645H62.4194C62.7846 55.0645 63.0806 54.7685 63.0806 54.4032V51.758H65.0645V61.0161ZM61.7581 51.758V53.7419H43.2419V51.758H61.7581ZM71.6774 50.4354H33.3226V34.5645H71.6774V50.4354Z" fill="#D9D9D9"/>
<path d="M47.8722 37.8709C48.2375 37.8709 48.5335 37.5749 48.5335 37.2096C48.5335 36.8444 48.2375 36.5483 47.8722 36.5483H42.5819C42.2167 36.5483 41.9206 36.8444 41.9206 37.2096C41.9206 37.5749 42.2167 37.8709 42.5819 37.8709H44.5658V47.129H42.5819C42.2167 47.129 41.9206 47.425 41.9206 47.7903C41.9206 48.1555 42.2167 48.4516 42.5819 48.4516H47.8722C48.2375 48.4516 48.5335 48.1555 48.5335 47.7903C48.5335 47.425 48.2375 47.129 47.8722 47.129H45.8884V37.8709H47.8722Z" fill="#D9D9D9"/>
<path d="M55.2987 36.5661C54.9998 36.4953 54.6919 36.6392 54.5547 36.9141L52.5014 41.0213L50.4514 36.9141C50.3163 36.6351 50.006 36.4876 49.7048 36.5584C49.4031 36.6294 49.1913 36.8999 49.1949 37.2096V47.7902C49.1949 48.1555 49.491 48.4515 49.8562 48.4515C50.2215 48.4515 50.5175 48.1555 50.5175 47.7902V40.0108L51.9096 42.7954C52.0338 43.0039 52.2586 43.1318 52.5014 43.1318C52.7442 43.1318 52.9689 43.0039 53.0932 42.7954L54.4852 40.0108V47.7902C54.4852 48.1555 54.7813 48.4515 55.1465 48.4515C55.5118 48.4515 55.8078 48.1555 55.8078 47.7902V37.2096C55.8078 36.9032 55.597 36.6366 55.2987 36.5661Z" fill="#D9D9D9"/>
<path d="M61.0963 36.5483H58.4511C57.3556 36.5483 56.4672 37.4367 56.4672 38.5322V46.4677C56.4672 47.5632 57.3556 48.4516 58.4511 48.4516H61.0963C62.1918 48.4516 63.0801 47.5632 63.0801 46.4677V42.5C63.0801 42.1347 62.7841 41.8387 62.4189 41.8387H59.7737C59.4084 41.8387 59.1124 42.1347 59.1124 42.5C59.1124 42.8652 59.4084 43.1612 59.7737 43.1612H61.7576V46.4677C61.7576 46.833 61.4615 47.129 61.0963 47.129H58.4511C58.0858 47.129 57.7898 46.833 57.7898 46.4677V38.5322C57.7898 38.167 58.0858 37.8709 58.4511 37.8709H61.0963C61.4615 37.8709 61.7576 38.167 61.7576 38.5322V39.8548C61.7576 40.2201 62.0536 40.5161 62.4189 40.5161C62.7841 40.5161 63.0801 40.2201 63.0801 39.8548V38.5322C63.0801 37.4367 62.1918 36.5483 61.0963 36.5483Z" fill="#D9D9D9"/>
</svg>
