<svg width="20" height="20" fill="none" xmlns="http://www.w3.org/2000/svg"><path d="M19.997 19.562L17.653.343A.39.39 0 0017.266 0H2.734a.39.39 0 00-.388.343L.003 19.562A.39.39 0 00.39 20h19.218a.39.39 0 00.388-.438zM10.137.782v1.562h-.781V.78h.78zm-7.057 0h.82l-.708 7.431a.39.39 0 00.778.074L4.685.781h3.89v1.953a.39.39 0 00.39.391h1.563a.39.39 0 00.39-.39V.78h4.398l1.754 18.44H2.93l.707-7.432a.39.39 0 00-.778-.074l-.714 7.506H.832L3.08.78zm14.775 18.437L16.1.78h.82l2.248 18.438h-1.313z" fill="#828282"/><path d="M8.965 10.156h1.562a.39.39 0 00.391-.39V5.078a.39.39 0 00-.39-.39H8.964a.39.39 0 00-.39.39v4.688c0 .215.174.39.39.39zm.39-4.687h.782v3.906h-.782V5.469zm-.39 12.5h1.562a.39.39 0 00.391-.39v-5.47a.39.39 0 00-.39-.39H8.964a.39.39 0 00-.39.39v5.47c0 .215.174.39.39.39zm.39-5.469h.782v4.688h-.782V12.5zm-5.94-2.11a.39.39 0 000-.78.39.39 0 100 .78z" fill="#828282"/></svg>