<svg width="40" height="40" fill="none" xmlns="http://www.w3.org/2000/svg"><path d="M35.313 0H4.686A4.693 4.693 0 000 4.688v30.625A4.693 4.693 0 004.688 40h30.625A4.693 4.693 0 0040 35.312V4.689A4.693 4.693 0 0035.312 0zm1.562 35.313c0 .861-.7 1.562-1.563 1.562h-8.906V24.141h4.828l.797-4.844h-5.625v-3.36c0-1.326 1.018-2.343 2.344-2.343h3.203V8.75H28.75c-3.978 0-7.186 3.223-7.186 7.201v3.346h-4.689v4.844h4.69v12.734H4.686c-.861 0-1.562-.7-1.562-1.563V4.689c0-.862.7-1.563 1.563-1.563h30.625c.861 0 1.562.7 1.562 1.563v30.625z" fill="#fff"/></svg>