<svg width="70" height="79" viewBox="0 0 70 79" fill="none" xmlns="http://www.w3.org/2000/svg">
<path d="M16.6909 21.434L15.8125 20.5556C21.2588 15.1093 28.462 12.1226 36.1923 12.1226C43.9226 12.1226 51.1258 15.1093 56.5721 20.5556L55.6936 21.434C50.5987 16.3391 43.5712 13.3524 36.368 13.3524C28.6377 13.3524 21.7859 16.1634 16.6909 21.434Z" fill="#3D4A3F"/>
<path d="M36.0165 69.5717C28.2863 69.5717 21.083 66.585 15.6367 61.1387L16.5152 60.2603C21.6101 65.3552 28.6376 68.3419 35.8408 68.3419C43.2197 68.3419 50.0716 65.5309 55.1665 60.2603L56.045 61.1387C50.95 66.585 43.7468 69.5717 36.0165 69.5717Z" fill="#3D4A3F"/>
<path d="M36.0167 60.7888C24.9484 60.7888 15.9883 51.8287 15.9883 40.7604C15.9883 29.692 24.9484 20.7319 36.0167 20.7319C47.085 20.7319 56.0451 29.692 56.0451 40.7604C56.0451 51.8287 47.085 60.7888 36.0167 60.7888ZM36.0167 22.1374C25.6511 22.1374 17.3938 30.5705 17.3938 40.7604C17.3938 51.126 25.8268 59.3833 36.0167 59.3833C46.2066 59.3833 54.6396 50.9503 54.6396 40.7604C54.8153 30.5705 46.3823 22.1374 36.0167 22.1374Z" fill="#3D4A3F"/>
<path d="M46.5581 40.7571C46.5581 34.9594 41.8146 30.2158 36.0169 30.2158C30.2192 30.2158 25.4756 34.9594 25.4756 40.7571H46.5581Z" fill="#3D4A3F"/>
<path d="M69.3968 40.2324H55.3418V41.4622H69.3968V40.2324Z" fill="#3D4A3F"/>
<path d="M16.6908 40.2324H2.63574V41.4622H16.6908V40.2324Z" fill="#3D4A3F"/>
<path opacity="0.25" d="M59.2774 46.3669C62.3099 33.5245 54.3574 20.6554 41.515 17.623C28.6726 14.5905 15.8035 22.543 12.771 35.3854C9.73856 48.2278 17.6911 61.097 30.5335 64.1294C43.3759 67.1619 56.245 59.2093 59.2774 46.3669Z" fill="#3D4A3F"/>
<path d="M36.0162 72.7336C18.4475 72.7336 4.04102 58.5029 4.04102 40.7584C4.04102 23.1896 18.2718 8.7832 36.0162 8.7832C53.7607 8.7832 67.9914 23.014 67.9914 40.7584C67.9914 58.3272 53.585 72.7336 36.0162 72.7336ZM36.0162 9.1346C18.6231 9.1346 4.39241 23.3653 4.39241 40.7584C4.39241 58.1515 18.6231 72.3823 36.0162 72.3823C53.4094 72.3823 67.64 58.1515 67.64 40.7584C67.64 23.3653 53.4094 9.1346 36.0162 9.1346Z" fill="#3D4A3F"/>
<path d="M5.62211 9.13281H3.86523V10.8897H5.62211V9.13281Z" fill="#3D4A3F"/>
<path d="M8.96098 9.13281H7.2041V10.8897H8.96098V9.13281Z" fill="#3D4A3F"/>
<path d="M5.62211 69.0464H3.86523V70.8033H5.62211V69.0464Z" fill="#3D4A3F"/>
<path d="M8.96098 69.0464H7.2041V70.8033H8.96098V69.0464Z" fill="#3D4A3F"/>
<path d="M66.0596 9.13281H64.3027V10.8897H66.0596V9.13281Z" fill="#3D4A3F"/>
<path d="M69.5733 9.13281H67.8164V10.8897H69.5733V9.13281Z" fill="#3D4A3F"/>
<path d="M66.0596 69.0464H64.3027V70.8033H66.0596V69.0464Z" fill="#3D4A3F"/>
<path d="M69.5733 69.0464H67.8164V70.8033H69.5733V69.0464Z" fill="#3D4A3F"/>
<g opacity="0.25">
<path d="M69.7481 69.7455H0V12.4712H69.7481V69.7455ZM0.527042 69.0427H69.0454V13.1739H0.527042V69.0427Z" fill="#3D4A3F"/>
<path d="M69.3968 59.5571H0.175781V60.2599H69.3968V59.5571Z" fill="#3D4A3F"/>
<path d="M69.3968 50.2441H0.175781V50.9469H69.3968V50.2441Z" fill="#3D4A3F"/>
<path d="M69.3968 40.7559H0.175781V41.4586H69.3968V40.7559Z" fill="#3D4A3F"/>
<path d="M69.3968 31.2681H0.175781V31.9708H69.3968V31.2681Z" fill="#3D4A3F"/>
<path d="M69.3968 21.959H0.175781V22.6618H69.3968V21.959Z" fill="#3D4A3F"/>
<path d="M58.153 12.8208H57.4502V69.3923H58.153V12.8208Z" fill="#3D4A3F"/>
<path d="M46.7331 12.8208H46.0303V69.3923H46.7331V12.8208Z" fill="#3D4A3F"/>
<path d="M35.1373 12.8208H34.4346V69.3923H35.1373V12.8208Z" fill="#3D4A3F"/>
<path d="M23.7184 12.8208H23.0156V69.3923H23.7184V12.8208Z" fill="#3D4A3F"/>
<path d="M12.1227 12.8208H11.4199V69.3923H12.1227V12.8208Z" fill="#3D4A3F"/>
</g>
<path d="M6.14946 -0.000976562H0.703125V0.877463H6.14946V-0.000976562Z" fill="#3D4A3F"/>
<path d="M69.2219 -0.000976562H67.8164V0.877463H69.2219V-0.000976562Z" fill="#3D4A3F"/>
<path d="M40.5842 -0.000976562H39.1787V0.877463H40.5842V-0.000976562Z" fill="#3D4A3F"/>
<path d="M62.5451 -0.000976562H61.1396V0.877463H62.5451V-0.000976562Z" fill="#3D4A3F"/>
<path d="M6.14946 78.0054H0.703125V78.8838H6.14946V78.0054Z" fill="#3D4A3F"/>
<path d="M69.2219 78.0054H67.8164V78.8838H69.2219V78.0054Z" fill="#3D4A3F"/>
<path d="M40.5842 78.0054H39.1787V78.8838H40.5842V78.0054Z" fill="#3D4A3F"/>
<path d="M62.5451 78.0054H61.1396V78.8838H62.5451V78.0054Z" fill="#3D4A3F"/>
</svg>
