<svg width="50" height="51" viewBox="0 0 50 51" fill="none" xmlns="http://www.w3.org/2000/svg">
<rect width="50" height="50" transform="matrix(1 1.74846e-07 1.74846e-07 -1 0 50.1646)" fill="#0A0A0A"/>
<rect width="48" height="48" transform="matrix(1 1.74846e-07 1.74846e-07 -1 1 49.165)" fill="#93FBA3"/>
<rect width="34" height="34" transform="matrix(1 1.74846e-07 1.74846e-07 -1 8 42.165)" fill="#0A0A0A"/>
<rect x="48.665" y="0.5" width="0.999696" height="68.1155" transform="rotate(45 48.665 0.5)" fill="#0A0A0A"/>
<path d="M17.2929 32.1801L16.5858 32.8872L18 34.3014L18.7071 33.5943L17.2929 32.1801ZM32.9696 17.9176L24.8046 17.9176L24.8046 26.0826L32.9696 26.0826L32.9696 17.9176ZM18.7071 33.5943L29.5942 22.7072L28.18 21.293L17.2929 32.1801L18.7071 33.5943Z" fill="#93FBA3"/>
</svg>
