<svg width="1098" height="121" viewBox="0 0 1098 121" fill="none" xmlns="http://www.w3.org/2000/svg">
<mask id="mask0_5_18785" style="mask-type:alpha" maskUnits="userSpaceOnUse" x="0" y="0" width="1098" height="121">
<rect width="1098" height="121" fill="#D9D9D9"/>
</mask>
<g mask="url(#mask0_5_18785)">
<g opacity="0.05">
<path d="M440.745 720.572L1053.63 69.6794L1053.63 0.164062L988.016 0.16406L309.786 720.572L440.745 720.572Z" fill="#93FBA3"/>
<path d="M253.55 720.572L932.041 0.164062L801.081 0.164057L122.591 720.572L253.55 720.572Z" fill="#93FBA3"/>
<path d="M1.00341 720.572L66.6134 720.572L744.844 0.164062L613.884 0.164057L1.00342 651.057L1.00341 720.572Z" fill="#93FBA3"/>
<path d="M1.00134 591.435L557.905 0.164062L426.685 0.164057L1.00134 452.404L1.00134 591.435Z" fill="#93FBA3"/>
<path d="M0.999873 392.783L370.707 0.164062L239.747 0.164057L0.999879 253.752L0.999873 392.783Z" fill="#93FBA3"/>
<path d="M52.555 0.164057L1.00435 54.8391L1.00435 194.13L183.515 0.164062L52.555 0.164057Z" fill="#93FBA3"/>
</g>
</g>
</svg>
