<svg width="212" height="90" viewBox="0 0 212 90" fill="none" xmlns="http://www.w3.org/2000/svg">
<path d="M0 75C0 33.5786 33.5786 0 75 0H197C205.284 0 212 6.71573 212 15V15C212 56.4214 178.421 90 137 90H15C6.71573 90 0 83.2843 0 75V75Z" fill="black"/>
<path d="M75.249 36.0127H67.1406V58H60.6279V36.0127H52.668V30.9844H75.249V36.0127ZM91.6514 50.8193C91.6514 49.8669 91.3112 49.1247 90.6309 48.5928C89.9629 48.0609 88.7816 47.5104 87.0869 46.9414C85.3923 46.3724 84.0068 45.8219 82.9307 45.29C79.43 43.5706 77.6797 41.208 77.6797 38.2021C77.6797 36.7054 78.1126 35.388 78.9785 34.25C79.8568 33.0996 81.0938 32.209 82.6895 31.5781C84.2852 30.9349 86.0788 30.6133 88.0703 30.6133C90.0124 30.6133 91.7503 30.9596 93.2842 31.6523C94.8304 32.3451 96.0303 33.3346 96.8838 34.6211C97.7373 35.8952 98.1641 37.3548 98.1641 39H91.6699C91.6699 37.8991 91.3298 37.0456 90.6494 36.4395C89.9814 35.8333 89.0723 35.5303 87.9219 35.5303C86.7591 35.5303 85.8376 35.79 85.1572 36.3096C84.4893 36.8167 84.1553 37.4661 84.1553 38.2578C84.1553 38.9505 84.5264 39.5814 85.2686 40.1504C86.0107 40.707 87.3158 41.2884 89.1836 41.8945C91.0514 42.4883 92.5853 43.1315 93.7852 43.8242C96.7044 45.5065 98.1641 47.8258 98.1641 50.7822C98.1641 53.1449 97.2734 55.0003 95.4922 56.3486C93.7109 57.6969 91.2679 58.3711 88.1631 58.3711C85.9736 58.3711 83.9883 57.9814 82.207 57.2021C80.4382 56.4105 79.1022 55.3343 78.1992 53.9736C77.3086 52.6006 76.8633 51.0234 76.8633 49.2422H83.3945C83.3945 50.6895 83.7656 51.7594 84.5078 52.4521C85.2624 53.1325 86.4808 53.4727 88.1631 53.4727C89.2393 53.4727 90.0866 53.2438 90.7051 52.7861C91.3359 52.3161 91.6514 51.6605 91.6514 50.8193ZM108.443 58H101.949V30.9844H108.443V58ZM122.155 47.9434L119.483 50.875V58H112.971V30.9844H119.483V42.8965L121.747 39.4639L127.573 30.9844H135.626L126.497 42.9336L135.626 58H127.907L122.155 47.9434ZM159.562 45.0488C159.562 47.6836 159.073 50.0153 158.096 52.0439C157.118 54.0726 155.727 55.6374 153.921 56.7383C152.127 57.8268 150.08 58.3711 147.779 58.3711C145.479 58.3711 143.438 57.8454 141.656 56.7939C139.875 55.7301 138.483 54.2148 137.481 52.248C136.492 50.2812 135.972 48.0238 135.923 45.4756V43.9541C135.923 41.307 136.405 38.9753 137.37 36.959C138.347 34.9303 139.739 33.3656 141.545 32.2646C143.363 31.1637 145.429 30.6133 147.742 30.6133C150.031 30.6133 152.072 31.1576 153.865 32.2461C155.659 33.3346 157.05 34.887 158.04 36.9033C159.042 38.9072 159.549 41.208 159.562 43.8057V45.0488ZM152.938 43.917C152.938 41.2327 152.486 39.1979 151.583 37.8125C150.692 36.4147 149.412 35.7158 147.742 35.7158C144.477 35.7158 142.751 38.165 142.565 43.0635L142.547 45.0488C142.547 47.696 142.986 49.7308 143.864 51.1533C144.743 52.5758 146.048 53.2871 147.779 53.2871C149.424 53.2871 150.692 52.5882 151.583 51.1904C152.474 49.7926 152.925 47.7826 152.938 45.1602V43.917Z" fill="white"/>
</svg>
