<svg width="40" height="40" viewBox="0 0 40 40" fill="none" xmlns="http://www.w3.org/2000/svg">
<rect width="40" height="40" rx="8" fill="#FFB526"/>
<path d="M20 4C13.7968 4 8.75 9.04675 8.75 15.25C8.75 17.3459 9.33056 19.3913 10.4293 21.1658L19.3596 35.5568C19.5307 35.8325 19.8321 36 20.1562 36C20.1587 36 20.1611 36 20.1636 36C20.4906 35.9974 20.7926 35.8248 20.9605 35.5443L29.6632 21.0138C30.7013 19.2768 31.25 17.2837 31.25 15.25C31.25 9.04675 26.2033 4 20 4ZM28.0541 20.0511L20.142 33.2616L12.0229 20.1779C11.1084 18.7009 10.6125 16.9969 10.6125 15.25C10.6125 10.0806 14.8306 5.8625 20 5.8625C25.1694 5.8625 29.3813 10.0806 29.3813 15.25C29.3813 16.9451 28.9181 18.6055 28.0541 20.0511Z" fill="white"/>
<path d="M20 9.625C16.8984 9.625 14.375 12.1484 14.375 15.25C14.375 18.3318 16.8573 20.875 20 20.875C23.1814 20.875 25.625 18.2979 25.625 15.25C25.625 12.1484 23.1016 9.625 20 9.625ZM20 19.0125C17.9214 19.0125 16.2375 17.3229 16.2375 15.25C16.2375 13.1823 17.9323 11.4875 20 11.4875C22.0677 11.4875 23.7563 13.1823 23.7563 15.25C23.7563 17.2927 22.1115 19.0125 20 19.0125Z" fill="white"/>
</svg>
