<svg width="40" height="40" fill="none" xmlns="http://www.w3.org/2000/svg"><path d="M27.5 0h-15C5.598 0 0 5.598 0 12.5v15C0 34.403 5.598 40 12.5 40h15C34.403 40 40 34.403 40 27.5v-15C40 5.598 34.403 0 27.5 0zm8.75 27.5c0 4.825-3.925 8.75-8.75 8.75h-15c-4.825 0-8.75-3.925-8.75-8.75v-15c0-4.825 3.925-8.75 8.75-8.75h15c4.825 0 8.75 3.925 8.75 8.75v15z" fill="#fff"/><path d="M20 10c-5.523 0-10 4.477-10 10s4.477 10 10 10 10-4.477 10-10-4.477-10-10-10zm0 16.25A6.259 6.259 0 0113.75 20 6.257 6.257 0 0120 13.75 6.257 6.257 0 0126.25 20 6.259 6.259 0 0120 26.25zm10.75-15.668a1.333 1.333 0 100-2.665 1.333 1.333 0 000 2.665z" fill="#fff"/></svg>