<svg width="40" height="40" fill="none" xmlns="http://www.w3.org/2000/svg"><path d="M37.551 0H2.449A2.452 2.452 0 000 2.449v35.102A2.452 2.452 0 002.449 40h35.102A2.452 2.452 0 0040 37.551V2.449A2.452 2.452 0 0037.551 0zm.816 37.551c0 .45-.366.816-.816.816H2.449a.817.817 0 01-.816-.816V2.449c0-.45.366-.816.816-.816h35.102c.45 0 .816.366.816.816v35.102z" fill="#fff"/><path d="M32.361 7.772a4.616 4.616 0 00-1.423.242L5.01 18.054a.813.813 0 00-.158.083c-.077.051-.762.532-.842 1.423-.063.695.253 1.384.94 2.047 1.45 1.405 4.78 2.01 6.094 2.2l2.687 7.292a.8.8 0 00.036.082c.218.438.847 1.177 1.818 1.177.646 0 1.298-.324 1.938-.964l2.37-2.371 6.378 4.501a2.213 2.213 0 001.185.354c.493 0 1.416-.192 2.057-1.472.835-1.67 5.085-19.903 5.567-21.977a.81.81 0 00.021-.185c0-1.432-1.152-2.472-2.74-2.472zm-4.308 23.904c-.13.26-.338.569-.596.569a.614.614 0 01-.267-.072l-6.916-4.88a.816.816 0 00-1.047.089l-2.858 2.857c-.451.451-.713.486-.783.486-.162 0-.3-.186-.347-.258l-2.833-7.688a.817.817 0 00-.673-.529c-1.19-.135-4.521-.726-5.648-1.817-.431-.417-.453-.656-.449-.72a.32.32 0 01.093-.186l25.772-9.98c.307-.094.596-.142.86-.142.25 0 1.049.056 1.105.76-1.876 8.069-4.848 20.381-5.413 21.51z" fill="#fff"/><path d="M29.797 11.17l-16.326 9.387a.816.816 0 00-.358.995l2.45 6.53a.816.816 0 001.482.1l2.797-5.193L30.77 12.465a.816.816 0 00-.973-1.296zM18.617 21.9a.82.82 0 00-.152.201l-2.005 3.724-1.575-4.199 9.97-5.733-6.238 6.007z" fill="#fff"/></svg>