<svg width="33" height="33" viewBox="0 0 33 33" fill="none" xmlns="http://www.w3.org/2000/svg">
<path d="M25.2023 16.207H27.5042C28.0246 16.207 28.448 15.7836 28.448 15.2632V12.9613C28.448 12.4409 28.0246 12.0175 27.5042 12.0175H25.2023C24.6819 12.0175 24.2585 12.4409 24.2585 12.9613V15.2632C24.2585 15.7836 24.6819 16.207 25.2023 16.207ZM25.2253 12.9843H27.4812V15.2402H25.2253V12.9843ZM25.2023 22.33H27.5042C28.0246 22.33 28.448 21.9067 28.448 21.3863V19.0844C28.448 18.564 28.0246 18.1406 27.5042 18.1406H25.2023C24.6819 18.1406 24.2585 18.564 24.2585 19.0844V21.3863C24.2585 21.9067 24.6819 22.33 25.2023 22.33ZM25.2253 19.1074H27.4812V21.3632H25.2253V19.1074ZM18.6335 16.207H20.9354C21.4558 16.207 21.8792 15.7836 21.8792 15.2632V12.9613C21.8792 12.4409 21.4558 12.0175 20.9354 12.0175H18.6335C18.1131 12.0175 17.6897 12.4409 17.6897 12.9613V15.2632C17.6897 15.7836 18.1131 16.207 18.6335 16.207ZM18.6565 12.9843H20.9124V15.2402H18.6565V12.9843ZM7.79779 23.9766H5.49591C4.97551 23.9766 4.55212 24.4 4.55212 24.9203V27.2222C4.55212 27.7426 4.97551 28.166 5.49591 28.166H7.79779C8.31818 28.166 8.74157 27.7426 8.74157 27.2222V24.9203C8.74157 24.4 8.31818 23.9766 7.79779 23.9766ZM7.77478 27.1992H5.51892V24.9434H7.77478V27.1992ZM7.79779 12.0175H5.49591C4.97551 12.0175 4.55212 12.4409 4.55212 12.9613V15.2632C4.55212 15.7836 4.97551 16.207 5.49591 16.207H7.79779C8.31818 16.207 8.74157 15.7836 8.74157 15.2632V12.9613C8.74157 12.4409 8.31818 12.0175 7.79779 12.0175ZM7.77478 15.2402H5.51892V12.9843H7.77478V15.2402ZM18.6335 22.1865H20.9354C21.4558 22.1865 21.8792 21.7631 21.8792 21.2427V18.9408C21.8792 18.4204 21.4558 17.9971 20.9354 17.9971H18.6335C18.1131 17.9971 17.6897 18.4204 17.6897 18.9408V21.2427C17.6897 21.7631 18.1131 22.1865 18.6335 22.1865ZM18.6565 18.9638H20.9124V21.2197H18.6565V18.9638ZM28.9281 2.20907H26.8613V1.46998C26.8613 0.65942 26.2019 0 25.3914 0H25.1694C24.3589 0 23.6995 0.65942 23.6995 1.46998V2.20907H9.30064V1.46998C9.30064 0.65942 8.64122 0 7.83066 0H7.60868C6.79812 0 6.1387 0.65942 6.1387 1.46998V2.20907H4.07201C2.73751 2.20907 1.65179 3.29478 1.65179 4.62928V30.583C1.65179 31.9158 2.73602 33 4.06879 33H28.9314C30.2642 33 31.3484 31.9158 31.3484 30.583V4.62928C31.3484 3.29478 30.2627 2.20907 28.9281 2.20907ZM24.6663 1.46998C24.6663 1.19251 24.892 0.966797 25.1694 0.966797H25.3914C25.6689 0.966797 25.8946 1.19251 25.8946 1.46998V2.20907H24.6663V1.46998ZM7.10556 1.46998C7.10556 1.19251 7.33127 0.966797 7.60875 0.966797H7.83072C8.10819 0.966797 8.33391 1.19251 8.33391 1.46998V2.20907H7.10562V1.46998H7.10556ZM30.3816 30.583C30.3816 31.3827 29.7311 32.0332 28.9314 32.0332H4.06872C3.26905 32.0332 2.61853 31.3827 2.61853 30.583V30.58C3.02355 30.8852 3.52699 31.0664 4.07201 31.0664H23.6711C24.3176 31.0664 24.9254 30.8147 25.3825 30.3575L30.3816 25.3584V30.583ZM24.8892 29.4835C24.9271 29.3271 24.9477 29.1639 24.9477 28.996V25.7693C24.9477 25.1608 25.4428 24.6658 26.0513 24.6658H29.278C29.4459 24.6658 29.609 24.6451 29.7655 24.6072L24.8892 29.4835ZM30.3816 9.11715H9.78404C9.51707 9.11715 9.30064 9.33359 9.30064 9.60055C9.30064 9.86752 9.51707 10.0839 9.78404 10.0839H30.3816V22.5955C30.3816 23.204 29.8865 23.699 29.278 23.699H26.0513C24.9097 23.699 23.9809 24.6278 23.9809 25.7693V28.9961C23.9809 29.6046 23.4859 30.0997 22.8774 30.0997H4.07201C3.2706 30.0997 2.61859 29.4477 2.61859 28.6462V10.0839H7.85045C8.11741 10.0839 8.33384 9.86752 8.33384 9.60055C8.33384 9.33359 8.11741 9.11715 7.85045 9.11715H2.61853V4.62928C2.61853 3.82787 3.27053 3.17586 4.07194 3.17586H6.1387V4.59718C6.1387 5.40775 6.79812 6.06717 7.60868 6.06717C7.87565 6.06717 8.09208 5.85073 8.09208 5.58377C8.09208 5.3168 7.87565 5.10037 7.60868 5.10037C7.33121 5.10037 7.1055 4.87465 7.1055 4.59718V3.17586H23.6995V4.59718C23.6995 5.40775 24.3589 6.06717 25.1694 6.06717C25.4364 6.06717 25.6528 5.85073 25.6528 5.58377C25.6528 5.3168 25.4364 5.10037 25.1694 5.10037C24.892 5.10037 24.6663 4.87465 24.6663 4.59718V3.17586H28.9282C29.7296 3.17586 30.3816 3.82787 30.3816 4.62928V9.11715ZM7.79779 17.9971H5.49591C4.97551 17.9971 4.55212 18.4204 4.55212 18.9408V21.2427C4.55212 21.7631 4.97551 22.1865 5.49591 22.1865H7.79779C8.31818 22.1865 8.74157 21.7631 8.74157 21.2427V18.9408C8.74157 18.4204 8.31818 17.9971 7.79779 17.9971ZM7.77478 21.2197H5.51892V18.9638H7.77478V21.2197ZM12.0647 16.207H14.3666C14.887 16.207 15.3104 15.7836 15.3104 15.2632V12.9613C15.3104 12.4409 14.887 12.0175 14.3666 12.0175H12.0647C11.5443 12.0175 11.1209 12.4409 11.1209 12.9613V15.2632C11.1209 15.7836 11.5443 16.207 12.0647 16.207ZM12.0877 12.9843H14.3436V15.2402H12.0877V12.9843ZM18.6559 27.1992C18.644 26.9429 18.4324 26.7388 18.1731 26.7388C17.9061 26.7388 17.6897 26.9553 17.6897 27.2222C17.6897 27.7426 18.1131 28.166 18.6335 28.166H20.9353C21.4557 28.166 21.8791 27.7426 21.8791 27.2222V24.9203C21.8791 24.4 21.4557 23.9766 20.9353 23.9766H18.6335C18.1131 23.9766 17.6897 24.4 17.6897 24.9203V25.5842C17.6897 25.8512 17.9061 26.0676 18.1731 26.0676C18.44 26.0676 18.6565 25.8512 18.6565 25.5842V24.9434H20.9123V27.1992H18.6559ZM12.0647 22.1865H14.3666C14.887 22.1865 15.3104 21.7631 15.3104 21.2427V18.9408C15.3104 18.4204 14.887 17.9971 14.3666 17.9971H12.0647C11.5443 17.9971 11.1209 18.4204 11.1209 18.9408V21.2427C11.1209 21.7631 11.5443 22.1865 12.0647 22.1865ZM12.0877 18.9638H14.3436V21.2197H12.0877V18.9638ZM12.0647 28.166H14.3666C14.887 28.166 15.3104 27.7426 15.3104 27.2222V24.9203C15.3104 24.4 14.887 23.9766 14.3666 23.9766H12.0647C11.5443 23.9766 11.1209 24.4 11.1209 24.9203V27.2222C11.1209 27.7426 11.5443 28.166 12.0647 28.166ZM12.0877 24.9434H14.3436V27.1992H12.0877V24.9434Z" fill="#D13333"/>
</svg>
