<svg width="33" height="33" viewBox="0 0 33 33" fill="none" xmlns="http://www.w3.org/2000/svg">
<path d="M25.85 21.45H24.398C23.5565 20.7625 19.4095 17.6 14.3 17.6C9.1905 17.6 5.049 20.7625 4.202 21.45H1.65C1.2128 21.4513 0.79387 21.6255 0.484718 21.9347C0.175565 22.2438 0.00130737 22.6628 1.61537e-06 23.1V26.4C-0.00026447 26.508 0.0323477 26.6135 0.0935016 26.7025L2.2935 30.0025C2.34332 30.0781 2.41107 30.1403 2.4907 30.1835C2.57034 30.2267 2.65941 30.2495 2.75 30.25H4.9995C5.12877 31.0186 5.52623 31.7165 6.12131 32.2199C6.71639 32.7233 7.47059 32.9994 8.25 32.9994C9.02942 32.9994 9.78362 32.7233 10.3787 32.2199C10.9738 31.7165 11.3712 31.0186 11.5005 30.25H22.0495C22.1788 31.0186 22.5762 31.7165 23.1713 32.2199C23.7664 32.7233 24.5206 32.9994 25.3 32.9994C26.0794 32.9994 26.8336 32.7233 27.4287 32.2199C28.0238 31.7165 28.4212 31.0186 28.5505 30.25H32.45C32.5959 30.25 32.7358 30.192 32.8389 30.0889C32.9421 29.9857 33 29.8458 33 29.7V28.6C32.9983 26.7042 32.2444 24.8866 30.9039 23.5461C29.5634 22.2056 27.7458 21.4517 25.85 21.45ZM1.1 24.2H2.8215L2.453 24.75H1.1V24.2ZM8.25 31.9C7.81488 31.9 7.38953 31.7709 7.02775 31.5292C6.66596 31.2875 6.38398 30.9439 6.21747 30.5419C6.05095 30.1399 6.00739 29.6975 6.09227 29.2708C6.17716 28.844 6.38669 28.452 6.69437 28.1443C7.00204 27.8367 7.39404 27.6271 7.8208 27.5422C8.24756 27.4574 8.68991 27.5009 9.0919 27.6674C9.4939 27.834 9.83749 28.1159 10.0792 28.4777C10.321 28.8395 10.45 29.2649 10.45 29.7C10.45 30.2835 10.2182 30.843 9.80564 31.2556C9.39306 31.6682 8.83348 31.9 8.25 31.9ZM13.75 29.15H11.5005C11.3712 28.3814 10.9738 27.6834 10.3787 27.1801C9.78362 26.6767 9.02942 26.4005 8.25 26.4005C7.47059 26.4005 6.71639 26.6767 6.12131 27.1801C5.52623 27.6834 5.12877 28.3814 4.9995 29.15H3.047L1.1 26.235V25.85H2.75C2.84059 25.8495 2.92966 25.8267 3.0093 25.7835C3.08894 25.7403 3.15668 25.6781 3.2065 25.6025L4.3065 23.9525C4.36322 23.8709 4.39588 23.7751 4.40074 23.6759C4.4056 23.5767 4.38248 23.4782 4.334 23.3915C4.288 23.303 4.21847 23.229 4.13306 23.1776C4.04765 23.1261 3.9497 23.0993 3.85 23.1H1.1C1.1 22.9541 1.15795 22.8142 1.26109 22.7111C1.36424 22.6079 1.50413 22.55 1.65 22.55H13.75V29.15ZM13.75 21.45H6.083C8.35944 19.8923 11.0013 18.9523 13.75 18.722V21.45ZM30.514 24.75H28.347L27.9785 24.2H29.9915C30.1754 24.3738 30.3498 24.5574 30.514 24.75ZM14.85 18.722C18.1005 18.887 20.9385 20.4105 22.517 21.45H14.85V18.722ZM14.85 24.2H15.675C15.7479 24.2 15.8179 24.2289 15.8695 24.2805C15.921 24.3321 15.95 24.402 15.95 24.475C15.95 24.5479 15.921 24.6179 15.8695 24.6694C15.8179 24.721 15.7479 24.75 15.675 24.75H14.85V24.2ZM25.3 31.9C24.8649 31.9 24.4395 31.7709 24.0777 31.5292C23.716 31.2875 23.434 30.9439 23.2675 30.5419C23.101 30.1399 23.0574 29.6975 23.1423 29.2708C23.2272 28.844 23.4367 28.452 23.7444 28.1443C24.052 27.8367 24.444 27.6271 24.8708 27.5422C25.2976 27.4574 25.7399 27.5009 26.1419 27.6674C26.5439 27.834 26.8875 28.1159 27.1292 28.4777C27.371 28.8395 27.5 29.2649 27.5 29.7C27.5 30.2835 27.2682 30.843 26.8556 31.2556C26.4431 31.6682 25.8835 31.9 25.3 31.9ZM31.9 29.15H28.5505C28.4212 28.3814 28.0238 27.6834 27.4287 27.1801C26.8336 26.6767 26.0794 26.4005 25.3 26.4005C24.5206 26.4005 23.7664 26.6767 23.1713 27.1801C22.5762 27.6834 22.1788 28.3814 22.0495 29.15H14.85V25.85H15.675C16.0397 25.85 16.3894 25.7051 16.6473 25.4472C16.9051 25.1894 17.05 24.8396 17.05 24.475C17.05 24.1103 16.9051 23.7606 16.6473 23.5027C16.3894 23.2448 16.0397 23.1 15.675 23.1H14.85V22.55H25.85C26.7142 22.5494 27.5682 22.737 28.3525 23.1H26.95C26.8503 23.0993 26.7523 23.1261 26.6669 23.1776C26.5815 23.229 26.512 23.303 26.466 23.3915C26.4175 23.4782 26.3944 23.5767 26.3993 23.6759C26.4041 23.7751 26.4368 23.8709 26.4935 23.9525L27.5935 25.6025C27.6433 25.6781 27.7111 25.7403 27.7907 25.7835C27.8703 25.8267 27.9594 25.8495 28.05 25.85H31.2345C31.6721 26.7006 31.9003 27.6434 31.9 28.6V29.15Z" fill="#D13333"/>
<path d="M25.3 28.05C24.9737 28.05 24.6546 28.1468 24.3833 28.3281C24.112 28.5094 23.9005 28.7671 23.7756 29.0686C23.6507 29.3701 23.618 29.7018 23.6817 30.0219C23.7454 30.342 23.9025 30.636 24.1333 30.8667C24.364 31.0975 24.658 31.2546 24.9781 31.3183C25.2982 31.382 25.6299 31.3493 25.9314 31.2244C26.2329 31.0995 26.4906 30.888 26.6719 30.6167C26.8532 30.3453 26.95 30.0263 26.95 29.7C26.95 29.2624 26.7762 28.8427 26.4667 28.5333C26.1573 28.2238 25.7376 28.05 25.3 28.05ZM25.3 30.25C25.1912 30.25 25.0849 30.2177 24.9944 30.1573C24.904 30.0969 24.8335 30.011 24.7919 29.9105C24.7502 29.81 24.7393 29.6994 24.7606 29.5927C24.7818 29.486 24.8342 29.388 24.9111 29.3111C24.988 29.2342 25.086 29.1818 25.1927 29.1606C25.2994 29.1393 25.41 29.1502 25.5105 29.1919C25.611 29.2335 25.6969 29.304 25.7573 29.3944C25.8177 29.4849 25.85 29.5912 25.85 29.7C25.85 29.8459 25.7921 29.9858 25.6889 30.0889C25.5858 30.192 25.4459 30.25 25.3 30.25Z" fill="#D13333"/>
<path d="M8.25001 28.05C7.92367 28.05 7.60466 28.1468 7.33332 28.3281C7.06197 28.5094 6.85049 28.7671 6.72561 29.0686C6.60072 29.3701 6.56805 29.7018 6.63171 30.0219C6.69538 30.342 6.85252 30.636 7.08328 30.8667C7.31404 31.0975 7.60804 31.2546 7.92811 31.3183C8.24817 31.382 8.57993 31.3493 8.88143 31.2244C9.18293 31.0995 9.44063 30.888 9.62193 30.6167C9.80323 30.3453 9.9 30.0263 9.9 29.7C9.9 29.2624 9.72617 28.8427 9.41673 28.5333C9.1073 28.2238 8.68761 28.05 8.25001 28.05ZM8.25001 30.25C8.14123 30.25 8.03489 30.2177 7.94444 30.1573C7.85399 30.0969 7.7835 30.011 7.74187 29.9105C7.70024 29.81 7.68935 29.6994 7.71057 29.5927C7.7318 29.486 7.78418 29.388 7.8611 29.3111C7.93802 29.2342 8.03602 29.1818 8.14271 29.1606C8.24939 29.1393 8.35998 29.1502 8.46048 29.1919C8.56098 29.2335 8.64688 29.304 8.70731 29.3944C8.76775 29.4849 8.8 29.5912 8.8 29.7C8.8 29.8459 8.74206 29.9858 8.63891 30.0889C8.53577 30.192 8.39587 30.25 8.25001 30.25Z" fill="#D13333"/>
<path d="M10.45 7.15C10.8851 7.15 11.3105 7.02097 11.6723 6.77923C12.034 6.53749 12.316 6.1939 12.4825 5.7919C12.649 5.38991 12.6926 4.94756 12.6077 4.5208C12.5228 4.09404 12.3133 3.70204 12.0056 3.39437C11.698 3.08669 11.306 2.87716 10.8792 2.79227C10.4524 2.70739 10.0101 2.75095 9.6081 2.91747C9.2061 3.08398 8.86251 3.36596 8.62077 3.72775C8.37903 4.08953 8.25 4.51488 8.25 4.95C8.25 5.53348 8.48179 6.09306 8.89437 6.50564C9.30695 6.91822 9.86652 7.15 10.45 7.15ZM10.45 3.85C10.6676 3.85 10.8802 3.91451 11.0611 4.03538C11.242 4.15625 11.383 4.32805 11.4663 4.52905C11.5495 4.73005 11.5713 4.95122 11.5289 5.1646C11.4864 5.37798 11.3817 5.57398 11.2278 5.72782C11.074 5.88166 10.878 5.98642 10.6646 6.02886C10.4512 6.07131 10.23 6.04952 10.029 5.96627C9.82805 5.88301 9.65625 5.74202 9.53538 5.56113C9.41451 5.38023 9.35 5.16756 9.35 4.95C9.35 4.65826 9.46589 4.37847 9.67218 4.17218C9.87847 3.96589 10.1583 3.85 10.45 3.85Z" fill="#D13333"/>
<path d="M14.982 3.3165L14.6135 3.223L14.8115 2.8985C14.8744 2.79343 14.9005 2.67037 14.8855 2.54883C14.8706 2.42728 14.8155 2.3142 14.729 2.2275L13.1725 0.671C13.0851 0.585674 12.9721 0.531392 12.8509 0.516488C12.7297 0.501584 12.6069 0.526883 12.5015 0.5885L12.177 0.7865L12.0835 0.418C12.054 0.298758 11.9855 0.192816 11.8888 0.11706C11.7921 0.0413045 11.6728 9.49442e-05 11.55 0H9.35C9.22717 9.49442e-05 9.1079 0.0413045 9.01121 0.11706C8.91453 0.192816 8.84598 0.298758 8.8165 0.418L8.723 0.7865L8.3985 0.5885C8.29305 0.526883 8.17029 0.501584 8.04907 0.516488C7.92786 0.531392 7.81488 0.585674 7.7275 0.671L6.171 2.2275C6.08451 2.3142 6.02943 2.42728 6.01448 2.54883C5.99954 2.67037 6.02559 2.79343 6.0885 2.8985L6.2865 3.223L5.918 3.3165C5.79876 3.34598 5.69282 3.41453 5.61706 3.51121C5.5413 3.6079 5.50009 3.72717 5.5 3.85V6.05C5.50009 6.17283 5.5413 6.2921 5.61706 6.38878C5.69282 6.48547 5.79876 6.55402 5.918 6.5835L6.2865 6.677L6.0885 7.0015C6.02559 7.10657 5.99954 7.22962 6.01448 7.35117C6.02943 7.47272 6.08451 7.5858 6.171 7.6725L7.7275 9.229C7.81479 9.31449 7.92777 9.36888 8.04904 9.38379C8.1703 9.3987 8.2931 9.3733 8.3985 9.3115L8.723 9.1135L8.8165 9.482C8.84598 9.60124 8.91453 9.70718 9.01121 9.78294C9.1079 9.8587 9.22717 9.8999 9.35 9.9H11.55C11.6728 9.8999 11.7921 9.8587 11.8888 9.78294C11.9855 9.70718 12.054 9.60124 12.0835 9.482L12.177 9.1135L12.5015 9.3115C12.6069 9.37312 12.7297 9.39842 12.8509 9.38351C12.9721 9.36861 13.0851 9.31433 13.1725 9.229L14.729 7.6725C14.8155 7.5858 14.8706 7.47272 14.8855 7.35117C14.9005 7.22962 14.8744 7.10657 14.8115 7.0015L14.6135 6.677L14.982 6.5835C15.1012 6.55402 15.2072 6.48547 15.2829 6.38878C15.3587 6.2921 15.3999 6.17283 15.4 6.05V3.85C15.3999 3.72717 15.3587 3.6079 15.2829 3.51121C15.2072 3.41453 15.1012 3.34598 14.982 3.3165ZM14.3 5.621L13.629 5.786C13.5458 5.80736 13.4686 5.84781 13.4037 5.90413C13.3388 5.96045 13.2879 6.0311 13.255 6.1105C13.2217 6.19014 13.2078 6.27657 13.2145 6.36265C13.2212 6.44872 13.2483 6.53197 13.2935 6.6055L13.6455 7.1995L12.6995 8.1455L12.1055 7.788C12.0311 7.74488 11.9477 7.71947 11.8618 7.71375C11.776 7.70802 11.69 7.72214 11.6105 7.755C11.5311 7.78789 11.4604 7.8388 11.4041 7.90372C11.3478 7.96863 11.3074 8.04576 11.286 8.129L11.121 8.8H9.779L9.614 8.129C9.59264 8.04576 9.55219 7.96863 9.49587 7.90372C9.43955 7.8388 9.3689 7.78789 9.2895 7.755C9.20999 7.72214 9.12399 7.70802 9.03815 7.71375C8.95231 7.71947 8.86894 7.74488 8.7945 7.788L8.2005 8.1455L7.2545 7.1995L7.6065 6.6055C7.65174 6.53197 7.67883 6.44872 7.68552 6.36265C7.69221 6.27657 7.67833 6.19014 7.645 6.1105C7.61211 6.0311 7.56119 5.96045 7.49628 5.90413C7.43137 5.84781 7.35424 5.80736 7.271 5.786L6.6 5.621V4.279L7.271 4.114C7.35424 4.09264 7.43137 4.05219 7.49628 3.99587C7.56119 3.93955 7.61211 3.8689 7.645 3.7895C7.67833 3.70986 7.69221 3.62343 7.68552 3.53735C7.67883 3.45128 7.65174 3.36803 7.6065 3.2945L7.2545 2.7005L8.2005 1.7545L8.7945 2.1065C8.86803 2.15174 8.95128 2.17883 9.03735 2.18552C9.12343 2.19222 9.20986 2.17833 9.2895 2.145C9.3689 2.11211 9.43955 2.06119 9.49587 1.99628C9.55219 1.93137 9.59264 1.85424 9.614 1.771L9.779 1.1H11.121L11.286 1.771C11.3074 1.85424 11.3478 1.93137 11.4041 1.99628C11.4604 2.06119 11.5311 2.11211 11.6105 2.145C11.6901 2.17833 11.7766 2.19222 11.8626 2.18552C11.9487 2.17883 12.032 2.15174 12.1055 2.1065L12.6995 1.7545L13.6455 2.7005L13.2935 3.2945C13.2483 3.36803 13.2212 3.45128 13.2145 3.53735C13.2078 3.62343 13.2217 3.70986 13.255 3.7895C13.2879 3.8689 13.3388 3.93955 13.4037 3.99587C13.4686 4.05219 13.5458 4.09264 13.629 4.114L14.3 4.279V5.621Z" fill="#D13333"/>
<path d="M20.35 9.89995C20.35 10.3351 20.479 10.7604 20.7208 11.1222C20.9625 11.484 21.3061 11.766 21.7081 11.9325C22.1101 12.099 22.5525 12.1426 22.9792 12.0577C23.406 11.9728 23.798 11.7633 24.1056 11.4556C24.4133 11.1479 24.6229 10.7559 24.7077 10.3291C24.7926 9.90239 24.7491 9.46005 24.5826 9.05805C24.416 8.65605 24.1341 8.31246 23.7723 8.07072C23.4105 7.82898 22.9851 7.69995 22.55 7.69995C21.9665 7.69995 21.407 7.93174 20.9944 8.34432C20.5818 8.7569 20.35 9.31647 20.35 9.89995ZM22.55 8.79995C22.7676 8.79995 22.9802 8.86447 23.1611 8.98533C23.342 9.1062 23.483 9.278 23.5663 9.479C23.6495 9.68 23.6713 9.90117 23.6289 10.1146C23.5864 10.3279 23.4817 10.5239 23.3278 10.6778C23.174 10.8316 22.978 10.9364 22.7646 10.9788C22.5512 11.0213 22.3301 10.9995 22.1291 10.9162C21.9281 10.833 21.7563 10.692 21.6354 10.5111C21.5145 10.3302 21.45 10.1175 21.45 9.89995C21.45 9.60821 21.5659 9.32842 21.7722 9.12213C21.9785 8.91584 22.2583 8.79995 22.55 8.79995Z" fill="#D13333"/>
<path d="M27.082 8.26645L26.7135 8.17295L26.9115 7.84845C26.9744 7.74338 27.0005 7.62033 26.9855 7.49878C26.9706 7.37723 26.9155 7.26415 26.829 7.17745L25.2725 5.62095C25.1851 5.53563 25.0721 5.48134 24.9509 5.46644C24.8297 5.45154 24.707 5.47683 24.6015 5.53845L24.277 5.73645L24.1835 5.36795C24.154 5.24871 24.0855 5.14277 23.9888 5.06701C23.8921 4.99126 23.7728 4.95005 23.65 4.94995H21.45C21.3272 4.95005 21.2079 4.99126 21.1112 5.06701C21.0145 5.14277 20.946 5.24871 20.9165 5.36795L20.823 5.73645L20.4985 5.53845C20.3931 5.47683 20.2703 5.45154 20.1491 5.46644C20.0279 5.48134 19.9149 5.53563 19.8275 5.62095L18.271 7.17745C18.1845 7.26415 18.1294 7.37723 18.1145 7.49878C18.0995 7.62033 18.1256 7.74338 18.1885 7.84845L18.3865 8.17295L18.018 8.26645C17.8988 8.29593 17.7928 8.36448 17.7171 8.46117C17.6413 8.55785 17.6001 8.67712 17.6 8.79995V11C17.6001 11.1228 17.6413 11.242 17.7171 11.3387C17.7928 11.4354 17.8988 11.504 18.018 11.5335L18.3865 11.627L18.1885 11.9515C18.1256 12.0565 18.0995 12.1796 18.1145 12.3011C18.1294 12.4227 18.1845 12.5358 18.271 12.6225L19.8275 14.179C19.9148 14.2644 20.0278 14.3188 20.149 14.3337C20.2703 14.3487 20.3931 14.3232 20.4985 14.2615L20.823 14.0634L20.9165 14.432C20.946 14.5512 21.0145 14.6571 21.1112 14.7329C21.2079 14.8086 21.3272 14.8499 21.45 14.85H23.65C23.7728 14.8499 23.8921 14.8086 23.9888 14.7329C24.0855 14.6571 24.154 14.5512 24.1835 14.432L24.277 14.0634L24.6015 14.2615C24.7069 14.3232 24.8297 14.3487 24.951 14.3337C25.0722 14.3188 25.1852 14.2644 25.2725 14.179L26.829 12.6225C26.9155 12.5358 26.9706 12.4227 26.9855 12.3011C27.0005 12.1796 26.9744 12.0565 26.9115 11.9515L26.7135 11.627L27.082 11.5335C27.2012 11.504 27.3072 11.4354 27.3829 11.3387C27.4587 11.242 27.4999 11.1228 27.5 11V8.79995C27.4999 8.67712 27.4587 8.55785 27.3829 8.46117C27.3072 8.36448 27.2012 8.29593 27.082 8.26645ZM26.4 10.571L25.729 10.736C25.6458 10.7573 25.5686 10.7978 25.5037 10.8541C25.4388 10.9104 25.3879 10.9811 25.355 11.0605C25.3217 11.1401 25.3078 11.2265 25.3145 11.3126C25.3212 11.3987 25.3483 11.4819 25.3935 11.5555L25.7455 12.1495L24.7995 13.0955L24.2055 12.738C24.1311 12.6948 24.0477 12.6694 23.9619 12.6637C23.876 12.658 23.79 12.6721 23.7105 12.705C23.6311 12.7378 23.5605 12.7888 23.5041 12.8537C23.4478 12.9186 23.4074 12.9957 23.386 13.079L23.221 13.75H21.879L21.714 13.079C21.6926 12.9957 21.6522 12.9186 21.5959 12.8537C21.5396 12.7888 21.4689 12.7378 21.3895 12.705C21.31 12.6721 21.224 12.658 21.1382 12.6637C21.0523 12.6694 20.9689 12.6948 20.8945 12.738L20.3005 13.0955L19.3545 12.1495L19.7065 11.5555C19.7517 11.4819 19.7788 11.3987 19.7855 11.3126C19.7922 11.2265 19.7783 11.1401 19.745 11.0605C19.7121 10.9811 19.6612 10.9104 19.5963 10.8541C19.5314 10.7978 19.4542 10.7573 19.371 10.736L18.7 10.571V9.22895L19.371 9.06395C19.4542 9.04259 19.5314 9.00214 19.5963 8.94582C19.6612 8.8895 19.7121 8.81885 19.745 8.73945C19.7783 8.65981 19.7922 8.57338 19.7855 8.4873C19.7788 8.40123 19.7517 8.31798 19.7065 8.24445L19.3545 7.65045L20.3005 6.70445L20.8945 7.05645C20.968 7.10169 21.0513 7.12878 21.1374 7.13547C21.2234 7.14217 21.3099 7.12828 21.3895 7.09495C21.4689 7.06206 21.5396 7.01115 21.5959 6.94623C21.6522 6.88132 21.6926 6.80419 21.714 6.72095L21.879 6.04995H23.221L23.386 6.72095C23.4074 6.80419 23.4478 6.88132 23.5041 6.94623C23.5605 7.01115 23.6311 7.06206 23.7105 7.09495C23.7901 7.12828 23.8766 7.14217 23.9627 7.13547C24.0487 7.12878 24.132 7.10169 24.2055 7.05645L24.7995 6.70445L25.7455 7.65045L25.3935 8.24445C25.3483 8.31798 25.3212 8.40123 25.3145 8.4873C25.3078 8.57338 25.3217 8.65981 25.355 8.73945C25.3879 8.81885 25.4388 8.8895 25.5037 8.94582C25.5686 9.00214 25.6458 9.04259 25.729 9.06395L26.4 9.22895V10.571Z" fill="#D13333"/>
<path d="M32.45 9.34998H28.6V10.45H31.9V21.45H33V9.89998C33 9.75411 32.9421 9.61421 32.8389 9.51107C32.7358 9.40792 32.5959 9.34998 32.45 9.34998Z" fill="#D13333"/>
<path d="M1.1 5.50002H4.4V4.40002H0.55C0.404131 4.40002 0.264236 4.45797 0.161091 4.56112C0.0579462 4.66426 0 4.80416 0 4.95002V20.35H1.1V5.50002Z" fill="#D13333"/>
<path d="M22 3.85H23.1V0.55C23.1 0.404131 23.0421 0.264236 22.9389 0.161091C22.8358 0.0579462 22.6959 0 22.55 0H14.85V1.1H22V3.85Z" fill="#D13333"/>
<path d="M9.89999 11V14.3C9.89999 14.4459 9.95794 14.5858 10.0611 14.6889C10.1642 14.7921 10.3041 14.85 10.45 14.85H18.15V13.75H11V11H9.89999Z" fill="#D13333"/>
</svg>
