<svg width="25" height="33" viewBox="0 0 25 33" fill="none" xmlns="http://www.w3.org/2000/svg">
<path d="M20.4841 4.25806H9.30666V3.19355H9.83891C10.1334 3.19355 10.3712 2.95497 10.3712 2.66129V0.532258C10.3712 0.238581 10.1334 0 9.83891 0H2.3873C2.09284 0 1.85504 0.238581 1.85504 0.532258V2.66129C1.85504 2.95497 2.09284 3.19355 2.3873 3.19355H2.91956V4.62269C1.66298 5.222 0.790527 6.50145 0.790527 7.98387V29.2742C0.790527 31.3281 2.46241 33 4.51633 33H20.4841C22.538 33 24.2099 31.3281 24.2099 29.2742V7.98387C24.2099 5.92943 22.538 4.25806 20.4841 4.25806ZM23.1454 7.98387V16.2796L21.0163 14.1506V9.04839C21.0163 8.16813 20.2998 7.45161 19.4196 7.45161H14.3174L12.1883 5.32258H20.4841C21.9514 5.32258 23.1454 6.51652 23.1454 7.98387ZM19.9518 13.0861L15.3819 8.51613H19.4196C19.7132 8.51613 19.9518 8.75523 19.9518 9.04839V13.0861ZM2.91956 1.06452H9.30666V2.12903H2.91956V1.06452ZM3.98408 3.19355H8.24214V4.25806H4.51633C4.33545 4.25806 4.15872 4.27574 3.98408 4.30069V3.19355ZM20.4841 31.9355H4.51633C3.04899 31.9355 1.85504 30.7415 1.85504 29.2742V7.98387C1.85504 6.51652 3.04899 5.32258 4.51633 5.32258H10.683L23.1454 17.7849V29.2742C23.1454 30.7415 21.9514 31.9355 20.4841 31.9355Z" fill="#D13333"/>
<path d="M10.2151 6.54302C10.1156 6.44296 9.98043 6.38708 9.83879 6.38708H5.04847C3.87428 6.38708 2.91943 7.34193 2.91943 8.51612V28.7419C2.91943 29.9161 3.87428 30.871 5.04847 30.871H19.9517C21.1259 30.871 22.0807 29.9161 22.0807 28.7419V18.629C22.0807 18.4874 22.0249 18.3522 21.9248 18.2527L10.2151 6.54302ZM21.0162 28.7419C21.0162 29.329 20.5388 29.8064 19.9517 29.8064H5.04847C4.46137 29.8064 3.98395 29.329 3.98395 28.7419V8.51612C3.98395 7.92902 4.46137 7.4516 5.04847 7.4516H9.6184L21.0162 18.8494V28.7419Z" fill="#D13333"/>
<path d="M8.24219 23.8175C8.24219 25.7825 9.65054 27.431 11.5176 27.6509C11.6652 27.6677 11.8131 27.6768 11.9594 27.6768C12.8724 27.6768 13.7584 27.3452 14.4424 26.7368C15.2382 26.0299 15.6938 25.015 15.6938 23.9516V23.8175C15.6938 22.7711 15.4292 21.7331 14.9284 20.8154L12.4353 16.245C12.2489 15.9027 11.6871 15.9027 11.5007 16.245L9.00757 20.8149C8.50676 21.7331 8.24219 22.7711 8.24219 23.8175ZM9.94214 21.3248L11.968 17.6118L13.9939 21.3259C14.4094 22.0871 14.6293 22.9489 14.6293 23.8175V23.9516C14.6293 24.711 14.3036 25.4361 13.735 25.941C13.1596 26.4528 12.415 26.6841 11.6424 26.5936C10.333 26.4392 9.3067 25.2198 9.3067 23.8175C9.3067 22.9489 9.52657 22.0871 9.94214 21.3248Z" fill="#D13333"/>
<path d="M14.0968 23.9517H13.0323C13.0323 24.5388 12.5549 25.0162 11.9678 25.0162V26.0807C13.142 26.0807 14.0968 25.1259 14.0968 23.9517Z" fill="#D13333"/>
</svg>
