<svg width="276" height="95" viewBox="0 0 276 95" fill="none" xmlns="http://www.w3.org/2000/svg">
<path d="M274.808 2V1H273.808H2H1V2V65.0417V66.0417H2H104.539H104.953L105.246 65.7487L123.184 47.8065H273.808H274.808V46.8065V2Z" fill="#FFFFFF" stroke="#7857FF" stroke-width="2"/>
<path d="M118.603 73.1169H113.915V67.1253L129.541 51.4951H273.808V56.4447H272.506V52.7976H130.062L115.217 67.6463V71.8144H118.603V73.1169Z" fill="#7857FF"/>
<path d="M105.841 70.2518H2V71.5543H105.841V70.2518Z" fill="#7857FF"/>
<path d="M130.843 54.8811L128.239 57.4861H130.843V54.8811Z" fill="#7857FF"/>
<path d="M270.943 55.9242H267.558V56.7057H270.943V55.9242Z" fill="#7857FF"/>
<path d="M270.943 59.3102H267.558V60.0917H270.943V59.3102Z" fill="#7857FF"/>
<path d="M270.943 62.6962H267.558V63.4777H270.943V62.6962Z" fill="#7857FF"/>
<path d="M270.943 66.0822H267.558V66.8638H270.943V66.0822Z" fill="#7857FF"/>
<path d="M270.943 69.4708H267.558V70.2523H270.943V69.4708Z" fill="#7857FF"/>
<path d="M42.8155 76.7644L60.7857 94.9996H68.8593L50.6286 76.7644H42.8155Z" fill="#7857FF"/>
<path d="M55.3163 76.7644L73.547 94.9996H81.6206L63.1295 76.7644H55.3163Z" fill="#7857FF"/>
<path d="M68.0779 76.7644L86.3085 94.9996H94.3821L75.891 76.7644H68.0779Z" fill="#7857FF"/>
<path d="M80.8394 76.7644L98.8096 94.9996H106.883L88.6525 76.7644H80.8394Z" fill="#7857FF"/>
</svg>
