<svg width="1507" height="47" viewBox="0 0 1507 47" fill="none" xmlns="http://www.w3.org/2000/svg">
<path d="M1504.67 44.5795C1504.27 44.5795 1504 44.5 1504 44.5795V39.3428H1.34276V44.5795C1.34276 44.9823 1.07421 45.2509 0.671378 45.2509C0.268551 45.2509 0 44.9823 0 44.5795V38.6714C0 38.2686 0.268551 38 0.671378 38H1504.67C1505.07 38 1505.34 38.2686 1505.34 38.6714V44.5795C1505.34 44.5795 1504.94 44.5795 1504.67 44.5795Z" fill="#7857FF"/>
<path d="M383.895 46.9964C383.492 46.9964 383.224 46.7278 383.224 46.325V42.6996C383.224 42.2967 383.492 42.0282 383.895 42.0282C384.298 42.0282 384.566 42.2967 384.566 42.6996V46.4593C384.432 46.7278 384.163 46.9964 383.895 46.9964Z" fill="#B6B1D9"/>
<path d="M772.46 46.9955C772.057 46.9955 771.788 46.727 771.788 46.3242V42.6987C771.788 42.2959 772.057 42.0273 772.46 42.0273C772.863 42.0273 773.131 42.2959 773.131 42.6987V46.4584C772.997 46.727 772.728 46.9955 772.46 46.9955Z" fill="#B6B1D9"/>
<path d="M1161.02 46.9955C1160.62 46.9955 1160.35 46.727 1160.35 46.3242V42.6987C1160.35 42.2959 1160.62 42.0273 1161.02 42.0273C1161.43 42.0273 1161.7 42.2959 1161.7 42.6987V46.4584C1161.56 46.727 1161.29 46.9955 1161.02 46.9955Z" fill="#B6B1D9"/>
<path d="M344.955 46.9964C344.552 46.9964 344.284 46.7278 344.284 46.325V42.6996C344.284 42.2967 344.552 42.0282 344.955 42.0282C345.358 42.0282 345.626 42.2967 345.626 42.6996V46.4593C345.626 46.7278 345.358 46.9964 344.955 46.9964Z" fill="#B6B1D9"/>
<path d="M733.52 46.9955C733.117 46.9955 732.848 46.727 732.848 46.3242V42.6987C732.848 42.2959 733.117 42.0273 733.52 42.0273C733.923 42.0273 734.191 42.2959 734.191 42.6987V46.4584C734.191 46.727 733.923 46.9955 733.52 46.9955Z" fill="#B6B1D9"/>
<path d="M1122.08 46.9955C1121.68 46.9955 1121.41 46.727 1121.41 46.3242V42.6987C1121.41 42.2959 1121.68 42.0273 1122.08 42.0273C1122.49 42.0273 1122.76 42.2959 1122.76 42.6987V46.4584C1122.76 46.727 1122.49 46.9955 1122.08 46.9955Z" fill="#B6B1D9"/>
<path d="M306.149 46.9964C305.746 46.9964 305.477 46.7278 305.477 46.325V42.6996C305.477 42.2967 305.746 42.0282 306.149 42.0282C306.552 42.0282 306.82 42.2967 306.82 42.6996V46.4593C306.82 46.7278 306.417 46.9964 306.149 46.9964Z" fill="#B6B1D9"/>
<path d="M694.714 46.9955C694.311 46.9955 694.042 46.727 694.042 46.3242V42.6987C694.042 42.2959 694.311 42.0273 694.714 42.0273C695.116 42.0273 695.385 42.2959 695.385 42.6987V46.4584C695.385 46.727 694.982 46.9955 694.714 46.9955Z" fill="#B6B1D9"/>
<path d="M1083.28 46.9955C1082.88 46.9955 1082.61 46.727 1082.61 46.3242V42.6987C1082.61 42.2959 1082.88 42.0273 1083.28 42.0273C1083.68 42.0273 1083.95 42.2959 1083.95 42.6987V46.4584C1083.95 46.727 1083.55 46.9955 1083.28 46.9955Z" fill="#B6B1D9"/>
<path d="M1471.84 46.9955C1471.44 46.9955 1471.17 46.727 1471.17 46.3242V42.6987C1471.17 42.2959 1471.44 42.0273 1471.84 42.0273C1472.25 42.0273 1472.51 42.2959 1472.51 42.6987V46.4584C1472.51 46.727 1472.11 46.9955 1471.84 46.9955Z" fill="#B6B1D9"/>
<path d="M267.209 46.9964C266.806 46.9964 266.537 46.7278 266.537 46.325V42.6996C266.537 42.2967 266.806 42.0282 267.209 42.0282C267.612 42.0282 267.88 42.2967 267.88 42.6996V46.4593C267.88 46.7278 267.612 46.9964 267.209 46.9964Z" fill="#B6B1D9"/>
<path d="M655.774 46.9955C655.371 46.9955 655.102 46.727 655.102 46.3242V42.6987C655.102 42.2959 655.371 42.0273 655.774 42.0273C656.177 42.0273 656.445 42.2959 656.445 42.6987V46.4584C656.445 46.727 656.177 46.9955 655.774 46.9955Z" fill="#B6B1D9"/>
<path d="M1044.34 46.9955C1043.94 46.9955 1043.67 46.727 1043.67 46.3242V42.6987C1043.67 42.2959 1043.94 42.0273 1044.34 42.0273C1044.74 42.0273 1045.01 42.2959 1045.01 42.6987V46.4584C1045.01 46.727 1044.74 46.9955 1044.34 46.9955Z" fill="#B6B1D9"/>
<path d="M1432.9 46.9955C1432.5 46.9955 1432.23 46.727 1432.23 46.3242V42.6987C1432.23 42.2959 1432.5 42.0273 1432.9 42.0273C1433.31 42.0273 1433.57 42.2959 1433.57 42.6987V46.4584C1433.57 46.727 1433.31 46.9955 1432.9 46.9955Z" fill="#B6B1D9"/>
<path d="M228.403 46.9964C228 46.9964 227.731 46.7278 227.731 46.325V42.6996C227.731 42.2967 228 42.0282 228.403 42.0282C228.806 42.0282 229.074 42.2967 229.074 42.6996V46.4593C229.074 46.7278 228.806 46.9964 228.403 46.9964Z" fill="#B6B1D9"/>
<path d="M616.968 46.9955C616.565 46.9955 616.296 46.727 616.296 46.3242V42.6987C616.296 42.2959 616.565 42.0273 616.968 42.0273C617.37 42.0273 617.639 42.2959 617.639 42.6987V46.4584C617.639 46.727 617.37 46.9955 616.968 46.9955Z" fill="#B6B1D9"/>
<path d="M1005.53 46.9955C1005.13 46.9955 1004.86 46.727 1004.86 46.3242V42.6987C1004.86 42.2959 1005.13 42.0273 1005.53 42.0273C1005.94 42.0273 1006.2 42.2959 1006.2 42.6987V46.4584C1006.2 46.727 1005.94 46.9955 1005.53 46.9955Z" fill="#B6B1D9"/>
<path d="M1394.1 46.9955C1393.69 46.9955 1393.43 46.727 1393.43 46.3242V42.6987C1393.43 42.2959 1393.69 42.0273 1394.1 42.0273C1394.5 42.0273 1394.77 42.2959 1394.77 42.6987V46.4584C1394.77 46.727 1394.5 46.9955 1394.1 46.9955Z" fill="#B6B1D9"/>
<path d="M189.598 46.9964C189.195 46.9964 188.926 46.7278 188.926 46.325V42.6996C188.926 42.2967 189.195 42.0282 189.598 42.0282C190.001 42.0282 190.269 42.2967 190.269 42.6996V46.4593C190.135 46.7278 189.866 46.9964 189.598 46.9964Z" fill="#B6B1D9"/>
<path d="M578.163 46.9955C577.76 46.9955 577.491 46.727 577.491 46.3242V42.6987C577.491 42.2959 577.76 42.0273 578.163 42.0273C578.566 42.0273 578.834 42.2959 578.834 42.6987V46.4584C578.7 46.727 578.431 46.9955 578.163 46.9955Z" fill="#B6B1D9"/>
<path d="M966.728 46.9955C966.325 46.9955 966.056 46.727 966.056 46.3242V42.6987C966.056 42.2959 966.325 42.0273 966.728 42.0273C967.13 42.0273 967.399 42.2959 967.399 42.6987V46.4584C967.265 46.727 966.996 46.9955 966.728 46.9955Z" fill="#B6B1D9"/>
<path d="M1355.29 46.9955C1354.89 46.9955 1354.62 46.727 1354.62 46.3242V42.6987C1354.62 42.2959 1354.89 42.0273 1355.29 42.0273C1355.7 42.0273 1355.96 42.2959 1355.96 42.6987V46.4584C1355.83 46.727 1355.56 46.9955 1355.29 46.9955Z" fill="#B6B1D9"/>
<path d="M150.658 46.9964C150.255 46.9964 149.987 46.7278 149.987 46.325V42.6996C149.987 42.2967 150.255 42.0282 150.658 42.0282C151.061 42.0282 151.329 42.2967 151.329 42.6996V46.4593C151.329 46.7278 151.061 46.9964 150.658 46.9964Z" fill="#B6B1D9"/>
<path d="M539.223 46.9955C538.82 46.9955 538.551 46.727 538.551 46.3242V42.6987C538.551 42.2959 538.82 42.0273 539.223 42.0273C539.626 42.0273 539.894 42.2959 539.894 42.6987V46.4584C539.894 46.727 539.626 46.9955 539.223 46.9955Z" fill="#B6B1D9"/>
<path d="M927.788 46.9955C927.385 46.9955 927.116 46.727 927.116 46.3242V42.6987C927.116 42.2959 927.385 42.0273 927.788 42.0273C928.19 42.0273 928.459 42.2959 928.459 42.6987V46.4584C928.459 46.727 928.19 46.9955 927.788 46.9955Z" fill="#B6B1D9"/>
<path d="M1316.35 46.9955C1315.95 46.9955 1315.68 46.727 1315.68 46.3242V42.6987C1315.68 42.2959 1315.95 42.0273 1316.35 42.0273C1316.76 42.0273 1317.02 42.2959 1317.02 42.6987V46.4584C1317.02 46.727 1316.76 46.9955 1316.35 46.9955Z" fill="#B6B1D9"/>
<path d="M111.852 46.9964C111.449 46.9964 111.18 46.7278 111.18 46.325V42.6996C111.18 42.2967 111.449 42.0282 111.852 42.0282C112.255 42.0282 112.523 42.2967 112.523 42.6996V46.4593C112.523 46.7278 112.12 46.9964 111.852 46.9964Z" fill="#B6B1D9"/>
<path d="M500.417 46.9955C500.014 46.9955 499.745 46.727 499.745 46.3242V42.6987C499.745 42.2959 500.014 42.0273 500.417 42.0273C500.819 42.0273 501.088 42.2959 501.088 42.6987V46.4584C501.088 46.727 500.685 46.9955 500.417 46.9955Z" fill="#B6B1D9"/>
<path d="M888.981 46.9955C888.579 46.9955 888.31 46.727 888.31 46.3242V42.6987C888.31 42.2959 888.579 42.0273 888.981 42.0273C889.384 42.0273 889.653 42.2959 889.653 42.6987V46.4584C889.653 46.727 889.25 46.9955 888.981 46.9955Z" fill="#B6B1D9"/>
<path d="M1277.55 46.9955C1277.14 46.9955 1276.87 46.727 1276.87 46.3242V42.6987C1276.87 42.2959 1277.14 42.0273 1277.55 42.0273C1277.95 42.0273 1278.22 42.2959 1278.22 42.6987V46.4584C1278.22 46.727 1277.81 46.9955 1277.55 46.9955Z" fill="#B6B1D9"/>
<path d="M72.9118 46.9964C72.509 46.9964 72.2404 46.7278 72.2404 46.325V42.6996C72.2404 42.2967 72.509 42.0282 72.9118 42.0282C73.3146 42.0282 73.5832 42.2967 73.5832 42.6996V46.4593C73.5832 46.7278 73.3146 46.9964 72.9118 46.9964Z" fill="#B6B1D9"/>
<path d="M461.477 46.9955C461.074 46.9955 460.805 46.727 460.805 46.3242V42.6987C460.805 42.2959 461.074 42.0273 461.477 42.0273C461.879 42.0273 462.148 42.2959 462.148 42.6987V46.4584C462.148 46.727 461.879 46.9955 461.477 46.9955Z" fill="#B6B1D9"/>
<path d="M850.042 46.9955C849.639 46.9955 849.37 46.727 849.37 46.3242V42.6987C849.37 42.2959 849.639 42.0273 850.042 42.0273C850.444 42.0273 850.713 42.2959 850.713 42.6987V46.4584C850.713 46.727 850.444 46.9955 850.042 46.9955Z" fill="#B6B1D9"/>
<path d="M1238.61 46.9955C1238.2 46.9955 1237.93 46.727 1237.93 46.3242V42.6987C1237.93 42.2959 1238.2 42.0273 1238.61 42.0273C1239.01 42.0273 1239.28 42.2959 1239.28 42.6987V46.4584C1239.28 46.727 1239.01 46.9955 1238.61 46.9955Z" fill="#B6B1D9"/>
<path d="M34.1069 46.9964C33.7041 46.9964 33.4355 46.7278 33.4355 46.325V42.6996C33.4355 42.2967 33.7041 42.0282 34.1069 42.0282C34.5098 42.0282 34.7783 42.2967 34.7783 42.6996V46.4593C34.7783 46.7278 34.5098 46.9964 34.1069 46.9964Z" fill="#B6B1D9"/>
<path d="M422.672 46.9955C422.269 46.9955 422 46.727 422 46.3242V42.6987C422 42.2959 422.269 42.0273 422.672 42.0273C423.075 42.0273 423.343 42.2959 423.343 42.6987V46.4584C423.343 46.727 423.075 46.9955 422.672 46.9955Z" fill="#B6B1D9"/>
<path d="M811.237 46.9955C810.834 46.9955 810.565 46.727 810.565 46.3242V42.6987C810.565 42.2959 810.834 42.0273 811.237 42.0273C811.639 42.0273 811.908 42.2959 811.908 42.6987V46.4584C811.908 46.727 811.639 46.9955 811.237 46.9955Z" fill="#B6B1D9"/>
<path d="M1199.8 46.9955C1199.4 46.9955 1199.13 46.727 1199.13 46.3242V42.6987C1199.13 42.2959 1199.4 42.0273 1199.8 42.0273C1200.2 42.0273 1200.47 42.2959 1200.47 42.6987V46.4584C1200.47 46.727 1200.2 46.9955 1199.8 46.9955Z" fill="#B6B1D9"/>
<path d="M1506.01 0.994141L0.0087902 0.994213L0.00878906 26.9942L1506.01 26.9941V0.994141ZM2.01672 24.9629L2.01672 3.02546L1504 3.02539V24.9629L2.01672 24.9629Z" fill="#B6B1D9"/>
<path d="M3.82385 22.9316H23.3009L5.63098 5.05669H3.82385L3.82385 22.9316Z" fill="#B6B1D9"/>
<path d="M26.3129 22.9316H33.3407L15.6708 5.05669H8.64295C14.4661 11.1504 20.2891 17.041 26.3129 22.9316Z" fill="#B6B1D9"/>
<path d="M36.3527 22.9316H43.3805L25.7105 5.05669H18.6826C24.5057 11.1504 30.3289 17.041 36.3527 22.9316Z" fill="#B6B1D9"/>
<path d="M46.3925 22.9316H53.4203L35.7502 5.05669H28.7224C34.5455 11.1504 40.5693 17.041 46.3925 22.9316Z" fill="#B6B1D9"/>
<path d="M56.4323 22.9316H63.46L45.79 5.05669L38.7622 5.05669C44.786 11.1504 50.6091 17.041 56.4323 22.9316Z" fill="#B6B1D9"/>
<path d="M66.673 22.9316H73.7008L56.0308 5.05669L49.0029 5.05669C54.826 11.1504 60.6492 17.041 66.673 22.9316Z" fill="#B6B1D9"/>
<path d="M76.7126 22.9316H83.7405L66.0706 5.05669L59.0427 5.05669C64.8658 11.1504 70.8895 17.041 76.7126 22.9316Z" fill="#B6B1D9"/>
<path d="M86.7524 22.9316L93.7803 22.9316L76.1102 5.05669L69.0825 5.05669C75.1063 11.1504 80.9293 17.041 86.7524 22.9316Z" fill="#B6B1D9"/>
<path d="M96.7922 22.9316H103.82L86.15 5.05669L79.1222 5.05669C85.146 11.1504 90.9691 17.041 96.7922 22.9316Z" fill="#B6B1D9"/>
<path d="M107.032 22.9316H114.06L96.3903 5.05669L89.3625 5.05669C95.1857 11.1504 101.009 17.041 107.032 22.9316Z" fill="#B6B1D9"/>
<path d="M117.072 22.9316H124.1L106.43 5.05669L99.4022 5.05669C105.225 11.1504 111.249 17.041 117.072 22.9316Z" fill="#B6B1D9"/>
<path d="M127.112 22.9316L134.14 22.9316L116.47 5.05669L109.442 5.05669C115.466 11.1504 121.289 17.041 127.112 22.9316Z" fill="#B6B1D9"/>
<path d="M137.152 22.9316H144.18L126.51 5.05669L119.482 5.05669C125.506 11.1504 131.329 17.041 137.152 22.9316Z" fill="#B6B1D9"/>
<path d="M147.392 22.9317H154.42L136.75 5.05671H129.723C135.546 11.1505 141.369 17.041 147.392 22.9317Z" fill="#B6B1D9"/>
<path d="M157.892 22.9375H164.92L147.25 5.06253H140.223C146.046 11.1563 151.869 17.0469 157.892 22.9375Z" fill="#B6B1D9"/>
<path d="M167.932 22.9375H174.96L157.29 5.06253H150.262C156.085 11.1563 161.908 17.0469 167.932 22.9375Z" fill="#B6B1D9"/>
<path d="M177.972 22.9375H185L167.33 5.06253H160.302C166.125 11.1563 172.149 17.0469 177.972 22.9375Z" fill="#B6B1D9"/>
<path d="M188.012 22.9375H195.04L177.37 5.06253H170.342C176.366 11.1563 182.189 17.0469 188.012 22.9375Z" fill="#B6B1D9"/>
<path d="M198.253 22.9375H205.28L187.61 5.06253L180.583 5.06253C186.406 11.1563 192.229 17.0469 198.253 22.9375Z" fill="#B6B1D9"/>
<path d="M208.292 22.9375H215.32L197.65 5.06253L190.622 5.06253C196.445 11.1563 202.469 17.0469 208.292 22.9375Z" fill="#B6B1D9"/>
<path d="M218.332 22.9375L225.36 22.9375L207.69 5.06253L200.662 5.06253C206.686 11.1563 212.509 17.0469 218.332 22.9375Z" fill="#B6B1D9"/>
<path d="M228.372 22.9375H235.4L217.73 5.06253L210.702 5.06253C216.726 11.1563 222.549 17.0469 228.372 22.9375Z" fill="#B6B1D9"/>
<path d="M238.612 22.9375H245.64L227.97 5.06253L220.942 5.06253C226.765 11.1563 232.588 17.0469 238.612 22.9375Z" fill="#B6B1D9"/>
<path d="M248.652 22.9375H255.68L238.01 5.06253L230.982 5.06253C236.805 11.1563 242.829 17.0469 248.652 22.9375Z" fill="#B6B1D9"/>
<path d="M258.692 22.9375L265.719 22.9375L248.049 5.06253L241.022 5.06253C247.045 11.1563 252.868 17.0469 258.692 22.9375Z" fill="#B6B1D9"/>
<path d="M268.731 22.9375H275.759L258.089 5.06253L251.061 5.06253C257.085 11.1563 262.908 17.0469 268.731 22.9375Z" fill="#B6B1D9"/>
<path d="M278.972 22.9375H286L268.33 5.06255L261.302 5.06255C267.125 11.1563 272.948 17.0469 278.972 22.9375Z" fill="#B6B1D9"/>
<path d="M289.67 22.9375H296.698L279.028 5.06249H272C277.823 11.1562 283.646 17.0468 289.67 22.9375Z" fill="#B6B1D9"/>
<path d="M299.71 22.9375H306.738L289.068 5.06249H282.04C287.863 11.1562 293.686 17.0468 299.71 22.9375Z" fill="#B6B1D9"/>
<path d="M309.75 22.9375H316.777L299.107 5.06249L292.079 5.06249C297.903 11.1562 303.926 17.0468 309.75 22.9375Z" fill="#B6B1D9"/>
<path d="M319.789 22.9375H326.817L309.147 5.0625L302.119 5.06249C308.143 11.1562 313.966 17.0468 319.789 22.9375Z" fill="#B6B1D9"/>
<path d="M330.03 22.9375H337.058L319.388 5.0625L312.36 5.0625C318.183 11.1562 324.006 17.0468 330.03 22.9375Z" fill="#B6B1D9"/>
<path d="M340.07 22.9375H347.098L329.428 5.0625L322.4 5.0625C328.223 11.1562 334.247 17.0468 340.07 22.9375Z" fill="#B6B1D9"/>
<path d="M350.109 22.9375L357.137 22.9375L339.467 5.0625L332.44 5.0625C338.463 11.1562 344.286 17.0468 350.109 22.9375Z" fill="#B6B1D9"/>
<path d="M360.149 22.9375H367.177L349.507 5.0625L342.479 5.0625C348.503 11.1562 354.326 17.0468 360.149 22.9375Z" fill="#B6B1D9"/>
<path d="M370.39 22.9375H377.417L359.747 5.0625L352.72 5.0625C358.543 11.1562 364.366 17.0468 370.39 22.9375Z" fill="#B6B1D9"/>
<path d="M380.429 22.9375H387.457L369.787 5.0625L362.759 5.0625C368.582 11.1562 374.606 17.0468 380.429 22.9375Z" fill="#B6B1D9"/>
<path d="M390.469 22.9375L397.497 22.9375L379.827 5.0625L372.799 5.0625C378.823 11.1562 384.646 17.0468 390.469 22.9375Z" fill="#B6B1D9"/>
<path d="M400.509 22.9375H407.537L389.867 5.0625H382.839C388.863 11.1562 394.686 17.0468 400.509 22.9375Z" fill="#B6B1D9"/>
<path d="M410.75 22.9375H417.777L400.107 5.06252H393.08C398.903 11.1563 404.726 17.0468 410.75 22.9375Z" fill="#B6B1D9"/>
<path d="M420.67 22.9375H427.698L410.028 5.06249H403C408.823 11.1562 414.646 17.0468 420.67 22.9375Z" fill="#B6B1D9"/>
<path d="M430.71 22.9375H437.738L420.068 5.06249H413.04C418.863 11.1562 424.686 17.0468 430.71 22.9375Z" fill="#B6B1D9"/>
<path d="M440.75 22.9375H447.777L430.107 5.06249L423.079 5.06249C428.903 11.1562 434.926 17.0468 440.75 22.9375Z" fill="#B6B1D9"/>
<path d="M450.789 22.9375H457.817L440.147 5.0625L433.119 5.06249C439.143 11.1562 444.966 17.0468 450.789 22.9375Z" fill="#B6B1D9"/>
<path d="M461.03 22.9375H468.058L450.388 5.0625L443.36 5.0625C449.183 11.1562 455.006 17.0468 461.03 22.9375Z" fill="#B6B1D9"/>
<path d="M471.07 22.9375H478.098L460.428 5.0625L453.4 5.0625C459.223 11.1562 465.247 17.0468 471.07 22.9375Z" fill="#B6B1D9"/>
<path d="M481.109 22.9375L488.137 22.9375L470.467 5.0625L463.44 5.0625C469.463 11.1562 475.286 17.0468 481.109 22.9375Z" fill="#B6B1D9"/>
<path d="M491.149 22.9375H498.177L480.507 5.0625L473.479 5.0625C479.503 11.1562 485.326 17.0468 491.149 22.9375Z" fill="#B6B1D9"/>
<path d="M501.39 22.9375H508.417L490.747 5.0625L483.72 5.0625C489.543 11.1562 495.366 17.0468 501.39 22.9375Z" fill="#B6B1D9"/>
<path d="M511.429 22.9375H518.457L500.787 5.0625L493.759 5.0625C499.582 11.1562 505.606 17.0468 511.429 22.9375Z" fill="#B6B1D9"/>
<path d="M521.469 22.9375L528.497 22.9375L510.827 5.0625L503.799 5.0625C509.823 11.1562 515.646 17.0468 521.469 22.9375Z" fill="#B6B1D9"/>
<path d="M531.509 22.9375H538.537L520.867 5.0625H513.839C519.863 11.1562 525.686 17.0468 531.509 22.9375Z" fill="#B6B1D9"/>
<path d="M541.75 22.9375H548.777L531.107 5.06252H524.08C529.903 11.1563 535.726 17.0468 541.75 22.9375Z" fill="#B6B1D9"/>
<path d="M173 31H0V34H173V31Z" fill="#7857FF"/>
<path d="M1506 31H1066V34H1506V31Z" fill="#7857FF"/>
<path d="M416 31H382V34H416V31Z" fill="#7857FF"/>
<path d="M374 31H340V34H374V31Z" fill="#7857FF"/>
</svg>
