<svg width="220" height="98" viewBox="0 0 220 98" fill="none" xmlns="http://www.w3.org/2000/svg">
<g filter="url(#filter0_d)">
<path d="M4 75C4 33.5786 37.5786 0 79 0H201C209.284 0 216 6.71573 216 15C216 56.4214 182.421 90 141 90H19C10.7157 90 4 83.2843 4 75Z" fill="white"/>
<path d="M79.249 36.0127H71.1406V58H64.6279V36.0127H56.668V30.9844H79.249V36.0127ZM95.6514 50.8193C95.6514 49.8669 95.3112 49.1247 94.6309 48.5928C93.9629 48.0609 92.7816 47.5104 91.0869 46.9414C89.3923 46.3724 88.0068 45.8219 86.9307 45.29C83.43 43.5706 81.6797 41.208 81.6797 38.2021C81.6797 36.7054 82.1126 35.388 82.9785 34.25C83.8568 33.0996 85.0938 32.209 86.6895 31.5781C88.2852 30.9349 90.0788 30.6133 92.0703 30.6133C94.0124 30.6133 95.7503 30.9596 97.2842 31.6523C98.8304 32.3451 100.03 33.3346 100.884 34.6211C101.737 35.8952 102.164 37.3548 102.164 39H95.6699C95.6699 37.8991 95.3298 37.0456 94.6494 36.4395C93.9814 35.8333 93.0723 35.5303 91.9219 35.5303C90.7591 35.5303 89.8376 35.79 89.1572 36.3096C88.4893 36.8167 88.1553 37.4661 88.1553 38.2578C88.1553 38.9505 88.5264 39.5814 89.2686 40.1504C90.0107 40.707 91.3158 41.2884 93.1836 41.8945C95.0514 42.4883 96.5853 43.1315 97.7852 43.8242C100.704 45.5065 102.164 47.8258 102.164 50.7822C102.164 53.1449 101.273 55.0003 99.4922 56.3486C97.7109 57.6969 95.2679 58.3711 92.1631 58.3711C89.9736 58.3711 87.9883 57.9814 86.207 57.2021C84.4382 56.4105 83.1022 55.3343 82.1992 53.9736C81.3086 52.6006 80.8633 51.0234 80.8633 49.2422H87.3945C87.3945 50.6895 87.7656 51.7594 88.5078 52.4521C89.2624 53.1325 90.4808 53.4727 92.1631 53.4727C93.2393 53.4727 94.0866 53.2438 94.7051 52.7861C95.3359 52.3161 95.6514 51.6605 95.6514 50.8193ZM112.443 58H105.949V30.9844H112.443V58ZM126.155 47.9434L123.483 50.875V58H116.971V30.9844H123.483V42.8965L125.747 39.4639L131.573 30.9844H139.626L130.497 42.9336L139.626 58H131.907L126.155 47.9434ZM163.562 45.0488C163.562 47.6836 163.073 50.0153 162.096 52.0439C161.118 54.0726 159.727 55.6374 157.921 56.7383C156.127 57.8268 154.08 58.3711 151.779 58.3711C149.479 58.3711 147.438 57.8454 145.656 56.7939C143.875 55.7301 142.483 54.2148 141.481 52.248C140.492 50.2812 139.972 48.0238 139.923 45.4756V43.9541C139.923 41.307 140.405 38.9753 141.37 36.959C142.347 34.9303 143.739 33.3656 145.545 32.2646C147.363 31.1637 149.429 30.6133 151.742 30.6133C154.031 30.6133 156.072 31.1576 157.865 32.2461C159.659 33.3346 161.05 34.887 162.04 36.9033C163.042 38.9072 163.549 41.208 163.562 43.8057V45.0488ZM156.938 43.917C156.938 41.2327 156.486 39.1979 155.583 37.8125C154.692 36.4147 153.412 35.7158 151.742 35.7158C148.477 35.7158 146.751 38.165 146.565 43.0635L146.547 45.0488C146.547 47.696 146.986 49.7308 147.864 51.1533C148.743 52.5758 150.048 53.2871 151.779 53.2871C153.424 53.2871 154.692 52.5882 155.583 51.1904C156.474 49.7926 156.925 47.7826 156.938 45.1602V43.917Z" fill="black"/>
</g>
<defs>
<filter id="filter0_d" x="0" y="0" width="220" height="98" filterUnits="userSpaceOnUse" color-interpolation-filters="sRGB">
<feFlood flood-opacity="0" result="BackgroundImageFix"/>
<feColorMatrix in="SourceAlpha" type="matrix" values="0 0 0 0 0 0 0 0 0 0 0 0 0 0 0 0 0 0 127 0"/>
<feOffset dy="4"/>
<feGaussianBlur stdDeviation="2"/>
<feColorMatrix type="matrix" values="0 0 0 0 0 0 0 0 0 0 0 0 0 0 0 0 0 0 0.25 0"/>
<feBlend mode="normal" in2="BackgroundImageFix" result="effect1_dropShadow"/>
<feBlend mode="normal" in="SourceGraphic" in2="effect1_dropShadow" result="shape"/>
</filter>
</defs>
</svg>
