<svg width="486" height="697" viewBox="0 0 486 697" fill="none" xmlns="http://www.w3.org/2000/svg">
<path d="M482.573 618.521V5.85254V4.85254H481.573H3.30078H2.30078V5.85254V694.658V695.658H3.30078H481.136H482.136V694.658V653.595V651.182L480.429 652.887L473.29 660.021H452.949L482.28 630.712L482.573 630.419V630.005V618.625L482.677 618.521H482.573ZM243.104 660.021L282.634 620.521H302.975L263.444 660.021H243.104ZM278.078 660.021L317.608 620.521H337.949L298.419 660.021H278.078ZM313.052 660.021L352.582 620.521H372.923L333.393 660.021H313.052ZM348.026 660.021L387.556 620.521H407.897L368.367 660.021H348.026ZM383 660.021L422.531 620.521H442.871L403.341 660.021H383ZM457.505 620.521H477.846L438.315 660.021H417.975L457.505 620.521Z" fill="#FFFFFF" stroke="#B6B1D9" stroke-width="2"/>
<path d="M24.2862 59.584H20.3516L60.5719 19.3945H71.9385L54.0142 37.3051H46.145L24.2862 59.584ZM63.6321 37.3051H71.5013L89.4256 19.3945H78.059L37.8387 59.584H41.3361L63.6321 37.3051ZM81.1192 37.3051H88.5512L106.475 19.3945H95.1089L54.8886 59.584H58.386L81.1192 37.3051ZM98.1691 37.3051H106.038L123.963 19.3945H112.596L72.3757 59.584H75.8731L98.1691 37.3051ZM115.656 37.3051H123.525L141.012 19.3945H129.646L89.4256 59.584H92.923L115.656 37.3051ZM133.143 37.3051H141.012L158.5 19.3945H147.133L106.913 59.584H110.41L133.143 37.3051ZM150.193 37.3051H158.062L175.987 19.3945H164.62L124.4 59.584H127.897L150.193 37.3051ZM167.68 37.3051H175.549L193.474 19.3945H182.107L141.887 59.584H145.384L167.68 37.3051Z" fill="#7857FF"/>
<path d="M331.184 58.7109C331.184 60.8951 329.435 62.6425 327.249 62.6425C325.5 62.6425 323.752 61.3319 323.314 59.5846H248.994L217.08 91.474H106.912L33.9031 164.863V454.827H21.6622C21.225 456.574 19.4763 457.885 17.7276 457.885C15.5417 457.885 13.793 456.137 13.793 453.953C13.793 451.769 15.5417 450.022 17.7276 450.022C19.4763 450.022 21.225 451.332 21.6622 453.08H31.7172V163.99L106.037 89.7267H215.769L247.683 57.8372H322.877C323.314 56.0898 325.063 54.7793 326.812 54.7793C328.998 54.7793 331.184 56.5267 331.184 58.7109Z" fill="#B6B1D9"/>
<path d="M104.726 0.610352H26.4717V10.6577H104.726V0.610352Z" fill="#9B96CA"/>
<path d="M486 458H478V578H486V458Z" fill="#9B96CA"/>
<path d="M374.028 474.584H363.973V496.426H374.028V474.584Z" fill="#9B96CA"/>
<path d="M5 492H0V615H5V492Z" fill="#7857FF"/>
<path d="M4 261H1V290H4V261Z" fill="#7857FF"/>
<path d="M4.49742 182.974H1V233.211H4.49742V182.974Z" fill="#7857FF"/>
<path d="M5.6833 124H0V158.074H5.6833V124Z" fill="#7857FF"/>
<path d="M448.741 171.79H439.735C439.319 171.79 439.042 171.513 439.042 171.097C439.042 170.681 439.319 170.403 439.735 170.403H448.741C449.156 170.403 449.434 170.681 449.434 171.097C449.434 171.513 449.156 171.79 448.741 171.79Z" fill="#9B96CA"/>
<path d="M434.054 171.234H415.211C415.072 171.234 415.072 171.096 415.072 171.096L415.211 170.958H433.916C434.054 170.958 434.054 171.096 434.054 171.096V171.234Z" fill="#9B96CA"/>
<path d="M411.054 170.542H409.945V171.651H411.054V170.542Z" fill="#9B96CA"/>
<path d="M408.422 170.542H407.313V171.651H408.422V170.542Z" fill="#9B96CA"/>
<path d="M399.415 170.819H399V171.234H399.415V170.819Z" fill="#9B96CA"/>
<path d="M121.741 79.4666H112.735C112.319 79.4666 112.042 79.1893 112.042 78.7733C112.042 78.3574 112.319 78.0801 112.735 78.0801H121.741C122.156 78.0801 122.434 78.3574 122.434 78.7733C122.434 79.1893 122.156 79.4666 121.741 79.4666Z" fill="#9B96CA"/>
<path d="M107.054 78.9112H88.2108C88.0723 78.9112 88.0723 78.773 88.0723 78.773C88.0723 78.6348 88.2108 78.6348 88.2108 78.6348H106.916C107.054 78.6348 107.054 78.773 107.054 78.773C107.193 78.773 107.054 78.9112 107.054 78.9112Z" fill="#9B96CA"/>
<path d="M84.0537 78.2188H82.9453V79.3279H84.0537V78.2188Z" fill="#9B96CA"/>
<path d="M81.4219 78.2188H80.3135V79.3279H81.4219V78.2188Z" fill="#9B96CA"/>
<path d="M72.4148 78.4961H72V78.9108H72.4148V78.4961Z" fill="#9B96CA"/>
<path d="M43.4376 512H41.2207V514.218H43.4376V512Z" fill="#B6B1D9"/>
<path d="M43.4376 552.486H41.2207V554.704H43.4376V552.486Z" fill="#B6B1D9"/>
<path d="M43.4376 592.971H41.2207V595.19H43.4376V592.971Z" fill="#B6B1D9"/>
<path d="M11.4123 9.97461H10.4424V15.7979H11.4123V9.97461Z" fill="#9B96CA"/>
<path d="M13.8193 13.4403V12.4697L8.00006 12.4697V13.4403L13.8193 13.4403Z" fill="#9B96CA"/>
<path d="M14.3752 199.06H13.4053V204.883H14.3752V199.06Z" fill="#9B96CA"/>
<path d="M16.7783 202.521V201.551H10.959V202.521H16.7783Z" fill="#9B96CA"/>
<path d="M11.4367 684.117H10.4668V689.94H11.4367V684.117Z" fill="#9B96CA"/>
<path d="M13.8193 687.559V686.589H8.00004V687.559H13.8193Z" fill="#9B96CA"/>
<path d="M341.693 44.3865H350.699C351.114 44.3865 351.392 44.1092 351.392 43.6932C351.392 43.2773 351.114 43 350.699 43H341.693C341.277 43 341 43.2773 341 43.6932C341 43.9705 341.277 44.3865 341.693 44.3865Z" fill="#9B96CA"/>
<path d="M356.38 43.8312H375.085C375.223 43.8312 375.223 43.6929 375.223 43.6929C375.223 43.5547 375.085 43.5547 375.085 43.5547H356.38C356.241 43.5547 356.241 43.6929 356.241 43.6929L356.38 43.8312Z" fill="#9B96CA"/>
<path d="M379.324 44.2334H380.433V43.1242H379.324V44.2334Z" fill="#9B96CA"/>
<path d="M382.115 44.2334H383.224V43.1242H382.115V44.2334Z" fill="#9B96CA"/>
<path d="M390.992 43.8174H391.407V43.4027H390.992V43.8174Z" fill="#9B96CA"/>
<path d="M341.693 79.4617H350.699C351.114 79.4617 351.392 79.1844 351.392 78.7684C351.392 78.3525 351.114 78.0752 350.699 78.0752H341.693C341.277 78.0752 341 78.3525 341 78.7684C341 79.1844 341.277 79.4617 341.693 79.4617Z" fill="#9B96CA"/>
<path d="M356.38 78.9063H375.085C375.223 78.9063 375.223 78.7681 375.223 78.7681L375.085 78.6299H356.38C356.241 78.6299 356.241 78.7681 356.241 78.7681L356.38 78.9063Z" fill="#9B96CA"/>
<path d="M379.324 79.3115H380.433V78.2023H379.324V79.3115Z" fill="#9B96CA"/>
<path d="M382.115 79.3115H383.224V78.2023H382.115V79.3115Z" fill="#9B96CA"/>
<path d="M390.992 79.0352H391.407V78.6205H390.992V79.0352Z" fill="#9B96CA"/>
<path d="M128.693 652.386H137.699C138.114 652.386 138.392 652.109 138.392 651.693C138.392 651.277 138.114 651 137.699 651H128.693C128.277 651 128 651.277 128 651.693C128 652.109 128.277 652.386 128.693 652.386Z" fill="#7857FF"/>
<path d="M143.38 651.831H162.085C162.223 651.831 162.223 651.693 162.223 651.693C162.223 651.555 162.085 651.555 162.085 651.555H143.38C143.241 651.555 143.241 651.693 143.241 651.693L143.38 651.831Z" fill="#7857FF"/>
<path d="M166.324 652.161H167.433V651.052H166.324V652.161Z" fill="#7857FF"/>
<path d="M169.115 652.161H170.224V651.052H169.115V652.161Z" fill="#7857FF"/>
<path d="M177.992 651.884H178.407V651.469H177.992V651.884Z" fill="#7857FF"/>
<path d="M442.729 472.218H444.945V470H442.729V472.218Z" fill="#B6B1D9"/>
<path d="M442.729 512.769H444.945V510.551H442.729V512.769Z" fill="#B6B1D9"/>
<path d="M442.729 553.319H444.945V551.101H442.729V553.319Z" fill="#B6B1D9"/>
<path d="M474.58 15.7969H475.55V9.9736H474.58V15.7969Z" fill="#9B96CA"/>
<path d="M477.953 13.2977V12.3271L472.134 12.3271V13.2977L477.953 13.2977Z" fill="#9B96CA"/>
<path d="M471.6 203.887H472.57V198.063H471.6V203.887Z" fill="#9B96CA"/>
<path d="M474.97 201.391V200.421H469.15V201.391H474.97Z" fill="#9B96CA"/>
<path d="M474.579 690.878H475.549V685.055H474.579V690.878Z" fill="#9B96CA"/>
<path d="M477.929 688.403V687.433H472.109V688.403H477.929Z" fill="#9B96CA"/>
<path d="M468.215 247.733H475.004V240.94H468.215V247.733Z" fill="#7857FF"/>
<path d="M468.215 406.196H475.004V399.402H468.215V406.196Z" fill="#9B96CA"/>
<path d="M469.323 425.993H473.896V421.418H469.323V425.993Z" fill="#9B96CA"/>
<path d="M469.323 514.357H473.896V509.782H469.323V514.357Z" fill="#7857FF"/>
<path d="M470.016 287.909H473.203V284.72H470.016V287.909Z" fill="#9B96CA"/>
<path d="M468.164 289.507V282.99C468.164 282.852 468.303 282.713 468.441 282.713H474.953C475.092 282.713 475.23 282.852 475.23 282.99V289.507C475.23 289.645 475.092 289.784 474.953 289.784H468.441C468.164 289.784 468.164 289.645 468.164 289.507ZM474.676 283.267H468.58V289.368H474.676V283.267Z" fill="#9B96CA"/>
<path d="M471.628 283.267C471.766 283.267 471.905 283.128 471.905 282.99V262.192C471.905 262.054 471.766 261.915 471.628 261.915C471.489 261.915 471.351 262.054 471.351 262.192V282.99C471.351 283.128 471.489 283.267 471.628 283.267Z" fill="#9B96CA"/>
<path d="M470.016 385.326H473.203V382.137H470.016V385.326Z" fill="#9B96CA"/>
<path d="M468.164 386.976V380.46C468.164 380.321 468.303 380.183 468.441 380.183H474.953C475.092 380.183 475.23 380.321 475.23 380.46V386.976C475.23 387.115 475.092 387.254 474.953 387.254H468.441C468.164 387.254 468.164 387.115 468.164 386.976ZM474.676 380.737H468.58V386.838H474.676V380.737Z" fill="#7857FF"/>
<path d="M471.628 380.737C471.766 380.737 471.905 380.598 471.905 380.459V359.662C471.905 359.523 471.766 359.385 471.628 359.385C471.489 359.385 471.351 359.523 471.351 359.662V380.459C471.351 380.737 471.489 380.737 471.628 380.737Z" fill="#7857FF"/>
<path d="M229 677H69V679H229V677Z" fill="#7857FF"/>
</svg>
