<svg width="321" height="31" viewBox="0 0 321 31" fill="none" xmlns="http://www.w3.org/2000/svg">
<path d="M0.294737 3H27.6561H28V3.29526V30.7047V31H27.7053H0.294737H0V30.7047V3.29526V3H0.294737ZM27.4105 3.63972H0.589474V30.4587H27.3614V3.63972H27.4105Z" fill="#7857FF"/>
<path d="M271.951 21.918L272 25.9016V26V26.1475L271.902 26.2459L271.805 26.3443L269.071 28.8525L268.973 28.9016L268.875 29H268.729H268.631H264.872H264.53V28.7049V28.1639V27.8197H264.872H268.387L270.731 25.6557L270.682 21.9672V21.6229H271.024H271.561H271.902L271.951 21.918ZM245.049 9.08197L245 5.09836V5V4.85246L245.098 4.7541L245.195 4.65574L247.929 2.14754L248.027 2.09836L248.125 2H248.271H248.369H252.128H252.47V2.34426V2.88525V3.22951H252.128H248.613L246.269 5.39344L246.318 9.08197V9.42623H245.976H245.439H245.098L245.049 9.08197Z" fill="#7857FF"/>
<path fill-rule="evenodd" clip-rule="evenodd" d="M194.344 25.9106H195.082H195.426V26.2555V28.5219H197.738H198.082V28.8668V29.6551V30H197.738H194.344H194V29.6551V26.2555V25.9106H194.344ZM194.344 3H197.738H198.082V3.34489V4.08394V4.42883H197.738H195.426V6.74453V7.08942H195.082H194.344H194V6.74453V3.34489V3H194.344ZM217.262 3H220.656H221V3.34489V6.74453V7.08942H220.656H219.869H219.525V6.74453V4.42883H217.262H216.918V4.08394V3.34489V3H217.262ZM219.869 25.9106H220.607H220.951V26.2555V29.6551V30H220.607H217.213H216.869V29.6551V28.9161V28.5712H217.213H219.525V26.2555V25.9106H219.869Z" fill="#7857FF"/>
<path d="M46.2953 3H73.7047H74V3.29525V30.7047V31H73.7047H46.2953H46V30.7047V3.29525V3H46.2953ZM71.0967 5.7065L60.0246 16.7294L71.2935 27.949L70.8998 28.3427L59.6309 17.123L48.6081 28.0967L48.2144 27.703L59.2373 16.7294L48.4112 5.90334L48.8049 5.50967L59.6309 16.2865L70.703 5.26362L71.0967 5.7065ZM73.4587 3.63972H46.6397V30.4587H73.4587V3.63972Z" fill="#7857FF"/>
<path d="M93.2947 3H120.705H121V3.29474V30.7053V31H120.705H93.2947H93V30.7053V3.29474V3H93.2947ZM120.361 3.58947H93.5895V30.3614H120.361V3.58947Z" fill="#7857FF"/>
<path d="M118.804 5.39232L107.794 16.3774L119 27.5586L118.609 28L107.402 16.7697L96.3915 27.7548L96 27.3625L106.962 16.3774L96.1957 5.63753L96.6362 5.2452L107.402 15.9851L118.413 5L118.804 5.39232Z" fill="#7857FF"/>
<path d="M107 8C109.473 8 111.747 8.98901 113.379 10.6209C115.011 12.2527 116 14.478 116 17C116 19.4725 115.011 21.7473 113.379 23.3791C111.747 25.011 109.522 26 107 26C104.527 26 102.253 25.011 100.621 23.3791C98.989 21.7473 98 19.522 98 17C98 14.5275 98.989 12.2527 100.621 10.6209C102.253 8.98901 104.527 8 107 8ZM112.835 11.1648C111.352 9.68132 109.275 8.74176 107 8.74176C104.725 8.74176 102.648 9.68132 101.165 11.1648C99.6813 12.6484 98.7418 14.7253 98.7418 17C98.7418 19.2747 99.6813 21.3516 101.165 22.8352C102.648 24.3187 104.725 25.2582 107 25.2582C109.275 25.2582 111.352 24.3187 112.835 22.8352C114.319 21.3516 115.258 19.2747 115.258 17C115.209 14.7253 114.319 12.6978 112.835 11.1648Z" fill="#7857FF"/>
<path d="M147.584 1H148.97H149.317V1.34653V1.94059V2.28713H148.97H147.584C146.891 2.28713 146.198 2.43564 145.554 2.68317C144.911 2.93069 144.317 3.32673 143.822 3.82178C143.327 4.31683 142.931 4.91089 142.683 5.55446C142.436 6.19802 142.287 6.84158 142.287 7.58416V9.0198V9.36634H141.941H141.347H141V9.0198V7.58416C141 6.69307 141.198 5.85149 141.495 5.05941C141.842 4.26733 142.337 3.52475 142.931 2.93069C143.525 2.33663 144.267 1.84158 145.059 1.49505C145.851 1.19802 146.693 1 147.584 1ZM163.03 1H164.416C165.307 1 166.149 1.19802 166.941 1.49505C167.733 1.84158 168.475 2.33663 169.069 2.93069C169.663 3.52475 170.158 4.26733 170.505 5.05941C170.851 5.85149 171 6.69307 171 7.58416V9.0198V9.36634H170.653H170.059H169.713V9.0198V7.58416C169.713 6.89109 169.564 6.19802 169.317 5.55446C169.069 4.91089 168.673 4.31683 168.178 3.82178C167.683 3.32673 167.089 2.93069 166.446 2.68317C165.802 2.43564 165.158 2.28713 164.416 2.28713H163.03H162.634V1.94059V1.34653V1H163.03ZM171 23.0792V24.4158C171 25.3069 170.802 26.1485 170.505 26.9406C170.158 27.7327 169.663 28.4752 169.069 29.0693C168.475 29.6634 167.733 30.1584 166.941 30.5049C166.149 30.8515 165.307 31 164.416 31H163.03H162.634V30.6535V30.0594V29.7129H162.98H164.366C165.059 29.7129 165.752 29.5644 166.396 29.3168C167.04 29.0693 167.634 28.6733 168.129 28.1782C168.624 27.6832 169.02 27.0891 169.267 26.4455C169.515 25.802 169.663 25.1584 169.663 24.4158V23.0792V22.7327H170.01H170.604H170.95V23.0792H171ZM148.97 31H147.584C146.693 31 145.851 30.802 145.059 30.5049C144.267 30.1584 143.525 29.6634 142.931 29.0693C142.337 28.4752 141.842 27.7327 141.495 26.9406C141.149 26.1485 141 25.3069 141 24.4158V23.0792V22.7327H141.347H141.941H142.287V23.0792V24.4158C142.287 25.1089 142.436 25.802 142.683 26.4455C142.931 27.0891 143.327 27.6832 143.822 28.1782C144.317 28.6733 144.911 29.0693 145.554 29.3168C146.198 29.5644 146.842 29.7129 147.584 29.7129H148.97H149.317V30.0594V30.6535V31H148.97Z" fill="#7857FF"/>
<path d="M294.431 0.364881C294.876 0.364881 295.271 0.4636 295.667 0.611679C296.062 0.759758 296.408 1.00656 296.705 1.30271C297.002 1.59887 297.249 1.94439 297.397 2.33926C297.546 2.73414 297.644 3.12902 297.644 3.57325C297.644 4.01749 297.546 4.41237 297.397 4.80724C297.249 5.20212 297.002 5.54764 296.705 5.8438C296.408 6.13995 296.062 6.38675 295.667 6.53483C295.271 6.68291 294.876 6.78163 294.431 6.78163C293.986 6.78163 293.59 6.68291 293.195 6.53483C292.799 6.38675 292.453 6.13995 292.157 5.8438C291.86 5.54764 291.613 5.20212 291.464 4.80724C291.316 4.41237 291.217 4.01749 291.217 3.57325C291.217 3.12902 291.316 2.73414 291.464 2.33926C291.613 1.94439 291.86 1.59887 292.157 1.30271C292.453 1.00656 292.799 0.759758 293.195 0.611679C293.59 0.4636 293.986 0.364881 294.431 0.364881ZM314.454 2.88222C314.504 2.43798 314.652 2.04311 314.85 1.69759C315.048 1.30271 315.344 1.00656 315.69 0.710398C316.037 0.4636 316.432 0.266162 316.828 0.118083C317.223 0.019364 317.668 -0.0299956 318.113 0.019364C318.558 0.0687236 318.954 0.216802 319.3 0.414241C319.695 0.611679 319.992 0.907837 320.288 1.25335C320.536 1.59887 320.733 1.99375 320.882 2.38862C320.981 2.7835 321.03 3.22774 320.981 3.67197C320.931 4.11621 320.783 4.51109 320.585 4.8566C320.387 5.25148 320.091 5.54764 319.745 5.8438C319.398 6.09059 319.003 6.28803 318.607 6.43611C318.212 6.53483 317.767 6.58419 317.322 6.53483C316.877 6.48547 316.481 6.33739 316.135 6.13995C315.74 5.94251 315.443 5.64636 315.147 5.30084C314.899 4.95532 314.702 4.56045 314.553 4.16557C314.405 3.77069 314.356 3.32646 314.454 2.88222ZM316.234 1.45079C315.987 1.64823 315.789 1.84567 315.641 2.14183C315.493 2.38862 315.394 2.68478 315.344 2.98094C315.295 3.2771 315.344 3.57325 315.394 3.86941C315.493 4.16557 315.592 4.41237 315.789 4.65917C315.987 4.90596 316.185 5.1034 316.481 5.25148C316.729 5.39956 317.025 5.49828 317.322 5.54764C317.619 5.597 317.915 5.54764 318.212 5.49828C318.509 5.39956 318.756 5.30084 319.003 5.1034C319.25 4.90596 319.448 4.70852 319.596 4.41237C319.745 4.16557 319.843 3.86941 319.893 3.57325C319.942 3.2771 319.893 2.98094 319.843 2.68478C319.745 2.38862 319.646 2.14183 319.448 1.89503C319.25 1.64823 319.052 1.45079 318.756 1.30271C318.509 1.15463 318.212 1.05592 317.915 1.00656C317.619 0.957196 317.322 1.00656 317.025 1.05592C316.778 1.15463 316.481 1.30271 316.234 1.45079ZM291.019 26.328C291.069 25.8838 291.217 25.4889 291.415 25.1434C291.613 24.7485 291.909 24.4524 292.255 24.1562C292.602 23.9094 292.997 23.712 293.393 23.5639C293.788 23.4652 294.233 23.4158 294.678 23.4652C295.123 23.5145 295.519 23.6626 295.865 23.86C296.26 24.0575 296.557 24.3536 296.853 24.6992C297.101 25.0447 297.298 25.4396 297.447 25.8344C297.546 26.2293 297.595 26.6735 297.546 27.1178C297.496 27.562 297.348 27.9569 297.15 28.3024C296.952 28.6973 296.656 28.9934 296.31 29.2896C295.963 29.5364 295.568 29.7338 295.172 29.8819C294.777 29.9806 294.332 30.03 293.887 29.9806C293.442 29.9313 293.046 29.7832 292.7 29.5858C292.305 29.3883 292.008 29.0922 291.712 28.7466C291.464 28.4011 291.267 28.0063 291.118 27.6114C291.019 27.2165 290.97 26.7723 291.019 26.328ZM292.849 24.8966C292.602 25.094 292.404 25.2915 292.255 25.5876C292.107 25.8344 292.008 26.1306 291.959 26.4267C291.909 26.7229 291.959 27.0191 292.008 27.3152C292.107 27.6114 292.206 27.8582 292.404 28.105C292.602 28.3518 292.799 28.5492 293.096 28.6973C293.343 28.8454 293.64 28.9441 293.936 28.9934C294.233 29.0428 294.53 28.9934 294.826 28.9441C295.123 28.8454 295.37 28.7466 295.617 28.5492C295.865 28.3518 296.062 28.1543 296.211 27.8582C296.359 27.6114 296.458 27.3152 296.507 27.0191C296.557 26.7229 296.507 26.4267 296.458 26.1306C296.359 25.8344 296.26 25.5876 296.062 25.3408C295.865 25.094 295.667 24.8966 295.37 24.7485C295.123 24.6004 294.826 24.5017 294.53 24.4524C294.233 24.403 293.936 24.4524 293.64 24.5017C293.343 24.6004 293.096 24.7485 292.849 24.8966ZM317.717 23.5145C318.162 23.5145 318.558 23.6132 318.954 23.7613C319.349 23.9094 319.695 24.1562 319.992 24.4524C320.288 24.7485 320.536 25.094 320.684 25.4889C320.832 25.8838 320.931 26.2787 320.931 26.7229C320.931 27.1671 320.832 27.562 320.684 27.9569C320.536 28.3518 320.288 28.6973 319.992 28.9934C319.695 29.2896 319.349 29.5364 318.954 29.6845C318.558 29.8326 318.162 29.9313 317.717 29.9313C317.273 29.9313 316.877 29.8326 316.481 29.6845C316.086 29.5364 315.74 29.2896 315.443 28.9934C315.147 28.6973 314.899 28.3518 314.751 27.9569C314.603 27.562 314.504 27.1671 314.504 26.7229C314.504 26.2787 314.603 25.8838 314.751 25.4889C314.899 25.094 315.147 24.7485 315.443 24.4524C315.74 24.1562 316.086 23.9094 316.481 23.7613C316.828 23.5639 317.273 23.5145 317.717 23.5145ZM319.349 25.1434C319.151 24.946 318.904 24.7485 318.607 24.6498C318.36 24.5511 318.064 24.4524 317.717 24.4524C317.421 24.4524 317.124 24.5017 316.828 24.6498C316.531 24.7485 316.284 24.946 316.086 25.1434C315.888 25.3408 315.69 25.5876 315.592 25.8838C315.493 26.1306 315.394 26.4267 315.394 26.7723C315.394 27.0684 315.443 27.3646 315.592 27.6607C315.69 27.9569 315.888 28.2037 316.086 28.4011C316.284 28.5986 316.531 28.796 316.828 28.8947C317.075 28.9934 317.371 29.0922 317.717 29.0922C318.014 29.0922 318.311 29.0428 318.607 28.8947C318.904 28.796 319.151 28.5986 319.349 28.4011C319.547 28.2037 319.745 27.9569 319.843 27.6607C319.942 27.4139 320.041 27.1178 320.041 26.7723C320.041 26.4761 319.992 26.1799 319.843 25.8838C319.695 25.5876 319.547 25.3408 319.349 25.1434ZM296.062 1.99375C295.865 1.79631 295.617 1.59887 295.321 1.50015C295.074 1.40143 294.777 1.30271 294.431 1.30271C294.134 1.30271 293.838 1.35207 293.541 1.50015C293.244 1.59887 292.997 1.79631 292.799 1.99375C292.602 2.19119 292.404 2.43798 292.305 2.73414C292.206 2.98094 292.107 3.2771 292.107 3.62261C292.107 3.96813 292.157 4.21493 292.305 4.51109C292.404 4.80724 292.602 5.05404 292.799 5.25148C292.997 5.44892 293.244 5.64636 293.541 5.74508C293.788 5.8438 294.085 5.94251 294.431 5.94251C294.727 5.94251 295.024 5.89316 295.321 5.74508C295.617 5.64636 295.865 5.44892 296.062 5.25148C296.26 5.05404 296.458 4.80724 296.557 4.51109C296.656 4.26429 296.755 3.96813 296.755 3.62261C296.755 3.2771 296.705 3.0303 296.557 2.73414C296.458 2.48734 296.31 2.19119 296.062 1.99375Z" fill="#7857FF"/>
</svg>
