<svg width="22" height="22" fill="none" xmlns="http://www.w3.org/2000/svg"><path d="M12.961 19.32a.833.833 0 001.159.637l3.506-1.552a.368.368 0 00.2-.454l-1.76-5.241a1.771 1.771 0 00-1.98-1.177l-.55.1a1.756 1.756 0 00-1.43 2.002l.855 5.685zm.863-.035a.094.094 0 01-.087-.004.096.096 0 01-.05-.073l-.858-5.68a1.042 1.042 0 01.012-.368l.62.492c.3.234.523.552.642.913l1.344 4.003-1.623.717zm-.16-6.926l.55-.1a1.036 1.036 0 011.156.686l1.654 4.925-.905.4-1.321-3.937a2.646 2.646 0 00-.884-1.257l-.672-.533c.125-.093.27-.156.422-.184z" fill="#828282"/><path d="M.938 3.443L6.412 5.06a.568.568 0 01.202.109l1.931 1.613.312.26 2.522 13.146a2.22 2.22 0 003.087 1.62l3.518-1.557c.343.407.908.546 1.4.344l1.856-.763c.624-.257.923-.973.668-1.599l-3.38-8.269.251-.29a1.304 1.304 0 00-.131-1.834L14.78 4.482a1.295 1.295 0 00-1.83.133l-.626.725-1.405-1.174h-.002L8.315 2.044a1.288 1.288 0 00-.452-.239L1.933.053a1.297 1.297 0 00-1.61.88l-.263.893a1.303 1.303 0 00.878 1.617zm11.707 2.652l.86-.998a.564.564 0 01.796-.058l3.867 3.357c.235.204.26.56.057.797l-.398.461a.368.368 0 00-.063.38l3.465 8.476a.49.49 0 01-.267.64l-1.856.762a.489.489 0 01-.639-.268.367.367 0 00-.487-.198l-3.81 1.688a1.49 1.49 0 01-1.296-.044 1.497 1.497 0 01-.774-1.044L9.553 6.772a.369.369 0 00-.126-.213l-.115-.096 1.405-1.51 1.416 1.183a.367.367 0 00.512-.042v.001zM.763 2.035l.262-.894a.565.565 0 01.7-.383l5.927 1.75a.562.562 0 01.197.103l2.3 1.874-1.4 1.507-1.666-1.391a1.287 1.287 0 00-.463-.248L1.144 2.736a.565.565 0 01-.38-.702z" fill="#828282"/><path d="M2.567 12.635a2.507 2.507 0 001.832-.736 2.52 2.52 0 00.734-1.837c0-1.171-1.42-3.287-2.012-3.972a.755.755 0 00-1.108 0c-.592.685-2.012 2.8-2.012 3.972A2.52 2.52 0 00.735 11.9a2.507 2.507 0 001.832.736zm0-6.064c.647.747 1.833 2.64 1.833 3.491.017.493-.17.97-.518 1.318a1.77 1.77 0 01-1.315.52 1.77 1.77 0 01-1.315-.52 1.78 1.78 0 01-.518-1.318c0-.85 1.187-2.743 1.833-3.491zm7.943.284a.368.368 0 00-.264.448l.183.72a.367.367 0 10.71-.182l-.182-.72a.368.368 0 00-.446-.266zm.315 2.37l.52 2.206a.367.367 0 10.714-.168l-.52-2.206a.367.367 0 10-.714.17v-.002z" fill="#828282"/></svg>