<svg width="34" height="17" fill="none" xmlns="http://www.w3.org/2000/svg"><path d="M26.633 4.201h-1.496C24.27 3.493 19.997.234 14.733.234S5.202 3.493 4.33 4.201H1.7a1.705 1.705 0 00-1.7 1.7v3.4c0 .111.033.22.096.312l2.267 3.4a.566.566 0 00.47.255h2.318a3.396 3.396 0 006.698 0h10.869a3.396 3.396 0 006.698 0h4.017A.566.566 0 0034 12.7v-1.133A7.374 7.374 0 0026.633 4.2zm-25.5 2.833h1.774l-.38.567H1.133v-.567zM8.5 14.968a2.266 2.266 0 110-4.533 2.266 2.266 0 010 4.533zm5.667-2.834h-2.318a3.396 3.396 0 00-6.698 0H3.139L1.133 9.131v-.397h1.7a.567.567 0 00.47-.255l1.134-1.7a.546.546 0 00.028-.578.558.558 0 00-.498-.3H1.133a.567.567 0 01.567-.567h12.467v6.8zm0-7.933h-7.9a16.416 16.416 0 017.9-2.81V4.2zm17.272 3.4h-2.233l-.38-.567H30.9c.19.18.37.369.539.567zM15.3 1.391c3.349.17 6.273 1.739 7.9 2.81h-7.9v-2.81zm0 5.643h.85a.283.283 0 010 .567h-.85v-.567zm10.767 7.934a2.266 2.266 0 110-4.533 2.266 2.266 0 010 4.533zm6.8-2.834h-3.451a3.396 3.396 0 00-6.698 0H15.3v-3.4h.85a1.416 1.416 0 100-2.833h-.85v-.567h11.333c.89 0 1.77.193 2.579.567h-1.445a.558.558 0 00-.499.3.546.546 0 00.028.578l1.134 1.7a.567.567 0 00.47.255h3.281c.45.877.686 1.848.686 2.834v.566z" fill="#828282"/><path d="M26.067 11a1.7 1.7 0 100 3.4 1.7 1.7 0 000-3.4zm0 2.267a.567.567 0 110-1.134.567.567 0 010 1.134zM8.497 11a1.7 1.7 0 100 3.4 1.7 1.7 0 000-3.4zm0 2.267a.567.567 0 110-1.135.567.567 0 010 1.135z" fill="#828282"/></svg>