<svg width="25" height="25" viewBox="0 0 25 25" fill="none" xmlns="http://www.w3.org/2000/svg">
<rect width="25" height="25" rx="12.5" fill="#2C3641"/>
<g clip-path="url(#clip0)">
<path d="M12.4995 17.2224C12.4984 17.2224 12.4972 17.2224 12.496 17.2224C12.1038 17.2198 8.63596 17.1881 7.65346 16.9224C6.96682 16.7378 6.42479 16.1964 6.23972 15.5097C5.98264 14.5445 5.999 12.6863 6.00079 12.538C5.9991 12.3903 5.98254 10.5167 6.23892 9.54365C6.23922 9.54276 6.23942 9.54177 6.23972 9.54087C6.42271 8.86197 6.97694 8.30377 7.65178 8.1187C7.65346 8.1182 7.65525 8.11781 7.65693 8.11731C8.62832 7.86201 12.103 7.83077 12.496 7.82809H12.5031C12.8963 7.83077 16.3734 7.86241 17.3468 8.12852C18.0317 8.3126 18.5733 8.85334 18.7589 9.53919C19.0256 10.513 19.0009 12.3906 18.9982 12.5491C19.0001 12.7052 19.0157 14.5467 18.7601 15.5167C18.7599 15.5177 18.7596 15.5186 18.7594 15.5195C18.5742 16.2062 18.0323 16.7477 17.3449 16.9324C17.344 16.9327 17.343 16.9329 17.3421 16.9332C16.3708 17.1884 12.896 17.2197 12.5031 17.2224C12.5019 17.2224 12.5007 17.2224 12.4995 17.2224V17.2224ZM7.22063 9.8041C6.99489 10.663 7.01622 12.5127 7.01641 12.5313V12.5447C7.00967 13.0577 7.03337 14.5432 7.22073 15.2468C7.31158 15.5838 7.57888 15.8507 7.91788 15.9418C8.64281 16.1379 11.4672 16.1996 12.4995 16.2068C13.5345 16.1996 16.3631 16.1396 17.0826 15.9513C17.4205 15.8599 17.6869 15.5939 17.7784 15.2566C17.9659 14.5426 17.9894 13.0643 17.9826 12.5546C17.9826 12.5493 17.9826 12.5439 17.9827 12.5386C17.992 12.0194 17.9737 10.5165 17.7793 9.80728C17.7791 9.80658 17.7789 9.80589 17.7788 9.80519C17.6875 9.46678 17.4201 9.19988 17.0811 9.10874C16.3633 8.91245 13.5343 8.85096 12.4995 8.84372C11.4652 8.85096 8.63943 8.91087 7.91768 9.09892C7.58513 9.19116 7.31178 9.46758 7.22063 9.8041V9.8041ZM18.269 15.3874H18.2693H18.269ZM11.2051 14.5818V10.4686L14.7598 12.5253L11.2051 14.5818Z" fill="white"/>
</g>
<defs>
<clipPath id="clip0">
<rect width="13" height="13" fill="white" transform="translate(6 6)"/>
</clipPath>
</defs>
</svg>
