<svg width="60" height="24" viewBox="0 0 60 24" fill="none" xmlns="http://www.w3.org/2000/svg">
<rect width="60" height="24" rx="3" fill="#E5ECF4"/>
<path d="M29.9996 17.9308C31.6905 16.4734 32.7576 14.3575 32.7576 12.0074C32.7576 9.65667 31.6902 7.54191 29.9996 6.06846C28.5221 4.7838 26.5536 4 24.387 4C19.7594 4 16 7.58875 16 12.0071C16 16.4265 19.7594 19.9989 24.387 19.9989C26.5537 19.9992 28.5221 19.216 29.9996 17.9308Z" fill="#009DDD"/>
<path d="M29.9996 17.9307C31.6905 16.4734 32.7576 14.3575 32.7576 12.0074C32.7576 9.65667 31.6902 7.54192 29.9996 6.06848V17.9307Z" fill="#009DDD"/>
<path d="M35.6297 4.00037C33.4627 4.00037 31.493 4.78417 29.9996 6.06883C29.7045 6.33501 29.4258 6.61724 29.1624 6.91561H30.8527C31.0829 7.18116 31.2963 7.47953 31.493 7.76122H28.522C28.342 8.04345 28.1778 8.326 28.0295 8.60745H31.9689C32.1009 8.88913 32.2313 9.17223 32.3298 9.45391H27.6864C27.5875 9.73591 27.5052 10.0187 27.4398 10.3157H32.5764C32.6909 10.8486 32.7575 11.4286 32.7575 12.0077C32.7575 12.8853 32.609 13.7476 32.3299 14.5466H27.6864C27.7841 14.8283 27.8992 15.1108 28.03 15.3928H31.9693C31.8219 15.675 31.6737 15.9726 31.4931 16.239H28.5221C28.72 16.5369 28.9328 16.8188 29.1624 17.0853H30.8527C30.5905 17.3831 30.3111 17.6653 29.9996 17.9315C31.4931 19.2168 33.4627 20 35.6297 20C40.2578 20 44.0001 16.4276 44.0001 12.0081C43.9997 7.5892 40.2578 4.00037 35.6297 4.00037Z" fill="#ED1C2E"/>
<path d="M41.1106 13.7313C41.1106 13.59 41.2426 13.4807 41.3899 13.4807C41.5379 13.4807 41.6524 13.5901 41.6524 13.7313C41.6524 13.8729 41.5378 13.9981 41.3899 13.9981C41.2426 13.9981 41.1106 13.8729 41.1106 13.7313ZM41.3899 13.9353C41.5045 13.9353 41.5867 13.8412 41.5867 13.7313C41.5867 13.6217 41.5044 13.5432 41.3899 13.5432C41.2748 13.5432 41.1772 13.6217 41.1772 13.7313C41.1772 13.8412 41.2748 13.9353 41.3899 13.9353ZM41.357 13.8412H41.2916V13.6216H41.3898C41.4221 13.6216 41.439 13.6216 41.4558 13.6375C41.472 13.653 41.488 13.6683 41.488 13.6844C41.488 13.716 41.4718 13.7474 41.4389 13.7474L41.488 13.8412H41.4221L41.3898 13.7626H41.357V13.8412ZM41.357 13.716H41.3898C41.3898 13.716 41.4061 13.716 41.4221 13.716C41.4221 13.716 41.4221 13.6999 41.4221 13.6844V13.6683C41.4058 13.6683 41.3898 13.6683 41.3736 13.6683H41.3567V13.716H41.357Z" fill="white"/>
<path d="M23.3367 13.9981H22.2868L22.9102 10.8797L21.4827 13.9981H20.5299L20.3662 10.8952L19.7428 13.9981H18.7905L19.5951 9.9397H21.2356L21.3176 12.4464L22.4679 9.9397H24.1566L23.3367 13.9981Z" fill="white"/>
<path d="M34.9894 13.9512C34.6938 14.0289 34.4804 14.0603 34.2339 14.0603C33.7092 14.0603 33.413 13.8097 33.413 13.3401C33.413 13.2457 33.4299 13.1513 33.4458 13.0417L33.5112 12.7126L33.5615 12.4623L34.0371 9.93982H35.0707L34.9237 10.6913H35.4646L35.3173 11.4912H34.7758L34.5133 12.8697C34.4964 12.9324 34.4805 12.9796 34.4805 13.0107C34.4805 13.1833 34.5956 13.261 34.8422 13.261C34.9567 13.261 35.0543 13.2455 35.1209 13.2299L34.9894 13.9512Z" fill="white"/>
<path d="M38.0255 10.7232C37.9432 10.6913 37.9273 10.6913 37.911 10.6913C37.8612 10.6751 37.8287 10.6751 37.8287 10.6602C37.7952 10.6602 37.7627 10.6602 37.7141 10.6602C37.3687 10.6602 37.1229 10.8012 36.8107 11.1924L36.9089 10.6913H35.9566L35.3168 13.9978H36.3673C36.7446 11.9756 36.8926 11.6157 37.401 11.6157C37.4338 11.6157 37.4838 11.6315 37.5324 11.6315L37.6475 11.6626L38.0255 10.7232Z" fill="white"/>
<path d="M30.8529 11.741C30.8529 12.1487 31.0994 12.4462 31.6575 12.6505C32.0845 12.8223 32.1502 12.8698 32.1502 13.0266C32.1502 13.23 31.9528 13.3244 31.5427 13.3244C31.2307 13.3244 30.9348 13.2773 30.5904 13.1837L30.459 13.9516H30.5088L30.6887 13.9982C30.7541 13.9982 30.8523 14.0141 30.9675 14.0141C31.214 14.0448 31.4111 14.0448 31.5588 14.0448C32.6584 14.0448 33.1836 13.7002 33.1836 12.9483C33.1836 12.4937 32.9702 12.2276 32.4287 12.0238C31.9851 11.867 31.9363 11.8201 31.9363 11.6634C31.9363 11.4916 32.1168 11.3972 32.4616 11.3972C32.6583 11.3972 32.9533 11.4133 33.2159 11.4438L33.3639 10.6919C33.0851 10.6457 32.675 10.6295 32.4447 10.6295C31.2636 10.629 30.8529 11.1301 30.8529 11.741Z" fill="white"/>
<path d="M26.7174 13.998H25.8637L25.8806 13.6527C25.6181 13.9194 25.257 14.0446 24.7809 14.0446C24.2234 14.0446 23.8292 13.6843 23.8292 13.1515C23.8292 12.3519 24.5012 11.8821 25.6675 11.8821C25.7814 11.8821 25.9296 11.8821 26.0939 11.8982C26.1267 11.7886 26.1267 11.7411 26.1267 11.6944C26.1267 11.4752 25.9455 11.3966 25.4534 11.3966C25.1578 11.3966 24.8306 11.428 24.6003 11.4752L24.453 11.5223L24.3541 11.5376L24.5015 10.8014C25.0274 10.6753 25.3552 10.629 25.7497 10.629C26.6516 10.629 27.1115 10.9576 27.1115 11.5842C27.1115 11.7569 27.0953 11.8823 27.0299 12.2429L26.8165 13.4182L26.7837 13.6217L26.7502 13.7946L26.734 13.9037L26.7174 13.998ZM25.9625 12.5245C25.8467 12.509 25.7983 12.509 25.7329 12.509C25.1416 12.509 24.8466 12.6814 24.8466 13.0108C24.8466 13.2143 24.9773 13.3555 25.207 13.3555C25.6347 13.3555 25.9459 13.0108 25.9625 12.5245Z" fill="white"/>
<path d="M30.1469 13.9195C29.7865 14.0136 29.4418 14.0602 29.0801 14.0602C27.9164 14.0602 27.3079 13.5429 27.3079 12.5715C27.3079 11.443 28.0797 10.6127 29.1302 10.6127C29.9833 10.6127 30.5261 11.0828 30.5261 11.8036C30.5261 12.0538 30.4926 12.2901 30.411 12.6187H28.3256C28.3256 12.6811 28.3256 12.6966 28.3256 12.7286C28.3256 13.1047 28.6212 13.3081 29.2285 13.3081C29.606 13.3081 29.9505 13.2457 30.3112 13.105L30.1469 13.9195ZM29.5895 11.9613C29.5895 11.8983 29.5895 11.8352 29.5895 11.7886C29.5895 11.5224 29.4083 11.3651 29.097 11.3651C28.7685 11.3651 28.5389 11.5843 28.4398 11.9613H29.5895Z" fill="white"/>
<path d="M41.2747 12.4932C41.1104 13.5894 40.3064 14.0754 39.239 14.0754C38.0746 14.0754 37.5991 13.4021 37.5991 12.5559C37.5991 11.3961 38.4025 10.5962 39.6498 10.5962C40.7331 10.5962 41.3075 11.2545 41.3075 12.0851C41.3078 12.2901 41.3078 12.3053 41.2747 12.4932ZM40.1919 12.0696C40.1919 11.725 40.0439 11.4125 39.6182 11.4125C39.0917 11.4125 38.7639 12.0072 38.7639 12.5403C38.7639 12.9794 38.9941 13.2769 39.3551 13.2769C39.5848 13.2769 40.0772 12.9794 40.1592 12.4779C40.1919 12.3519 40.1919 12.2115 40.1919 12.0696Z" fill="white"/>
</svg>
