<svg width="60" height="24" viewBox="0 0 60 24" fill="none" xmlns="http://www.w3.org/2000/svg">
<rect width="60" height="24" rx="3" fill="#E5ECF4"/>
<path d="M43.105 9.13043H40.5145C40.3621 9.13043 40.2098 9.2795 40.1336 9.42857L39.0669 15.9877C39.0669 16.1367 39.1431 16.2113 39.2955 16.2113H40.6669C40.8193 16.2113 40.8955 16.1367 40.8955 15.9877L41.2002 14.1243C41.2002 13.9752 41.3526 13.8261 41.5812 13.8261H42.4193C44.1717 13.8261 45.1621 13.0063 45.3907 11.3665C45.5431 10.6957 45.3907 10.0994 45.0859 9.72671C44.6288 9.35404 43.9431 9.13043 43.105 9.13043ZM43.4098 11.5901C43.2574 12.4845 42.5717 12.4845 41.8859 12.4845H41.4288L41.7336 10.7702C41.7336 10.6957 41.8098 10.6211 41.9621 10.6211H42.1145C42.5717 10.6211 43.0288 10.6211 43.2574 10.9193C43.4098 10.9938 43.4098 11.2174 43.4098 11.5901Z" fill="#139AD6"/>
<path d="M24.4384 9.13043H21.8479C21.6955 9.13043 21.5431 9.2795 21.4669 9.42857L20.4003 15.9877C20.4003 16.1367 20.4765 16.2113 20.6288 16.2113H21.8479C22.0003 16.2113 22.1527 16.0622 22.2288 15.9131L22.5336 14.1243C22.5336 13.9752 22.686 13.8261 22.9146 13.8261H23.7527C25.505 13.8261 26.4955 13.0063 26.7241 11.3665C26.8765 10.6957 26.7241 10.0994 26.4193 9.72671C25.9622 9.35404 25.3527 9.13043 24.4384 9.13043ZM24.7431 11.5901C24.5908 12.4845 23.905 12.4845 23.2193 12.4845H22.8384L23.1431 10.7702C23.1431 10.6957 23.2193 10.6211 23.3717 10.6211H23.5241C23.9812 10.6211 24.4384 10.6211 24.6669 10.9193C24.7431 10.9938 24.8193 11.2174 24.7431 11.5901Z" fill="#263B80"/>
<path d="M32.2858 11.5156H31.0668C30.9906 11.5156 30.8382 11.5902 30.8382 11.6647L30.762 12.0374L30.6858 11.8883C30.3811 11.5156 29.8477 11.3666 29.2382 11.3666C27.8668 11.3666 26.6478 12.4101 26.4192 13.8262C26.2668 14.5716 26.4954 15.2424 26.8763 15.6896C27.2573 16.1368 27.7906 16.2859 28.4763 16.2859C29.6192 16.2859 30.2287 15.6151 30.2287 15.6151L30.1525 15.9878C30.1525 16.1368 30.2287 16.2114 30.3811 16.2114H31.5239C31.6763 16.2114 31.8287 16.0623 31.9049 15.9132L32.5906 11.7393C32.5144 11.6647 32.362 11.5156 32.2858 11.5156ZM30.5335 13.9008C30.3811 14.5716 29.8477 15.0933 29.0858 15.0933C28.7049 15.0933 28.4001 14.9443 28.2478 14.7952C28.0954 14.5716 28.0192 14.2734 28.0192 13.9008C28.0954 13.23 28.7049 12.7082 29.3906 12.7082C29.7716 12.7082 30.0001 12.8573 30.2287 13.0063C30.4573 13.23 30.5335 13.6026 30.5335 13.9008Z" fill="#263B80"/>
<path d="M50.8763 11.5156H49.6573C49.5811 11.5156 49.4287 11.5901 49.4287 11.6647L49.3525 12.0373L49.2763 11.8883C48.9715 11.5156 48.4382 11.3665 47.8287 11.3665C46.4573 11.3665 45.2382 12.41 45.0096 13.8262C44.8573 14.5715 45.0858 15.2423 45.4668 15.6896C45.8477 16.1368 46.3811 16.2858 47.0668 16.2858C48.2096 16.2858 48.8192 15.615 48.8192 15.615L48.743 15.9877C48.743 16.1368 48.8192 16.2113 48.9715 16.2113H50.1144C50.2668 16.2113 50.4192 16.0622 50.4953 15.9132L51.1811 11.7392C51.1049 11.6647 51.0287 11.5156 50.8763 11.5156ZM49.1239 13.9007C48.9715 14.5715 48.4382 15.0933 47.6763 15.0933C47.2954 15.0933 46.9906 14.9442 46.8382 14.7951C46.6858 14.5715 46.6096 14.2734 46.6096 13.9007C46.6858 13.2299 47.2954 12.7081 47.9811 12.7081C48.362 12.7081 48.5906 12.8572 48.8192 13.0063C49.1239 13.2299 49.2001 13.6026 49.1239 13.9007Z" fill="#139AD6"/>
<path d="M38.9143 11.5155H37.6191C37.4667 11.5155 37.3905 11.59 37.3143 11.6646L35.6381 14.1987L34.8762 11.8136C34.8 11.6646 34.7238 11.59 34.4952 11.59H33.2762C33.1238 11.59 33.0476 11.7391 33.0476 11.8882L34.419 15.8385L33.1238 17.6273C33.0476 17.7764 33.1238 18 33.2762 18H34.4952C34.6476 18 34.7238 17.9255 34.8 17.8509L38.9905 11.9627C39.2191 11.7391 39.0667 11.5155 38.9143 11.5155Z" fill="#263B80"/>
<path d="M52.3239 9.35409L51.2572 16.0622C51.2572 16.2113 51.3334 16.2858 51.4858 16.2858H52.5524C52.7048 16.2858 52.8572 16.1368 52.9334 15.9877L54.0001 9.42863C54.0001 9.27956 53.9239 9.20502 53.7715 9.20502H52.5524C52.4762 9.13049 52.4001 9.20502 52.3239 9.35409Z" fill="#139AD6"/>
<path d="M14.7619 6.89442C14.2286 6.29814 13.2381 6 11.8667 6H8.05715C7.82857 6 7.6 6.2236 7.52381 6.44721L6 16.2113C6 16.4349 6.15238 16.5839 6.30476 16.5839H8.66667L9.2762 12.9317V13.0808C9.35239 12.8572 9.58096 12.6336 9.80953 12.6336H10.9524C13.1619 12.6336 14.8381 11.7392 15.3714 9.27953C15.3714 9.20499 15.3714 9.13046 15.3714 9.05592C15.2953 9.05592 15.2953 9.05592 15.3714 9.05592C15.4476 8.08697 15.2953 7.49069 14.7619 6.89442Z" fill="#263B80"/>
<path d="M15.2953 9.05591C15.2953 9.13044 15.2953 9.20498 15.2953 9.27951C14.7619 11.8137 13.0857 12.6336 10.8762 12.6336H9.73335C9.50478 12.6336 9.27621 12.8572 9.20002 13.0808L8.43811 17.6274C8.43811 17.7765 8.5143 17.9255 8.74287 17.9255H10.7238C10.9524 17.9255 11.181 17.7765 11.181 17.5529V17.4783L11.5619 15.1678V15.0187C11.5619 14.7951 11.7905 14.646 12.0191 14.646H12.3238C14.2286 14.646 15.7524 13.9007 16.1334 11.6646C16.2857 10.7702 16.2095 9.95033 15.7524 9.42858C15.6762 9.27951 15.5238 9.13044 15.2953 9.05591Z" fill="#139AD6"/>
<path d="M14.7618 8.83237C14.6857 8.83237 14.6095 8.75783 14.5333 8.75783C14.4571 8.75783 14.3809 8.75783 14.3047 8.6833C13.9999 8.60876 13.6952 8.60876 13.3142 8.60876H10.3428C10.2666 8.60876 10.1904 8.60876 10.1142 8.6833C9.96184 8.75783 9.88565 8.9069 9.88565 9.05597L9.27612 12.9318V13.0809C9.35231 12.8572 9.58089 12.6336 9.80946 12.6336H10.9523C13.1618 12.6336 14.838 11.7392 15.3714 9.27958C15.3714 9.20504 15.3714 9.13051 15.4476 9.05597C15.2952 8.98144 15.219 8.9069 15.0666 8.9069C14.838 8.83237 14.838 8.83237 14.7618 8.83237Z" fill="#232C65"/>
</svg>
