<svg width="22" height="22" viewBox="0 0 22 22" fill="none" xmlns="http://www.w3.org/2000/svg">
<g clip-path="url(#clip0)">
<path d="M10.0831 21.0683C4.52366 21.0683 0 16.5448 0 10.9854C0 5.42601 4.52366 0.902344 10.0831 0.902344C12.0163 0.902344 13.8971 1.4532 15.5223 2.49633C15.8414 2.70177 15.9349 3.12708 15.7294 3.44699C15.5233 3.76689 15.0988 3.85937 14.7789 3.6541C13.3765 2.75296 11.7523 2.2773 10.0831 2.2773C5.28163 2.2773 1.37496 6.18398 1.37496 10.9854C1.37496 15.7867 5.28163 19.6934 10.0831 19.6934C14.8843 19.6934 18.791 15.7867 18.791 10.9854C18.791 10.6984 18.7773 10.4143 18.7507 10.1348C18.7142 9.75615 18.9909 9.42063 19.3686 9.38404C19.7481 9.34913 20.0826 9.62422 20.1193 10.0019C20.1504 10.3255 20.166 10.6536 20.166 10.9854C20.166 16.5448 15.6425 21.0683 10.0831 21.0683Z" fill="#FF0400"/>
<path d="M11.228 13.278C11.0521 13.278 10.8761 13.211 10.7423 13.0764L6.61743 8.95156C6.34888 8.68285 6.34888 8.24746 6.61743 7.97892C6.88597 7.71037 7.32135 7.71037 7.5899 7.97892L11.229 11.6181L20.8252 2.02172C21.0939 1.75318 21.5293 1.75318 21.7979 2.02172C22.0664 2.29027 22.0664 2.72565 21.7979 2.9942L11.7148 13.0773C11.58 13.211 11.4041 13.278 11.228 13.278Z" fill="#FF0400"/>
</g>
<defs>
<clipPath id="clip0">
<rect width="22" height="22" fill="white"/>
</clipPath>
</defs>
</svg>
