<svg width="17" height="17" viewBox="0 0 17 17" fill="none" xmlns="http://www.w3.org/2000/svg">
<path d="M6.86191 8.50359L13.2216 2.14366C13.3967 1.96896 13.493 1.73538 13.493 1.48633C13.493 1.23713 13.3967 1.00369 13.2216 0.828715L12.6643 0.271724C12.4895 0.0964715 12.2557 0 12.0067 0C11.7576 0 11.5242 0.0964715 11.3492 0.271724L3.77703 7.84377C3.60137 8.0193 3.50517 8.25385 3.50586 8.50318C3.50517 8.75362 3.60123 8.98789 3.77703 9.16355L11.3422 16.7283C11.5171 16.9035 11.7506 17 11.9998 17C12.2488 17 12.4823 16.9035 12.6574 16.7283L13.2145 16.1713C13.5771 15.8088 13.5771 15.2186 13.2145 14.8562L6.86191 8.50359Z" fill="#FF0000"/>
</svg>
