<svg width="23" height="23" viewBox="0 0 23 23" fill="none" xmlns="http://www.w3.org/2000/svg">
<rect width="23" height="23" rx="3" fill="#F5F5F5"/>
<path d="M16.8574 6.92969H6.14258C5.51129 6.92969 5 7.44415 5 8.07227V14.9277C5 15.5596 5.51505 16.0703 6.14258 16.0703H16.8574C17.4834 16.0703 18 15.5617 18 14.9277V8.07227C18 7.44527 17.4907 6.92969 16.8574 6.92969ZM16.6974 7.69141C16.464 7.9236 12.4466 11.9198 12.3079 12.0578C12.0921 12.2736 11.8052 12.3924 11.5 12.3924C11.1948 12.3924 10.9079 12.2736 10.6914 12.057C10.5981 11.9642 6.62508 8.01219 6.30259 7.69141H16.6974ZM5.76172 14.7727V8.22778L9.05331 11.502L5.76172 14.7727ZM6.30307 15.3086L9.59337 12.0392L10.1535 12.5964C10.5131 12.9561 10.9913 13.1541 11.5 13.1541C12.0087 13.1541 12.4869 12.9561 12.8458 12.5971L13.4066 12.0392L16.6969 15.3086H6.30307ZM17.2383 14.7727L13.9467 11.502L17.2383 8.22778V14.7727Z" fill="#124D95"/>
</svg>
