<svg width="23" height="23" viewBox="0 0 23 23" fill="none" xmlns="http://www.w3.org/2000/svg">
<rect width="23" height="23" rx="3" fill="#F5F5F5"/>
<g clip-path="url(#clip0)">
<path d="M8.24143 13.3121C9.32639 14.609 10.6324 15.6301 12.1231 16.3527C12.6907 16.6216 13.4497 16.9407 14.2953 16.9954C14.3477 16.9977 14.3979 17 14.4503 17C15.0179 17 15.4737 16.804 15.8452 16.4005C15.8475 16.3983 15.8521 16.3937 15.8544 16.3891C15.9866 16.2296 16.137 16.086 16.2943 15.9333C16.4014 15.8307 16.5108 15.7236 16.6157 15.6142C17.1012 15.1082 17.1012 14.4654 16.6111 13.9753L15.2412 12.6055C15.0087 12.3639 14.7307 12.2362 14.4389 12.2362C14.1472 12.2362 13.8668 12.3639 13.6275 12.6032L12.8115 13.4192C12.7363 13.3759 12.6588 13.3371 12.5858 13.3007C12.4946 13.2551 12.4103 13.2118 12.3351 13.1639C11.592 12.6921 10.9174 12.0767 10.2723 11.2857C9.94637 10.8732 9.72755 10.5267 9.57484 10.1734C9.78909 9.97969 9.98967 9.77683 10.1834 9.57853C10.2518 9.50787 10.3225 9.43722 10.3931 9.36656C10.6393 9.12039 10.7715 8.83547 10.7715 8.546C10.7715 8.25653 10.6416 7.97161 10.3931 7.72545L9.71387 7.04621C9.6341 6.96643 9.55888 6.88893 9.48138 6.80916C9.33095 6.65416 9.17368 6.49461 9.01868 6.35102C8.78391 6.1208 8.50811 6 8.21636 6C7.92689 6 7.64881 6.1208 7.40492 6.35329L6.55246 7.20576C6.24247 7.51575 6.06696 7.89184 6.03049 8.32719C5.98719 8.87194 6.08748 9.45089 6.34732 10.1506C6.7462 11.2333 7.34794 12.2385 8.24143 13.3121ZM6.58665 8.37505C6.614 8.0719 6.73024 7.8189 6.94906 7.60008L7.79697 6.75218C7.92917 6.62453 8.07504 6.55843 8.21636 6.55843C8.3554 6.55843 8.49672 6.62453 8.62664 6.75673C8.77935 6.89805 8.92295 7.04621 9.07794 7.20348C9.15544 7.28326 9.23522 7.36303 9.31499 7.44509L9.99423 8.12433C10.1355 8.26564 10.2085 8.40924 10.2085 8.55056C10.2085 8.69188 10.1355 8.83547 9.99423 8.97679C9.92357 9.04745 9.85291 9.12039 9.78225 9.19105C9.57028 9.4053 9.37198 9.60816 9.15316 9.80191C9.1486 9.80647 9.14632 9.80874 9.14177 9.8133C8.95258 10.0025 8.98221 10.1826 9.0278 10.3193C9.03008 10.3261 9.03236 10.3307 9.03464 10.3375C9.21015 10.7592 9.45403 11.1604 9.83468 11.639C10.5185 12.4824 11.2387 13.1366 12.0319 13.6403C12.13 13.7041 12.2348 13.7542 12.3328 13.8044C12.424 13.85 12.5083 13.8933 12.5835 13.9412C12.5927 13.9457 12.5995 13.9503 12.6086 13.9548C12.6838 13.9936 12.7568 14.0118 12.8297 14.0118C13.0121 14.0118 13.1306 13.8956 13.1693 13.8568L14.0218 13.0044C14.154 12.8722 14.2976 12.8015 14.4389 12.8015C14.6121 12.8015 14.7535 12.9086 14.8423 13.0044L16.2168 14.3765C16.4903 14.65 16.488 14.9463 16.2099 15.2358C16.1142 15.3384 16.0139 15.4364 15.9068 15.539C15.7472 15.6939 15.5808 15.8535 15.4304 16.0336C15.1683 16.3162 14.856 16.4484 14.4526 16.4484C14.4138 16.4484 14.3728 16.4461 14.3341 16.4438C13.5864 16.396 12.8912 16.1042 12.3693 15.8558C10.9515 15.1697 9.70704 14.1964 8.6745 12.961C7.82432 11.9376 7.25221 10.9849 6.87384 9.96374C6.63907 9.33692 6.55018 8.8332 6.58665 8.37505Z" fill="#124D95"/>
</g>
<defs>
<clipPath id="clip0">
<rect width="11" height="11" fill="white" transform="translate(6 6)"/>
</clipPath>
</defs>
</svg>
