<svg xmlns="http://www.w3.org/2000/svg" width="37" height="37" viewBox="0 0 37 37">
  <metadata><?xpacket begin="﻿" id="W5M0MpCehiHzreSzNTczkc9d"?>
<x:xmpmeta xmlns:x="adobe:ns:meta/" x:xmptk="Adobe XMP Core 5.6-c142 79.160924, 2017/07/13-01:06:39        ">
   <rdf:RDF xmlns:rdf="http://www.w3.org/1999/02/22-rdf-syntax-ns#">
      <rdf:Description rdf:about=""/>
   </rdf:RDF>
</x:xmpmeta>
                                                                                                    
                                                                                                    
                                                                                                    
                                                                                                    
                                                                                                    
                                                                                                    
                                                                                                    
                                                                                                    
                                                                                                    
                                                                                                    
                                                                                                    
                                                                                                    
                                                                                                    
                                                                                                    
                                                                                                    
                                                                                                    
                                                                                                    
                                                                                                    
                                                                                                    
                                                                                                    
                           
<?xpacket end="w"?></metadata>
<defs>
    <style>
      .cls-1 {
        fill: #416894;
        fill-rule: evenodd;
      }
    </style>
  </defs>
  <path id="Shape_9_copy" data-name="Shape 9 copy" class="cls-1" d="M3.086,9.563A17.721,17.721,0,0,1,9.564,3.086,17.409,17.409,0,0,1,18.5.7a17.407,17.407,0,0,1,8.935,2.388,17.715,17.715,0,0,1,6.478,6.477A17.413,17.413,0,0,1,36.3,18.5a17.412,17.412,0,0,1-2.388,8.934,17.719,17.719,0,0,1-6.478,6.478A17.417,17.417,0,0,1,18.5,36.3a17.416,17.416,0,0,1-8.935-2.387,17.714,17.714,0,0,1-6.478-6.478A17.411,17.411,0,0,1,.7,18.5,17.422,17.422,0,0,1,3.086,9.563ZM12.3,19.175a0.68,0.68,0,0,0,.672.67h7.268l-1.983,1.978a0.681,0.681,0,0,0,0,.942l0.955,0.952a0.686,0.686,0,0,0,.945,0l3.8-3.788,0.955-.953a0.681,0.681,0,0,0,0-.941l-0.955-.952-3.8-3.789a0.686,0.686,0,0,0-.945,0l-0.955.952a0.657,0.657,0,0,0,0,.942l1.983,1.978H12.969a0.681,0.681,0,0,0-.672.67v1.34h0Z"/>
</svg>
