<svg width="1485" height="403" viewBox="0 0 1485 403" fill="none" xmlns="http://www.w3.org/2000/svg">
<path d="M1461.02 10.9375H1213.25L1205.33 18.6219H1083.08L1072.84 28.8678H1215.58L1227.69 16.9918H1467.07L1461.02 10.9375Z" fill="#7857FF"/>
<path d="M23.9819 10.9376H271.746L279.664 18.622H401.916L412.161 28.8679H269.418L257.309 16.992H17.9276L23.9819 10.9376Z" fill="#7857FF"/>
<path d="M21.4232 383.384C21.1904 383.384 20.7246 383.151 20.7246 382.686V362.194L0.232858 341.702C-3.56138e-06 341.469 0 341.469 0 341.236L0 16.2939C0 16.0611 -3.56138e-06 16.0611 0.232858 15.8282L15.3688 0.692224C15.6017 0.459363 16.0674 0.459363 16.3003 0.692224C16.5331 0.925085 16.5331 1.39081 16.3003 1.62367L1.39716 16.5268V341.004L21.8889 361.495C22.1218 361.728 22.1218 361.728 22.1218 361.961V382.686C22.1218 383.151 21.8889 383.384 21.4232 383.384Z" fill="#7857FF"/>
<path d="M9.08232 209.903V145.765L0.932181 137.615V217.82L9.08232 209.903Z" fill="#7857FF"/>
<path d="M430.326 385.248H169.289L160.207 391.768H18.6276C16.2989 389.44 15.1346 388.275 13.0389 386.18V367.318L4.88874 359.168V395.96C8.84738 399.918 7.21736 398.288 11.176 402.247H170.453L182.329 390.371H434.983L430.326 385.248Z" fill="#7857FF"/>
<path d="M1463.58 383.384C1463.11 383.384 1462.88 383.151 1462.88 382.686V361.961C1462.88 361.728 1462.88 361.728 1463.11 361.495L1483.6 341.004V16.5268L1468.7 1.62367C1468.47 1.39081 1468.47 0.925085 1468.7 0.692224C1468.93 0.459363 1469.4 0.459363 1469.63 0.692224L1484.77 15.8282C1485 16.0611 1485 16.0611 1485 16.2939V341.236C1485 341.469 1485 341.469 1484.77 341.702L1464.28 362.194V382.686C1464.04 383.151 1463.81 383.384 1463.58 383.384Z" fill="#7857FF"/>
<path d="M1476.15 209.903V145.765L1484.07 137.615V217.82L1476.15 209.903Z" fill="#7857FF"/>
<path d="M1054.68 385.248H1318.27L1324.79 391.768H1466.14C1468.47 389.44 1469.63 388.275 1471.73 386.18V367.318L1479.88 359.168V395.96C1475.92 399.918 1477.55 398.288 1473.59 402.247H1314.32L1302.44 390.371H1050.02L1054.68 385.248Z" fill="#7857FF"/>
<path d="M1061.89 23.0476H423.342C423.11 23.0476 423.11 23.0476 422.877 22.8147L411.467 11.4045H290.146C289.913 11.4045 289.447 11.1716 289.447 10.7059C289.447 10.4731 289.68 10.0073 290.146 10.0073H411.699C411.932 10.0073 411.932 10.0073 412.165 10.2402L423.575 21.6504H1061.66L1073.07 10.2402C1073.3 10.0073 1073.3 10.0073 1073.54 10.0073H1195.09C1195.32 10.0073 1195.79 10.2402 1195.79 10.7059C1195.79 10.9388 1195.56 11.4045 1195.09 11.4045H1073.77L1062.36 22.8147C1062.13 23.0476 1061.89 23.0476 1061.89 23.0476Z" fill="#7857FF"/>
<path d="M1081.22 375.233H1024.63L1020.44 379.425H464.556L460.365 375.233H403.78L399.821 379.192H439.64L446.393 385.945H1038.61L1045.36 379.192H1085.18L1081.22 375.233Z" fill="#7857FF"/>
</svg>
