<svg width="694" height="21" viewBox="0 0 694 21" fill="none" xmlns="http://www.w3.org/2000/svg">
<path fill-rule="evenodd" clip-rule="evenodd" d="M361.942 9.49316H366.267V13.8179H361.942V9.49316ZM498.464 11.4802H500.218V13.2335H498.464V11.4802ZM471.113 11.1295H473.334V13.3504H471.113V11.1295ZM443.762 10.662H446.567V13.4672H443.762V10.662ZM416.411 10.0776H420.034V13.701H416.411V10.0776ZM389.177 9.84381H393.151V13.8179H389.177V9.84381Z" fill="#B6B1D9"/>
<path fill-rule="evenodd" clip-rule="evenodd" d="M340.553 9.49316H336.228V13.8179H340.553V9.49316ZM204.031 11.4802H202.277V13.2335H204.031V11.4802ZM231.382 11.1295H229.161V13.3504H231.382V11.1295ZM258.733 10.662H255.928V13.4672H258.733V10.662ZM286.084 10.0776H282.461V13.701H286.084V10.0776ZM313.318 9.84381H309.344V13.8179H313.318V9.84381Z" fill="#B6B1D9"/>
<path fill-rule="evenodd" clip-rule="evenodd" d="M528.388 14.0517H654.741V12.8828H528.388V14.0517Z" fill="#B6B1D9"/>
<path fill-rule="evenodd" clip-rule="evenodd" d="M653.455 12.8828H654.741V20.2466H653.455V12.8828Z" fill="#B6B1D9"/>
<path fill-rule="evenodd" clip-rule="evenodd" d="M44.9492 13.4677H171.302V12.2988H44.9492V13.4677Z" fill="#B6B1D9"/>
<path d="M78.25 1.25H78.875V2.5H78.25V3.125H75.75V5H74.5V0.625H78.25V1.25ZM77.625 2.5V1.25H75.75V2.5H77.625ZM82.625 3.125V1.875H82V1.25H81.375V1.875H80.75V3.125H82.625ZM79.5 5V1.875H80.125V1.25H80.75V0.625H82.625V1.25H83.25V1.875H83.875V5H82.625V3.75H80.75V5H79.5ZM84.5 5V0.625H88.25V1.25H88.875V2.5H88.25V3.125H87.625V3.75H88.25V4.375H88.875V5H87.625V4.375H87V3.75H86.375V3.125H85.75V5H84.5ZM85.75 2.5H87.625V1.25H85.75V2.5ZM90.125 1.25V0.625H93.875V1.25H92.625V5H91.375V1.25H90.125ZM94.5 5V0.625H95.75V1.25H96.375V1.875H97V2.5H97.625V0.625H98.875V5H97.625V3.75H97V3.125H96.375V2.5H95.75V5H94.5ZM99.5 5V0.625H103.875V1.25H100.75V2.5H102.625V3.125H100.75V4.375H103.875V5H99.5ZM104.5 5V0.625H108.25V1.25H108.875V2.5H108.25V3.125H107.625V3.75H108.25V4.375H108.875V5H107.625V4.375H107V3.75H106.375V3.125H105.75V5H104.5ZM105.75 2.5H107.625V1.25H105.75V2.5ZM110.125 4.375H109.5V3.75H110.75V4.375H112.625V3.125H110.125V2.5H109.5V1.25H110.125V0.625H113.25V1.25H113.875V1.875H112.625V1.25H110.75V2.5H113.25V3.125H113.875V4.375H113.25V5H110.125V4.375ZM120.125 5V4.375H121.375V1.25H120.125V0.625H122.625V4.375H123.875V5H120.125ZM124.5 5V3.75H125.125V3.125H125.75V2.5H127V1.875H127.625V1.25H125.75V1.875H124.5V1.25H125.125V0.625H128.25V1.25H128.875V1.875H128.25V2.5H127.625V3.125H126.375V3.75H125.75V4.375H128.875V5H124.5ZM135.125 5V4.375H136.375V1.25H135.125V0.625H137.625V4.375H138.875V5H135.125ZM142.625 1.25H140.75V2.5H142.625V1.25ZM140.75 4.375H142.625V3.125H140.125V2.5H139.5V1.25H140.125V0.625H143.25V1.25H143.875V4.375H143.25V5H140.125V4.375H139.5V3.75H140.75V4.375ZM145.125 4.375H144.5V3.75H145.75V4.375H147.625V3.125H145.75V2.5H147.625V1.25H145.75V1.875H144.5V1.25H145.125V0.625H148.25V1.25H148.875V2.5H148.25V3.125H148.875V4.375H148.25V5H145.125V4.375ZM150.75 5V3.75H152V5H150.75ZM154.5 5V3.75H155.125V3.125H155.75V2.5H157V1.875H157.625V1.25H155.75V1.875H154.5V1.25H155.125V0.625H158.25V1.25H158.875V1.875H158.25V2.5H157.625V3.125H156.375V3.75H155.75V4.375H158.875V5H154.5ZM160.125 4.375H159.5V3.75H160.75V4.375H162.625V2.5H159.5V0.625H163.875V1.25H160.75V1.875H163.25V2.5H163.875V4.375H163.25V5H160.125V4.375ZM165.125 4.375H164.5V3.75H165.75V4.375H167.625V2.5H164.5V0.625H168.875V1.25H165.75V1.875H168.25V2.5H168.875V4.375H168.25V5H165.125V4.375Z" fill="#B6B1D9"/>
<path d="M531.75 1.25H532.375V2.5H531.75V3.125H529.25V5H528V0.625H531.75V1.25ZM531.125 2.5V1.25H529.25V2.5H531.125ZM536.125 3.125V1.875H535.5V1.25H534.875V1.875H534.25V3.125H536.125ZM533 5V1.875H533.625V1.25H534.25V0.625H536.125V1.25H536.75V1.875H537.375V5H536.125V3.75H534.25V5H533ZM538 5V0.625H541.75V1.25H542.375V2.5H541.75V3.125H541.125V3.75H541.75V4.375H542.375V5H541.125V4.375H540.5V3.75H539.875V3.125H539.25V5H538ZM539.25 2.5H541.125V1.25H539.25V2.5ZM543.625 1.25V0.625H547.375V1.25H546.125V5H544.875V1.25H543.625ZM548 5V0.625H549.25V1.25H549.875V1.875H550.5V2.5H551.125V0.625H552.375V5H551.125V3.75H550.5V3.125H549.875V2.5H549.25V5H548ZM553 5V0.625H557.375V1.25H554.25V2.5H556.125V3.125H554.25V4.375H557.375V5H553ZM558 5V0.625H561.75V1.25H562.375V2.5H561.75V3.125H561.125V3.75H561.75V4.375H562.375V5H561.125V4.375H560.5V3.75H559.875V3.125H559.25V5H558ZM559.25 2.5H561.125V1.25H559.25V2.5ZM563.625 4.375H563V3.75H564.25V4.375H566.125V3.125H563.625V2.5H563V1.25H563.625V0.625H566.75V1.25H567.375V1.875H566.125V1.25H564.25V2.5H566.75V3.125H567.375V4.375H566.75V5H563.625V4.375ZM573.625 5V4.375H574.875V1.25H573.625V0.625H576.125V4.375H577.375V5H573.625ZM578 5V3.75H578.625V3.125H579.25V2.5H580.5V1.875H581.125V1.25H579.25V1.875H578V1.25H578.625V0.625H581.75V1.25H582.375V1.875H581.75V2.5H581.125V3.125H579.875V3.75H579.25V4.375H582.375V5H578ZM588.625 5V4.375H589.875V1.25H588.625V0.625H591.125V4.375H592.375V5H588.625ZM596.125 1.25H594.25V2.5H596.125V1.25ZM594.25 4.375H596.125V3.125H593.625V2.5H593V1.25H593.625V0.625H596.75V1.25H597.375V4.375H596.75V5H593.625V4.375H593V3.75H594.25V4.375ZM598.625 4.375H598V3.75H599.25V4.375H601.125V3.125H599.25V2.5H601.125V1.25H599.25V1.875H598V1.25H598.625V0.625H601.75V1.25H602.375V2.5H601.75V3.125H602.375V4.375H601.75V5H598.625V4.375ZM604.25 5V3.75H605.5V5H604.25ZM608 5V3.75H608.625V3.125H609.25V2.5H610.5V1.875H611.125V1.25H609.25V1.875H608V1.25H608.625V0.625H611.75V1.25H612.375V1.875H611.75V2.5H611.125V3.125H609.875V3.75H609.25V4.375H612.375V5H608ZM613.625 4.375H613V3.75H614.25V4.375H616.125V2.5H613V0.625H617.375V1.25H614.25V1.875H616.75V2.5H617.375V4.375H616.75V5H613.625V4.375ZM618.625 4.375H618V3.75H619.25V4.375H621.125V2.5H618V0.625H622.375V1.25H619.25V1.875H621.75V2.5H622.375V4.375H621.75V5H618.625V4.375Z" fill="#B6B1D9"/>
<path d="M16.5 20H15.625V18.25H13.875V17.375H15.625V15.625H16.5V17.375H18.25V18.25H16.5V20ZM20.875 19.125H20V18.25H21.75V19.125H24.375V16.5H20V13.875H26.125V14.75H21.75V15.625H25.25V16.5H26.125V19.125H25.25V20H20.875V19.125ZM27 20V18.25H27.875V17.375H28.75V16.5H30.5V15.625H31.375V14.75H28.75V15.625H27V14.75H27.875V13.875H32.25V14.75H33.125V15.625H32.25V16.5H31.375V17.375H29.625V18.25H28.75V19.125H33.125V20H27Z" fill="#B6B1D9"/>
<path d="M663.5 20H662.625V18.25H660.875V17.375H662.625V15.625H663.5V17.375H665.25V18.25H663.5V20ZM667.875 19.125H667V18.25H668.75V19.125H671.375V16.5H667V13.875H673.125V14.75H668.75V15.625H672.25V16.5H673.125V19.125H672.25V20H667.875V19.125ZM674 20V18.25H674.875V17.375H675.75V16.5H677.5V15.625H678.375V14.75H675.75V15.625H674V14.75H674.875V13.875H679.25V14.75H680.125V15.625H679.25V16.5H678.375V17.375H676.625V18.25H675.75V19.125H680.125V20H674Z" fill="#B6B1D9"/>
<path fill-rule="evenodd" clip-rule="evenodd" d="M44.9492 12.2988H46.235V19.5457H44.9492V12.2988Z" fill="#B6B1D9"/>
</svg>
