<svg width="17" height="19" viewBox="0 0 17 19" fill="none" xmlns="http://www.w3.org/2000/svg">
<path d="M16.8962 17.7646L11.9579 12.2452C12.8945 10.9528 13.4583 9.30976 13.4583 7.52086C13.4583 3.37388 10.4396 0 6.72916 0C3.0187 0 0 3.37388 0 7.52086C0 11.6678 3.01873 15.0417 6.72919 15.0417C8.32978 15.0417 9.79989 14.4115 10.9563 13.3647L15.8946 18.8841C16.033 19.0386 16.2572 19.0386 16.3955 18.8841L16.8963 18.3244C17.0346 18.1698 17.0346 17.9191 16.8962 17.7646ZM6.72919 13.4584C3.79971 13.4584 1.41668 10.795 1.41668 7.52086C1.41668 4.24673 3.79971 1.58335 6.72919 1.58335C9.65868 1.58335 12.0417 4.24673 12.0417 7.52086C12.0417 10.795 9.65868 13.4584 6.72919 13.4584Z" fill="#419FDA"/>
</svg>
