<svg width="70" height="80" viewBox="0 0 70 80" fill="none" xmlns="http://www.w3.org/2000/svg">
<path d="M16.6907 21.5991L15.8123 20.7206C21.2586 15.2743 28.4618 12.2876 36.1921 12.2876C43.9223 12.2876 51.1255 15.2743 56.5718 20.7206L55.6934 21.5991C50.5984 16.5041 43.5709 13.5174 36.3677 13.5174C28.6374 13.5174 21.7856 16.3284 16.6907 21.5991Z" fill="#B6B1D9"/>
<path d="M36.0162 69.7368C28.2859 69.7368 21.0827 66.7501 15.6364 61.3037L16.5148 60.4253C21.6097 65.5202 28.6373 68.507 35.8405 68.507C43.2194 68.507 50.0712 65.6959 55.1661 60.4253L56.0446 61.3037C50.9496 66.7501 43.7464 69.7368 36.0162 69.7368Z" fill="#B6B1D9"/>
<path d="M36.0166 60.9538C24.9482 60.9538 15.9882 51.9938 15.9882 40.9254C15.9882 29.8571 24.9482 20.897 36.0166 20.897C47.0849 20.897 56.045 29.8571 56.045 40.9254C56.045 51.9938 47.0849 60.9538 36.0166 60.9538ZM36.0166 22.3025C25.651 22.3025 17.3936 30.7355 17.3936 40.9254C17.3936 51.291 25.8267 59.5483 36.0166 59.5483C46.2065 59.5483 54.6395 51.1153 54.6395 40.9254C54.8152 30.7355 46.3822 22.3025 36.0166 22.3025Z" fill="#B6B1D9"/>
<path d="M46.5576 40.9221C46.5576 35.1244 41.8141 30.3809 36.0164 30.3809C30.2187 30.3809 25.4751 35.1244 25.4751 40.9221H46.5576Z" fill="#B6B1D9"/>
<path d="M69.3971 40.3975H55.342V41.6273H69.3971V40.3975Z" fill="#B6B1D9"/>
<path d="M16.6904 40.3975H2.63538V41.6273H16.6904V40.3975Z" fill="#B6B1D9"/>
<path opacity="0.25" d="M59.2772 46.532C62.3097 33.6896 54.3571 20.8205 41.5147 17.788C28.6723 14.7555 15.8032 22.7081 12.7708 35.5505C9.73832 48.3929 17.6909 61.262 30.5333 64.2945C43.3757 67.3269 56.2448 59.3744 59.2772 46.532Z" fill="#B6B1D9"/>
<path d="M36.0161 72.8987C18.4473 72.8987 4.04089 58.668 4.04089 40.9235C4.04089 23.3547 18.2716 8.94824 36.0161 8.94824C53.7606 8.94824 67.9913 23.179 67.9913 40.9235C67.9913 58.4923 53.5849 72.8987 36.0161 72.8987ZM36.0161 9.29964C18.623 9.29964 4.39229 23.5304 4.39229 40.9235C4.39229 58.3166 18.623 72.5473 36.0161 72.5473C53.4092 72.5473 67.6399 58.3166 67.6399 40.9235C67.6399 23.5304 53.4092 9.29964 36.0161 9.29964Z" fill="#B6B1D9"/>
<path d="M5.6226 9.29785H3.86572V11.0547H5.6226V9.29785Z" fill="#B6B1D9"/>
<path d="M8.96062 9.29785H7.20374V11.0547H8.96062V9.29785Z" fill="#B6B1D9"/>
<path d="M5.6226 69.2114H3.86572V70.9683H5.6226V69.2114Z" fill="#B6B1D9"/>
<path d="M8.96062 69.2114H7.20374V70.9683H8.96062V69.2114Z" fill="#B6B1D9"/>
<path d="M66.0592 9.29785H64.3024V11.0547H66.0592V9.29785Z" fill="#B6B1D9"/>
<path d="M69.5729 9.29785H67.816V11.0547H69.5729V9.29785Z" fill="#B6B1D9"/>
<path d="M66.0592 69.2114H64.3024V70.9683H66.0592V69.2114Z" fill="#B6B1D9"/>
<path d="M69.5729 69.2114H67.816V70.9683H69.5729V69.2114Z" fill="#B6B1D9"/>
<g opacity="0.25">
<path d="M69.7481 69.9105H0V12.6362H69.7481V69.9105ZM0.527042 69.2078H69.0454V13.339H0.527042V69.2078Z" fill="#B6B1D9"/>
<path d="M69.3968 59.7222H0.175781V60.4249H69.3968V59.7222Z" fill="#B6B1D9"/>
<path d="M69.3968 50.4092H0.175781V51.1119H69.3968V50.4092Z" fill="#B6B1D9"/>
<path d="M69.3968 40.9209H0.175781V41.6236H69.3968V40.9209Z" fill="#B6B1D9"/>
<path d="M69.3968 31.4331H0.175781V32.1359H69.3968V31.4331Z" fill="#B6B1D9"/>
<path d="M69.3968 22.124H0.175781V22.8268H69.3968V22.124Z" fill="#B6B1D9"/>
<path d="M58.1531 12.9858H57.4503V69.5574H58.1531V12.9858Z" fill="#B6B1D9"/>
<path d="M46.7333 12.9858H46.0305V69.5574H46.7333V12.9858Z" fill="#B6B1D9"/>
<path d="M35.1377 12.9858H34.4349V69.5574H35.1377V12.9858Z" fill="#B6B1D9"/>
<path d="M23.7181 12.9858H23.0154V69.5574H23.7181V12.9858Z" fill="#B6B1D9"/>
<path d="M12.1225 12.9858H11.4198V69.5574H12.1225V12.9858Z" fill="#B6B1D9"/>
</g>
<path d="M6.14922 0.164062H0.702881V1.0425H6.14922V0.164062Z" fill="#B6B1D9"/>
<path d="M69.2215 0.164062H67.816V1.0425H69.2215V0.164062Z" fill="#B6B1D9"/>
<path d="M40.5838 0.164062H39.1782V1.0425H40.5838V0.164062Z" fill="#B6B1D9"/>
<path d="M62.5449 0.164062H61.1394V1.0425H62.5449V0.164062Z" fill="#B6B1D9"/>
<path d="M6.14922 78.1704H0.702881V79.0489H6.14922V78.1704Z" fill="#B6B1D9"/>
<path d="M69.2215 78.1704H67.816V79.0489H69.2215V78.1704Z" fill="#B6B1D9"/>
<path d="M40.5838 78.1704H39.1782V79.0489H40.5838V78.1704Z" fill="#B6B1D9"/>
<path d="M62.5449 78.1704H61.1394V79.0489H62.5449V78.1704Z" fill="#B6B1D9"/>
</svg>
