<svg width="66" height="43" viewBox="0 0 66 43" fill="none" xmlns="http://www.w3.org/2000/svg">
<path d="M41.7073 7.49158H24.2969V35.5034H41.7073V7.49158Z" fill="#FF5F00"/>
<path d="M26.0909 21.5C26.0887 18.8027 26.7094 16.1402 27.9061 13.7141C29.1027 11.288 30.8438 9.16186 32.9978 7.4965C30.33 5.43123 27.1262 4.14695 23.7526 3.79046C20.3789 3.43398 16.9714 4.01965 13.9197 5.48056C10.8679 6.94147 8.29499 9.21867 6.49491 12.0519C4.69483 14.8851 3.74023 18.1601 3.74023 21.5024C3.74023 24.8448 4.69483 28.1197 6.49491 30.953C8.29499 33.7862 10.8679 36.0634 13.9197 37.5243C16.9714 38.9852 20.3789 39.5709 23.7526 39.2144C27.1262 38.8579 30.33 37.5736 32.9978 35.5084C30.8432 33.8425 29.1016 31.7155 27.905 29.2885C26.7083 26.8615 26.088 24.1981 26.0909 21.5Z" fill="#EB001B"/>
<path d="M60.5302 32.5394V31.9654H60.7814V31.8467H60.1836V31.9654H60.4197V32.5394H60.5302ZM61.6906 32.5394V31.8467H61.5097L61.2987 32.3415L61.0878 31.8467H60.9069V32.5394H61.0375V32.0149L61.2334 32.4652H61.3691L61.565 32.0149V32.5394H61.6906Z" fill="#F79E1B"/>
<path d="M62.2573 21.5C62.2572 24.8426 61.3024 28.1178 59.502 30.9511C57.7016 33.7844 55.1283 36.0616 52.0761 37.5223C49.024 38.983 45.6162 39.5683 42.2423 39.2113C38.8685 38.8543 35.6646 37.5694 32.9971 35.5035C35.1502 33.8366 36.8908 31.7099 38.0878 29.2836C39.2847 26.8574 39.9066 24.1951 39.9066 21.4975C39.9066 18.8 39.2847 16.1377 38.0878 13.7114C36.8908 11.2852 35.1502 9.15844 32.9971 7.49161C35.6646 5.42568 38.8685 4.14078 42.2423 3.78378C45.6162 3.42678 49.024 4.01209 52.0761 5.47279C55.1283 6.93349 57.7016 9.21064 59.502 12.044C61.3024 14.8773 62.2572 18.1524 62.2573 21.4951V21.5Z" fill="#F79E1B"/>
</svg>
