<svg width="49" height="17" viewBox="0 0 49 17" fill="none" xmlns="http://www.w3.org/2000/svg">
<path d="M19.6192 0.281189L17.1289 16.6503H21.1117L23.604 0.281189H19.6192Z" fill="white"/>
<path d="M13.7901 0.299402L9.88924 11.4627L9.47334 9.77709C8.70404 7.74616 6.52007 4.82942 3.95605 2.99125L7.52293 16.6421L11.7372 16.6341L18.0095 0.295959L13.7901 0.299402Z" fill="white"/>
<path d="M7.96145 1.47085C7.72994 0.473744 7.05898 0.176561 6.22616 0.140991H0.0512188L0 0.466859C4.80535 1.77262 7.98501 4.91885 9.30441 8.7019L7.96145 1.47085Z" fill="white"/>
<path d="M31.6771 3.41931C32.9801 3.39636 33.9245 3.71535 34.658 4.0458L35.0176 4.23513L35.5564 0.687304C34.7676 0.355699 33.5312 0 31.9885 0C28.0528 0 25.2788 2.22026 25.2573 5.40205C25.2317 7.75312 27.2333 9.06577 28.7453 9.84946C30.2972 10.6527 30.8176 11.1633 30.8104 11.8804C30.7981 12.9762 29.573 13.4788 28.4288 13.4788C26.8338 13.4788 25.9867 13.2321 24.6785 12.6216L24.1653 12.36L23.605 16.0237C24.5372 16.4815 26.2571 16.8751 28.0426 16.8958C32.2292 16.8958 34.9499 14.7019 34.9786 11.3021C34.996 9.44212 33.9338 8.02276 31.632 6.85813C30.2388 6.09854 29.3866 5.59367 29.3948 4.8272C29.3948 4.14678 30.118 3.41931 31.6771 3.41931Z" fill="white"/>
<path d="M45.7773 0.299988H42.7001C41.7443 0.299988 41.0334 0.591433 40.6134 1.65853L34.6997 16.6599H38.8822C38.8822 16.6599 39.5645 14.6427 39.7191 14.201C40.177 14.201 44.2407 14.2079 44.8195 14.2079C44.9383 14.7793 45.3051 16.6599 45.3051 16.6599H49L45.7773 0.299988ZM40.8654 10.8505C41.1932 9.91078 42.4522 6.27575 42.4522 6.27575C42.4307 6.3205 42.7769 5.32913 42.9828 4.71296L43.2512 6.12429C43.2512 6.12429 44.0144 10.0324 44.1742 10.8505H40.8654Z" fill="white"/>
</svg>
