<svg width="40" height="40" viewBox="0 0 40 40" fill="none" xmlns="http://www.w3.org/2000/svg">
<g opacity="0.8" filter="url(#filter0_b)">
<circle cx="20" cy="20" r="20" fill="#5FA800"/>
</g>
<g clip-path="url(#clip0)">
<path d="M24.922 15.6187C26.8407 13.8358 28.15 11.6398 28.8996 8.9385C28.9647 8.70371 28.6913 8.52323 28.501 8.67539C26.8771 9.97436 24.2872 11.2431 20.0419 11.8687C14.2419 12.7555 12.0233 18.2176 13.2163 22.6359C16.9039 20.1023 21.5474 18.767 24.922 15.6187Z" fill="white"/>
<path d="M31.6361 13.8965C31.4498 13.0088 31.0314 11.2064 30.6727 9.68089C30.6136 9.42979 30.2613 9.42126 30.1877 9.66847C29.3525 12.474 27.9397 14.7784 25.9011 16.6727C22.3422 20.025 17.5284 21.3415 13.728 24.0377C15.0623 26.8803 18.009 28.9357 22.513 28.3629C29.1815 27.3042 33.2831 21.7462 31.6361 13.8965Z" fill="white"/>
<path d="M11.7585 23.7705C9.71701 25.572 8.49114 27.7854 8.01084 30.5372C7.94251 30.9285 8.2044 31.3012 8.5958 31.3695C8.97796 31.4391 9.36162 31.1781 9.42811 30.7845C9.89965 27.9052 11.4109 25.6828 13.7281 24.0376C13.5169 23.5877 13.3463 23.118 13.2161 22.6359C12.7086 22.9874 12.2212 23.3622 11.7585 23.7705Z" fill="white"/>
</g>
<defs>
<filter id="filter0_b" x="-10" y="-10" width="60" height="60" filterUnits="userSpaceOnUse" color-interpolation-filters="sRGB">
<feFlood flood-opacity="0" result="BackgroundImageFix"/>
<feGaussianBlur in="BackgroundImage" stdDeviation="5"/>
<feComposite in2="SourceAlpha" operator="in" result="effect1_backgroundBlur"/>
<feBlend mode="normal" in="SourceGraphic" in2="effect1_backgroundBlur" result="shape"/>
</filter>
<clipPath id="clip0">
<rect width="24" height="24" fill="white" transform="translate(8 8)"/>
</clipPath>
</defs>
</svg>
