<svg width="40" height="40" viewBox="0 0 40 40" fill="none" xmlns="http://www.w3.org/2000/svg">
<g opacity="0.8" filter="url(#filter0_b)">
<circle cx="20" cy="20" r="20" fill="#3694EB"/>
</g>
<g clip-path="url(#clip0)">
<path d="M20 11.5146C15.3416 11.5146 11.5149 15.3423 11.5149 19.9997C11.5149 24.6581 15.3426 28.4847 20 28.4847C24.6584 28.4847 28.4851 24.657 28.4851 19.9997C28.4851 15.3413 24.6573 11.5146 20 11.5146ZM20 27.0784C16.0968 27.0784 12.9213 23.9029 12.9213 19.9997C12.9213 16.0964 16.0968 12.9209 20 12.9209C23.9032 12.9209 27.0787 16.0964 27.0787 19.9997C27.0787 23.9029 23.9032 27.0784 20 27.0784ZM31.7723 20.9601C32.0759 20.3586 32.0759 19.6406 31.7723 19.0392L31.4578 18.4164C31.3893 18.2807 31.3654 18.1295 31.3886 17.9791L31.4951 17.2897C31.5981 16.6239 31.3762 15.941 30.9015 15.4629L30.4101 14.9677C30.3029 14.8598 30.2334 14.7233 30.2091 14.5732L30.0974 13.8845C29.9907 13.2269 29.5768 12.6515 28.9883 12.341C28.9883 12.341 28.36 11.9709 28.3479 11.9647C28.2127 11.8951 28.1044 11.7869 28.0349 11.6516L27.7158 11.0312C27.415 10.4462 26.8016 10.0135 26.115 9.90214L25.4264 9.79047C25.2762 9.76609 25.1398 9.69662 25.0318 9.5895L24.5367 9.09802C24.0586 8.62342 23.3758 8.40168 22.71 8.50444L22.0205 8.611C21.8701 8.63425 21.719 8.6103 21.5832 8.54176L20.9604 8.22734C20.359 7.92375 19.641 7.92371 19.0396 8.22734L18.4168 8.54176C18.2811 8.61025 18.13 8.63416 17.9795 8.61105L17.2901 8.50449C16.6242 8.4015 15.9414 8.62347 15.4633 9.09807L14.9681 9.5895C14.8602 9.69667 14.7237 9.76614 14.5736 9.79052L13.8849 9.90218C13.1983 10.0136 12.5849 10.4462 12.2841 11.0313L11.9651 11.6517C11.8955 11.7869 11.7872 11.8952 11.652 11.9647L11.0315 12.2838C10.4465 12.5846 10.0138 13.198 9.90248 13.8846L9.79077 14.5733C9.76644 14.7234 9.69692 14.8598 9.58976 14.9678L9.09837 15.4629C8.62377 15.941 8.40189 16.6239 8.50479 17.2897L8.61139 17.9792C8.63465 18.1295 8.61069 18.2807 8.54211 18.4164L8.22769 19.0392C7.9241 19.6406 7.9241 20.3586 8.22769 20.96L8.54211 21.5828C8.61064 21.7186 8.6346 21.8697 8.61139 22.0201L8.50479 22.7096C8.40189 23.3753 8.62382 24.0582 9.09837 24.5364L9.58985 25.0315C9.69701 25.1395 9.76654 25.2759 9.79087 25.4261L9.90258 26.1147C10.0139 26.8013 10.4466 27.4147 11.0316 27.7155L11.652 28.0345C11.7873 28.1041 11.8955 28.2124 11.9651 28.3476L12.2841 28.9681C12.585 29.5531 13.1984 29.9858 13.885 30.0971L14.5736 30.2088C14.7238 30.2332 14.8602 30.3027 14.9681 30.4098L15.4633 30.9013C15.9415 31.3759 16.6243 31.5977 17.2901 31.4949L17.9796 31.3883C18.1298 31.365 18.2811 31.389 18.4168 31.4575L19.0396 31.772C19.3403 31.9238 19.6702 31.9997 20 31.9997C20.3299 31.9997 20.6597 31.9238 20.9604 31.772L21.5832 31.4575C21.719 31.389 21.8702 31.3651 22.0205 31.3883L22.7099 31.4948C23.3757 31.5977 24.0586 31.3758 24.5367 30.9012L25.0319 30.4098C25.1398 30.3026 25.2762 30.2331 25.4264 30.2087L26.115 30.097C26.7726 29.9904 27.3481 29.5765 27.6586 28.9879C27.6586 28.9879 28.0288 28.3596 28.0349 28.3475C28.1045 28.2123 28.2127 28.104 28.348 28.0345L28.9684 27.7154C29.5675 27.4074 29.9896 26.8265 30.0975 26.1615L30.2091 25.4728C30.2335 25.3227 30.303 25.1863 30.4102 25.0783C30.4176 25.0708 30.4249 25.0631 30.4319 25.0553L30.9139 24.5238C31.38 24.0463 31.5972 23.3695 31.4952 22.7095L31.3886 22.0201C31.3654 21.8697 31.3893 21.7185 31.4578 21.5827L31.7723 20.9601ZM30.5168 20.3263L30.2024 20.949C30.0009 21.3483 29.9304 21.7929 29.9987 22.235L30.1053 22.9245C30.1404 23.1508 30.0649 23.3831 29.9035 23.5456C29.896 23.5531 29.8888 23.5608 29.8816 23.5686L29.3998 24.1C29.0916 24.4155 28.8916 24.8119 28.8209 25.2477L28.7092 25.9363C28.6725 26.1624 28.529 26.36 28.3253 26.4647L27.7048 26.7838C27.3137 26.9849 26.9994 27.2961 26.7946 27.6845C26.7946 27.6845 26.4245 28.3128 26.4183 28.3249C26.3136 28.5286 26.116 28.6721 25.8899 28.7088L25.2013 28.8205C24.7597 28.8921 24.3586 29.0965 24.0411 29.4116L23.546 29.903C23.3834 30.0644 23.1511 30.1397 22.9248 30.1049L22.2354 29.9983C21.7933 29.93 21.3486 30.0004 20.9493 30.202L20.3266 30.5165C20.1221 30.6197 19.8779 30.6197 19.6734 30.5165L19.0506 30.202C18.7503 30.0504 18.4244 29.973 18.0932 29.973C17.984 29.973 17.8742 29.9814 17.7646 29.9983L17.0751 30.1049C16.8486 30.1398 16.6165 30.0644 16.454 29.9031L15.9589 29.4117C15.6414 29.0966 15.2403 28.8922 14.7988 28.8206L14.1101 28.7088C13.8635 28.6689 13.6324 28.5146 13.5348 28.325L13.2158 27.7045C13.0113 27.3068 12.6929 26.9884 12.2951 26.7839L11.6747 26.4649C11.4851 26.3673 11.3308 26.1361 11.2908 25.8896L11.1791 25.201C11.1075 24.7594 10.9031 24.3583 10.588 24.0408L10.0965 23.5456C9.93511 23.383 9.85968 23.1508 9.89466 22.9244L10.0012 22.235C10.0696 21.793 9.99915 21.3482 9.79752 20.9489L9.48311 20.3262C9.37983 20.1217 9.37983 19.8775 9.48311 19.673L9.79752 19.0503C9.9991 18.6509 10.0696 18.2063 10.0012 17.7643L9.89466 17.0748C9.85964 16.8484 9.93511 16.6162 10.0965 16.4536L10.5879 15.9585C10.9031 15.641 11.1075 15.2399 11.179 14.7984L11.2908 14.1097C11.3307 13.8631 11.485 13.632 11.6746 13.5344L12.295 13.2154C12.6928 13.0109 13.0112 12.6926 13.2157 12.2947L13.5348 11.6743C13.6323 11.4847 13.8635 11.3303 14.11 11.2904L14.7987 11.1787C15.2403 11.1071 15.6414 10.9027 15.9588 10.5876L16.4539 10.0962C16.6166 9.93476 16.8488 9.85948 17.0751 9.89431L17.7646 10.0009C18.2066 10.0692 18.6513 9.9988 19.0506 9.79722L19.6734 9.4828C19.8779 9.37953 20.1221 9.37962 20.3266 9.4828L20.9493 9.79722C21.3486 9.9988 21.7932 10.0692 22.2353 10.0009L22.9248 9.89431C23.1512 9.85952 23.3834 9.93476 23.5459 10.0961L24.041 10.5876C24.3585 10.9027 24.7596 11.1071 25.2012 11.1787L25.8898 11.2904C26.1364 11.3303 26.3676 11.4847 26.4651 11.6743L26.7841 12.2947C26.9852 12.6858 27.2964 13.0002 27.6849 13.205C27.6849 13.205 28.3131 13.575 28.3252 13.5812C28.5289 13.686 28.6724 13.8835 28.7091 14.1097L28.8208 14.7983C28.8924 15.2398 29.0968 15.641 29.4119 15.9584L29.9033 16.4535C30.0647 16.6161 30.1402 16.8483 30.1052 17.0747L29.9986 17.7642C29.9303 18.2063 30.0007 18.651 30.2023 19.0502L30.5167 19.673C30.6201 19.8775 30.6201 20.1217 30.5168 20.3263Z" fill="white"/>
<path d="M24.783 19.0786C24.9798 18.8984 25.0493 18.634 24.9644 18.3881C24.8793 18.1423 24.6576 17.9668 24.3853 17.9295L21.964 17.599C21.8609 17.5849 21.7718 17.5242 21.7258 17.4363L20.6433 15.3755C20.5217 15.1439 20.275 15 20.0001 15C19.7254 15 19.4787 15.1439 19.3571 15.3755L18.2744 17.4365C18.2284 17.5243 18.1391 17.5851 18.036 17.5992L15.6147 17.9297C15.3426 17.9668 15.1207 18.1425 15.0356 18.3883C14.9507 18.6342 15.0202 18.8986 15.217 19.0788L16.9689 20.683C17.0436 20.7515 17.0778 20.85 17.0602 20.9463L16.6469 23.2115C16.6103 23.4109 16.6659 23.6048 16.8033 23.7577C17.0168 23.996 17.3894 24.0687 17.6874 23.9216L19.8527 22.852C19.9432 22.8074 20.0572 22.8078 20.1475 22.852L22.313 23.9216C22.4184 23.9737 22.5307 24 22.6466 24C22.8583 24 23.0589 23.9116 23.1969 23.7577C23.3345 23.6048 23.3899 23.4105 23.3533 23.2115L22.9398 20.9463C22.9222 20.8498 22.9564 20.7515 23.0311 20.683L24.783 19.0786Z" fill="white"/>
</g>
<defs>
<filter id="filter0_b" x="-10" y="-10" width="60" height="60" filterUnits="userSpaceOnUse" color-interpolation-filters="sRGB">
<feFlood flood-opacity="0" result="BackgroundImageFix"/>
<feGaussianBlur in="BackgroundImage" stdDeviation="5"/>
<feComposite in2="SourceAlpha" operator="in" result="effect1_backgroundBlur"/>
<feBlend mode="normal" in="SourceGraphic" in2="effect1_backgroundBlur" result="shape"/>
</filter>
<clipPath id="clip0">
<rect width="24" height="24" fill="white" transform="translate(8 8)"/>
</clipPath>
</defs>
</svg>
