<svg width="18" height="23" viewBox="0 0 18 23" fill="none" xmlns="http://www.w3.org/2000/svg">
<path d="M12.2801 11.8571C12.2801 13.4308 10.9967 14.7143 9.42299 14.7143C7.84933 14.7143 6.56585 13.4308 6.56585 11.8571C6.56585 10.2835 7.84933 9 9.42299 9C10.9967 9 12.2801 10.2835 12.2801 11.8571ZM13.8203 11.8571C13.8203 9.42411 11.856 7.45982 9.42299 7.45982C6.98996 7.45982 5.02567 9.42411 5.02567 11.8571C5.02567 14.2902 6.98996 16.2545 9.42299 16.2545C11.856 16.2545 13.8203 14.2902 13.8203 11.8571ZM15.0257 7.28125C15.0257 6.71205 14.5681 6.25446 13.9989 6.25446C13.4297 6.25446 12.9721 6.71205 12.9721 7.28125C12.9721 7.85045 13.4297 8.30804 13.9989 8.30804C14.5681 8.30804 15.0257 7.85045 15.0257 7.28125ZM9.42299 4.82589C10.673 4.82589 13.3516 4.72545 14.4788 5.17187C14.8694 5.32812 15.1596 5.51786 15.4609 5.8192C15.7623 6.12054 15.952 6.41071 16.1083 6.80134C16.5547 7.92857 16.4542 10.6071 16.4542 11.8571C16.4542 13.1071 16.5547 15.7857 16.1083 16.9129C15.952 17.3036 15.7623 17.5938 15.4609 17.8951C15.1596 18.1964 14.8694 18.3862 14.4788 18.5424C13.3516 18.9888 10.673 18.8884 9.42299 18.8884C8.17299 18.8884 5.49442 18.9888 4.36719 18.5424C3.97656 18.3862 3.68638 18.1964 3.38504 17.8951C3.08371 17.5938 2.89397 17.3036 2.73772 16.9129C2.29129 15.7857 2.39174 13.1071 2.39174 11.8571C2.39174 10.6071 2.29129 7.92857 2.73772 6.80134C2.89397 6.41071 3.08371 6.12054 3.38504 5.8192C3.68638 5.51786 3.97656 5.32812 4.36719 5.17187C5.49442 4.72545 8.17299 4.82589 9.42299 4.82589ZM17.9944 11.8571C17.9944 10.6741 18.0056 9.50223 17.9386 8.3192C17.8717 6.94643 17.5592 5.72991 16.5547 4.72545C15.5502 3.72098 14.3337 3.40848 12.9609 3.34152C11.7779 3.27455 10.606 3.28571 9.42299 3.28571C8.23996 3.28571 7.06808 3.27455 5.88504 3.34152C4.51228 3.40848 3.29576 3.72098 2.29129 4.72545C1.28683 5.72991 0.97433 6.94643 0.907366 8.3192C0.840402 9.50223 0.851562 10.6741 0.851562 11.8571C0.851562 13.0402 0.840402 14.2121 0.907366 15.3951C0.97433 16.7679 1.28683 17.9844 2.29129 18.9888C3.29576 19.9933 4.51228 20.3058 5.88504 20.3728C7.06808 20.4397 8.23996 20.4286 9.42299 20.4286C10.606 20.4286 11.7779 20.4397 12.9609 20.3728C14.3337 20.3058 15.5502 19.9933 16.5547 18.9888C17.5592 17.9844 17.8717 16.7679 17.9386 15.3951C18.0056 14.2121 17.9944 13.0402 17.9944 11.8571Z" fill="white"/>
</svg>
