<svg width="52" height="2" viewBox="0 0 52 2" fill="none" xmlns="http://www.w3.org/2000/svg">
<path d="M50.4292 1.40471H41.2985C40.8771 1.40471 40.5962 1.12377 40.5962 0.702355C40.5962 0.280942 40.8771 0 41.2985 0H50.4292C50.8506 0 51.1315 0.280942 51.1315 0.702355C51.1315 1.12377 50.8506 1.40471 50.4292 1.40471Z" fill="#4E6C51"/>
<path d="M35.539 0.842971H16.4349C16.2944 0.842971 16.2944 0.702491 16.2944 0.702491C16.2944 0.56202 16.4349 0.562012 16.4349 0.562012H35.3985C35.539 0.562012 35.539 0.702491 35.539 0.702491C35.6794 0.702491 35.539 0.842971 35.539 0.842971Z" fill="#4E6C51"/>
<path d="M12.2209 0.140625H11.0972V1.26438H12.2209V0.140625Z" fill="#4E6C51"/>
<path d="M9.55199 0.140625H8.42822V1.26438H9.55199V0.140625Z" fill="#4E6C51"/>
<path d="M0.421412 0.421387H0V0.842782H0.421412V0.421387Z" fill="#4E6C51"/>
</svg>
