<svg width="141" height="689" viewBox="0 0 141 689" fill="none" xmlns="http://www.w3.org/2000/svg">
<path d="M35.9272 532.029H33.6797V534.277H35.9272V532.029Z" fill="#3D4A3F"/>
<path d="M70.6235 532.029H68.376V534.277H70.6235V532.029Z" fill="#3D4A3F"/>
<path d="M105.32 532.029H103.072V534.277H105.32V532.029Z" fill="#3D4A3F"/>
<path d="M140.016 532.029H137.769V534.277H140.016V532.029Z" fill="#3D4A3F"/>
<path d="M35.9272 573.047H33.6797V575.294H35.9272V573.047Z" fill="#3D4A3F"/>
<path d="M70.6235 573.047H68.376V575.294H70.6235V573.047Z" fill="#3D4A3F"/>
<path d="M105.32 573.047H103.072V575.294H105.32V573.047Z" fill="#3D4A3F"/>
<path d="M140.016 573.047H137.769V575.294H140.016V573.047Z" fill="#3D4A3F"/>
<path d="M35.9272 614.064H33.6797V616.312H35.9272V614.064Z" fill="#3D4A3F"/>
<path d="M70.6235 614.064H68.376V616.312H70.6235V614.064Z" fill="#3D4A3F"/>
<path d="M105.32 614.064H103.072V616.312H105.32V614.064Z" fill="#3D4A3F"/>
<path d="M140.016 614.064H137.769V616.312H140.016V614.064Z" fill="#3D4A3F"/>
<path d="M3.45937 0H2.47607V5.89978H3.45937V0Z" fill="#B6B1D9"/>
<path d="M5.8999 3.51162V2.52832L0.00012207 2.52832V3.51162L5.8999 3.51162Z" fill="#B6B1D9"/>
<path d="M6.46328 191.569H5.47998V197.469H6.46328V191.569Z" fill="#B6B1D9"/>
<path d="M8.8999 195.077V194.093H3.00013V195.077H8.8999Z" fill="#B6B1D9"/>
<path d="M3.48379 683H2.50049V688.9H3.48379V683Z" fill="#B6B1D9"/>
<path d="M5.8999 686.487V685.504H0.000104427V686.487H5.8999Z" fill="#B6B1D9"/>
<path d="M10.0237 233.851H3.14062V240.734H10.0237V233.851Z" fill="#B6B1D9"/>
<path d="M10.0237 394.409H3.14062V401.292H10.0237V394.409Z" fill="#B6B1D9"/>
<path d="M8.8997 416.604H4.26416V421.239H8.8997V416.604Z" fill="#B6B1D9"/>
<path d="M8.8997 506.224H4.26416V510.859H8.8997V506.224Z" fill="#B6B1D9"/>
<path d="M8.19763 278.099H4.9668V281.33H8.19763V278.099Z" fill="#B6B1D9"/>
<path d="M9.88308 283.296H3.28094C3.14047 283.296 3 283.156 3 283.015V276.413C3 276.273 3.14047 276.132 3.28094 276.132H9.88308C10.0235 276.132 10.164 276.273 10.164 276.413V283.015C10.0235 283.156 10.0235 283.296 9.88308 283.296ZM3.56188 282.875H9.74261V276.694H3.56188V282.875Z" fill="#B6B1D9"/>
<path d="M6.5119 276.694C6.37143 276.694 6.23096 276.554 6.23096 276.413V255.342C6.23096 255.202 6.37143 255.062 6.5119 255.062C6.65237 255.062 6.79284 255.202 6.79284 255.342V276.413C6.79284 276.554 6.65237 276.694 6.5119 276.694Z" fill="#B6B1D9"/>
<path d="M8.19763 376.991H4.9668V380.222H8.19763V376.991Z" fill="#B6B1D9"/>
<path d="M9.88308 382.047H3.28094C3.14047 382.047 3 381.907 3 381.766V375.164C3 375.024 3.14047 374.883 3.28094 374.883H9.88308C10.0235 374.883 10.164 375.024 10.164 375.164V381.766C10.0235 381.907 10.0235 382.047 9.88308 382.047ZM3.56188 381.626H9.74261V375.445H3.56188V381.626Z" fill="#B6B1D9"/>
<path d="M6.5119 375.446C6.37143 375.446 6.23096 375.305 6.23096 375.165V354.094C6.23096 353.953 6.37143 353.813 6.5119 353.813C6.65237 353.813 6.79284 353.953 6.79284 354.094V375.165C6.79284 375.446 6.65237 375.446 6.5119 375.446Z" fill="#B6B1D9"/>
</svg>
