<svg width="103" height="19" fill="none" xmlns="http://www.w3.org/2000/svg"><path d="M7.424 15.48c.6 0 1.104-.072 1.512-.216.408-.144.732-.336.972-.576.248-.24.424-.52.528-.84.112-.32.168-.66.168-1.02 0-.376-.06-.712-.18-1.008a1.85 1.85 0 00-.564-.768c-.256-.216-.588-.38-.996-.492-.4-.112-.884-.168-1.452-.168H4.16v5.088h3.264zM4.16 3.144V8.16h2.568c1.104 0 1.936-.2 2.496-.6.568-.4.852-1.036.852-1.908 0-.904-.256-1.548-.768-1.932-.512-.384-1.312-.576-2.4-.576H4.16zM6.908.648c1.136 0 2.108.108 2.916.324.808.216 1.468.524 1.98.924.52.4.9.884 1.14 1.452.24.568.36 1.208.36 1.92 0 .408-.06.8-.18 1.176a3.41 3.41 0 01-.564 1.044c-.248.32-.568.612-.96.876a5.683 5.683 0 01-1.38.672c2.384.536 3.576 1.824 3.576 3.864 0 .736-.14 1.416-.42 2.04a4.555 4.555 0 01-1.224 1.62c-.536.448-1.196.8-1.98 1.056S8.492 18 7.484 18H.932V.648h5.976zM31.233 9.3v7.02a9.29 9.29 0 01-2.82 1.428c-.992.296-2.056.444-3.192.444-1.416 0-2.7-.22-3.852-.66-1.144-.44-2.124-1.052-2.94-1.836a8.084 8.084 0 01-1.872-2.808c-.44-1.088-.66-2.276-.66-3.564 0-1.304.212-2.5.636-3.588a8.14 8.14 0 011.8-2.808c.784-.784 1.732-1.392 2.844-1.824 1.112-.432 2.36-.648 3.744-.648.704 0 1.36.056 1.968.168a9.451 9.451 0 011.704.468 7.093 7.093 0 011.44.708c.432.28.828.588 1.188.924l-.924 1.464c-.144.232-.332.376-.564.432-.232.048-.484-.012-.756-.18l-.792-.456a5.04 5.04 0 00-.888-.396 7.001 7.001 0 00-1.092-.276 7.936 7.936 0 00-1.392-.108c-.856 0-1.632.144-2.328.432-.688.288-1.276.7-1.764 1.236a5.571 5.571 0 00-1.128 1.932c-.264.752-.396 1.592-.396 2.52 0 .992.14 1.88.42 2.664.288.776.688 1.436 1.2 1.98.52.536 1.144.948 1.872 1.236.728.28 1.54.42 2.436.42.64 0 1.212-.068 1.716-.204.504-.136.996-.32 1.476-.552v-3.144h-2.184c-.208 0-.372-.056-.492-.168a.61.61 0 01-.168-.432V9.3h5.76z" fill="#B13C3C"/><path d="M37.783 3.216v5.136h6.504v2.58h-6.504V18h-3.24V.648h10.944v2.568h-7.704zM64.72 9.324c0 1.272-.212 2.452-.636 3.54a8.234 8.234 0 01-1.776 2.808 8.168 8.168 0 01-2.772 1.86c-1.08.44-2.28.66-3.6.66-1.312 0-2.508-.22-3.588-.66a8.298 8.298 0 01-2.784-1.86 8.386 8.386 0 01-1.788-2.808c-.424-1.088-.636-2.268-.636-3.54 0-1.272.212-2.448.636-3.528a8.36 8.36 0 011.788-2.82 8.152 8.152 0 012.784-1.848c1.08-.448 2.276-.672 3.588-.672.88 0 1.708.104 2.484.312.776.2 1.488.488 2.136.864.648.368 1.228.82 1.74 1.356.52.528.96 1.12 1.32 1.776.36.656.632 1.368.816 2.136a9.96 9.96 0 01.288 2.424zm-3.3 0c0-.952-.128-1.804-.384-2.556-.256-.76-.62-1.404-1.092-1.932a4.665 4.665 0 00-1.728-1.212c-.672-.28-1.432-.42-2.28-.42-.848 0-1.612.14-2.292.42a4.799 4.799 0 00-1.728 1.212c-.472.528-.836 1.172-1.092 1.932-.256.752-.384 1.604-.384 2.556s.128 1.808.384 2.568c.256.752.62 1.392 1.092 1.92.48.52 1.056.92 1.728 1.2.68.28 1.444.42 2.292.42.848 0 1.608-.14 2.28-.42a4.73 4.73 0 001.728-1.2c.472-.528.836-1.168 1.092-1.92.256-.76.384-1.616.384-2.568zm22.882 0c0 1.272-.212 2.452-.636 3.54a8.234 8.234 0 01-1.776 2.808 8.168 8.168 0 01-2.772 1.86c-1.08.44-2.28.66-3.6.66-1.312 0-2.508-.22-3.588-.66a8.298 8.298 0 01-2.784-1.86 8.386 8.386 0 01-1.788-2.808c-.424-1.088-.636-2.268-.636-3.54 0-1.272.212-2.448.636-3.528a8.36 8.36 0 011.788-2.82 8.152 8.152 0 012.784-1.848C73.011.68 74.207.456 75.52.456c.88 0 1.708.104 2.484.312.776.2 1.488.488 2.136.864.648.368 1.228.82 1.74 1.356.52.528.96 1.12 1.32 1.776.36.656.632 1.368.816 2.136a9.96 9.96 0 01.288 2.424zm-3.3 0c0-.952-.128-1.804-.384-2.556-.256-.76-.62-1.404-1.092-1.932A4.665 4.665 0 0077.8 3.624c-.672-.28-1.432-.42-2.28-.42-.848 0-1.612.14-2.292.42A4.799 4.799 0 0071.5 4.836c-.472.528-.836 1.172-1.092 1.932-.256.752-.384 1.604-.384 2.556s.128 1.808.384 2.568c.256.752.62 1.392 1.092 1.92.48.52 1.056.92 1.728 1.2.68.28 1.444.42 2.292.42.848 0 1.608-.14 2.28-.42a4.73 4.73 0 001.728-1.2c.472-.528.836-1.168 1.092-1.92.256-.76.384-1.616.384-2.568zm21.743 0c0 1.272-.212 2.44-.636 3.504a8.049 8.049 0 01-1.788 2.748c-.768.768-1.692 1.364-2.772 1.788-1.08.424-2.28.636-3.6.636h-6.612V.648h6.612c1.32 0 2.52.216 3.6.648 1.08.424 2.004 1.02 2.772 1.788a7.922 7.922 0 011.788 2.736c.424 1.064.636 2.232.636 3.504zm-3.312 0c0-.952-.128-1.804-.384-2.556-.248-.76-.612-1.4-1.092-1.92a4.665 4.665 0 00-1.728-1.212c-.672-.28-1.432-.42-2.28-.42h-3.372v12.216h3.372c.848 0 1.608-.14 2.28-.42a4.73 4.73 0 001.728-1.2c.48-.528.844-1.168 1.092-1.92.256-.76.384-1.616.384-2.568z" fill="#10D50C"/></svg>