<svg xmlns="http://www.w3.org/2000/svg" width="34" height="34" viewBox="0 0 34 34"><defs><clipPath id="qb09a"><path fill="#fff" d="M34.005 17.001c0 9.393-7.615 17.008-17.008 17.008C7.604 34.009-.011 26.394-.011 17-.01 7.61 7.604-.006 16.997-.006 26.39-.006 34.005 7.609 34.005 17zM16.399 20.56l2.921-2.923a.638.638 0 0 0 .124-.723.617.617 0 0 0-.167-.544l-2.86-2.86c-.246-.247-.27 7.301-.018 7.05z"/></clipPath></defs><g><g><path fill="none" stroke="#294564" stroke-miterlimit="20" stroke-width="2" d="M34.005 17.001c0 9.393-7.615 17.008-17.008 17.008C7.604 34.009-.011 26.394-.011 17-.01 7.61 7.604-.006 16.997-.006 26.39-.006 34.005 7.609 34.005 17zM16.399 20.56l2.921-2.923a.638.638 0 0 0 .124-.723.617.617 0 0 0-.167-.544l-2.86-2.86c-.246-.247-.27 7.301-.018 7.05z" clip-path="url(&quot;#qb09a&quot;)"/></g></g></svg>