<svg width="272" height="93" viewBox="0 0 272 93" fill="none" xmlns="http://www.w3.org/2000/svg">
<path d="M271.808 0H0V63.0417H102.539L120.77 44.8065H271.808V0Z" fill="#93FBA3"/>
<path d="M116.603 71.1169H111.915V65.1253L127.541 49.4951H271.808V54.4447H270.506V50.7976H128.062L113.217 65.6463V69.8144H116.603V71.1169Z" fill="#93FBA3"/>
<path d="M103.841 68.2518H0V69.5543H103.841V68.2518Z" fill="#93FBA3"/>
<path d="M128.843 52.8811L126.239 55.4861H128.843V52.8811Z" fill="#93FBA3"/>
<path d="M268.943 53.9242H265.558V54.7057H268.943V53.9242Z" fill="#93FBA3"/>
<path d="M268.943 57.3102H265.558V58.0917H268.943V57.3102Z" fill="#93FBA3"/>
<path d="M268.943 60.6962H265.558V61.4777H268.943V60.6962Z" fill="#93FBA3"/>
<path d="M268.943 64.0822H265.558V64.8638H268.943V64.0822Z" fill="#93FBA3"/>
<path d="M268.943 67.4708H265.558V68.2523H268.943V67.4708Z" fill="#93FBA3"/>
<path d="M40.8155 74.7644L58.7857 92.9996H66.8593L48.6286 74.7644H40.8155Z" fill="#93FBA3"/>
<path d="M53.3163 74.7644L71.547 92.9996H79.6206L61.1295 74.7644H53.3163Z" fill="#93FBA3"/>
<path d="M66.0779 74.7644L84.3085 92.9996H92.3821L73.891 74.7644H66.0779Z" fill="#93FBA3"/>
<path d="M78.8394 74.7644L96.8096 92.9996H104.883L86.6525 74.7644H78.8394Z" fill="#93FBA3"/>
</svg>
