<svg width="71" height="71" viewBox="0 0 71 71" fill="none" xmlns="http://www.w3.org/2000/svg">
<path d="M56.473 14.5424H52.2784V18.737H56.473V14.5424Z" fill="#93FBA3"/>
<path d="M52.2784 14.5424H48.0838V18.737H52.2784V14.5424Z" fill="#93FBA3"/>
<path d="M56.473 18.7368H52.2784V22.9314H56.473V18.7368Z" fill="#93FBA3"/>
<path d="M56.473 22.9314H52.2784V27.1261H56.473V22.9314Z" fill="#93FBA3"/>
<path d="M60.6676 27.1262H56.473V31.3208H60.6676V27.1262Z" fill="#93FBA3"/>
<path d="M60.6676 31.3208H56.473V35.5155H60.6676V31.3208Z" fill="#93FBA3"/>
<path d="M60.6676 35.5078H56.473V39.7024H60.6676V35.5078Z" fill="#93FBA3"/>
<path d="M60.6676 39.7022H56.473V43.8968H60.6676V39.7022Z" fill="#93FBA3"/>
<path d="M60.6676 43.8969H56.473V48.0915H60.6676V43.8969Z" fill="#93FBA3"/>
<path d="M56.473 48.0915L52.2784 48.0916V52.2862H56.473L56.473 48.0915Z" fill="#93FBA3"/>
<path d="M60.6676 52.2859H56.473V56.4806H60.6676V52.2859Z" fill="#93FBA3"/>
<path d="M60.6676 56.4806H56.473V60.6753H60.6676V56.4806Z" fill="#93FBA3"/>
<path d="M52.2784 52.2859H48.0838V56.4806H52.2784V52.2859Z" fill="#93FBA3"/>
<path d="M52.2784 56.4806H48.0838V60.6753H52.2784V56.4806Z" fill="#93FBA3"/>
<path d="M48.0838 48.0916H43.8892V52.2862H48.0838V48.0916Z" fill="#93FBA3"/>
<path d="M52.2784 43.8969H48.0838V48.0915L52.2784 48.0916V43.8969Z" fill="#93FBA3"/>
<path d="M43.8892 52.2859H39.6946V56.4806H43.8892V52.2859Z" fill="#93FBA3"/>
<path d="M43.8892 56.4806H39.6946V60.6753H43.8892V56.4806Z" fill="#93FBA3"/>
<path d="M39.6946 48.0916H35.5V52.2862H39.6946V48.0916Z" fill="#93FBA3"/>
<path d="M35.5076 52.2859H31.313V56.4806H35.5076V52.2859Z" fill="#93FBA3"/>
<path d="M31.313 56.4806L27.1184 56.4807V60.6753H31.313V56.4806Z" fill="#93FBA3"/>
<path d="M35.5076 48.0916H31.313V52.2862H35.5076V48.0916Z" fill="#93FBA3"/>
<path d="M22.9238 56.4807H18.7292V60.6753H22.9238V56.4807Z" fill="#93FBA3"/>
<path d="M22.9238 52.2859H18.7292V56.4807H22.9238V52.2859Z" fill="#93FBA3"/>
<path d="M18.7292 52.2859H14.5346V56.4806L18.7292 56.4807V52.2859Z" fill="#93FBA3"/>
<path d="M31.313 43.8969H27.1184V48.0915L31.313 48.0916V43.8969Z" fill="#93FBA3"/>
<path d="M27.1184 48.0915L22.9238 48.0916V52.2862H27.1184V48.0915Z" fill="#93FBA3"/>
<path d="M14.5347 56.4807H10.34V60.6753H14.5347V56.4807Z" fill="#93FBA3"/>
<path d="M14.5347 48.0916H10.34V52.2862H14.5347V48.0916Z" fill="#93FBA3"/>
<path d="M18.7292 43.8969H14.5346V48.0915H18.7292V43.8969Z" fill="#93FBA3"/>
<path d="M22.9238 39.7022H18.7292V43.8968H22.9238V39.7022Z" fill="#93FBA3"/>
<path d="M27.1184 35.5078H22.9238V39.7024H27.1184V35.5078Z" fill="#93FBA3"/>
<path d="M35.5076 35.5078H31.313V39.7024H35.5076V35.5078Z" fill="#93FBA3"/>
<path d="M31.313 31.3209H27.1184V35.5155H31.313V31.3209Z" fill="#93FBA3"/>
<path d="M39.6946 27.1262H35.5V31.3208H39.6946V27.1262Z" fill="#93FBA3"/>
<path d="M43.8892 31.3209L39.6946 31.3208L39.6946 35.5155H43.8892V31.3209Z" fill="#93FBA3"/>
<path d="M43.8892 39.7022H39.6946V43.8968H43.8892V39.7022Z" fill="#93FBA3"/>
<path d="M43.8892 43.8969H39.6946L39.6946 48.0916H43.8892V43.8969Z" fill="#93FBA3"/>
<path d="M35.5076 27.1262H31.313V31.3209L35.5076 31.3208V27.1262Z" fill="#93FBA3"/>
<path d="M43.8892 35.5078H39.6946V39.7024H43.8892V35.5078Z" fill="#93FBA3"/>
<path d="M52.2784 39.7022H48.0838V43.8968H52.2784V39.7022Z" fill="#93FBA3"/>
<path d="M52.2784 35.5078H48.0838V39.7024H52.2784V35.5078Z" fill="#93FBA3"/>
<path d="M52.2784 31.3209H48.0838V35.5155H52.2784V31.3209Z" fill="#93FBA3"/>
<path d="M52.2784 27.1262H48.0838V31.3209H52.2784V27.1262Z" fill="#93FBA3"/>
<path d="M48.0838 27.1262H43.8892V31.3209L48.0838 31.3208L48.0838 27.1262Z" fill="#93FBA3"/>
<path d="M48.0838 22.9315H43.8892V27.1261H48.0838V22.9315Z" fill="#93FBA3"/>
<path d="M43.8892 18.7368H39.6946V22.9314L43.8892 22.9315V18.7368Z" fill="#93FBA3"/>
<path d="M39.6946 18.7368H35.5V22.9314H39.6946V18.7368Z" fill="#93FBA3"/>
<path d="M35.5076 18.7368H31.313V22.9314H35.5076V18.7368Z" fill="#93FBA3"/>
<path d="M31.313 18.7368H27.1184V22.9314H31.313V18.7368Z" fill="#93FBA3"/>
<path d="M27.1184 22.9314L22.9238 22.9315V27.1261H27.1184V22.9314Z" fill="#93FBA3"/>
<path d="M22.9238 27.1262H18.7292V31.3208H22.9238V27.1262Z" fill="#93FBA3"/>
<path d="M18.7292 31.3208L14.5346 31.3209V35.5155H18.7292L18.7292 31.3208Z" fill="#93FBA3"/>
<path d="M14.5347 35.5078H10.34V39.7024H14.5347V35.5078Z" fill="#93FBA3"/>
<path d="M14.5347 22.9315H10.34V27.1261H14.5347V22.9315Z" fill="#93FBA3"/>
<path d="M18.7292 18.7368H14.5346V22.9314H18.7292V18.7368Z" fill="#93FBA3"/>
<path d="M22.9238 14.5424H18.7292V18.737H22.9238V14.5424Z" fill="#93FBA3"/>
<path d="M18.7292 10.3477H14.5346V14.5423L18.7292 14.5424L18.7292 10.3477Z" fill="#93FBA3"/>
<path d="M14.5347 14.5424H10.34V18.737H14.5347V14.5424Z" fill="#93FBA3"/>
<path d="M27.1184 10.3477H22.9238L22.9238 14.5424L27.1184 14.5423V10.3477Z" fill="#93FBA3"/>
<path d="M31.313 10.3477H27.1184V14.5423H31.313V10.3477Z" fill="#93FBA3"/>
<path d="M35.5076 10.3477H31.313V14.5423H35.5076V10.3477Z" fill="#93FBA3"/>
<path d="M39.6946 10.3477H35.5V14.5423H39.6946V10.3477Z" fill="#93FBA3"/>
<path d="M43.8892 10.3477H39.6946V14.5423H43.8892V10.3477Z" fill="#93FBA3"/>
<path d="M48.0838 10.3477H43.8892V14.5423H48.0838V10.3477Z" fill="#93FBA3"/>
<path d="M60.6676 10.3477H56.473L56.473 14.5424L60.6676 14.5423V10.3477Z" fill="#93FBA3"/>
<path d="M35.5076 39.7022H31.313V43.8968H35.5076V39.7022Z" fill="#93FBA3"/>
<path fill-rule="evenodd" clip-rule="evenodd" d="M65.8338 5.16616H5.17387V65.857H65.8338V5.16616ZM0 0V71H71V0H0Z" fill="#93FBA3"/>
</svg>
