<svg width="273" height="72" viewBox="0 0 273 72" fill="none" xmlns="http://www.w3.org/2000/svg">
<path d="M159.53 71.1169H155.103V69.8144H158.228V65.6463L143.383 50.7976H1.30215V54.4447H0V49.4951H144.164L159.53 65.1253V71.1169Z" fill="#93FBA3"/>
<path d="M142.602 52.8811L145.206 55.4861H142.602V52.8811Z" fill="#93FBA3"/>
<path d="M6.25079 53.9242H2.86505V54.7057H6.25079V53.9242Z" fill="#93FBA3"/>
<path d="M6.25079 57.3102H2.86505V58.0917H6.25079V57.3102Z" fill="#93FBA3"/>
<path d="M6.25079 60.6962H2.86505V61.4777H6.25079V60.6962Z" fill="#93FBA3"/>
<path d="M6.25079 64.0822H2.86505V64.8638H6.25079V64.0822Z" fill="#93FBA3"/>
<path d="M6.25079 67.4708H2.86505V68.2523H6.25079V67.4708Z" fill="#93FBA3"/>
<path d="M151.383 44.0995L151.09 43.8065H150.675H1V1H271.737V62.0422L169.32 62.0417L151.383 44.0995Z" fill="#0A0A0A" stroke="#93FBA3" stroke-width="2"/>
</svg>
