<svg width="273" height="72" viewBox="0 0 273 72" fill="none" xmlns="http://www.w3.org/2000/svg">
<path d="M159.793 71.1169H155.365V69.8144H158.491V65.6463L143.646 50.7976H1.56485V54.4447H0.262695V49.4951H144.427L159.793 65.1253V71.1169Z" fill="#93FBA3"/>
<path d="M142.864 52.8811L145.469 55.4861H142.864V52.8811Z" fill="#93FBA3"/>
<path d="M6.51349 53.9242H3.12775V54.7057H6.51349V53.9242Z" fill="#93FBA3"/>
<path d="M6.51349 57.3102H3.12775V58.0917H6.51349V57.3102Z" fill="#93FBA3"/>
<path d="M6.51349 60.6962H3.12775V61.4777H6.51349V60.6962Z" fill="#93FBA3"/>
<path d="M6.51349 64.0822H3.12775V64.8638H6.51349V64.0822Z" fill="#93FBA3"/>
<path d="M6.51349 67.4708H3.12775V68.2523H6.51349V67.4708Z" fill="#93FBA3"/>
<path d="M0.262695 0H273V63.0422L169.169 63.0417L150.938 44.8065H0.262695V0Z" fill="#93FBA3"/>
</svg>
