<svg width="1507" height="27" viewBox="0 0 1507 27" fill="none" xmlns="http://www.w3.org/2000/svg">
<path d="M1506.01 0.994141L0.0087902 0.994213L0.00878906 26.9942L1506.01 26.9941V0.994141ZM2.01672 24.9629L2.01672 3.02546L1504 3.02539V24.9629L2.01672 24.9629Z" fill="#3D4A3F"/>
<path d="M3.82385 22.9316H23.3009L5.63098 5.05669H3.82385L3.82385 22.9316Z" fill="#3D4A3F"/>
<path d="M26.3129 22.9316H33.3407L15.6708 5.05669H8.64295C14.4661 11.1504 20.2891 17.041 26.3129 22.9316Z" fill="#3D4A3F"/>
<path d="M36.3527 22.9316H43.3805L25.7105 5.05669H18.6826C24.5057 11.1504 30.3289 17.041 36.3527 22.9316Z" fill="#3D4A3F"/>
<path d="M46.3925 22.9316H53.4203L35.7502 5.05669H28.7224C34.5455 11.1504 40.5693 17.041 46.3925 22.9316Z" fill="#3D4A3F"/>
<path d="M56.4323 22.9316H63.46L45.79 5.05669L38.7622 5.05669C44.786 11.1504 50.6091 17.041 56.4323 22.9316Z" fill="#3D4A3F"/>
<path d="M66.673 22.9316H73.7008L56.0308 5.05669L49.0029 5.05669C54.826 11.1504 60.6492 17.041 66.673 22.9316Z" fill="#3D4A3F"/>
<path d="M76.7126 22.9316H83.7405L66.0706 5.05669L59.0427 5.05669C64.8658 11.1504 70.8895 17.041 76.7126 22.9316Z" fill="#3D4A3F"/>
<path d="M86.7524 22.9316L93.7803 22.9316L76.1102 5.05669L69.0825 5.05669C75.1063 11.1504 80.9293 17.041 86.7524 22.9316Z" fill="#3D4A3F"/>
<path d="M96.7922 22.9316H103.82L86.15 5.05669L79.1222 5.05669C85.146 11.1504 90.9691 17.041 96.7922 22.9316Z" fill="#3D4A3F"/>
<path d="M107.032 22.9316H114.06L96.3903 5.05669L89.3625 5.05669C95.1857 11.1504 101.009 17.041 107.032 22.9316Z" fill="#3D4A3F"/>
<path d="M117.072 22.9316H124.1L106.43 5.05669L99.4022 5.05669C105.225 11.1504 111.249 17.041 117.072 22.9316Z" fill="#3D4A3F"/>
<path d="M127.112 22.9316L134.14 22.9316L116.47 5.05669L109.442 5.05669C115.466 11.1504 121.289 17.041 127.112 22.9316Z" fill="#3D4A3F"/>
<path d="M137.152 22.9316H144.18L126.51 5.05669L119.482 5.05669C125.506 11.1504 131.329 17.041 137.152 22.9316Z" fill="#3D4A3F"/>
<path d="M147.392 22.9317H154.42L136.75 5.05671H129.723C135.546 11.1505 141.369 17.041 147.392 22.9317Z" fill="#3D4A3F"/>
<path d="M157.892 22.9375H164.92L147.25 5.06253H140.223C146.046 11.1563 151.869 17.0469 157.892 22.9375Z" fill="#3D4A3F"/>
<path d="M167.932 22.9375H174.96L157.29 5.06253H150.262C156.085 11.1563 161.908 17.0469 167.932 22.9375Z" fill="#3D4A3F"/>
<path d="M177.972 22.9375H185L167.33 5.06253H160.302C166.125 11.1563 172.149 17.0469 177.972 22.9375Z" fill="#3D4A3F"/>
<path d="M188.012 22.9375H195.04L177.37 5.06253H170.342C176.366 11.1563 182.189 17.0469 188.012 22.9375Z" fill="#3D4A3F"/>
<path d="M198.253 22.9375H205.28L187.61 5.06253L180.583 5.06253C186.406 11.1563 192.229 17.0469 198.253 22.9375Z" fill="#3D4A3F"/>
<path d="M208.292 22.9375H215.32L197.65 5.06253L190.622 5.06253C196.445 11.1563 202.469 17.0469 208.292 22.9375Z" fill="#3D4A3F"/>
<path d="M218.332 22.9375L225.36 22.9375L207.69 5.06253L200.662 5.06253C206.686 11.1563 212.509 17.0469 218.332 22.9375Z" fill="#3D4A3F"/>
<path d="M228.372 22.9375H235.4L217.73 5.06253L210.702 5.06253C216.726 11.1563 222.549 17.0469 228.372 22.9375Z" fill="#3D4A3F"/>
<path d="M238.612 22.9375H245.64L227.97 5.06253L220.942 5.06253C226.765 11.1563 232.588 17.0469 238.612 22.9375Z" fill="#3D4A3F"/>
<path d="M248.652 22.9375H255.68L238.01 5.06253L230.982 5.06253C236.805 11.1563 242.829 17.0469 248.652 22.9375Z" fill="#3D4A3F"/>
<path d="M258.692 22.9375L265.719 22.9375L248.049 5.06253L241.022 5.06253C247.045 11.1563 252.868 17.0469 258.692 22.9375Z" fill="#3D4A3F"/>
<path d="M268.731 22.9375H275.759L258.089 5.06253L251.061 5.06253C257.085 11.1563 262.908 17.0469 268.731 22.9375Z" fill="#3D4A3F"/>
<path d="M278.972 22.9375H286L268.33 5.06255L261.302 5.06255C267.125 11.1563 272.948 17.0469 278.972 22.9375Z" fill="#3D4A3F"/>
<path d="M289.67 22.9375H296.698L279.028 5.06249H272C277.823 11.1562 283.646 17.0468 289.67 22.9375Z" fill="#3D4A3F"/>
<path d="M299.71 22.9375H306.738L289.068 5.06249H282.04C287.863 11.1562 293.686 17.0468 299.71 22.9375Z" fill="#3D4A3F"/>
<path d="M309.75 22.9375H316.777L299.107 5.06249L292.079 5.06249C297.903 11.1562 303.926 17.0468 309.75 22.9375Z" fill="#3D4A3F"/>
<path d="M319.789 22.9375H326.817L309.147 5.0625L302.119 5.06249C308.143 11.1562 313.966 17.0468 319.789 22.9375Z" fill="#3D4A3F"/>
<path d="M330.03 22.9375H337.058L319.388 5.0625L312.36 5.0625C318.183 11.1562 324.006 17.0468 330.03 22.9375Z" fill="#3D4A3F"/>
<path d="M340.07 22.9375H347.098L329.428 5.0625L322.4 5.0625C328.223 11.1562 334.247 17.0468 340.07 22.9375Z" fill="#3D4A3F"/>
<path d="M350.109 22.9375L357.137 22.9375L339.467 5.0625L332.44 5.0625C338.463 11.1562 344.286 17.0468 350.109 22.9375Z" fill="#3D4A3F"/>
<path d="M360.149 22.9375H367.177L349.507 5.0625L342.479 5.0625C348.503 11.1562 354.326 17.0468 360.149 22.9375Z" fill="#3D4A3F"/>
<path d="M370.39 22.9375H377.417L359.747 5.0625L352.72 5.0625C358.543 11.1562 364.366 17.0468 370.39 22.9375Z" fill="#3D4A3F"/>
<path d="M380.429 22.9375H387.457L369.787 5.0625L362.759 5.0625C368.582 11.1562 374.606 17.0468 380.429 22.9375Z" fill="#3D4A3F"/>
<path d="M390.469 22.9375L397.497 22.9375L379.827 5.0625L372.799 5.0625C378.823 11.1562 384.646 17.0468 390.469 22.9375Z" fill="#3D4A3F"/>
<path d="M400.509 22.9375H407.537L389.867 5.0625H382.839C388.863 11.1562 394.686 17.0468 400.509 22.9375Z" fill="#3D4A3F"/>
<path d="M410.75 22.9375H417.777L400.107 5.06252H393.08C398.903 11.1563 404.726 17.0468 410.75 22.9375Z" fill="#3D4A3F"/>
<path d="M420.67 22.9375H427.698L410.028 5.06249H403C408.823 11.1562 414.646 17.0468 420.67 22.9375Z" fill="#3D4A3F"/>
<path d="M430.71 22.9375H437.738L420.068 5.06249H413.04C418.863 11.1562 424.686 17.0468 430.71 22.9375Z" fill="#3D4A3F"/>
<path d="M440.75 22.9375H447.777L430.107 5.06249L423.079 5.06249C428.903 11.1562 434.926 17.0468 440.75 22.9375Z" fill="#3D4A3F"/>
<path d="M450.789 22.9375H457.817L440.147 5.0625L433.119 5.06249C439.143 11.1562 444.966 17.0468 450.789 22.9375Z" fill="#3D4A3F"/>
<path d="M461.03 22.9375H468.058L450.388 5.0625L443.36 5.0625C449.183 11.1562 455.006 17.0468 461.03 22.9375Z" fill="#3D4A3F"/>
<path d="M471.07 22.9375H478.098L460.428 5.0625L453.4 5.0625C459.223 11.1562 465.247 17.0468 471.07 22.9375Z" fill="#3D4A3F"/>
<path d="M481.109 22.9375L488.137 22.9375L470.467 5.0625L463.44 5.0625C469.463 11.1562 475.286 17.0468 481.109 22.9375Z" fill="#3D4A3F"/>
<path d="M491.149 22.9375H498.177L480.507 5.0625L473.479 5.0625C479.503 11.1562 485.326 17.0468 491.149 22.9375Z" fill="#3D4A3F"/>
<path d="M501.39 22.9375H508.417L490.747 5.0625L483.72 5.0625C489.543 11.1562 495.366 17.0468 501.39 22.9375Z" fill="#3D4A3F"/>
<path d="M511.429 22.9375H518.457L500.787 5.0625L493.759 5.0625C499.582 11.1562 505.606 17.0468 511.429 22.9375Z" fill="#3D4A3F"/>
<path d="M521.469 22.9375L528.497 22.9375L510.827 5.0625L503.799 5.0625C509.823 11.1562 515.646 17.0468 521.469 22.9375Z" fill="#3D4A3F"/>
<path d="M531.509 22.9375H538.537L520.867 5.0625H513.839C519.863 11.1562 525.686 17.0468 531.509 22.9375Z" fill="#3D4A3F"/>
<path d="M541.75 22.9375H548.777L531.107 5.06252H524.08C529.903 11.1563 535.726 17.0468 541.75 22.9375Z" fill="#3D4A3F"/>
</svg>
