<svg width="25" height="25" viewBox="0 0 25 25" fill="none" xmlns="http://www.w3.org/2000/svg">
<g opacity="0.5">
<path d="M2 11.384C2 10.4891 2.39946 9.641 3.08936 9.07109L10.5894 2.87544C11.6984 1.95929 13.3016 1.95929 14.4106 2.87544L21.9106 9.07109C22.6005 9.641 23 10.4891 23 11.384V21C23 22.6569 21.6569 24 20 24H5C3.34315 24 2 22.6569 2 21V11.384Z" stroke="white" stroke-width="2"/>
<path d="M9.15206 10.5116C8.60619 10.4276 8.09561 10.8021 8.01163 11.3479C7.92765 11.8938 8.30208 12.4044 8.84794 12.4884L9.15206 10.5116ZM11.6418 11.9064L11.4897 12.8948L11.6418 11.9064ZM12.8582 11.9064L13.0103 12.8948L12.8582 11.9064ZM15.6521 12.4884C16.1979 12.4044 16.5724 11.8938 16.4884 11.3479C16.4044 10.8021 15.8938 10.4276 15.3479 10.5116L15.6521 12.4884ZM8.84794 12.4884L11.4897 12.8948L11.7938 10.9181L9.15206 10.5116L8.84794 12.4884ZM13.0103 12.8948L15.6521 12.4884L15.3479 10.5116L12.7062 10.9181L13.0103 12.8948ZM11.4897 12.8948C11.9936 12.9723 12.5064 12.9723 13.0103 12.8948L12.7062 10.9181C12.4038 10.9646 12.0962 10.9646 11.7938 10.9181L11.4897 12.8948Z" fill="white"/>
</g>
</svg>
