<svg width="17" height="17" viewBox="0 0 17 17" fill="none" xmlns="http://www.w3.org/2000/svg">
<path d="M15.0001 6.47619H10.5238V1.99993C10.5238 0.90019 9.60014 0 8.5 0C7.39986 0 6.47619 0.90019 6.47619 1.99993V6.47619H1.99993C0.90019 6.47619 0 7.39986 0 8.5C0 9.60014 0.90019 10.5238 1.99993 10.5238H6.47619V15.0001C6.47619 16.0998 7.39986 17 8.5 17C9.60014 17 10.5238 16.0998 10.5238 15.0001V10.5238H15.0001C16.0998 10.5238 17 9.60014 17 8.5C17 7.39986 16.0998 6.47619 15.0001 6.47619Z" fill="white"/>
</svg>
