<svg width="25" height="25" viewBox="0 0 25 25" fill="none" xmlns="http://www.w3.org/2000/svg">
<path opacity="0.5" d="M17.6855 11.8188C18.3574 10.8219 18.7501 9.6229 18.7501 8.33335V6.25C18.7501 2.80312 15.947 0 12.5001 0C9.05327 0 6.25015 2.80312 6.25015 6.25V8.33335C6.25015 9.62295 6.64287 10.8219 7.31475 11.8188C4.1939 13.6188 2.0835 16.9792 2.0835 20.8333V21.875C2.0835 23.5979 3.4856 25 5.2085 25H19.7918C21.5147 25 22.9168 23.5979 22.9168 21.875V20.8333C22.9168 16.9792 20.8064 13.6188 17.6855 11.8188ZM8.3335 6.25C8.3335 3.9521 10.2022 2.08335 12.5001 2.08335C14.798 2.08335 16.6668 3.9521 16.6668 6.25V8.33335C16.6668 10.6313 14.798 12.5 12.5001 12.5C10.2022 12.5 8.3335 10.6313 8.3335 8.33335V6.25ZM20.8335 21.875C20.8335 22.449 20.3658 22.9167 19.7918 22.9167H5.2085C4.63452 22.9167 4.16685 22.4489 4.16685 21.875V20.8333C4.16685 17.5636 6.0606 14.7292 8.8085 13.3656C9.84497 14.1271 11.1189 14.5833 12.5001 14.5833C13.8814 14.5833 15.1554 14.1271 16.1918 13.3656C18.9397 14.7291 20.8334 17.5635 20.8334 20.8333V21.875H20.8335Z" fill="white"/>
</svg>
