<svg width="18" height="18" viewBox="0 0 18 18" fill="none" xmlns="http://www.w3.org/2000/svg">
<path d="M16.3929 7.39286H10.9286C10.7511 7.39286 10.6071 7.24894 10.6071 7.07143V1.60714C10.6071 0.719604 9.88754 0 9 0C8.11246 0 7.39286 0.719604 7.39286 1.60714V7.07143C7.39286 7.24894 7.24894 7.39286 7.07143 7.39286H1.60714C0.719604 7.39286 0 8.11246 0 9C0 9.88754 0.719604 10.6071 1.60714 10.6071H7.07143C7.24894 10.6071 7.39286 10.7511 7.39286 10.9286V16.3929C7.39286 17.2804 8.11246 18 9 18C9.88754 18 10.6071 17.2804 10.6071 16.3929V10.9286C10.6071 10.7511 10.7511 10.6071 10.9286 10.6071H16.3929C17.2804 10.6071 18 9.88754 18 9C18 8.11246 17.2804 7.39286 16.3929 7.39286Z" fill="#181A1D"/>
</svg>
