<svg width="40" height="40" fill="none" xmlns="http://www.w3.org/2000/svg"><g clip-path="url(#clip0)" fill="#EBA63F"><path d="M31.81 15.776h-.056a3.085 3.085 0 00-2.079.79c-.462-1.278-1.636-2.197-3.01-2.197a3.124 3.124 0 00-2.232.96c-.537-1.087-1.614-1.824-2.852-1.824h-.06a2.928 2.928 0 00-1.836.612V6.369c0-1.873-1.458-3.396-3.231-3.396-1.772 0-3.222 1.522-3.223 3.393l-.015 15.373-.87-1.056a4.388 4.388 0 00-3.1-1.629A4.318 4.318 0 006.01 20.2l-.757.627a.673.673 0 00-.168.829l7.36 14.147C13.792 38.387 16.352 40 19.128 40h8.295v-.007c4.205 0 7.615-3.65 7.62-8.13 0-2.005-.007-3.5-.005-4.71.004-3.24 0-4.436-.008-8.006-.004-1.868-1.451-3.37-3.22-3.37zm1.872 11.372l-.005 4.716c-.004 3.74-2.827 6.79-6.294 6.79H19.13c-2.273 0-4.376-1.336-5.489-3.474l-7.11-13.66.35-.293c.01-.007.018-.016.027-.023a2.987 2.987 0 012.243-.806 3.053 3.053 0 012.154 1.14l2.06 2.507a.672.672 0 001.192-.427l.012-17.25c0-1.13.855-2.048 1.885-2.048s1.885.92 1.885 2.05v10.4l-.002.11.002.047v4.447a.673.673 0 001.346 0v-4.58c0-1.09.832-1.942 1.836-1.942h.06c1.03 0 1.889.899 1.889 2.029v4.069a.673.673 0 001.345 0v-3.193c0-1.13.817-2.05 1.854-2.05 1.03 0 1.847.92 1.847 2.05v3.012a.673.673 0 001.346 0v-1.63c0-1.131.861-2.016 1.892-2.016h.056c1.029 0 1.867.9 1.87 2.027.008 3.567.006 4.761.002 8z"/><path d="M11.094 6.66a.673.673 0 00.672-.674 4.663 4.663 0 019.326 0 .673.673 0 001.346 0 6.009 6.009 0 00-12.017 0c0 .372.301.673.673.673z"/></g><defs><clipPath id="clip0"><path fill="#fff" d="M0 0h40v40H0z"/></clipPath></defs></svg>