<?xml version="1.0" encoding="UTF-8"?> <!-- Generator: Adobe Illustrator 25.4.1, SVG Export Plug-In . SVG Version: 6.00 Build 0) --> <svg xmlns="http://www.w3.org/2000/svg" xmlns:xlink="http://www.w3.org/1999/xlink" version="1.1" id="Layer_1" x="0px" y="0px" width="596.2px" height="64.3px" viewBox="0 0 596.2 64.3" style="enable-background:new 0 0 596.2 64.3;" xml:space="preserve"> <style type="text/css"> .st0{fill:#231F20;} </style> <g> <g> <path class="st0" d="M0,62.8V1.2h4.8v28.1L34.7,1.2h5.7v0.5l-31,29l33.8,31.8v0.3h-6L4.8,32.5v30.3C4.8,62.8,0,62.8,0,62.8z"></path> <path class="st0" d="M49.6,62.8V1.2h4.8v61.6H49.6z"></path> <path class="st0" d="M65.9,5.4V1.3h49.2v4.1H92.9v57.4h-4.8V5.4H65.9z"></path> <path class="st0" d="M120.8,32.4c0-0.1,0-0.2,0-0.3c0-3.2,0.4-6.3,1.2-9.3c0.8-3.1,2.1-6,3.8-8.7s3.9-5,6.3-7s5.4-3.6,8.9-4.7 c3.5-1.2,7.3-1.7,11.4-1.7c4.1,0,8.1,0.8,12.1,2.3c3.9,1.6,7.4,3.8,10.4,6.8l-3.3,2.8c-2.6-2.6-5.5-4.5-8.9-5.9s-6.8-2-10.3-2 s-6.7,0.5-9.7,1.4c-3,1-5.5,2.3-7.6,4s-3.9,3.7-5.4,6s-2.6,4.8-3.3,7.5c-0.7,2.6-1,5.3-1,8.2c0,0.1,0,0.2,0,0.3 c0.1,3.7,0.7,7.1,1.8,10.3c1.2,3.2,2.9,6.1,5.1,8.6c2.2,2.5,5,4.5,8.5,5.9s7.4,2.2,11.7,2.2c3.6,0,7-0.7,10.3-2s6.3-3.3,8.9-5.8 l3.2,3c-3,3-6.5,5.3-10.4,6.9s-7.9,2.4-12.1,2.4c-4,0-7.8-0.5-11.2-1.6c-3.5-1.1-6.4-2.6-8.9-4.5s-4.6-4.2-6.3-6.8 s-3.1-5.5-3.9-8.5C121.3,38.9,120.8,35.7,120.8,32.4z"></path> <path class="st0" d="M186.1,62.8V1.2h4.8v29.3h39.2V1.2h4.8v61.6h-4.8V35h-39.3v27.9L186.1,62.8L186.1,62.8z"></path> <path class="st0" d="M248.4,62.8V1.2h42.5v4.4h-37.7v23.9h36v4.4h-36v24.4H292v4.4L248.4,62.8L248.4,62.8z"></path> <path class="st0" d="M304.3,62.8V1.2h2l41.5,51v-51h4.6v61.6h-1.8l-41.5-50.9v50.9C309.1,62.8,304.3,62.8,304.3,62.8z"></path> <path class="st0" d="M419.1,55.1c-6.3,6.2-14.5,9.2-23.4,9.2c-22.9,0-32.6-15.8-32.7-31.8C362.9,16.4,373.4,0,395.7,0 c8.4,0,16.3,3.2,22.6,9.4l-7.7,7.5c-4-4-9.5-5.8-14.9-5.8c-14.9,0-21.3,11.1-21.2,21.4c0.1,10.2,6,20.9,21.2,20.9 c5.4,0,11.4-2.2,15.5-6.2L419.1,55.1z"></path> <path class="st0" d="M478.8,1.3v35.3c0,18.2-11.2,27.5-26.7,27.5c-14.8,0-27.4-9-27.4-27.5V1.3h11.5v35.3c0,11.1,6.3,17,15.9,17 c9.6,0,15.1-6.4,15.1-17V1.3H478.8z"></path> <path class="st0" d="M540.2,19.1c0,4.8-2.3,9.3-8,11.9c7.2,2.2,9.9,9.9,9.9,13.7c0,13.7-10.3,18.1-23.1,18.1c-9.8,0-19.4,0-29.2,0 V1.2c9.7,0,19.5,0,29.2,0C531.1,1.2,540.2,6.7,540.2,19.1z M501.2,26H519c7.3,0,9.7-3.1,9.7-6.6c0-2.8-2.3-7.6-9.7-7.6h-17.8V26z M501.2,52H519c4.8,0,11.5-1.6,11.5-7.4c0-5.5-6.8-8.4-11.5-8.4h-17.8V52z"></path> <path class="st0" d="M596.2,62.8h-46.1c0-20.5,0-41.1,0-61.6h46.1v11.3h-34.6v14.2H595v10.8h-33.4v13.9h34.6V62.8z"></path> </g> </g> </svg> 