<svg xmlns="http://www.w3.org/2000/svg" width="34" height="34" viewBox="0 0 34 34"><defs><clipPath id="ovc2a"><path fill="#fff" d="M34.004 17.001c0 9.393-7.614 17.008-17.007 17.008S-.011 26.394-.011 17C-.01 7.608 7.604-.006 16.997-.006 26.39-.006 34.004 7.608 34.004 17zM16.4 20.558l2.921-2.922a.638.638 0 0 0 .124-.723.617.617 0 0 0-.167-.544l-2.86-2.86c-.246-.247-.27 7.301-.018 7.05z"/></clipPath></defs><g><g><path fill="none" stroke="#915135" stroke-miterlimit="20" stroke-width="2" d="M34.004 17.001c0 9.393-7.614 17.008-17.007 17.008S-.011 26.394-.011 17C-.01 7.608 7.604-.006 16.997-.006 26.39-.006 34.004 7.608 34.004 17zM16.4 20.558l2.921-2.922a.638.638 0 0 0 .124-.723.617.617 0 0 0-.167-.544l-2.86-2.86c-.246-.247-.27 7.301-.018 7.05z" clip-path="url(&quot;#ovc2a&quot;)"/></g></g></svg>