<svg xmlns="http://www.w3.org/2000/svg" width="34" height="34" viewBox="0 0 34 34"><defs><clipPath id="r51ga"><path fill="#fff" d="M17.003-.006C26.396-.006 34.01 7.608 34.01 17S26.396 34.01 17.003 34.01C7.609 34.009-.005 26.394-.005 17c0-9.393 7.614-17.007 17.008-17.007zM18.58 13.51l-2.859 2.86a.619.619 0 0 0-.167.543.637.637 0 0 0 .124.723l2.921 2.922c.253.252.229-7.296-.019-7.048z"/></clipPath></defs><g><g><path fill="none" stroke="#915135" stroke-miterlimit="20" stroke-width="2" d="M17.003-.006C26.396-.006 34.01 7.608 34.01 17S26.396 34.01 17.003 34.01C7.609 34.009-.005 26.394-.005 17c0-9.393 7.614-17.007 17.008-17.007zM18.58 13.51l-2.859 2.86a.619.619 0 0 0-.167.543.637.637 0 0 0 .124.723l2.921 2.922c.253.252.229-7.296-.019-7.048z" clip-path="url(&quot;#r51ga&quot;)"/></g></g></svg>