<svg width="20" height="20" viewBox="0 0 20 20" fill="none" xmlns="http://www.w3.org/2000/svg">
<g clip-path="url(#clip0)">
<path d="M17.1082 8.39268C17.1322 5.57293 14.7306 2.98796 11.7546 2.63051C11.6954 2.62349 11.631 2.61281 11.5627 2.6015C11.4154 2.57709 11.263 2.552 11.1093 2.552C10.4994 2.552 10.3363 2.98045 10.2934 3.23598C10.2516 3.48442 10.2915 3.69306 10.4115 3.85635C10.6135 4.13101 10.9689 4.17977 11.2544 4.21883C11.338 4.23039 11.417 4.24113 11.4831 4.25598C14.1569 4.85343 15.0572 5.79275 15.4972 8.4438C15.5079 8.50858 15.5128 8.5884 15.5179 8.67306C15.5371 8.98995 15.5771 9.64927 16.2859 9.64927H16.286C16.345 9.64927 16.4084 9.64418 16.4744 9.63411C17.1345 9.5338 17.1138 8.93113 17.1039 8.64157C17.1011 8.56001 17.0984 8.48287 17.1053 8.43157C17.1072 8.41865 17.1081 8.40567 17.1082 8.39268Z" fill="#804097"/>
<path d="M10.9364 1.59553C11.0156 1.60124 11.0905 1.60671 11.153 1.61627C15.5436 2.29149 17.5628 4.37174 18.1223 8.79671C18.1318 8.87192 18.1333 8.96366 18.1349 9.06081C18.1405 9.40652 18.152 10.1257 18.9243 10.1406L18.9483 10.1409C19.1905 10.1409 19.3832 10.0678 19.521 9.9236C19.7615 9.67211 19.7447 9.29851 19.7312 8.99826C19.7279 8.92459 19.7247 8.85522 19.7255 8.79447C19.7813 4.26888 15.8639 0.165093 11.3424 0.0124845C11.3236 0.0118634 11.3057 0.0128571 11.2877 0.0154037C11.2788 0.0167081 11.2623 0.018323 11.2341 0.018323C11.189 0.018323 11.1336 0.0144099 11.0748 0.0104348C11.0036 0.00559006 10.923 0 10.8413 0C10.1212 0 9.98432 0.511801 9.9668 0.816894C9.92643 1.52199 10.6085 1.57161 10.9364 1.59553Z" fill="#804097"/>
<path d="M17.9104 14.5157C17.817 14.4444 17.7205 14.3706 17.6301 14.2978C17.1507 13.912 16.6407 13.5565 16.1475 13.2125C16.0451 13.1412 15.9428 13.0699 15.8408 12.9983C15.209 12.5545 14.641 12.3389 14.1043 12.3389C13.3815 12.3389 12.7514 12.7383 12.2312 13.5258C12.0008 13.8749 11.7212 14.0447 11.3767 14.0447C11.173 14.0447 10.9415 13.9865 10.6887 13.8718C8.64943 12.947 7.19322 11.5291 6.36048 9.65751C5.95794 8.75291 6.08843 8.16161 6.79688 7.68037C7.19918 7.40732 7.948 6.899 7.89496 5.92559C7.83489 4.82018 5.39589 1.49416 4.36825 1.11639C3.93315 0.956394 3.47601 0.954903 3.00707 1.11267C1.8257 1.50981 0.977936 2.20726 0.555203 3.1295C0.146694 4.02062 0.165141 5.06695 0.608557 6.1554C1.89042 9.30236 3.69266 12.0461 5.96539 14.3102C8.18999 16.5266 10.9242 18.3422 14.092 19.7062C14.3776 19.8291 14.6771 19.8961 14.8958 19.945C14.9703 19.9617 15.0346 19.976 15.0815 19.9889C15.1073 19.9959 15.1339 19.9997 15.1605 19.9999L15.1856 20.0001C15.1856 20.0001 15.1856 20.0001 15.1857 20.0001C16.6756 20.0001 18.4646 18.6386 19.0141 17.0864C19.4955 15.7273 18.6166 15.0555 17.9104 14.5157Z" fill="#804097"/>
<path d="M11.5956 5.19036C11.3405 5.19682 10.8096 5.20999 10.6233 5.75067C10.5362 6.00334 10.5466 6.22272 10.6544 6.40272C10.8125 6.66682 11.1155 6.74775 11.3911 6.79216C12.3905 6.95254 12.9038 7.50521 13.0065 8.53129C13.0542 9.00974 13.3764 9.34384 13.79 9.34384H13.7901C13.8207 9.34384 13.8519 9.34204 13.883 9.33825C14.3805 9.27906 14.6217 8.91353 14.5999 8.25192C14.6079 7.56142 14.2465 6.77751 13.6319 6.1531C13.0152 5.52676 12.2718 5.17403 11.5956 5.19036Z" fill="#804097"/>
</g>
<defs>
<clipPath id="clip0">
<rect width="20" height="20" fill="white"/>
</clipPath>
</defs>
</svg>
