<svg width="15" height="8" fill="none" xmlns="http://www.w3.org/2000/svg"><path d="M12.447 4.587c-.242-.28-.173-.404 0-.654.003-.003 2.005-2.532 2.212-3.39.103-.313 0-.543-.495-.543h-1.64c-.417 0-.61.197-.713.418 0 0-.835 1.827-2.016 3.012-.382.342-.558.452-.766.452-.102 0-.262-.11-.262-.423V.542C8.767.167 8.65 0 8.305 0h-2.58c-.261 0-.417.175-.417.338 0 .355.591.437.652 1.437v2.17c0 .475-.094.562-.304.562-.557 0-1.91-1.834-2.712-3.934C2.782.165 2.624 0 2.204 0H.562C.094 0 0 .198 0 .418c0 .39.558 2.328 2.593 4.888C3.949 7.053 5.859 8 7.597 8c1.044 0 1.171-.21 1.171-.572 0-1.67-.094-1.827.43-1.827.242 0 .66.11 1.634.952C11.947 7.553 12.13 8 12.754 8h1.64c.467 0 .704-.21.568-.625-.312-.873-2.42-2.668-2.515-2.788z" fill="#5181B8"/></svg>